<svg width="48" height="48" viewBox="0 0 48 48" fill="none" xmlns="http://www.w3.org/2000/svg">
<circle cx="24" cy="24" r="24" fill="#981C1F"/>
<g clip-path="url(#clip0_2685_9032)">
<path d="M21.7933 11.1323L16.9302 11.7309C16.5194 11.7805 16.2254 12.1559 16.275 12.5668L18.1841 28.1264C18.2337 28.5372 18.6091 28.8312 19.02 28.7816L19.8771 28.6754L21.7933 11.1323Z" fill="white"/>
<path d="M18.0991 29.9363C17.6882 29.9859 17.3127 29.6955 17.2632 29.281L15.602 15.751L13.1687 16.3566C12.7649 16.4558 12.5205 16.8667 12.6197 17.2669L16.4131 32.4794C16.5123 32.8832 16.9231 33.1276 17.3234 33.0284L19.4591 32.5396L19.7638 29.7557L18.1026 29.9398L18.0991 29.9363Z" fill="white"/>
<path d="M19.3066 35.1253L19.4377 33.6165L16.5368 34.2257C16.1331 34.3248 15.7258 34.0804 15.6266 33.6767L12.3751 20.6318L9.48136 21.744C9.09529 21.8928 8.90048 22.3284 9.04925 22.7145L14.6667 37.3496C14.8155 37.7357 15.2511 37.9305 15.6372 37.7817L21.0563 35.8797L19.8662 35.8443C19.4802 35.8443 19.2677 35.5645 19.3031 35.1288L19.3066 35.1253Z" fill="white"/>
<path d="M31.6634 34.2396L29.0318 24.6729C29.0318 24.5631 28.9326 24.4887 28.8051 24.4887H26.857C26.726 24.4887 26.6304 24.5985 26.6304 24.7473L25.5926 34.0944C25.5607 34.4982 25.2986 34.7567 24.9763 34.7567H20.8854C20.5276 34.7567 20.3328 34.4982 20.3647 34.0944L23.0247 9.66234C23.0566 9.25856 23.3187 9 23.6729 9H32.8287C37.0188 9 39.4202 12.2019 38.9314 16.9835C38.5737 20.2597 36.8204 22.7603 34.288 23.8264C34.1569 23.9008 34.0932 24.0106 34.125 24.1948L37.1109 33.981C37.2419 34.4238 36.9798 34.7532 36.5902 34.7532H32.2726C31.9468 34.7532 31.752 34.6044 31.6563 34.2396H31.6634ZM27.7319 14.4829L27.1794 19.562C27.1475 19.7107 27.2431 19.8205 27.3742 19.8205H30.8169C32.3753 19.8205 33.5442 18.7154 33.7071 17.0614C33.9019 15.3683 32.9916 14.2278 31.4013 14.2278H27.9586C27.8594 14.2278 27.7319 14.3376 27.7319 14.4864V14.4829Z" fill="white"/>
</g>
<defs>
<clipPath id="clip0_2685_9032">
<rect width="30" height="28.8311" fill="white" transform="translate(9 9)"/>
</clipPath>
</defs>
</svg>
