<svg width="93" height="120" viewBox="0 0 93 120" fill="none" xmlns="http://www.w3.org/2000/svg">
<path d="M77.142 70.8721V105.937C76.9958 105.937 76.8287 105.916 76.6825 105.895C74.9909 105.666 73.2992 105.415 71.5867 105.185C70.0621 104.976 68.5167 104.768 66.9921 104.538C65.1334 104.287 63.2956 104.016 61.4368 103.765C59.9123 103.556 58.3877 103.347 56.8631 103.139C55.2968 102.93 53.7305 102.7 52.1641 102.47C50.744 102.261 49.3447 102.073 47.9246 101.886C47.298 101.802 46.6506 101.698 46.0241 101.698C45.3976 101.698 44.771 101.865 44.1445 101.948C42.6199 102.157 41.0745 102.387 39.5499 102.596C37.8374 102.825 36.1249 103.076 34.4332 103.306C32.9086 103.515 31.3841 103.744 29.8595 103.953C27.9799 104.225 26.1212 104.475 24.2416 104.726C22.8423 104.914 21.4639 105.123 20.0647 105.311C18.6863 105.499 17.3288 105.686 15.9504 105.895C15.4492 105.979 15.4492 105.979 15.4492 105.478C15.4492 96.3094 15.4492 87.1202 15.4492 77.9519C15.4492 75.6964 15.4492 73.4409 15.4492 71.1853C15.4492 70.9556 15.491 70.8721 15.7416 70.8721C21.3804 70.8721 27.0401 70.8721 32.6789 70.8721C32.9713 70.8721 33.2846 70.9347 33.5769 71.06C37.1691 72.5846 40.9074 73.4409 44.8128 73.6079C46.8386 73.6915 48.8435 73.6079 50.8484 73.3156C53.6678 72.9187 56.3828 72.146 59.0142 71.0391C59.2649 70.9347 59.5572 70.8721 59.8496 70.8721C65.4049 70.8721 70.981 70.8721 76.5363 70.8721C76.7452 70.8721 76.954 70.8721 77.142 70.8721ZM25.8706 82.1915C25.8706 82.1915 26.0376 82.0662 26.1212 82.0035C27.1028 81.2934 27.5204 80.0195 27.1654 78.8708C26.8104 77.7222 25.7453 76.9077 24.534 76.8868C23.0512 76.8868 21.5475 76.8868 20.0647 76.8868C19.8141 76.8868 19.7097 76.9912 19.7097 77.221C19.7097 77.3463 19.7097 77.4716 19.7097 77.5969C19.7097 79.6853 19.7097 81.7738 19.7097 83.8622C19.7097 84.3008 19.7097 84.7185 19.7097 85.1571C19.7097 85.4077 19.8141 85.5121 20.0647 85.5121C20.545 85.5121 21.0254 85.5121 21.5057 85.5121C21.9025 85.5121 21.9652 85.4494 21.9652 85.0526C21.9652 84.3217 21.9652 83.5907 21.9652 82.8598C21.9652 82.63 22.0487 82.5465 22.2784 82.5674C22.5499 82.5674 22.8214 82.5674 23.0721 82.5674C23.2809 82.5674 23.4062 82.63 23.5315 82.7971C24.1163 83.6325 24.7219 84.447 25.3485 85.2615C25.4529 85.3868 25.6408 85.5121 25.787 85.5121C26.4345 85.533 27.1028 85.5121 27.7711 85.5121C27.8755 85.5121 28.0217 85.4494 28.0843 85.3659C28.1261 85.3032 28.0634 85.1571 28.0008 85.0735C27.7711 84.7394 27.5204 84.4261 27.2907 84.1128C26.8313 83.4863 26.3509 82.8389 25.8706 82.1915ZM61.8128 82.1915C61.8128 82.1915 61.9172 82.1079 61.959 82.087C63.0449 81.3143 63.4835 80.0821 63.0867 78.8708C62.7526 77.8057 61.7083 76.8868 60.3091 76.9077C58.8889 76.9077 57.4479 76.9077 56.0278 76.9077C55.7563 76.9077 55.6518 76.9912 55.6518 77.2836C55.6518 79.915 55.6518 82.5256 55.6518 85.1571C55.6518 85.4494 55.7771 85.533 56.0486 85.533C56.529 85.533 57.0093 85.533 57.4897 85.533C57.8447 85.533 57.9074 85.4703 57.9074 85.0944C57.9074 84.3634 57.9074 83.6116 57.9074 82.8806C57.9074 82.6718 57.97 82.5883 58.1789 82.5883C58.4504 82.5883 58.7219 82.5883 58.9725 82.5883C59.2022 82.5883 59.3484 82.6509 59.4737 82.8389C60.0585 83.6534 60.6641 84.4679 61.2698 85.2824C61.3533 85.3868 61.4995 85.533 61.6248 85.533C62.3349 85.5539 63.0449 85.533 63.755 85.533C64.0474 85.533 64.1101 85.3659 63.943 85.1153C63.7759 84.8647 63.5879 84.6349 63.4209 84.3843C62.8779 83.6534 62.3558 82.9433 61.7919 82.1915H61.8128ZM70.626 93.5944C70.7513 93.49 70.8766 93.4064 70.981 93.3229C71.8582 92.6546 72.2341 91.4224 71.9208 90.3155C71.6076 89.2713 70.6051 88.3733 69.5609 88.3315C67.9737 88.2688 66.3865 88.2897 64.8201 88.2897C64.5904 88.2897 64.486 88.3733 64.486 88.6239C64.486 91.2762 64.486 93.9076 64.486 96.56C64.486 96.7897 64.5695 96.8941 64.8201 96.8941C65.3214 96.8941 65.8017 96.8941 66.3029 96.8941C66.7206 96.8941 66.7624 96.8524 66.7624 96.4347C66.7624 95.7246 66.7624 94.9936 66.7624 94.2836C66.7624 94.0747 66.825 93.9912 67.0339 93.9912C67.3054 93.9912 67.5978 93.9912 67.8693 93.9912C68.0781 93.9912 68.2034 94.0538 68.3287 94.2209C68.9135 95.0354 69.5191 95.8499 70.1248 96.6644C70.2083 96.7688 70.3336 96.8941 70.4589 96.8941C71.1899 96.8941 71.9208 96.8941 72.6518 96.8941C72.8815 96.8941 72.9651 96.7479 72.8189 96.5391C72.6936 96.3511 72.5474 96.1632 72.4221 95.9961C71.8373 95.2025 71.2525 94.4089 70.6469 93.5944H70.626ZM27.3743 92.6128C27.3743 91.318 27.3743 90.0231 27.3743 88.7283C27.3743 88.3524 27.3325 88.3106 26.9566 88.2897C26.4762 88.2897 26.0168 88.2897 25.5364 88.2897C25.1605 88.2897 25.1187 88.3524 25.1187 88.7283C25.1187 89.5428 25.1187 90.3782 25.1187 91.1927C25.1187 91.4433 25.0561 91.5268 24.7846 91.5268C23.9701 91.5268 23.1347 91.5268 22.3202 91.5268C22.0696 91.5268 21.9861 91.4433 21.9861 91.1927C21.9861 90.3573 21.9861 89.5219 21.9861 88.6865C21.9861 88.3733 21.8608 88.248 21.5684 88.2688C21.1298 88.2688 20.7121 88.2688 20.2735 88.2688C19.7305 88.2688 19.7097 88.2897 19.7097 88.8536C19.7097 91.318 19.7097 93.8032 19.7097 96.2676C19.7097 96.372 19.7097 96.4764 19.7097 96.5809C19.7097 96.7897 19.8141 96.8941 20.0438 96.8941C20.545 96.8941 21.0254 96.8941 21.5266 96.8941C21.9443 96.8941 21.9861 96.8524 21.9861 96.4347C21.9861 95.5993 21.9861 94.7639 21.9861 93.9285C21.9861 93.6779 22.0487 93.5944 22.3202 93.5944C23.1347 93.5944 23.9701 93.5944 24.7846 93.5944C25.0352 93.5944 25.1187 93.6779 25.1187 93.9285C25.1187 94.7848 25.1187 95.6619 25.1187 96.5182C25.1187 96.7688 25.2023 96.8941 25.4738 96.8941C25.975 96.8941 26.4553 96.8941 26.9566 96.8941C27.3534 96.8941 27.3743 96.8732 27.3743 96.4764C27.3743 95.1816 27.3743 93.9076 27.3743 92.6128ZM54.0437 81.2308C54.0437 78.7664 52.1015 76.7824 49.6789 76.7824C47.2145 76.7824 45.2305 78.7246 45.2723 81.2099C45.2931 83.8622 47.3189 85.6165 49.6162 85.6583C52.0806 85.6792 54.0437 83.716 54.0437 81.2308ZM65.3005 81.189C65.3005 82.5047 65.3005 83.7996 65.3005 85.1153C65.3005 85.4703 65.3631 85.533 65.6973 85.533C66.3447 85.533 66.9921 85.533 67.6395 85.533C68.7255 85.4912 69.7697 85.2824 70.7513 84.7394C73.1948 83.4028 73.4454 80.458 72.0253 78.7455C71.1272 77.6595 69.9368 77.1374 68.5793 76.9912C67.6395 76.8868 66.6788 76.9286 65.7182 76.9077C65.3214 76.9077 65.3005 76.9286 65.3005 77.3254C65.3005 78.6202 65.3005 79.8942 65.3005 81.189ZM47.0265 92.5919C47.0265 93.9077 47.0265 95.2025 47.0265 96.5182C47.0265 96.8106 47.1101 96.9359 47.4234 96.915C48.1334 96.915 48.8644 96.915 49.5745 96.915C50.6604 96.8941 51.6838 96.6226 52.6236 96.0588C54.6494 94.8683 55.2341 92.2369 53.8975 90.3573C53.2084 89.3757 52.2059 88.8327 51.0781 88.5403C49.846 88.2062 48.572 88.3106 47.298 88.3106C47.0474 88.3106 47.0265 88.4986 47.0265 88.6865C47.0265 89.9814 47.0265 91.2762 47.0265 92.571V92.5919ZM33.3681 88.2062C30.9246 88.1644 28.9406 90.2529 28.9824 92.7172C29.045 95.0981 30.9873 97.0821 33.3681 97.0612C35.8325 97.0612 37.7538 95.0772 37.7538 92.5502C37.7538 90.1276 35.7907 88.1853 33.3681 88.1853V88.2062ZM56.1113 92.6128C56.1113 93.9076 56.1113 95.2025 56.1113 96.4973C56.1113 96.7271 56.1531 96.915 56.4663 96.915C58.3877 96.915 60.3091 96.915 62.2304 96.915C62.4602 96.915 62.5646 96.8106 62.5646 96.5809C62.5646 96.2049 62.5646 95.829 62.5646 95.4322C62.5646 94.9519 62.5228 94.9101 62.0425 94.9101C60.9356 94.9101 59.8287 94.9101 58.7219 94.9101C58.4712 94.9101 58.3877 94.8266 58.4086 94.5968C58.4086 94.3671 58.4086 94.1165 58.4086 93.8868C58.3877 93.5735 58.4921 93.49 58.8054 93.49C59.8496 93.49 60.873 93.49 61.9172 93.49C62.2722 93.49 62.314 93.4273 62.314 93.0723C62.314 92.6755 62.314 92.2787 62.314 91.861C62.314 91.5686 62.1887 91.4642 61.9172 91.4642C61.0191 91.4642 60.1211 91.4642 59.244 91.4642C58.3877 91.4642 58.4086 91.4642 58.4086 90.6288C58.4086 90.3573 58.4921 90.2738 58.7636 90.2738C59.8914 90.2738 61.0192 90.2738 62.1469 90.2738C62.5228 90.2738 62.5646 90.232 62.5646 89.8352C62.5646 89.4593 62.5646 89.1042 62.5646 88.7283C62.5646 88.3106 62.5228 88.2688 62.1051 88.2688C60.2673 88.2688 58.4504 88.2688 56.6125 88.2688C56.1739 88.2688 56.1322 88.3106 56.1322 88.7701C56.1322 90.044 56.1322 91.2971 56.1322 92.571L56.1113 92.6128ZM29.3583 81.2099C29.3583 82.5256 29.3583 83.8413 29.3583 85.1571C29.3583 85.4077 29.4418 85.533 29.7133 85.533C31.6347 85.533 33.5352 85.533 35.4565 85.533C35.7072 85.533 35.8116 85.4077 35.8116 85.1779C35.8116 84.7811 35.8116 84.4052 35.8116 84.0084C35.8116 83.5698 35.7698 83.5281 35.3312 83.5281C34.2035 83.5281 33.0757 83.5281 31.948 83.5281C31.6973 83.5281 31.6138 83.4654 31.6347 83.2148C31.6347 82.9433 31.6347 82.6718 31.6347 82.4212C31.6347 82.1706 31.6973 82.087 31.9688 82.087C33.0548 82.087 34.1199 82.087 35.2059 82.087C35.4774 82.087 35.5819 81.9826 35.5819 81.732C35.5819 81.3561 35.5819 80.9802 35.5819 80.5834C35.5819 80.1239 35.5401 80.0821 35.0597 80.0821C34.0155 80.0821 32.9922 80.0821 31.948 80.0821C31.6973 80.0821 31.6138 80.0195 31.6347 79.7689C31.6347 79.5809 31.6347 79.3929 31.6347 79.205C31.6138 78.9335 31.7182 78.8708 31.9688 78.8708C33.1175 78.8708 34.2452 78.8708 35.3939 78.8708C35.7489 78.8708 35.8116 78.8291 35.8116 78.474C35.8116 78.0772 35.8116 77.7013 35.8116 77.3045C35.8116 76.9495 35.7489 76.9077 35.3939 76.9077C33.5143 76.9077 31.6556 76.9077 29.776 76.9077C29.4 76.9077 29.3792 76.9286 29.3792 77.3045C29.3792 78.5993 29.3792 79.8942 29.3792 81.189L29.3583 81.2099ZM41.9516 76.7197C41.9516 76.7197 41.9516 76.7824 41.9516 76.8033C41.2624 76.7615 40.5732 76.8659 39.9258 77.1165C38.276 77.7639 37.2735 78.9544 37.0647 80.7087C36.8558 82.3585 37.4615 83.7369 38.7981 84.7185C40.4479 85.9298 42.2858 85.8671 44.1654 85.3032C44.3742 85.2406 44.3951 85.0944 44.3325 84.9064C44.228 84.5305 44.1445 84.1546 44.0401 83.7787C43.9356 83.3819 43.8939 83.361 43.518 83.4445C42.7452 83.6325 41.9516 83.6951 41.158 83.5489C40.0094 83.3401 39.2993 82.4838 39.2784 81.3561C39.2784 80.0612 39.8841 79.2259 41.0745 78.9544C41.9099 78.7664 42.7243 78.8499 43.5388 79.0379C43.8312 79.1214 43.9565 79.0379 44.0192 78.7455C44.1236 78.3487 44.2071 77.9728 44.3325 77.5969C44.416 77.3045 44.3325 77.1583 44.0401 77.1165C43.33 76.9912 42.6408 76.8659 41.9307 76.7406L41.9516 76.7197ZM41.6175 94.931C41.6175 94.7639 41.6175 94.6386 41.6175 94.5342C41.6175 92.6128 41.6175 90.6914 41.6175 88.7701C41.6175 88.4777 41.513 88.3315 41.1998 88.3315C40.6986 88.3315 40.1973 88.3315 39.6961 88.3315C39.4664 88.3315 39.3411 88.4359 39.3411 88.6865C39.3411 91.318 39.3411 93.9494 39.3411 96.5809C39.3411 96.8315 39.4246 96.9359 39.6752 96.9359C41.513 96.9359 43.3509 96.9359 45.1887 96.9359C45.4602 96.9359 45.5438 96.8106 45.5438 96.56C45.5438 96.1632 45.5438 95.7664 45.5438 95.3487C45.5438 95.0145 45.4811 94.9519 45.1261 94.931C45.0008 94.931 44.8754 94.931 44.7501 94.931C43.7059 94.931 42.6826 94.931 41.5966 94.931H41.6175Z" fill="#F6CA46"/>
<path d="M77.1429 41.6124C77.122 41.7585 77.1011 41.9047 77.0802 42.0718C76.9758 43.2831 76.9132 44.5153 76.7461 45.7266C76.3702 48.5251 75.5974 51.2401 74.407 53.8089C70.3137 62.5595 63.6097 68.3027 54.3161 70.9551C52.4365 71.498 50.5152 71.8113 48.552 71.9366C40.0938 72.4796 32.5963 70.057 26.1639 64.5644C20.9219 60.0742 17.6012 54.4145 16.1393 47.6689C15.8469 46.2905 15.6799 44.8912 15.5754 43.492C15.471 42.1136 15.4501 40.7352 15.5128 39.3568C15.7634 35.0129 16.8703 30.8569 18.917 27.0141C23.1983 18.9945 29.7142 13.7734 38.4439 11.3508C40.24 10.8495 42.0987 10.5571 43.9574 10.4318C44.4587 10.3901 44.9599 10.3901 45.4611 10.3483C45.5864 10.3483 45.7117 10.3065 45.8162 10.2856C46.1085 10.2856 46.4009 10.2856 46.6724 10.2856C46.7977 10.2856 46.9022 10.3483 47.0275 10.3483C47.5287 10.3692 48.0299 10.3901 48.5311 10.4318C50.4107 10.5571 52.2486 10.8286 54.0446 11.3508C63.4635 13.9822 70.251 19.7672 74.3861 28.6222C75.5348 31.1075 76.2866 33.718 76.6834 36.433C76.8714 37.6443 76.9131 38.8765 77.0176 40.1087C77.0176 40.3175 77.0593 40.5264 77.0802 40.7561C77.0802 41.0485 77.0802 41.3409 77.0802 41.6124H77.1429ZM46.2965 70.5582C62.8579 70.5165 76.1195 56.8371 75.6392 40.2549C75.1797 24.5706 62.0434 11.3299 45.3149 11.8311C29.6516 12.2906 16.3899 25.4269 16.9329 42.1762C17.4133 57.6516 30.0901 70.5165 46.2965 70.5791V70.5582Z" fill="#F6CA46"/>
<path d="M72.3677 63.1838V61.6798H71.8538V61.4203H73.2066V61.6798H72.6902V63.1838H72.3677Z" fill="#F6CA46"/>
<path d="M73.4455 63.1838V61.4203H73.8284L74.3902 62.5389L74.9444 61.4203H75.3273V63.1838H75.0049V61.967L74.5136 62.9318H74.2592L73.7679 61.967V63.1838H73.4455Z" fill="#F6CA46"/>
<path d="M77.1423 109.027C75.6804 108.839 74.2185 108.631 72.7566 108.422C71.0023 108.192 69.2689 107.941 67.5146 107.691C66.0109 107.482 64.4864 107.252 62.9827 107.043C61.1239 106.793 59.2652 106.521 57.4065 106.271C55.2972 105.978 53.2087 105.665 51.0994 105.373C49.5957 105.164 48.0711 104.913 46.5466 104.746C46.0662 104.683 45.565 104.809 45.0847 104.871C43.5183 105.08 41.952 105.31 40.3857 105.519C38.694 105.749 37.0024 105.999 35.2899 106.229C33.9115 106.417 32.5331 106.605 31.1338 106.814C29.4213 107.064 27.7088 107.294 25.9754 107.545C24.4717 107.753 22.9471 107.962 21.4226 108.171C19.5638 108.422 17.7051 108.693 15.8464 108.965C15.4496 109.027 15.4287 109.007 15.4287 108.61C15.4287 108.422 15.4287 108.213 15.4287 108.025C15.4287 107.565 15.4287 107.565 15.8464 107.503C17.5172 107.273 19.1879 107.043 20.8378 106.814C22.5503 106.584 24.242 106.333 25.9545 106.083C27.4791 105.874 29.0245 105.665 30.5491 105.456C32.2407 105.226 33.9324 104.976 35.6449 104.725C37.1695 104.516 38.7149 104.308 40.2395 104.078C41.7849 103.869 43.3513 103.681 44.8967 103.409C45.9409 103.222 46.9643 103.326 47.9876 103.472C49.8463 103.744 51.7259 103.994 53.6055 104.266C55.2763 104.495 56.9679 104.746 58.6387 104.976C60.3512 105.206 62.0846 105.456 63.7972 105.686C65.635 105.937 67.4519 106.208 69.2898 106.459C70.8143 106.667 72.3598 106.876 73.8844 107.106C74.9704 107.252 76.0355 107.419 77.1006 107.586V109.007L77.1423 109.027Z" fill="#F6CA46"/>
<path d="M77.1417 69.2002C77.1417 69.2002 76.9328 69.2211 76.8284 69.2211C72.1712 69.2211 67.5139 69.2211 62.8567 69.2211C62.794 69.2211 62.7314 69.2211 62.627 69.2211C63.3788 68.7407 64.068 68.2813 64.7781 67.8218C64.9034 67.7383 65.0704 67.7592 65.2166 67.7592C68.9758 67.7592 72.735 67.7592 76.5151 67.7592C76.724 67.7592 76.9328 67.7592 77.1208 67.7592V69.1793L77.1417 69.2002Z" fill="#F6CA46"/>
<path d="M29.9222 69.2432H29.588C25.0143 69.2432 20.4406 69.2432 15.8669 69.2432C15.5884 69.2432 15.4492 69.1039 15.4492 68.8255C15.4492 68.5749 15.4492 68.3034 15.4492 68.0527C15.4492 67.8439 15.5119 67.7812 15.7416 67.7812C16.7858 67.7812 17.83 67.7812 18.8952 67.7812C21.7146 67.7812 24.534 67.7812 27.3534 67.7812C27.5622 67.7812 27.8128 67.8648 28.0008 67.9901C28.6482 68.3869 29.2539 68.8046 29.943 69.2432H29.9222Z" fill="#F6CA46"/>
<path d="M23.1556 78.8075C23.448 78.8075 23.7613 78.8075 24.0537 78.8075C24.5549 78.8075 24.9308 79.1834 24.9517 79.6847C24.9517 80.2277 24.6384 80.6662 24.1163 80.6871C23.4898 80.708 22.8424 80.6871 22.1949 80.6871C22.007 80.6871 21.9443 80.6036 21.9443 80.4156C21.9443 79.9561 21.9443 79.4967 21.9443 79.0372C21.9443 78.8493 22.007 78.7866 22.1949 78.7866C22.5082 78.7866 22.8424 78.7866 23.1556 78.7866V78.8075Z" fill="#F6CA46"/>
<path d="M57.8872 80.6668C57.8872 80.1029 57.8872 79.5391 57.8872 78.9752C57.8872 78.9125 58.0125 78.8081 58.0752 78.8081C58.7435 78.8081 59.4118 78.7872 60.0801 78.8081C60.5186 78.8081 60.8528 79.2049 60.8737 79.6644C60.8946 80.1865 60.6022 80.6459 60.1636 80.6668C59.4118 80.7086 58.6599 80.6668 57.8872 80.6668Z" fill="#F6CA46"/>
<path d="M67.9314 90.2103C68.2446 90.2103 68.537 90.2103 68.8503 90.2103C69.3515 90.2103 69.7065 90.628 69.7065 91.1293C69.7065 91.6305 69.3515 92.0691 68.8712 92.0899C68.2446 92.0899 67.5972 92.0899 66.9707 92.0899C66.8036 92.0899 66.7201 92.0273 66.7409 91.8602C66.7409 91.3799 66.7409 90.9204 66.7409 90.4401C66.7409 90.2521 66.8245 90.1895 67.0124 90.1895C67.3257 90.1895 67.639 90.1895 67.9731 90.1895L67.9314 90.2103Z" fill="#F6CA46"/>
<path d="M47.4653 81.3344C47.528 80.9167 47.5489 80.6244 47.6115 80.332C47.883 79.3086 48.6557 78.7656 49.7209 78.8074C50.7233 78.8492 51.4752 79.4966 51.684 80.4991C51.8302 81.2509 51.7884 82.0027 51.3916 82.6711C50.9322 83.4229 50.243 83.6317 49.4076 83.59C48.6557 83.5482 48.0919 83.1932 47.7786 82.504C47.6115 82.1072 47.5489 81.6686 47.4653 81.3344Z" fill="#F6CA46"/>
<path d="M67.514 81.1886C67.514 80.5203 67.514 79.852 67.514 79.1837C67.514 79.1002 67.6185 78.9331 67.6811 78.9331C68.4539 78.9331 69.2057 79.0793 69.8531 79.5805C70.7511 80.2906 70.8973 82.4835 69.3101 83.1518C68.8089 83.3606 68.2868 83.465 67.7438 83.465C67.5558 83.465 67.4932 83.3815 67.4932 83.2144C67.4932 82.5461 67.4932 81.8778 67.4932 81.2095L67.514 81.1886Z" fill="#F6CA46"/>
<path d="M49.2622 92.6122C49.2622 91.9648 49.2622 91.3174 49.2622 90.67C49.2622 90.3985 49.3457 90.3358 49.5964 90.3567C50.1811 90.3776 50.745 90.482 51.2462 90.7744C51.9772 91.1921 52.2696 91.8604 52.2487 92.6749C52.2487 93.4685 51.9145 94.0742 51.2253 94.471C50.6823 94.7633 50.0976 94.8469 49.5128 94.8678C49.304 94.8678 49.2831 94.7842 49.2831 94.5963C49.2831 93.928 49.2831 93.2597 49.2831 92.5914L49.2622 92.6122Z" fill="#F6CA46"/>
<path d="M31.1967 92.6335C31.2176 92.3829 31.2384 92.1323 31.2802 91.9026C31.489 90.8792 32.1991 90.2736 33.1807 90.2318C34.2876 90.19 35.0394 90.7122 35.3318 91.7773C35.4989 92.4038 35.4989 93.0095 35.29 93.636C34.9768 94.6176 34.204 95.077 33.0763 95.0144C32.1991 94.9726 31.489 94.3461 31.2802 93.4063C31.2176 93.1556 31.2176 92.905 31.1758 92.6544L31.1967 92.6335Z" fill="#F6CA46"/>
<path d="M46.2751 69.8693C30.0896 69.7858 17.6007 56.7121 17.6216 41.174C17.6216 25.4689 30.2985 12.4996 46.296 12.5205C62.4606 12.5205 74.9286 25.6569 74.9495 41.174C74.9495 56.7121 62.4815 69.7858 46.296 69.8693H46.2751ZM64.8414 41.1949C64.8414 30.9615 56.592 22.6286 46.2751 22.6286C36.0626 22.6286 27.7297 30.8571 27.7088 41.174C27.7088 51.5745 36.1253 59.615 45.9827 59.7612C56.0699 59.9283 64.7996 51.8042 64.8414 41.1949ZM22.4668 39.8792C22.613 39.8374 22.6965 39.7957 22.7801 39.7748C23.4066 39.6077 24.0331 39.4615 24.6597 39.2735C25.8292 38.9394 25.5995 39.2735 25.6204 37.9787C25.6204 37.9787 25.6204 37.9787 25.6204 37.9578C25.6204 37.7072 25.5159 37.6028 25.2444 37.6863C23.4693 38.1667 21.6732 38.647 19.898 39.1482C19.7936 39.1691 19.6474 39.2735 19.6474 39.3362C19.6474 39.6495 19.6056 39.9836 19.6892 40.276C19.7309 40.4013 20.0233 40.464 20.2113 40.5266C21.1511 40.819 22.0909 41.0905 23.0933 41.4038C22.9889 41.4455 22.9263 41.4664 22.8845 41.4873C22.0491 41.7797 21.2137 42.0512 20.3784 42.3436C19.5847 42.6151 19.6683 42.4271 19.6892 43.3669C19.6892 43.3669 19.6892 43.3669 19.6892 43.3878C19.6892 43.5966 19.7727 43.7011 19.9816 43.7637C21.7985 44.1814 23.6155 44.62 25.4324 45.0585C25.6621 45.1212 25.7457 45.0168 25.7457 44.8079C25.7457 44.5364 25.7457 44.2441 25.7457 43.9726C25.7457 43.7637 25.6412 43.6593 25.4324 43.6175C24.9938 43.534 24.5553 43.4087 24.1167 43.3043C23.6155 43.1789 23.1142 43.0745 22.5086 42.9283C23.4484 42.6151 24.2838 42.3227 25.14 42.0512C25.7039 41.8632 25.7039 41.8632 25.7039 41.2576C25.7039 40.9443 25.5995 40.7981 25.3071 40.7146C24.3882 40.464 23.4901 40.1716 22.5086 39.8792H22.4668ZM49.3242 18.3891C49.2198 18.222 49.178 18.1385 49.1154 18.0549C48.5724 17.1569 48.0085 16.2797 47.5073 15.3608C47.2358 14.8596 46.9225 14.5672 46.3169 14.5672C45.8156 14.5672 45.7321 14.5672 45.6903 15.0684C45.5441 16.8019 45.4188 18.5353 45.2935 20.2478C45.2935 20.4566 45.3562 20.5402 45.5441 20.5611C45.7948 20.5819 46.0663 20.6028 46.3169 20.6237C46.5884 20.6655 46.7137 20.5611 46.7137 20.3104C46.7137 19.9554 46.7555 19.6004 46.7972 19.2244C46.8599 18.5353 46.9225 17.8461 46.9852 17.0942C47.6326 18.1593 48.2591 19.1409 48.823 20.1434C49.0945 20.6446 49.4078 20.9787 50.0343 20.8952C50.097 20.8952 50.1596 20.8952 50.2223 20.9161C50.4729 20.9579 50.5982 20.8534 50.6191 20.6237C50.64 20.3104 50.6608 20.0181 50.7026 19.7048C50.8279 18.222 50.9323 16.7601 51.0576 15.2773C51.0576 15.0684 51.0159 14.9431 50.7862 14.9222C50.5147 14.9014 50.2432 14.8805 49.9508 14.8596C49.7419 14.8596 49.6166 14.9222 49.6166 15.152C49.6166 15.4861 49.5749 15.7994 49.554 16.1335C49.4913 16.8645 49.4287 17.5746 49.366 18.3891H49.3242ZM42.3279 18.5144C42.2026 18.41 42.1609 18.3891 42.1191 18.3473C41.1793 17.5328 40.2604 16.6974 39.3206 15.8829C39.1953 15.7785 39.0073 15.6741 38.8611 15.695C38.5687 15.695 38.2972 15.7994 38.0257 15.8829C37.8587 15.9247 37.7751 16.0291 37.8169 16.2171C37.9422 16.6974 38.0466 17.1987 38.151 17.679C38.4434 18.9321 38.7358 20.1851 39.0073 21.4382C39.07 21.7097 39.1744 21.8141 39.4668 21.7097C39.6756 21.647 39.9053 21.6053 40.1351 21.5635C40.3857 21.5217 40.4692 21.3964 40.4066 21.1249C40.156 20.1016 39.9471 19.0991 39.6965 18.0132C39.78 18.0758 39.8218 18.1176 39.8636 18.1593C40.6781 18.8694 41.4926 19.5795 42.2862 20.3104C42.9754 20.937 42.9754 20.937 43.8734 20.7072C44.2284 20.6237 44.2493 20.5819 44.1658 20.2269C43.8107 18.7023 43.4766 17.1569 43.1216 15.6323C42.8709 14.6299 43.0798 14.7343 42.0564 14.9431C41.5343 15.0476 41.5343 15.0684 41.6596 15.5697C41.8685 16.5095 42.0982 17.4702 42.3279 18.5144ZM47.2567 65.4836C47.2567 65.4836 47.382 65.3791 47.4237 65.3374C48.1129 64.857 48.4262 64.0634 48.2382 63.2907C48.0503 62.5389 47.4238 61.9123 46.6301 61.8497C45.5859 61.7661 44.5417 61.7661 43.4975 61.7244C43.3095 61.7244 43.226 61.8288 43.226 62.0167C43.2051 62.9565 43.1633 63.9172 43.1424 64.857C43.1216 65.6924 43.1007 66.5487 43.0798 67.384C43.0798 67.6347 43.1842 67.76 43.4348 67.76C43.6854 67.76 43.936 67.76 44.1658 67.76C44.3955 67.76 44.5208 67.6973 44.5208 67.4467C44.5208 66.9246 44.5626 66.4234 44.5626 65.9013C44.5626 65.6715 44.6461 65.6089 44.855 65.6298C45.0429 65.6506 45.2518 65.6298 45.4397 65.6715C45.5859 65.7133 45.753 65.7759 45.8365 65.8804C46.0871 66.1936 46.3586 66.5069 46.5257 66.8619C46.9225 67.6555 47.5073 67.9897 48.3844 67.8226C48.5097 67.8017 48.6351 67.76 48.7604 67.7182C48.7186 67.5929 48.6977 67.4676 48.635 67.3632C48.1965 66.7157 47.737 66.0892 47.2776 65.4209L47.2567 65.4836ZM67.1596 54.0598C67.3267 53.7465 67.4937 53.4541 67.6608 53.1826C67.7026 53.12 67.807 53.0782 67.8905 53.0782C68.6006 52.9946 69.2898 52.9111 69.9999 52.8067C70.1461 52.7858 70.3131 52.7023 70.3967 52.577C70.6055 52.2637 70.7726 51.9295 70.9397 51.6163C70.9814 51.5536 71.0023 51.4074 70.9606 51.3657C70.8979 51.303 70.7935 51.2612 70.6891 51.2821C70.3549 51.3239 70.0416 51.3657 69.7075 51.4074C69.2271 51.4701 68.7468 51.5327 68.2456 51.5954C68.2247 51.491 68.2038 51.4074 68.1829 51.3448C68.0367 50.4885 67.4728 49.8829 66.6166 49.6949C65.8439 49.5278 65.0502 49.8829 64.6117 50.6138C64.1104 51.4701 63.651 52.3263 63.1706 53.2035C63.0662 53.3915 63.108 53.4959 63.296 53.6003C64.8832 54.4774 66.4495 55.3546 68.0367 56.2317C68.2247 56.3362 68.35 56.2944 68.4335 56.1064C68.538 55.8976 68.6633 55.6887 68.7886 55.4799C68.9974 55.1249 68.9765 55.0831 68.6215 54.8951C68.1411 54.6236 67.6608 54.3521 67.1596 54.0806V54.0598ZM25.9545 54.9578C26.1425 55.2084 26.2887 55.4381 26.4557 55.6261C26.581 55.7723 26.6019 55.9185 26.5393 56.1064C26.3304 56.7747 26.1216 57.4639 25.9336 58.1322C25.9127 58.2366 25.9127 58.3828 25.9545 58.4664C26.1634 58.8005 26.414 59.0929 26.6437 59.4062C26.8108 59.615 26.9361 59.5941 27.0196 59.3226C27.124 59.0094 27.2076 58.6752 27.312 58.3411C27.4582 57.8816 27.6044 57.4013 27.7506 56.9209C27.855 56.9418 27.8968 56.9627 27.9594 56.9836C28.7739 57.2342 29.5884 56.9836 30.0896 56.2944C30.5491 55.6887 30.6118 54.7698 30.1732 54.1224C29.5884 53.287 28.9619 52.4725 28.3353 51.6372C28.2309 51.491 28.1056 51.4701 27.9385 51.5954C27.6462 51.8251 27.3329 52.0548 27.0196 52.2846C25.8919 53.12 24.7641 53.9762 23.6363 54.8116C23.4275 54.9578 23.3648 55.104 23.5528 55.3128C23.7199 55.5008 23.8661 55.7096 23.9914 55.8976C24.1376 56.1064 24.2629 56.1482 24.4926 55.9811C24.9521 55.6261 25.4115 55.2919 25.8919 54.916L25.9545 54.9578ZM72.2136 47.0008C72.1301 46.5413 72.1092 46.1863 72.0257 45.8313C71.6706 44.4111 70.4593 43.5549 69.0183 43.6802C68.162 43.7637 67.5355 44.2232 67.0134 44.8706C66.3033 45.7477 66.1362 46.8546 65.9065 47.9197C65.9065 47.9824 66.0527 48.1703 66.1362 48.1912C67.0969 48.4209 68.0576 48.6507 69.0183 48.8804C69.791 49.0684 70.5637 49.2354 71.3365 49.4234C71.5036 49.4652 71.6915 49.5278 71.7542 49.2563C71.9212 48.4836 72.0674 47.69 72.2136 47.0008ZM35.9999 65.4209C35.9999 65.4209 35.9999 65.3583 36.0208 65.3374C38.0257 65.3374 39.4041 63.6457 38.8611 61.8079C38.6105 60.9099 38.0049 60.2624 37.2321 59.7821C36.71 59.4688 36.1461 59.2391 35.624 58.9467C35.3734 58.8214 35.2481 58.8841 35.1437 59.1138C34.3918 60.7219 33.6191 62.33 32.8464 63.9381C32.742 64.1678 32.8046 64.2723 33.0135 64.3767C33.4312 64.5646 33.828 64.8153 34.2665 64.9615C34.8304 65.1494 35.4385 65.3374 36.0208 65.3374L35.9999 65.4209ZM62.8156 61.2022C64.4237 61.2022 65.7812 59.8448 65.8021 58.2366C65.8021 56.5659 64.3193 55.0831 62.6485 55.0622C61.0404 55.0622 59.6621 56.4406 59.6621 58.0487C59.6621 59.7403 61.124 61.2022 62.8156 61.2022ZM27.1449 49.1728C27.1449 47.5438 25.7666 46.1863 24.1167 46.1654C22.4042 46.1654 20.9422 47.5647 20.9422 49.2146C20.9422 50.8644 22.3206 52.2428 23.9705 52.2219C25.683 52.2219 27.1449 50.8018 27.1449 49.1519V49.1728ZM50.9323 62.6015C50.9323 62.6015 51.0994 62.5389 51.1621 62.5389C51.9139 62.3509 52.6658 62.1629 53.3967 61.9959C53.7517 61.9123 53.7726 61.8705 53.6891 61.5155C53.6473 61.3276 53.6056 61.1605 53.5638 60.9725C53.522 60.7219 53.3967 60.6592 53.1461 60.7219C51.9557 61.0352 50.7653 61.3275 49.554 61.599C49.2825 61.6617 49.1989 61.787 49.2616 62.0585C49.7002 63.7502 50.1178 65.4627 50.5355 67.1752C50.5982 67.4467 50.7026 67.5302 50.995 67.4467C52.0183 67.1752 53.0626 66.9455 54.1068 66.674C55.0257 66.4234 54.963 66.6113 54.7333 65.6506C54.6289 65.2538 54.608 65.233 54.2112 65.3374C53.4594 65.5253 52.7284 65.7133 51.9766 65.8804C51.893 65.8804 51.7468 65.8386 51.726 65.7759C51.6215 65.4627 51.5589 65.1494 51.4753 64.8361C51.538 64.8153 51.5589 64.7944 51.6006 64.7944C52.1854 64.6482 52.7493 64.5229 53.3341 64.3558C54.3156 64.0843 54.2112 64.2723 53.9606 63.2698C53.8771 62.9148 53.8353 62.8939 53.4594 62.9774C52.7911 63.1445 52.1019 63.3116 51.4336 63.4787C51.2874 63.5204 51.1621 63.5413 51.1203 63.3533C51.0577 63.1027 50.995 62.8521 50.9323 62.6015ZM53.5847 19.3915C54.2112 19.6213 54.7751 19.851 55.3599 20.0389C56.3414 20.3731 56.1117 20.5402 56.5294 19.4542C56.6338 19.2036 56.5503 19.0991 56.3205 19.0156C55.8193 18.8485 55.339 18.6606 54.8377 18.4726C54.5662 18.3682 54.3156 18.2638 54.0232 18.1593C54.1068 17.9296 54.1903 17.7417 54.2321 17.5328C54.2947 17.2822 54.4201 17.2404 54.6498 17.3448C55.3599 17.6163 56.0908 17.867 56.8218 18.1593C57.0515 18.2429 57.1768 18.2011 57.2395 17.9714C57.3021 17.8043 57.3648 17.6372 57.4274 17.4702C57.5736 17.0733 57.5736 17.0525 57.1559 16.9063C56.049 16.5095 54.963 16.0918 53.8562 15.695C53.4594 15.5488 53.4176 15.5488 53.2714 15.9456C52.6866 17.5537 52.1019 19.1618 51.4962 20.7699C51.35 21.1458 51.3709 21.1667 51.7677 21.3129C52.7702 21.6888 53.7935 22.0647 54.796 22.4198C55.5478 22.6913 55.4434 22.7957 55.7567 21.9812C55.882 21.647 55.7775 21.4173 55.4434 21.292C54.6915 21.0205 53.9397 20.749 53.167 20.4566C53.2923 20.0807 53.4176 19.7466 53.5638 19.3706L53.5847 19.3915ZM73.0281 40.3387C73.0281 39.5033 72.7984 38.7097 72.1719 38.0831C71.5244 37.4357 70.1878 37.4984 69.7493 38.4382C69.6657 38.6052 69.5822 38.7723 69.5195 38.9394C69.2689 39.5659 69.0601 40.2133 68.7886 40.8399C68.7259 40.9652 68.538 41.0905 68.3918 41.0905C68.3082 41.0905 68.1411 40.8816 68.1411 40.7563C68.1411 40.0045 68.1412 39.2527 68.1829 38.4799C68.1829 38.2293 68.162 38.0831 67.8905 38.0622C67.7026 38.0622 67.5146 38.0205 67.3475 37.9787C67.0969 37.9161 66.9716 38.0414 66.9507 38.2711C66.909 38.4799 66.8672 38.6888 66.8463 38.9185C66.7628 39.7121 66.7419 40.5266 66.9507 41.2993C67.1387 42.0303 67.619 42.4689 68.2665 42.5524C68.9974 42.6359 69.6031 42.3227 69.9581 41.6126C70.1252 41.2785 70.2505 40.9234 70.3758 40.5893C70.5429 40.1716 70.6682 39.733 70.8561 39.3153C71.0023 39.002 71.3156 39.002 71.5035 39.2944C71.5662 39.3989 71.608 39.545 71.6497 39.6704C71.7959 40.2969 71.6915 40.9443 71.5662 41.5708C71.3991 42.3853 71.3991 42.3853 72.1927 42.5942C72.4851 42.6568 72.6104 42.5733 72.6731 42.3227C72.8193 41.6753 72.9446 41.0278 73.0699 40.3804L73.0281 40.3387ZM65.2382 23.4849C65.2382 23.4849 65.0711 23.4849 64.9876 23.5267C64.2358 23.7564 63.4839 24.4038 63.8181 25.636C63.9851 26.3043 64.2149 26.9726 64.3819 27.6409C64.4237 27.8289 64.5073 28.1004 64.2775 28.1839C64.1104 28.2465 63.839 28.1839 63.6928 28.0795C63.4421 27.8915 63.2333 27.6618 63.0662 27.4112C62.7947 26.9726 62.565 26.4922 62.3561 26.0119C62.2517 25.7613 62.1264 25.6569 61.8758 25.8031C61.7296 25.8866 61.5625 25.9493 61.3955 26.0119C61.1657 26.0954 61.1031 26.2207 61.1866 26.4714C61.4581 27.265 61.834 27.975 62.377 28.6225C62.7321 29.0402 63.1498 29.3534 63.651 29.5623C64.7788 30.0217 66.1571 28.9357 65.8021 27.7871C65.7603 27.6409 65.7394 27.5156 65.6977 27.3694C65.5306 26.7637 65.3426 26.1581 65.1964 25.5316C65.1547 25.3645 65.1964 25.093 65.3217 24.9886C65.5306 24.8215 65.7185 25.0303 65.823 25.1974C66.178 25.636 66.533 26.0746 66.8254 26.5549C67.3058 27.3067 67.2849 27.3276 68.0576 26.8473C68.2247 26.7429 68.2873 26.6384 68.1829 26.4505C67.7652 25.6151 67.2849 24.8215 66.5957 24.195C66.2198 23.8399 65.8021 23.5684 65.2173 23.5475L65.2382 23.4849ZM59.9127 25.3645C59.9127 25.3645 59.9127 25.3018 59.9335 25.2809C60.7689 25.2809 61.4372 24.7588 61.6043 23.9652C61.7087 23.4849 61.4999 23.0881 61.2702 22.7122C60.9151 22.1065 60.5392 21.5217 60.1842 20.9161C60.1215 20.7908 60.1842 20.5819 60.1842 20.4149C60.3512 20.4149 60.5392 20.3731 60.6645 20.4357C61.1449 20.7699 61.6252 21.1041 62.0638 21.5009C62.7738 22.1274 62.753 22.1483 63.3795 21.4382C63.5048 21.3129 63.5048 21.1876 63.3795 21.0623C62.6903 20.2896 61.9385 19.5586 60.9569 19.1618C60.6645 19.0365 60.3304 18.953 60.038 18.9947C59.0146 19.12 58.3881 20.206 58.8058 21.1667C59.0146 21.647 59.307 22.0856 59.5785 22.5242C59.7665 22.8375 59.9753 23.1298 60.1215 23.4431C60.2677 23.7355 60.1215 23.9652 59.7874 23.9443C59.5785 23.9235 59.3279 23.8399 59.1608 23.7146C58.7223 23.3596 58.2837 22.9837 57.9078 22.5868C57.3439 21.9812 57.3648 21.9603 56.7173 22.5033C56.5294 22.6704 56.5085 22.7957 56.6338 23.0045C57.1559 23.7773 57.8033 24.4456 58.6178 24.905C59.0146 25.1139 59.4741 25.2183 59.8918 25.3854L59.9127 25.3645ZM35.3525 22.5868C35.3525 22.1065 35.2481 21.647 34.9766 21.2711C34.3083 20.3104 33.5982 19.3498 32.8882 18.3891C32.7837 18.2429 32.6584 18.2429 32.5331 18.3473C32.3452 18.4935 32.1363 18.6397 31.9484 18.7859C31.6142 19.0365 31.6142 19.0365 31.8648 19.3706C32.4914 20.2269 33.1179 21.0832 33.7235 21.9394C34.1621 22.5451 34.0368 23.2134 33.4312 23.6311C32.8046 24.0488 32.2199 23.9443 31.7395 23.3178C31.113 22.4615 30.4864 21.6053 29.8599 20.749C29.7137 20.5402 29.5675 20.4775 29.3587 20.6655C29.1707 20.8326 28.9619 20.9787 28.753 21.1041C28.5233 21.2502 28.5233 21.3964 28.6695 21.6053C29.3169 22.4615 29.9226 23.3387 30.57 24.195C31.2383 25.1139 32.3452 25.448 33.3894 25.1139C34.538 24.738 35.3316 23.7146 35.3316 22.6077L35.3525 22.5868ZM27.8341 29.6458C27.8341 29.6458 27.8341 29.7085 27.855 29.7293C28.3145 29.5831 28.7948 29.4996 29.2125 29.2908C30.3194 28.7269 30.9041 27.7244 31.4054 26.6384C31.4471 26.5549 31.3845 26.3878 31.3009 26.3252C30.6535 25.8031 29.9852 25.3018 29.3378 24.7797C29.1916 24.6544 29.0872 24.6753 28.9619 24.8215C28.7948 25.0303 28.6486 25.2392 28.4815 25.4271C28.3353 25.6151 28.3353 25.7404 28.5442 25.8866C28.9201 26.1581 29.2751 26.4505 29.6511 26.722C29.7764 26.8055 29.7973 26.8891 29.7137 27.0144C29.5466 27.2232 29.4005 27.4529 29.2334 27.6618C28.7113 28.2465 27.9594 28.3927 27.2702 28.0795C26.4766 27.7244 26.0381 27.0352 26.1842 26.2416C26.2469 25.9284 26.3931 25.5942 26.581 25.3227C26.8317 24.9468 27.1658 24.6335 27.4791 24.2994C27.6462 24.1323 27.6879 23.9861 27.5 23.819C27.3329 23.6728 27.1867 23.5058 27.0614 23.3596C26.9152 23.1925 26.7899 23.2134 26.6437 23.3596C26.0589 23.8817 25.5368 24.4247 25.1818 25.1348C23.9914 27.4738 25.8083 29.6249 27.855 29.6667L27.8341 29.6458ZM55.0048 61.1187C55.0048 62.8521 55.7775 64.0425 56.9262 64.502C58.221 65.0241 60.2886 64.3976 61.0613 63.2489C61.1031 63.1863 61.1031 63.0192 61.0613 62.9565C60.936 62.7686 60.748 62.6224 60.6227 62.4553C60.4765 62.2674 60.3721 62.2882 60.1633 62.4135C59.7038 62.7268 59.2235 63.061 58.7014 63.2489C57.866 63.5622 57.0933 63.2072 56.6756 62.4344C56.237 61.6408 56.3623 60.8472 57.0515 60.2833C57.3648 60.0327 57.7198 59.8448 58.0748 59.6777C58.8476 59.3435 58.8476 59.3644 58.6178 58.5708C58.5343 58.2784 58.3881 58.2366 58.1166 58.2993C57.4274 58.4873 56.8009 58.7796 56.2579 59.2182C55.4852 59.8239 55.0257 60.6175 55.0257 61.1396L55.0048 61.1187ZM30.1732 60.7428C30.2567 60.6175 30.3403 60.5339 30.4029 60.4295C31.2383 59.3853 32.0528 58.362 32.8882 57.3177C33.0552 57.1298 33.0552 56.9836 32.8464 56.8374C32.6375 56.6912 32.4496 56.545 32.2616 56.3779C32.0528 56.1691 31.9066 56.2317 31.7395 56.4406C30.6326 57.819 29.5258 59.2182 28.4189 60.5966C28.2727 60.7846 28.2727 60.9099 28.4607 61.0561C29.4213 61.8079 30.3611 62.5597 31.3009 63.3325C31.4471 63.4369 31.5516 63.4369 31.6769 63.2907C31.8231 63.1236 31.9484 62.9357 32.0945 62.7686C32.2825 62.5597 32.2616 62.4344 32.0319 62.2674C31.4054 61.787 30.7997 61.2858 30.1523 60.7637L30.1732 60.7428ZM38.2137 22.2109C38.2137 22.2109 38.151 22.0439 38.1302 21.9812C37.9422 21.5844 37.7751 21.2085 37.5872 20.8117C37.0233 19.6004 36.4385 18.3682 35.8746 17.1569C35.7702 16.9272 35.6449 16.8436 35.3943 16.9898C35.1646 17.1151 34.914 17.2195 34.6633 17.324C34.4754 17.4075 34.4336 17.5328 34.538 17.7208C34.726 18.0758 34.8722 18.4517 35.0393 18.8068C35.624 20.0598 36.2297 21.3129 36.7936 22.566C36.898 22.8166 37.0442 22.8583 37.2739 22.733C37.5036 22.6077 37.7542 22.5033 38.0049 22.378C38.0884 22.3362 38.151 22.2527 38.2137 22.19V22.2109Z" fill="#F6CA46"/>
<path d="M50.4928 38.605C50.2004 38.4588 49.9707 38.3335 49.741 38.2291C48.7385 37.707 47.7361 37.1848 46.7336 36.6627C46.3995 36.4957 46.1071 36.4957 45.7729 36.6627C44.6661 37.2475 43.5592 37.8323 42.4523 38.417C42.3479 38.4797 42.2435 38.5215 42.0555 38.605C42.0764 38.417 42.0764 38.2917 42.0973 38.1664C42.3688 36.9133 42.6194 35.6603 42.9118 34.4072C42.9953 34.0731 42.9118 33.8224 42.6403 33.5927C41.6796 32.7573 40.7398 31.922 39.8 31.0657C39.6955 30.9822 39.6329 30.8777 39.4658 30.7315C39.8835 30.6689 40.1968 30.6271 40.5309 30.5854C41.6169 30.46 42.7029 30.3347 43.8098 30.2303C44.1439 30.1885 44.3528 30.0424 44.4781 29.7291C45.0002 28.5804 45.5014 27.4527 46.0235 26.304C46.0862 26.1787 46.1489 26.0743 46.2324 25.9072C46.3159 26.0743 46.3786 26.1787 46.4204 26.2831C46.9425 27.4109 47.4437 28.5387 47.9449 29.6873C48.0911 30.0215 48.3 30.1885 48.6759 30.2303C49.9289 30.3556 51.182 30.5018 52.4351 30.648C52.6022 30.648 52.7483 30.7107 52.9154 30.7315C52.9363 30.7733 52.9781 30.8151 52.999 30.8568C52.8945 30.9195 52.7692 30.9613 52.6857 31.0448C51.7459 31.8802 50.8061 32.7156 49.8663 33.5301C49.5739 33.7807 49.4904 34.0522 49.5739 34.4281C49.8663 35.7229 50.1378 37.0178 50.4093 38.3126C50.4093 38.3753 50.4093 38.4379 50.4511 38.605H50.4928Z" fill="#F6CA46"/>
<path d="M46.2536 42.3641C43.0583 42.3641 39.8629 42.3641 36.6467 42.3641C36.1455 42.3641 36.1037 42.3432 35.9784 41.842C35.8531 41.3617 35.7278 40.8813 35.6234 40.401C35.5399 40.0668 35.6234 39.9624 35.9575 39.9624C37.8789 39.9624 39.7794 39.9624 41.7008 39.9624C46.6086 39.9624 51.5374 39.9624 56.4452 39.9624C56.9673 39.9624 56.9882 40.0042 56.8629 40.5263C56.7376 41.0066 56.6123 41.487 56.5079 41.9673C56.4452 42.2597 56.2781 42.385 55.9858 42.3641C55.756 42.3641 55.5263 42.3641 55.2966 42.3641C52.2683 42.3641 49.2401 42.3641 46.2327 42.3641H46.2536Z" fill="#F6CA46"/>
<path d="M46.2762 43.0536C49.2 43.0536 52.1447 43.0536 55.0686 43.0536C55.4862 43.0536 55.4862 43.0536 55.3818 43.4504C55.1312 44.3276 55.3818 44.2022 54.4211 44.2022C48.9076 44.2022 43.3732 44.2022 37.8597 44.2022C37.5256 44.2022 37.3167 44.0421 37.2332 43.7219C37.1497 43.4017 37.3237 43.1719 37.7553 43.0327C40.5956 43.0327 43.4359 43.0327 46.2762 43.0327V43.0536Z" fill="#F6CA46"/>
<path d="M46.9862 50.9059C46.9862 52.6602 46.9862 54.4145 46.9862 56.1897C46.9862 56.4612 46.9235 56.5865 46.6311 56.5656C46.3388 56.5656 46.0673 56.5656 45.7749 56.5656C45.6078 56.5656 45.5243 56.4821 45.5451 56.315C45.5451 56.1897 45.5451 56.0435 45.5451 55.9182C45.5451 52.514 45.5451 49.1098 45.5451 45.7057C45.5451 45.2671 45.5451 45.2671 45.9837 45.2671C46.2134 45.2671 46.4432 45.2671 46.652 45.2671C46.9026 45.2671 46.9862 45.3715 46.9862 45.6221C46.9862 47.3973 46.9862 49.1516 46.9862 50.9268V50.9059Z" fill="#F6CA46"/>
<path d="M43.8956 50.9278C43.8956 52.6194 43.8956 54.311 43.8956 55.9818C43.8956 56.3577 43.8956 56.3786 43.5197 56.2951C43.29 56.2533 43.0602 56.1698 42.8305 56.1489C42.5172 56.128 42.4546 55.9609 42.4546 55.6685C42.4546 52.6612 42.4546 49.6538 42.4546 46.6464C42.4546 46.3958 42.4546 46.1452 42.4546 45.9155C42.4546 45.8111 42.5799 45.6649 42.6634 45.644C42.9767 45.5604 43.3109 45.4978 43.6241 45.4351C43.8956 45.3725 43.8956 45.5604 43.8956 45.7484C43.8956 47.4609 43.8956 49.1943 43.8956 50.9069V50.9278Z" fill="#F6CA46"/>
<path d="M48.6353 50.8854C48.6353 49.1937 48.6353 47.4812 48.6353 45.7895C48.6353 45.4345 48.677 45.4136 49.0112 45.4763C49.2618 45.5389 49.5333 45.5807 49.8048 45.6434C50.0136 45.6851 50.0972 45.7687 50.0972 45.9984C50.0972 49.2773 50.0972 52.5352 50.0972 55.8141C50.0972 56.0229 50.0136 56.1274 49.8048 56.1691C49.5333 56.2109 49.2618 56.2736 48.9903 56.3362C48.7397 56.3989 48.6353 56.3362 48.6561 56.0438C48.6561 54.3313 48.6561 52.5979 48.6561 50.8854H48.6353Z" fill="#F6CA46"/>
<path d="M51.746 55.564V46.2495C52.2054 46.4584 52.644 46.6463 53.0617 46.8552C53.1244 46.876 53.1452 47.0431 53.1452 47.1267C53.1452 49.6537 53.1452 52.1807 53.1452 54.7077C53.1452 54.8121 53.1035 54.9583 53.0199 55.0001C52.6022 55.209 52.1846 55.376 51.7251 55.5849L51.746 55.564Z" fill="#F6CA46"/>
<path d="M40.8028 46.2495V55.5849C40.4687 55.4387 40.1972 55.2925 39.8839 55.1881C39.4662 55.0628 39.3618 54.833 39.3618 54.3945C39.3827 52.0136 39.3618 49.6328 39.3618 47.252C39.3618 46.9805 39.4454 46.8134 39.7169 46.7299C40.0719 46.6046 40.406 46.4375 40.8028 46.2704V46.2495Z" fill="#F6CA46"/>
<path d="M45.5011 64.4393C45.2922 64.4393 45.0625 64.4393 44.8536 64.4393C44.6657 64.4393 44.603 64.3558 44.603 64.1887C44.603 63.8754 44.603 63.5622 44.603 63.228C44.603 63.0609 44.6657 62.9774 44.8328 62.9983C45.2922 63.0192 45.7517 63.0192 46.2111 63.0609C46.5662 63.0818 46.7959 63.3742 46.7959 63.771C46.7959 64.1678 46.5662 64.4184 46.1902 64.4602C45.9605 64.4602 45.7099 64.4602 45.4802 64.4602L45.5011 64.4393Z" fill="#F6CA46"/>
<path d="M66.094 53.4544C65.6972 53.2455 65.3422 53.0367 64.9872 52.8278C64.9454 52.7861 64.9036 52.6399 64.9245 52.5772C65.1333 52.1804 65.3422 51.7836 65.5719 51.3868C65.7808 51.0527 66.1776 50.9691 66.5117 51.1571C66.8459 51.345 66.9921 51.721 66.825 52.076C66.5953 52.5146 66.3446 52.9531 66.0731 53.4335L66.094 53.4544Z" fill="#F6CA46"/>
<path d="M26.9355 54.2057C27.2906 53.9342 27.6247 53.6836 27.9589 53.4538C28.0007 53.4121 28.1677 53.4538 28.2095 53.4956C28.481 53.8506 28.7525 54.1848 29.0031 54.5607C29.2537 54.9157 29.1702 55.3125 28.8569 55.5423C28.5228 55.772 28.1051 55.7302 27.8336 55.3961C27.5412 55.0202 27.2488 54.6234 26.9355 54.2057Z" fill="#F6CA46"/>
<path d="M70.7722 47.7733C69.9577 47.5853 69.2059 47.4182 68.4749 47.2512C68.2034 47.1885 67.9319 47.1258 67.6604 47.0632C67.4933 47.0214 67.4098 46.9588 67.4725 46.7708C67.5978 46.4784 67.6813 46.186 67.8275 45.9145C68.2034 45.2671 68.8508 45.0165 69.54 45.1836C70.3128 45.3716 70.7304 45.831 70.7931 46.6246C70.814 47.0005 70.7722 47.3765 70.7513 47.7942L70.7722 47.7733Z" fill="#F6CA46"/>
<path d="M34.5996 63.6673C35.1008 62.6231 35.5603 61.6415 36.0615 60.6182C36.7925 60.9732 37.419 61.37 37.5234 62.2054C37.607 62.8737 37.3355 63.4585 36.7507 63.8135C36.0406 64.2312 35.3306 64.0223 34.5996 63.6673Z" fill="#F6CA46"/>
<path d="M62.543 56.4403C63.5663 56.4194 64.6314 57.6725 64.4017 58.6331C64.1929 59.4894 63.3575 60.0324 62.5012 59.8027C61.7076 59.5938 61.0184 58.7585 60.9975 57.9648C60.9766 57.1086 61.6658 56.3985 62.5221 56.4194L62.543 56.4403Z" fill="#F6CA46"/>
<path d="M22.2168 49.2353C22.3212 48.9847 22.3839 48.6923 22.5301 48.4626C22.9478 47.8361 23.9293 47.481 24.6603 47.6481C25.7045 47.8779 26.1848 49.1727 25.5374 50.0081C25.0362 50.6555 24.347 50.927 23.5534 50.8017C22.7598 50.6973 22.2795 50.0707 22.2168 49.2353Z" fill="#F6CA46"/>
</svg>
