<svg width="32" height="32" viewBox="0 0 32 32" fill="none" xmlns="http://www.w3.org/2000/svg">
<circle cx="16" cy="16" r="16" fill="white" fill-opacity="0.04"/>
<circle cx="16" cy="16" r="15.5" stroke="#EDEDED" stroke-opacity="0.08"/>
<path fill-rule="evenodd" clip-rule="evenodd" d="M7.58856 9.94845C7 11.1036 7 12.6157 7 15.64V16.36C7 19.3843 7 20.8964 7.58856 22.0515C8.10628 23.0676 8.93238 23.8937 9.94845 24.4114C11.1036 25 12.6157 25 15.64 25H16.36C19.3843 25 20.8964 25 22.0515 24.4114C23.0676 23.8937 23.8937 23.0676 24.4114 22.0515C25 20.8964 25 19.3843 25 16.36V15.64C25 12.6157 25 11.1036 24.4114 9.94845C23.8937 8.93238 23.0676 8.10628 22.0515 7.58856C20.8964 7 19.3843 7 16.36 7H15.64C12.6157 7 11.1036 7 9.94845 7.58856C8.93238 8.10628 8.10628 8.93238 7.58856 9.94845ZM19.7601 8.86759C18.95 8.8014 17.9018 8.8 16.36 8.8H15.64C14.0982 8.8 13.05 8.8014 12.2399 8.86759C11.4507 8.93207 11.0472 9.04894 10.7656 9.19238C10.0883 9.53752 9.53752 10.0883 9.19238 10.7656C9.04894 11.0472 8.93207 11.4507 8.86759 12.2399C8.8014 13.05 8.8 14.0982 8.8 15.64V16.36C8.8 17.9018 8.8014 18.95 8.86759 19.7601C8.93207 20.5493 9.04894 20.9528 9.19238 21.2344C9.53752 21.9117 10.0883 22.4625 10.7656 22.8076C11.0472 22.9511 11.4507 23.0679 12.2399 23.1324C13.05 23.1986 14.0982 23.2 15.64 23.2H16.36C17.9018 23.2 18.95 23.1986 19.7601 23.1324C20.5493 23.0679 20.9528 22.9511 21.2344 22.8076C21.9117 22.4625 22.4625 21.9117 22.8076 21.2344C22.9511 20.9528 23.0679 20.5493 23.1324 19.7601C23.1986 18.95 23.2 17.9018 23.2 16.36V15.64C23.2 14.0982 23.1986 13.05 23.1324 12.2399C23.0679 11.4507 22.9511 11.0472 22.8076 10.7656C22.4625 10.0883 21.9117 9.53752 21.2344 9.19238C20.9528 9.04894 20.5493 8.93207 19.7601 8.86759ZM22.3 11.05C22.3 11.7956 21.6956 12.4 20.95 12.4C20.2044 12.4 19.6 11.7956 19.6 11.05C19.6 10.3044 20.2044 9.7 20.95 9.7C21.6956 9.7 22.3 10.3044 22.3 11.05ZM16 20.5C18.4853 20.5 20.5 18.4853 20.5 16C20.5 13.5147 18.4853 11.5 16 11.5C13.5147 11.5 11.5 13.5147 11.5 16C11.5 18.4853 13.5147 20.5 16 20.5ZM16 18.7C17.4912 18.7 18.7 17.4912 18.7 16C18.7 14.5088 17.4912 13.3 16 13.3C14.5088 13.3 13.3 14.5088 13.3 16C13.3 17.4912 14.5088 18.7 16 18.7Z" fill="white"/>
</svg>
