<svg width="80" height="80" viewBox="0 0 80 80" fill="none" xmlns="http://www.w3.org/2000/svg">
<path d="M39.7523 71.5047C57.2887 71.5047 71.5047 57.2887 71.5047 39.7523C71.5047 22.216 57.2887 8 39.7523 8C22.216 8 8 22.216 8 39.7523C8 57.2887 22.216 71.5047 39.7523 71.5047Z" fill="#380000"/>
<path fill-rule="evenodd" clip-rule="evenodd" d="M53.6907 46.9188H52.5382C50.004 50.9021 45.5506 53.5542 40.4967 53.5542C35.4427 53.5542 30.9893 50.9021 28.4551 46.9188H27.6367C30.2368 51.4142 35.0971 54.4387 40.6637 54.4387C46.2303 54.4387 51.0905 51.4142 53.6907 46.9188ZM29.1409 46.9188C29.9044 48.0511 30.8322 49.0644 31.8942 49.9251C32.2644 49.4956 32.7995 49.1024 33.4643 48.7598C33.0505 48.1757 32.6833 47.5602 32.3661 46.9188H29.1409ZM33.0086 46.9188C33.2975 47.4728 33.6256 48.0055 33.9907 48.5127C34.294 48.3807 34.6185 48.2581 34.9618 48.1472C35.44 47.9917 35.9563 47.855 36.5032 47.7417C36.4089 47.4766 36.3193 47.2019 36.2346 46.9188H33.0086ZM36.832 46.9188C36.9061 47.1587 36.9857 47.3969 37.0706 47.6332C38.1077 47.4567 39.1572 47.3625 40.2092 47.3515V46.9188H36.832ZM40.783 46.9188V47.3515C41.8352 47.3625 42.8848 47.4567 43.9222 47.6332C44.0069 47.3968 44.0864 47.1587 44.1607 46.9188H40.783ZM44.7582 46.9188C44.6735 47.2017 44.5839 47.4755 44.4902 47.7406C44.9642 47.8389 45.4332 47.9601 45.8955 48.1038C46.2716 48.2207 46.6414 48.3572 47.0033 48.5127C47.3683 48.0056 47.6963 47.4729 47.9847 46.9188H44.7582ZM48.6268 46.9188C48.31 47.5603 47.943 48.1759 47.529 48.7598C48.1944 49.1024 48.7295 49.4956 49.0998 49.9251C50.1613 49.064 51.0889 48.0508 51.8529 46.9188H48.6268ZM53.6899 31.8804C51.0896 27.3857 46.2298 24.3618 40.6637 24.3618C35.0976 24.3618 30.2378 27.3857 27.6375 31.8804H28.4564C30.9908 27.8977 35.4436 25.2465 40.4967 25.2465C45.5498 25.2465 50.0025 27.8977 52.5369 31.8804H53.6899ZM51.8514 31.8804C51.0875 30.7495 50.1604 29.737 49.0998 28.8762C48.7295 29.3051 48.1944 29.6982 47.529 30.0409C47.9424 30.6244 48.3091 31.2395 48.6256 31.8804H51.8514ZM47.9833 31.8804C47.6953 31.3275 47.3677 30.7959 47.0033 30.2897C46.66 30.4381 46.2892 30.5754 45.8955 30.6987C45.4554 30.8366 44.9854 30.9586 44.4902 31.0613C44.5835 31.3254 44.6728 31.5985 44.7572 31.8804H47.9833ZM44.1597 31.8804C44.0858 31.6416 44.0066 31.4045 43.9222 31.1693C42.8848 31.3453 41.8352 31.4397 40.783 31.4515V31.8804H44.1597ZM40.2092 31.8804V31.4515C39.1572 31.44 38.1077 31.3456 37.0706 31.1693C36.9863 31.4045 36.9072 31.6416 36.8333 31.8804H40.2092ZM36.2357 31.8804C36.3201 31.5986 36.4094 31.3252 36.5032 31.0613C35.9823 30.9543 35.4677 30.8187 34.9618 30.6552C34.6324 30.549 34.3083 30.4271 33.9907 30.2897C33.6261 30.7959 33.2984 31.3275 33.01 31.8804H36.2357ZM32.3674 31.8804C32.6843 31.2396 33.051 30.6245 33.4643 30.0409C32.7995 29.6982 32.2644 29.3057 31.8942 28.8762C30.8331 29.7366 29.9059 30.7491 29.1423 31.8804H32.3674ZM37.8604 26.9751C37.4162 26.7955 37.0547 26.5749 36.8065 26.3285C37.9806 25.9981 39.2181 25.8209 40.4961 25.8209C41.7741 25.8209 43.0121 25.9981 44.1868 26.3285C43.9075 26.6054 43.488 26.8489 42.9705 27.0379C42.281 27.2902 41.4249 27.4392 40.4967 27.4392C39.4945 27.4392 38.5768 27.2649 37.8604 26.9751ZM36.2069 26.5121C36.3538 26.697 36.5253 26.8609 36.7168 26.9991C35.6377 27.6193 34.6555 28.4977 33.8099 29.5768C33.1809 29.264 32.6816 28.9085 32.3454 28.5241C33.5169 27.6516 34.8205 26.9723 36.2069 26.5121ZM37.6474 27.5067C37.8749 27.598 38.1077 27.6758 38.3444 27.7396C37.726 28.4033 37.1709 29.3526 36.7074 30.5191C36.1494 30.4065 35.6236 30.2692 35.1395 30.1113C34.8614 30.021 34.5974 29.9241 34.3486 29.8209C35.2017 28.7577 36.1951 27.911 37.283 27.343C37.4023 27.4022 37.5239 27.4568 37.6474 27.5067ZM39.0086 27.8863C39.4054 27.9555 39.8066 27.9963 40.2092 28.0084V30.8782C39.1776 30.8641 38.1907 30.7749 37.2795 30.6236C37.7706 29.4154 38.3591 28.4731 39.0086 27.8863ZM40.783 28.0084C41.1858 27.9961 41.5871 27.9553 41.9841 27.8863C42.6337 28.4731 43.2222 29.416 43.7133 30.6236C42.7443 30.782 41.7648 30.8671 40.783 30.8782V28.0084ZM43.1653 27.5753C43.3577 27.5049 43.5402 27.4275 43.7098 27.3424C44.7982 27.9104 45.7916 28.7571 46.6453 29.8203C46.3438 29.9444 46.0368 30.0551 45.7253 30.1518C45.2522 30.2986 44.7718 30.4209 44.286 30.5179C43.8224 29.3526 43.2674 28.4033 42.6489 27.7396C42.8285 27.6903 43.001 27.6352 43.1653 27.5753ZM44.276 26.9997C44.4677 26.8616 44.6395 26.6977 44.7865 26.5127C46.1728 26.9729 47.4763 27.6523 48.6474 28.5253C48.3106 28.9096 47.8112 29.2652 47.1822 29.5774C46.3379 28.4983 45.3551 27.6205 44.276 26.9997ZM37.8604 51.8262C37.4162 52.0063 37.0547 52.2263 36.8065 52.4728C37.9806 52.8025 39.2181 52.9803 40.4961 52.9803C41.7741 52.9803 43.0121 52.8037 44.1868 52.4728C43.9075 52.1964 43.488 51.9523 42.9705 51.7634C42.281 51.5123 41.4249 51.3632 40.4967 51.3632C39.4945 51.3632 38.5768 51.5363 37.8604 51.8262ZM36.2069 52.2891C36.3536 52.1041 36.5252 51.9402 36.7168 51.8021C35.6377 51.1825 34.6555 50.3041 33.8099 49.2245C33.1809 49.5372 32.6816 49.8928 32.3454 50.2765C33.5167 51.1495 34.8204 51.829 36.2069 52.2891ZM37.6474 51.294C37.8749 51.2029 38.1077 51.1253 38.3444 51.0616C37.726 50.3986 37.1709 49.4492 36.7074 48.2821C36.1494 48.3942 35.6236 48.5315 35.1395 48.6899C34.8614 48.7803 34.5974 48.8765 34.3486 48.9798C35.2017 50.0436 36.1951 50.8903 37.283 51.4577C37.4025 51.399 37.5241 51.3444 37.6474 51.294ZM39.0086 50.9149C39.3889 50.8486 39.792 50.8058 40.2092 50.7923V47.9224C39.2277 47.935 38.2484 48.0201 37.2795 48.1771C37.7706 49.3864 38.3591 50.3282 39.0086 50.9149ZM40.783 50.7923C41.1858 50.8051 41.5871 50.8461 41.9841 50.9149C42.6337 50.3282 43.2222 49.3852 43.7133 48.1771C42.8015 48.0257 41.8151 47.9371 40.783 47.9224V50.7923ZM43.1653 51.2259C43.3509 51.2932 43.5327 51.3708 43.7098 51.4583C44.7982 50.8909 45.7916 50.0442 46.6453 48.981C46.3584 48.863 46.051 48.7521 45.7253 48.65C45.2764 48.5092 44.7953 48.3866 44.286 48.2833C43.8224 49.4498 43.2674 50.3986 42.6489 51.0622C42.8285 51.1115 43.001 51.1661 43.1653 51.2259ZM44.276 51.8021C44.468 51.9399 44.6398 52.1038 44.7865 52.2891C46.1726 51.8285 47.476 51.149 48.6474 50.2765C48.3106 49.8928 47.8112 49.5372 47.1822 49.2245C46.3379 50.3029 45.3551 51.1819 44.276 51.8021Z" fill="#F6CA46"/>
<mask id="path-3-outside-1_4258_13597" maskUnits="userSpaceOnUse" x="17.8535" y="29.5713" width="44" height="20" fill="black">
<rect fill="white" x="17.8535" y="29.5713" width="44" height="20"/>
<path fill-rule="evenodd" clip-rule="evenodd" d="M29.0691 31.5713H20.456C20.1243 31.5713 19.8535 31.8421 19.8535 32.1738V34.9305C19.8541 35.0902 19.9178 35.2432 20.0309 35.3561C20.1439 35.469 20.297 35.5326 20.4567 35.533H22.3515V43.0275H20.456C20.1243 43.0275 19.8535 43.299 19.8535 43.6314V46.3881C19.8539 46.5478 19.9175 46.7008 20.0304 46.8137C20.1433 46.9266 20.2963 46.9902 20.456 46.9906H29.0698C29.2295 46.9901 29.3825 46.9264 29.4955 46.8136C29.6085 46.7007 29.6723 46.5478 29.673 46.3881V43.6314C29.6723 43.299 29.4008 43.0275 29.0698 43.0275H27.2864V35.5337H29.0691C29.4008 35.5337 29.6716 35.2629 29.6716 34.9312V32.1745C29.6716 31.8428 29.4008 31.5713 29.0691 31.5713ZM44.5728 39.4536C44.5728 44.6075 48.1524 47.2479 52.5408 47.2479C56.9292 47.2479 60.5081 44.6075 60.5081 39.4536C60.5081 34.2996 56.9285 31.6585 52.5408 31.6585C48.1524 31.6585 44.5728 34.2996 44.5728 39.4536ZM52.5408 35.1899C54.3143 35.1899 54.8232 36.6338 54.8232 39.4536C54.8232 42.2719 54.3143 43.7172 52.5408 43.7179C50.7666 43.7179 50.2576 42.2726 50.2576 39.4536C50.2576 36.6345 50.7666 35.1899 52.5408 35.1899ZM37.1201 37.2263C37.3802 37.2889 37.6493 37.3537 37.9175 37.4291C41.6977 38.4931 44.0185 39.7109 44.0872 42.8042C44.1411 45.2618 41.9664 47.4088 38.2811 47.3606C36.4258 47.3365 35.6266 46.754 35.0578 46.3394C34.6254 46.0243 34.326 45.8062 33.797 46.0039C33.6141 46.0721 33.5753 46.2419 33.5334 46.4249C33.4675 46.7135 33.3939 47.0351 32.7359 47.0438L31.1049 47.0629C30.6902 47.0686 30.3081 46.8857 30.3081 46.3179V43.1282C30.3081 42.6355 30.676 41.9224 31.1694 41.9224H32.8359C33.2673 41.9224 33.6965 42.279 34.1915 42.6902C34.4756 42.9263 34.7814 43.1803 35.1218 43.3954C36.027 43.9674 37.1952 44.1957 37.892 44.1957C39.0077 44.1928 39.333 43.7236 39.3564 43.3054C39.4059 42.425 38.0272 42.0785 36.7316 41.7529C36.3362 41.6536 35.9486 41.5561 35.6117 41.4461C32.7132 40.5005 30.3762 39.3685 30.3081 36.2751C30.2536 33.8183 32.429 31.6712 36.1135 31.7194C37.9685 31.744 38.768 32.3266 39.337 32.7413C39.7697 33.0567 40.0692 33.275 40.5983 33.0769C40.7813 33.0086 40.82 32.8389 40.8617 32.6559C40.9275 32.3674 41.0007 32.0459 41.6587 32.0377L43.2898 32.0179C43.7044 32.0129 44.0865 32.1958 44.0865 32.7628V35.9519C44.0865 36.4452 43.7179 37.1576 43.2253 37.1576H41.5588C41.1268 37.1576 40.6976 36.8012 40.2025 36.3899C39.9186 36.1541 39.613 35.9003 39.2728 35.6854C38.3676 35.1133 37.1994 34.8837 36.5027 34.8851C35.387 34.8879 35.0616 35.3565 35.0382 35.7747C34.9861 36.7125 35.9649 36.9482 37.1201 37.2263Z"/>
</mask>
<path fill-rule="evenodd" clip-rule="evenodd" d="M29.0691 31.5713H20.456C20.1243 31.5713 19.8535 31.8421 19.8535 32.1738V34.9305C19.8541 35.0902 19.9178 35.2432 20.0309 35.3561C20.1439 35.469 20.297 35.5326 20.4567 35.533H22.3515V43.0275H20.456C20.1243 43.0275 19.8535 43.299 19.8535 43.6314V46.3881C19.8539 46.5478 19.9175 46.7008 20.0304 46.8137C20.1433 46.9266 20.2963 46.9902 20.456 46.9906H29.0698C29.2295 46.9901 29.3825 46.9264 29.4955 46.8136C29.6085 46.7007 29.6723 46.5478 29.673 46.3881V43.6314C29.6723 43.299 29.4008 43.0275 29.0698 43.0275H27.2864V35.5337H29.0691C29.4008 35.5337 29.6716 35.2629 29.6716 34.9312V32.1745C29.6716 31.8428 29.4008 31.5713 29.0691 31.5713ZM44.5728 39.4536C44.5728 44.6075 48.1524 47.2479 52.5408 47.2479C56.9292 47.2479 60.5081 44.6075 60.5081 39.4536C60.5081 34.2996 56.9285 31.6585 52.5408 31.6585C48.1524 31.6585 44.5728 34.2996 44.5728 39.4536ZM52.5408 35.1899C54.3143 35.1899 54.8232 36.6338 54.8232 39.4536C54.8232 42.2719 54.3143 43.7172 52.5408 43.7179C50.7666 43.7179 50.2576 42.2726 50.2576 39.4536C50.2576 36.6345 50.7666 35.1899 52.5408 35.1899ZM37.1201 37.2263C37.3802 37.2889 37.6493 37.3537 37.9175 37.4291C41.6977 38.4931 44.0185 39.7109 44.0872 42.8042C44.1411 45.2618 41.9664 47.4088 38.2811 47.3606C36.4258 47.3365 35.6266 46.754 35.0578 46.3394C34.6254 46.0243 34.326 45.8062 33.797 46.0039C33.6141 46.0721 33.5753 46.2419 33.5334 46.4249C33.4675 46.7135 33.3939 47.0351 32.7359 47.0438L31.1049 47.0629C30.6902 47.0686 30.3081 46.8857 30.3081 46.3179V43.1282C30.3081 42.6355 30.676 41.9224 31.1694 41.9224H32.8359C33.2673 41.9224 33.6965 42.279 34.1915 42.6902C34.4756 42.9263 34.7814 43.1803 35.1218 43.3954C36.027 43.9674 37.1952 44.1957 37.892 44.1957C39.0077 44.1928 39.333 43.7236 39.3564 43.3054C39.4059 42.425 38.0272 42.0785 36.7316 41.7529C36.3362 41.6536 35.9486 41.5561 35.6117 41.4461C32.7132 40.5005 30.3762 39.3685 30.3081 36.2751C30.2536 33.8183 32.429 31.6712 36.1135 31.7194C37.9685 31.744 38.768 32.3266 39.337 32.7413C39.7697 33.0567 40.0692 33.275 40.5983 33.0769C40.7813 33.0086 40.82 32.8389 40.8617 32.6559C40.9275 32.3674 41.0007 32.0459 41.6587 32.0377L43.2898 32.0179C43.7044 32.0129 44.0865 32.1958 44.0865 32.7628V35.9519C44.0865 36.4452 43.7179 37.1576 43.2253 37.1576H41.5588C41.1268 37.1576 40.6976 36.8012 40.2025 36.3899C39.9186 36.1541 39.613 35.9003 39.2728 35.6854C38.3676 35.1133 37.1994 34.8837 36.5027 34.8851C35.387 34.8879 35.0616 35.3565 35.0382 35.7747C34.9861 36.7125 35.9649 36.9482 37.1201 37.2263Z" fill="#F6CA46"/>
<path d="M19.8535 34.9305H18.5898L18.5898 34.9349L19.8535 34.9305ZM20.0309 35.3561L19.1378 36.2503L19.1378 36.2503L20.0309 35.3561ZM20.4567 35.533L20.4538 36.7967H20.4567V35.533ZM22.3515 35.533H23.6152V34.2692H22.3515V35.533ZM22.3515 43.0275V44.2912H23.6152V43.0275H22.3515ZM19.8535 46.3881H18.5898L18.5898 46.3911L19.8535 46.3881ZM20.0304 46.8137L19.1368 47.7073L19.1368 47.7073L20.0304 46.8137ZM20.456 46.9906L20.4531 48.2543H20.456V46.9906ZM29.0698 46.9906V48.2544L29.0742 48.2543L29.0698 46.9906ZM29.4955 46.8136L30.3885 47.7077L29.4955 46.8136ZM29.673 46.3881L30.9368 46.394V46.3881H29.673ZM29.673 43.6314H30.9368L30.9368 43.6287L29.673 43.6314ZM27.2864 43.0275H26.0226V44.2912H27.2864V43.0275ZM27.2864 35.5337V34.27H26.0226V35.5337H27.2864ZM52.5408 43.7179V44.9816H52.5413L52.5408 43.7179ZM37.9175 37.4291L38.2599 36.2126L38.2596 36.2126L37.9175 37.4291ZM37.1201 37.2263L37.4159 35.9977L37.1201 37.2263ZM44.0872 42.8042L45.3506 42.7765L45.3506 42.7761L44.0872 42.8042ZM38.2811 47.3606L38.2977 46.097L38.2976 46.097L38.2811 47.3606ZM35.0578 46.3394L34.3135 47.3607L34.3135 47.3607L35.0578 46.3394ZM33.797 46.0039L34.2386 47.188L34.2396 47.1876L33.797 46.0039ZM33.5334 46.4249L34.7654 46.7066L34.7654 46.7066L33.5334 46.4249ZM32.7359 47.0438L32.7507 48.3074L32.7526 48.3074L32.7359 47.0438ZM31.1049 47.0629L31.09 45.7993L31.0876 45.7993L31.1049 47.0629ZM34.1915 42.6902L34.9991 41.7182L34.9991 41.7182L34.1915 42.6902ZM35.1218 43.3954L35.797 42.3271L35.7968 42.327L35.1218 43.3954ZM37.892 44.1957V45.4594L37.8952 45.4594L37.892 44.1957ZM39.3564 43.3054L38.0947 43.2345L38.0947 43.2348L39.3564 43.3054ZM36.7316 41.7529L36.4236 42.9785L36.7316 41.7529ZM35.6117 41.4461L36.004 40.2448L36.0036 40.2447L35.6117 41.4461ZM30.3081 36.2751L31.5716 36.2473L31.5716 36.2471L30.3081 36.2751ZM36.1135 31.7194L36.1302 30.4558L36.13 30.4558L36.1135 31.7194ZM39.337 32.7413L40.0813 31.72V31.72L39.337 32.7413ZM40.5983 33.0769L40.1567 31.8928L40.1552 31.8934L40.5983 33.0769ZM40.8617 32.6559L39.6296 32.375L39.6296 32.375L40.8617 32.6559ZM41.6587 32.0377L41.6434 30.7741L41.6429 30.7741L41.6587 32.0377ZM43.2898 32.0179L43.2747 30.7542L43.2744 30.7542L43.2898 32.0179ZM40.2025 36.3899L41.0099 35.4178V35.4178L40.2025 36.3899ZM39.2728 35.6854L38.5977 36.7537L38.5978 36.7538L39.2728 35.6854ZM36.5027 34.8851L36.5001 33.6214L36.4995 33.6214L36.5027 34.8851ZM35.0382 35.7747L33.7764 35.7041L33.7764 35.7046L35.0382 35.7747ZM20.456 32.835H29.0691V30.3076H20.456V32.835ZM21.1173 32.1738C21.1173 32.54 20.8222 32.835 20.456 32.835V30.3076C19.4263 30.3076 18.5898 31.1441 18.5898 32.1738H21.1173ZM21.1173 34.9305V32.1738H18.5898V34.9305H21.1173ZM20.9239 34.462C21.0471 34.5851 21.1166 34.7519 21.1172 34.926L18.5898 34.9349C18.5915 35.4285 18.7885 35.9014 19.1378 36.2503L20.9239 34.462ZM20.4597 34.2692C20.6338 34.2697 20.8007 34.339 20.9239 34.462L19.1378 36.2503C19.487 36.5991 19.9602 36.7956 20.4538 36.7967L20.4597 34.2692ZM22.3515 34.2692H20.4567V36.7967H22.3515V34.2692ZM23.6152 43.0275V35.533H21.0877V43.0275H23.6152ZM20.456 44.2912H22.3515V41.7638H20.456V44.2912ZM21.1173 43.6314C21.1173 43.994 20.8251 44.2912 20.456 44.2912V41.7638C19.4235 41.7638 18.5898 42.6039 18.5898 43.6314H21.1173ZM21.1173 46.3881V43.6314H18.5898V46.3881H21.1173ZM20.924 45.9201C21.0474 46.0435 21.1168 46.2107 21.1172 46.3851L18.5898 46.3911C18.5909 46.8849 18.7876 47.3581 19.1368 47.7073L20.924 45.9201ZM20.459 45.7269C20.6334 45.7273 20.8006 45.7968 20.924 45.9201L19.1368 47.7073C19.486 48.0565 19.9592 48.2532 20.4531 48.2543L20.459 45.7269ZM29.0698 45.7269H20.456V48.2543H29.0698V45.7269ZM28.6024 45.9194C28.7253 45.7967 28.8917 45.7275 29.0654 45.7269L29.0742 48.2543C29.5673 48.2526 30.0397 48.0561 30.3885 47.7077L28.6024 45.9194ZM28.4093 46.3822C28.4101 46.2085 28.4795 46.0422 28.6024 45.9194L30.3885 47.7077C30.7374 47.3592 30.9344 46.8871 30.9367 46.394L28.4093 46.3822ZM28.4093 43.6314V46.3881H30.9368V43.6314H28.4093ZM29.0698 44.2912C28.7004 44.2912 28.4101 43.9951 28.4093 43.6341L30.9368 43.6287C30.9346 42.6029 30.1012 41.7638 29.0698 41.7638V44.2912ZM27.2864 44.2912H29.0698V41.7638H27.2864V44.2912ZM26.0226 35.5337V43.0275H28.5501V35.5337H26.0226ZM29.0691 34.27H27.2864V36.7974H29.0691V34.27ZM28.4079 34.9312C28.4079 34.565 28.7029 34.27 29.0691 34.27V36.7974C30.0988 36.7974 30.9353 35.9609 30.9353 34.9312H28.4079ZM28.4079 32.1745V34.9312H30.9353V32.1745H28.4079ZM29.0691 32.835C28.701 32.835 28.4079 32.5388 28.4079 32.1745H30.9353C30.9353 31.1468 30.1007 30.3076 29.0691 30.3076V32.835ZM52.5408 45.9842C50.5921 45.9842 48.9239 45.399 47.7584 44.3458C46.6121 43.31 45.8365 41.7187 45.8365 39.4536H43.309C43.309 42.3424 44.3232 44.6482 46.0639 46.2211C47.7853 47.7766 50.1011 48.5117 52.5408 48.5117V45.9842ZM59.2444 39.4536C59.2444 41.7188 58.4689 43.3101 57.3228 44.3459C56.1575 45.399 54.4895 45.9842 52.5408 45.9842V48.5117C54.9805 48.5117 57.2962 47.7766 59.0174 46.221C60.7579 44.6481 61.7719 42.3423 61.7719 39.4536H59.2444ZM52.5408 32.9222C54.489 32.9222 56.157 33.5075 57.3225 34.5608C58.4688 35.5969 59.2444 37.1884 59.2444 39.4536H61.7719C61.7719 36.5648 60.7577 34.2588 59.0172 32.6857C57.2959 31.13 54.9803 30.3947 52.5408 30.3947V32.9222ZM45.8365 39.4536C45.8365 37.1884 46.6121 35.5969 47.7585 34.5609C48.924 33.5075 50.5922 32.9222 52.5408 32.9222V30.3947C50.101 30.3947 47.7852 31.13 46.0638 32.6857C44.3232 34.2587 43.309 36.5648 43.309 39.4536H45.8365ZM56.087 39.4536C56.087 38.0288 55.9692 36.7046 55.4823 35.7091C55.2225 35.1779 54.842 34.7058 54.2989 34.3778C53.7603 34.0525 53.1564 33.9262 52.5408 33.9262V36.4536C52.8119 36.4536 52.9367 36.5077 52.9923 36.5414C53.0435 36.5722 53.1227 36.6373 53.2118 36.8195C53.4228 37.2509 53.5595 38.0586 53.5595 39.4536H56.087ZM52.5413 44.9816C53.1571 44.9814 53.761 44.8546 54.2995 44.5291C54.8424 44.2008 55.2227 43.7286 55.4824 43.1974C55.9692 42.2017 56.087 40.8778 56.087 39.4536H53.5595C53.5595 40.8477 53.4229 41.6555 53.2118 42.0873C53.1225 42.2698 53.0431 42.3352 52.9918 42.3662C52.936 42.3999 52.8112 42.4541 52.5403 42.4542L52.5413 44.9816ZM48.9939 39.4536C48.9939 40.8781 49.1117 42.2023 49.5986 43.198C49.8584 43.7293 50.2389 44.2016 50.7821 44.5297C51.3208 44.8551 51.9248 44.9816 52.5408 44.9816V42.4542C52.2696 42.4542 52.1447 42.4 52.089 42.3663C52.0377 42.3354 51.9584 42.2702 51.8691 42.0877C51.658 41.656 51.5214 40.8481 51.5214 39.4536H48.9939ZM52.5408 33.9262C51.9249 33.9262 51.3209 34.0526 50.7823 34.3779C50.2391 34.7059 49.8585 35.1781 49.5987 35.7093C49.1117 36.7049 48.9939 38.0291 48.9939 39.4536H51.5214C51.5214 38.059 51.6581 37.2513 51.8691 36.8199C51.9583 36.6376 52.0376 36.5724 52.0888 36.5415C52.1446 36.5078 52.2695 36.4536 52.5408 36.4536V33.9262ZM38.2596 36.2126C37.9646 36.1296 37.6724 36.0594 37.4159 35.9977L36.8243 38.4549C37.088 38.5184 37.3339 38.5778 37.5754 38.6457L38.2596 36.2126ZM45.3506 42.7761C45.3077 40.8452 44.528 39.4126 43.1692 38.3575C41.8987 37.3709 40.1638 36.7485 38.2599 36.2126L37.5751 38.6456C39.4515 39.1737 40.767 39.6922 41.6191 40.3538C42.3829 40.9469 42.798 41.6699 42.8238 42.8323L45.3506 42.7761ZM38.2646 48.6242C42.4345 48.6788 45.4248 46.1603 45.3506 42.7765L42.8238 42.8319C42.8574 44.3632 41.4983 46.1389 38.2977 46.097L38.2646 48.6242ZM34.3135 47.3607C34.6058 47.5738 35.0573 47.9065 35.7191 48.1703C36.383 48.435 37.2022 48.6104 38.2647 48.6242L38.2976 46.097C37.5048 46.0867 36.9967 45.9588 36.655 45.8225C36.3111 45.6854 36.0786 45.5197 35.8021 45.3182L34.3135 47.3607ZM34.2396 47.1876C34.2625 47.179 34.2399 47.1908 34.1845 47.192C34.1252 47.1933 34.0731 47.1817 34.0409 47.1703C34.0172 47.1619 34.0233 47.1601 34.0753 47.1931C34.1003 47.209 34.1313 47.2299 34.1721 47.2587C34.2137 47.288 34.2579 47.3202 34.3135 47.3607L35.8021 45.3182C35.6283 45.1915 35.2893 44.9314 34.8863 44.7884C34.3879 44.6115 33.8737 44.6261 33.3545 44.8202L34.2396 47.1876ZM34.7654 46.7066C34.771 46.6822 34.7742 46.6681 34.7772 46.6558C34.78 46.6444 34.7809 46.6414 34.7803 46.6433C34.78 46.6445 34.7681 46.687 34.7372 46.7472C34.7043 46.8116 34.6468 46.9021 34.5525 46.9912C34.4554 47.083 34.3458 47.148 34.2386 47.188L33.3555 44.8198C32.4372 45.1623 32.3103 46.1047 32.3015 46.1432L34.7654 46.7066ZM32.7526 48.3074C33.2775 48.3005 33.8541 48.162 34.2838 47.698C34.6585 47.2935 34.745 46.7958 34.7654 46.7066L32.3015 46.1432C32.2819 46.229 32.2819 46.2209 32.2896 46.2002C32.3022 46.1663 32.3409 46.0762 32.4295 45.9806C32.5235 45.8791 32.6273 45.8212 32.7038 45.7939C32.7688 45.7707 32.7863 45.7793 32.7192 45.7801L32.7526 48.3074ZM31.1197 48.3266L32.7507 48.3074L32.7211 45.7801L31.09 45.7993L31.1197 48.3266ZM29.0444 46.3179C29.0444 46.9104 29.2606 47.498 29.7694 47.8985C30.2268 48.2585 30.7518 48.3316 31.1222 48.3265L31.0876 45.7993C31.0433 45.7999 31.1699 45.7843 31.3326 45.9124C31.4215 45.9824 31.4908 46.0735 31.5325 46.1691C31.5719 46.2592 31.5719 46.3187 31.5719 46.3179H29.0444ZM29.0444 43.1282V46.3179H31.5719V43.1282H29.0444ZM31.1694 40.6587C30.2843 40.6587 29.7355 41.2751 29.4896 41.6589C29.2209 42.0783 29.0444 42.6133 29.0444 43.1282H31.5719C31.5719 43.154 31.5686 43.1442 31.5804 43.1061C31.5914 43.0706 31.6066 43.0399 31.6179 43.0222C31.6315 43.001 31.6203 43.0275 31.5636 43.0682C31.5007 43.1133 31.364 43.1862 31.1694 43.1862V40.6587ZM32.8359 40.6587H31.1694V43.1862H32.8359V40.6587ZM34.9991 41.7182C34.7695 41.5275 34.4709 41.2765 34.1634 41.0828C33.8559 40.8891 33.3984 40.6587 32.8359 40.6587V43.1862C32.7048 43.1862 32.6775 43.134 32.8163 43.2214C32.955 43.3088 33.1185 43.4417 33.384 43.6623L34.9991 41.7182ZM35.7968 42.327C35.5368 42.1627 35.2921 41.9616 34.9991 41.7182L33.384 43.6623C33.6592 43.8909 34.0261 44.198 34.4469 44.4638L35.7968 42.327ZM37.892 42.9319C37.3859 42.9319 36.4628 42.7479 35.797 42.3271L34.4467 44.4637C35.5912 45.1869 37.0045 45.4594 37.892 45.4594V42.9319ZM38.0947 43.2348C38.0972 43.1896 38.109 43.1263 38.1434 43.0571C38.1798 42.9842 38.2283 42.9312 38.2694 42.9C38.3434 42.8438 38.2903 42.9309 37.8888 42.9319L37.8952 45.4594C38.6093 45.4576 39.2769 45.3087 39.7982 44.9126C40.3548 44.4899 40.5886 43.9044 40.6182 43.3759L38.0947 43.2348ZM36.4236 42.9785C37.1104 43.1511 37.643 43.2903 38.0068 43.4629C38.1827 43.5463 38.2196 43.5935 38.2022 43.5738C38.157 43.5226 38.0858 43.3925 38.0947 43.2345L40.6182 43.3762C40.69 42.0977 39.6646 41.4519 39.09 41.1793C38.4529 40.8771 37.6483 40.6803 37.0396 40.5273L36.4236 42.9785ZM35.2193 42.6474C35.6062 42.7737 36.0393 42.882 36.4236 42.9785L37.0396 40.5273C36.6331 40.4251 36.291 40.3385 36.004 40.2448L35.2193 42.6474ZM29.0447 36.3029C29.0871 38.2288 29.8649 39.6267 31.0943 40.6409C32.2494 41.5938 33.7623 42.1721 35.2197 42.6475L36.0036 40.2447C34.5625 39.7745 33.4577 39.314 32.7027 38.6912C32.022 38.1296 31.5973 37.4149 31.5716 36.2473L29.0447 36.3029ZM36.13 30.4558C31.9613 30.4013 28.9695 32.9195 29.0447 36.3032L31.5716 36.2471C31.5376 34.7171 32.8967 32.9412 36.097 32.9831L36.13 30.4558ZM40.0813 31.72C39.7889 31.5069 39.3373 31.1742 38.6756 30.9103C38.0117 30.6455 37.1926 30.4699 36.1302 30.4558L36.0968 32.9831C36.8894 32.9936 37.3975 33.1216 37.7393 33.2579C38.0834 33.3951 38.316 33.561 38.5927 33.7626L40.0813 31.72ZM40.1552 31.8934C40.1322 31.902 40.1548 31.8902 40.2103 31.8889C40.2697 31.8876 40.3219 31.8992 40.3541 31.9107C40.3778 31.9191 40.3717 31.9209 40.3196 31.8878C40.2946 31.8719 40.2636 31.851 40.2228 31.8222C40.1812 31.7928 40.1369 31.7606 40.0813 31.72L38.5927 33.7626C38.7666 33.8894 39.1058 34.1496 39.5089 34.2926C40.0076 34.4696 40.5221 34.4548 41.0414 34.2604L40.1552 31.8934ZM39.6296 32.375C39.624 32.3994 39.6208 32.4134 39.6178 32.4257C39.615 32.4372 39.6141 32.4402 39.6147 32.4382C39.615 32.437 39.6269 32.3944 39.6578 32.3341C39.6908 32.2696 39.7483 32.1789 39.8426 32.0897C39.9398 31.9978 40.0495 31.9328 40.1567 31.8928L41.0399 34.2609C41.9587 33.9183 42.085 32.9752 42.0938 32.9368L39.6296 32.375ZM41.6429 30.7741C41.1183 30.7806 40.5411 30.9186 40.111 31.3829C39.736 31.7877 39.6499 32.286 39.6296 32.375L42.0938 32.9368C42.1133 32.8511 42.1134 32.8593 42.1056 32.8801C42.0929 32.9142 42.0541 33.0045 41.9652 33.1005C41.8709 33.2023 41.7668 33.2602 41.6902 33.2876C41.625 33.3108 41.6074 33.3022 41.6746 33.3013L41.6429 30.7741ZM43.2744 30.7542L41.6434 30.7741L41.6741 33.3013L43.3051 33.2815L43.2744 30.7542ZM45.3502 32.7628C45.3502 32.17 45.1336 31.5829 44.6253 31.1828C44.1685 30.8233 43.6444 30.7498 43.2747 30.7542L43.3049 33.2815C43.3498 33.281 43.2241 33.2964 43.062 33.1689C42.9734 33.0991 42.9041 33.0082 42.8623 32.9125C42.8429 32.868 42.8328 32.8304 42.8277 32.8037C42.8252 32.7905 42.824 32.7802 42.8234 32.7733C42.8231 32.7699 42.8229 32.7673 42.8228 32.7655C42.8228 32.7638 42.8228 32.7629 42.8228 32.7628H45.3502ZM45.3502 35.9519V32.7628H42.8228V35.9519H45.3502ZM43.2253 38.4214C44.1097 38.4214 44.6586 37.8053 44.9045 37.4219C45.1733 37.0026 45.3502 36.4674 45.3502 35.9519H42.8228C42.8228 35.9261 42.8261 35.9359 42.8143 35.9739C42.8033 36.0093 42.7881 36.04 42.7768 36.0577C42.7632 36.0789 42.7743 36.0525 42.831 36.0118C42.8937 35.9668 43.0304 35.8939 43.2253 35.8939V38.4214ZM41.5588 38.4214H43.2253V35.8939H41.5588V38.4214ZM39.395 37.3621C39.6246 37.5527 39.9233 37.8037 40.231 37.9974C40.5388 38.1912 40.9963 38.4214 41.5588 38.4214V35.8939C41.6892 35.8939 41.7161 35.9458 41.5776 35.8586C41.4389 35.7712 41.2755 35.6383 41.0099 35.4178L39.395 37.3621ZM38.5978 36.7538C38.8578 36.918 39.1022 37.1189 39.395 37.3621L41.0099 35.4178C40.7349 35.1894 40.3683 34.8826 39.9477 34.617L38.5978 36.7538ZM36.5052 36.1488C37.0079 36.1478 37.9307 36.3322 38.5977 36.7537L39.9479 34.6171C38.8045 33.8945 37.391 33.6196 36.5001 33.6214L36.5052 36.1488ZM36.3 35.8453C36.2974 35.8905 36.2856 35.954 36.251 36.0234C36.2146 36.0965 36.1659 36.1496 36.1247 36.1808C36.0508 36.237 36.1039 36.1499 36.5059 36.1488L36.4995 33.6214C35.7857 33.6232 35.1183 33.7718 34.5969 34.1674C34.0401 34.5899 33.806 35.1754 33.7764 35.7041L36.3 35.8453ZM37.4159 35.9977C37.1192 35.9262 36.8767 35.8675 36.6626 35.8034C36.4468 35.7388 36.3147 35.6843 36.2365 35.6412C36.1611 35.5996 36.1939 35.6002 36.2399 35.6713C36.2638 35.7082 36.2818 35.7499 36.2918 35.7902C36.3014 35.829 36.2997 35.8502 36.3 35.8447L33.7764 35.7046C33.7502 36.1773 33.8553 36.6386 34.1182 37.0448C34.3693 37.4326 34.7092 37.6853 35.0163 37.8546C35.5809 38.1658 36.3062 38.3302 36.8243 38.4549L37.4159 35.9977Z" fill="#380000" mask="url(#path-3-outside-1_4258_13597)"/>
<rect x="38.7627" y="31.1343" width="2.15625" height="1.07812" fill="#380000"/>
</svg>
