<svg width="50" height="50" viewBox="0 0 50 50" fill="none" xmlns="http://www.w3.org/2000/svg">
<circle cx="25" cy="25" r="24.5" fill="#380000" stroke="#981C1F"/>
<path fill-rule="evenodd" clip-rule="evenodd" d="M34.3837 30.2309H33.5816C31.8186 33.0015 28.7208 34.8461 25.2053 34.8461C21.6898 34.8461 18.592 33.0015 16.8291 30.2309H16.26C18.0689 33.3578 21.4497 35.4615 25.3218 35.4615C29.194 35.4615 32.5748 33.3578 34.3837 30.2309ZM17.3061 30.2309C17.8372 31.0183 18.4824 31.723 19.221 32.3215C19.4785 32.0227 19.8508 31.7492 20.3133 31.5109C20.0255 31.1048 19.7702 30.6768 19.5497 30.2309H17.3061ZM19.9966 30.2309C20.1975 30.6161 20.4256 30.9864 20.6794 31.339C20.8904 31.2472 21.1162 31.1619 21.3549 31.0847C21.6876 30.9766 22.0468 30.8815 22.4272 30.8027C22.3618 30.6185 22.2995 30.4276 22.2406 30.2309H19.9966ZM22.6562 30.2309C22.7077 30.3976 22.763 30.563 22.822 30.7272C23.5434 30.6044 24.2735 30.5389 25.0053 30.5312V30.2309H22.6562ZM25.4045 30.2309V30.5312C26.1365 30.5389 26.8667 30.6044 27.5883 30.7272C27.6471 30.563 27.7024 30.3975 27.754 30.2309H25.4045ZM28.1696 30.2309C28.1108 30.4275 28.0485 30.6177 27.9834 30.8019C28.3132 30.8703 28.6394 30.9546 28.961 31.0545C29.2227 31.1359 29.4799 31.2308 29.7316 31.339C29.9855 30.9864 30.2135 30.6161 30.414 30.2309H28.1696ZM30.8607 30.2309C30.6404 30.6769 30.3852 31.1049 30.0974 31.5109C30.5603 31.7492 30.9325 32.0227 31.1901 32.3215C31.9283 31.7227 32.5735 31.0181 33.1048 30.2309H30.8607ZM34.3839 19.7694C32.5751 16.6423 29.1942 14.5385 25.3218 14.5385C21.4495 14.5385 18.0686 16.6423 16.2598 19.7694H16.829C18.592 16.9984 21.6898 15.1538 25.2053 15.1538C28.7208 15.1538 31.8186 16.9984 33.5816 19.7694H34.3839ZM33.1048 19.7694C32.5732 18.9824 31.9281 18.2778 31.1901 17.6788C30.9325 17.9772 30.5603 18.2507 30.0974 18.4891C30.3851 18.8952 30.6403 19.3233 30.8606 19.7694H33.1048ZM30.4138 19.7694C30.2133 19.3845 29.9854 19.0145 29.7316 18.6621C29.4929 18.7654 29.2349 18.8609 28.961 18.9466C28.6549 19.0426 28.3279 19.1275 27.9834 19.1989C28.0484 19.3828 28.1106 19.5731 28.1694 19.7694H30.4138ZM27.7538 19.7694C27.7023 19.6031 27.6471 19.4379 27.5883 19.274C26.8666 19.3965 26.1365 19.4621 25.4045 19.4703V19.7694H27.7538ZM25.0053 19.7694V19.4703C24.2735 19.4623 23.5435 19.3967 22.822 19.274C22.7632 19.4379 22.7081 19.6031 22.6566 19.7694H25.0053ZM22.241 19.7694C22.2997 19.5732 22.3619 19.3827 22.4272 19.1989C22.0649 19.1244 21.7069 19.0301 21.3549 18.9164C21.1258 18.8425 20.9004 18.7577 20.6794 18.6621C20.4257 19.0145 20.1975 19.3845 19.9968 19.7694H22.241ZM19.5498 19.7694C19.7703 19.3234 20.0256 18.8953 20.3133 18.4891C19.8508 18.2507 19.4785 17.9776 19.221 17.6788C18.4826 18.2776 17.8374 18.9822 17.3062 19.7694H19.5498ZM23.3714 16.3563C23.0624 16.2314 22.8109 16.0779 22.6383 15.9065C23.455 15.6767 24.3159 15.5534 25.2049 15.5534C26.0939 15.5534 26.9552 15.6767 27.7724 15.9065C27.5781 16.0992 27.2862 16.2686 26.9262 16.4C26.4466 16.5755 25.8511 16.6792 25.2053 16.6792C24.5082 16.6792 23.8698 16.558 23.3714 16.3563ZM22.2211 16.0343C22.3233 16.1629 22.4427 16.2769 22.5758 16.373C21.8252 16.8045 21.1419 17.4155 20.5537 18.1662C20.1161 17.9486 19.7688 17.7013 19.5349 17.4339C20.3498 16.8269 21.2567 16.3544 22.2211 16.0343ZM23.2232 16.7261C23.3815 16.7897 23.5434 16.8438 23.7081 16.8882C23.2779 17.3498 22.8918 18.0103 22.5693 18.8217C22.1811 18.7434 21.8154 18.6478 21.4786 18.538C21.2852 18.4752 21.1015 18.4078 20.9284 18.336C21.5219 17.5964 22.2129 17.0074 22.9697 16.6122C23.0527 16.6534 23.1373 16.6914 23.2232 16.7261ZM24.1702 16.9902C24.4462 17.0384 24.7253 17.0667 25.0053 17.0751V19.0715C24.2877 19.0617 23.6012 18.9997 22.9673 18.8944C23.3089 18.0539 23.7183 17.3984 24.1702 16.9902ZM25.4045 17.0751C25.6847 17.0666 25.9639 17.0382 26.2401 16.9902C26.6919 17.3984 27.1013 18.0543 27.443 18.8944C26.7689 19.0046 26.0875 19.0638 25.4045 19.0715V17.0751ZM27.0617 16.7739C27.1956 16.7249 27.3226 16.671 27.4405 16.6118C28.1977 17.007 28.8888 17.596 29.4827 18.3356C29.2729 18.422 29.0593 18.4989 28.8426 18.5662C28.5135 18.6684 28.1793 18.7534 27.8414 18.8209C27.5189 18.0103 27.1328 17.3498 26.7025 16.8882C26.8274 16.8539 26.9474 16.8155 27.0617 16.7739ZM27.8344 16.3735C27.9678 16.2774 28.0873 16.1634 28.1895 16.0347C29.1539 16.3548 30.0607 16.8275 30.8754 17.4347C30.6411 17.7021 30.2937 17.9494 29.8561 18.1666C29.2688 17.4159 28.5851 16.8053 27.8344 16.3735ZM23.3714 33.644C23.0624 33.7693 22.8109 33.9224 22.6383 34.0938C23.455 34.3232 24.3159 34.4469 25.2049 34.4469C26.0939 34.4469 26.9552 34.3241 27.7724 34.0938C27.5781 33.9016 27.2862 33.7318 26.9262 33.6003C26.4466 33.4256 25.8511 33.322 25.2053 33.322C24.5082 33.322 23.8698 33.4424 23.3714 33.644ZM22.2211 33.9661C22.3232 33.8374 22.4426 33.7234 22.5758 33.6273C21.8252 33.1962 21.1419 32.5852 20.5537 31.8341C20.1161 32.0517 19.7688 32.2991 19.5349 32.566C20.3497 33.1733 21.2566 33.646 22.2211 33.9661ZM23.2232 33.2738C23.3815 33.2104 23.5434 33.1564 23.7081 33.1122C23.2779 32.6509 22.8918 31.9905 22.5693 31.1786C22.1811 31.2566 21.8154 31.3521 21.4786 31.4623C21.2852 31.5252 21.1015 31.5921 20.9284 31.6639C21.5219 32.404 22.2129 32.993 22.9697 33.3877C23.0529 33.3468 23.1374 33.3088 23.2232 33.2738ZM24.1702 33.0101C24.4347 32.964 24.7151 32.9342 25.0053 32.9248V30.9284C24.3225 30.9371 23.6413 30.9963 22.9673 31.1055C23.3089 31.9468 23.7183 32.6019 24.1702 33.0101ZM25.4045 32.9248C25.6847 32.9337 25.9639 32.9622 26.2401 33.0101C26.6919 32.6019 27.1013 31.946 27.443 31.1055C26.8087 31.0002 26.1225 30.9386 25.4045 30.9284V32.9248ZM27.0617 33.2265C27.1909 33.2733 27.3174 33.3272 27.4405 33.3881C28.1977 32.9934 28.8888 32.4044 29.4827 31.6648C29.2831 31.5827 29.0692 31.5056 28.8426 31.4345C28.5304 31.3366 28.1957 31.2513 27.8414 31.1794C27.5189 31.9909 27.1328 32.6509 26.7025 33.1126C26.8274 33.1469 26.9474 33.1848 27.0617 33.2265ZM27.8344 33.6273C27.968 33.7231 28.0875 33.8372 28.1895 33.9661C29.1538 33.6456 30.0605 33.173 30.8754 32.566C30.6411 32.2991 30.2937 32.0517 29.8561 31.8341C29.2688 32.5844 28.5851 33.1958 27.8344 33.6273Z" fill="white"/>
<mask id="path-3-outside-1_4910_11511" maskUnits="userSpaceOnUse" x="9.84546" y="18.5541" width="30" height="13" fill="black">
<rect fill="white" x="9.84546" y="18.5541" width="30" height="13"/>
<path fill-rule="evenodd" clip-rule="evenodd" d="M17.2563 19.5541H11.2646C11.0338 19.5541 10.8455 19.7424 10.8455 19.9732V21.8909C10.8458 22.002 10.8902 22.1085 10.9688 22.187C11.0475 22.2655 11.154 22.3098 11.2651 22.31H12.5832V27.5236H11.2646C11.0338 27.5236 10.8455 27.7125 10.8455 27.9437V29.8614C10.8457 29.9725 10.89 30.079 10.9685 30.1575C11.0471 30.2361 11.1535 30.2803 11.2646 30.2806H17.2568C17.3679 30.2802 17.4743 30.2359 17.5529 30.1574C17.6315 30.0789 17.6759 29.9725 17.6764 29.8614V27.9437C17.6759 27.7125 17.4871 27.5236 17.2568 27.5236H16.0161V22.3105H17.2563C17.4871 22.3105 17.6754 22.1222 17.6754 21.8914V19.9737C17.6754 19.7429 17.4871 19.5541 17.2563 19.5541ZM28.0415 25.0374C28.0415 28.6227 30.5316 30.4596 33.5844 30.4596C36.6372 30.4596 39.1269 28.6227 39.1269 25.0374C39.1269 21.452 36.6367 19.6147 33.5844 19.6147C30.5316 19.6147 28.0415 21.452 28.0415 25.0374ZM33.5844 22.0714C34.8182 22.0714 35.1722 23.0758 35.1722 25.0374C35.1722 26.998 34.8182 28.0034 33.5844 28.0039C32.3502 28.0039 31.9961 26.9985 31.9961 25.0374C31.9961 23.0763 32.3502 22.0714 33.5844 22.0714ZM22.857 23.488C23.0379 23.5315 23.2251 23.5766 23.4117 23.6291C26.0414 24.3692 27.6559 25.2164 27.7037 27.3683C27.7412 29.0779 26.2283 30.5715 23.6647 30.538C22.374 30.5212 21.8181 30.116 21.4223 29.8276C21.1215 29.6084 20.9133 29.4566 20.5453 29.5942C20.418 29.6416 20.391 29.7597 20.3619 29.887C20.316 30.0878 20.2649 30.3115 19.8071 30.3175L18.6725 30.3309C18.384 30.3348 18.1182 30.2076 18.1182 29.8126V27.5936C18.1182 27.2509 18.3742 26.7549 18.7174 26.7549H19.8767C20.1768 26.7549 20.4753 27.0029 20.8197 27.289C21.0174 27.4532 21.2301 27.6299 21.4669 27.7795C22.0966 28.1775 22.9092 28.3363 23.394 28.3363C24.1701 28.3343 24.3964 28.0078 24.4127 27.7169C24.4471 27.1045 23.488 26.8634 22.5867 26.6369C22.3117 26.5678 22.042 26.5001 21.8076 26.4235C19.7913 25.7657 18.1656 24.9782 18.1182 22.8263C18.0803 21.1172 19.5936 19.6236 22.1568 19.6571C23.4472 19.6742 24.0033 20.0795 24.3992 20.368C24.7002 20.5874 24.9086 20.7392 25.2766 20.6014C25.4039 20.554 25.4308 20.4359 25.4598 20.3086C25.5056 20.1079 25.5566 19.8843 26.0143 19.8785L27.1489 19.8647C27.4374 19.8613 27.7032 19.9885 27.7032 20.383V22.6015C27.7032 22.9447 27.4468 23.4402 27.1041 23.4402H25.9448C25.6442 23.4402 25.3457 23.1922 25.0013 22.9062C24.8038 22.7421 24.5912 22.5656 24.3545 22.4161C23.7248 22.0181 22.9122 21.8584 22.4275 21.8593C21.6513 21.8613 21.425 22.1873 21.4087 22.4782C21.3725 23.1306 22.0534 23.2945 22.857 23.488Z"/>
</mask>
<path fill-rule="evenodd" clip-rule="evenodd" d="M17.2563 19.5541H11.2646C11.0338 19.5541 10.8455 19.7424 10.8455 19.9732V21.8909C10.8458 22.002 10.8902 22.1085 10.9688 22.187C11.0475 22.2655 11.154 22.3098 11.2651 22.31H12.5832V27.5236H11.2646C11.0338 27.5236 10.8455 27.7125 10.8455 27.9437V29.8614C10.8457 29.9725 10.89 30.079 10.9685 30.1575C11.0471 30.2361 11.1535 30.2803 11.2646 30.2806H17.2568C17.3679 30.2802 17.4743 30.2359 17.5529 30.1574C17.6315 30.0789 17.6759 29.9725 17.6764 29.8614V27.9437C17.6759 27.7125 17.4871 27.5236 17.2568 27.5236H16.0161V22.3105H17.2563C17.4871 22.3105 17.6754 22.1222 17.6754 21.8914V19.9737C17.6754 19.7429 17.4871 19.5541 17.2563 19.5541ZM28.0415 25.0374C28.0415 28.6227 30.5316 30.4596 33.5844 30.4596C36.6372 30.4596 39.1269 28.6227 39.1269 25.0374C39.1269 21.452 36.6367 19.6147 33.5844 19.6147C30.5316 19.6147 28.0415 21.452 28.0415 25.0374ZM33.5844 22.0714C34.8182 22.0714 35.1722 23.0758 35.1722 25.0374C35.1722 26.998 34.8182 28.0034 33.5844 28.0039C32.3502 28.0039 31.9961 26.9985 31.9961 25.0374C31.9961 23.0763 32.3502 22.0714 33.5844 22.0714ZM22.857 23.488C23.0379 23.5315 23.2251 23.5766 23.4117 23.6291C26.0414 24.3692 27.6559 25.2164 27.7037 27.3683C27.7412 29.0779 26.2283 30.5715 23.6647 30.538C22.374 30.5212 21.8181 30.116 21.4223 29.8276C21.1215 29.6084 20.9133 29.4566 20.5453 29.5942C20.418 29.6416 20.391 29.7597 20.3619 29.887C20.316 30.0878 20.2649 30.3115 19.8071 30.3175L18.6725 30.3309C18.384 30.3348 18.1182 30.2076 18.1182 29.8126V27.5936C18.1182 27.2509 18.3742 26.7549 18.7174 26.7549H19.8767C20.1768 26.7549 20.4753 27.0029 20.8197 27.289C21.0174 27.4532 21.2301 27.6299 21.4669 27.7795C22.0966 28.1775 22.9092 28.3363 23.394 28.3363C24.1701 28.3343 24.3964 28.0078 24.4127 27.7169C24.4471 27.1045 23.488 26.8634 22.5867 26.6369C22.3117 26.5678 22.042 26.5001 21.8076 26.4235C19.7913 25.7657 18.1656 24.9782 18.1182 22.8263C18.0803 21.1172 19.5936 19.6236 22.1568 19.6571C23.4472 19.6742 24.0033 20.0795 24.3992 20.368C24.7002 20.5874 24.9086 20.7392 25.2766 20.6014C25.4039 20.554 25.4308 20.4359 25.4598 20.3086C25.5056 20.1079 25.5566 19.8843 26.0143 19.8785L27.1489 19.8647C27.4374 19.8613 27.7032 19.9885 27.7032 20.383V22.6015C27.7032 22.9447 27.4468 23.4402 27.1041 23.4402H25.9448C25.6442 23.4402 25.3457 23.1922 25.0013 22.9062C24.8038 22.7421 24.5912 22.5656 24.3545 22.4161C23.7248 22.0181 22.9122 21.8584 22.4275 21.8593C21.6513 21.8613 21.425 22.1873 21.4087 22.4782C21.3725 23.1306 22.0534 23.2945 22.857 23.488Z" fill="white"/>
<path d="M10.8455 21.8909H10.2301L10.2301 21.8931L10.8455 21.8909ZM10.9688 22.187L11.4037 21.7516L11.4037 21.7516L10.9688 22.187ZM11.2651 22.31L11.2637 22.9254H11.2651V22.31ZM12.5832 22.31H13.1985V21.6947H12.5832V22.31ZM12.5832 27.5236V28.139H13.1985V27.5236H12.5832ZM10.8455 29.8614H10.2301L10.2301 29.8629L10.8455 29.8614ZM10.9685 30.1575L11.4037 29.7224L11.4037 29.7224L10.9685 30.1575ZM11.2646 30.2806L11.2631 30.8959H11.2646V30.2806ZM17.2568 30.2806V30.896L17.2589 30.8959L17.2568 30.2806ZM17.5529 30.1574L17.9878 30.5928L17.9878 30.5928L17.5529 30.1574ZM17.6764 29.8614L18.2918 29.8643V29.8614H17.6764ZM17.6764 27.9437H18.2918L18.2918 27.9424L17.6764 27.9437ZM16.0161 27.5236H15.4008V28.139H16.0161V27.5236ZM16.0161 22.3105V21.6951H15.4008V22.3105H16.0161ZM33.5844 28.0039V28.6193H33.5847L33.5844 28.0039ZM23.4117 23.6291L23.5784 23.0367L23.5783 23.0367L23.4117 23.6291ZM22.857 23.488L22.7129 24.0863H22.7129L22.857 23.488ZM27.7037 27.3683L28.3189 27.3548L28.3189 27.3546L27.7037 27.3683ZM23.6647 30.538L23.6727 29.9226L23.6727 29.9226L23.6647 30.538ZM21.4223 29.8276L21.7848 29.3303L21.7848 29.3303L21.4223 29.8276ZM20.5453 29.5942L20.7603 30.1708L20.7608 30.1706L20.5453 29.5942ZM20.3619 29.887L20.9618 30.0242V30.0242L20.3619 29.887ZM19.8071 30.3175L19.8143 30.9329L19.8152 30.9329L19.8071 30.3175ZM18.6725 30.3309L18.6653 29.7155L18.6641 29.7155L18.6725 30.3309ZM20.8197 27.289L21.213 26.8157V26.8157L20.8197 27.289ZM21.4669 27.7795L21.7957 27.2593L21.7956 27.2593L21.4669 27.7795ZM23.394 28.3363V28.9516L23.3955 28.9516L23.394 28.3363ZM24.4127 27.7169L23.7983 27.6824L23.7983 27.6825L24.4127 27.7169ZM22.5867 26.6369L22.4367 27.2338H22.4367L22.5867 26.6369ZM21.8076 26.4235L21.9987 25.8385L21.9985 25.8385L21.8076 26.4235ZM18.1182 22.8263L18.7335 22.8128L18.7335 22.8126L18.1182 22.8263ZM22.1568 19.6571L22.1649 19.0418L22.1648 19.0418L22.1568 19.6571ZM24.3992 20.368L24.7616 19.8707V19.8707L24.3992 20.368ZM25.2766 20.6014L25.0616 20.0248L25.0608 20.0251L25.2766 20.6014ZM25.4598 20.3086L24.8598 20.1718V20.1718L25.4598 20.3086ZM26.0143 19.8785L26.0068 19.2632L26.0066 19.2632L26.0143 19.8785ZM27.1489 19.8647L27.1416 19.2494L27.1415 19.2494L27.1489 19.8647ZM25.0013 22.9062L25.3945 22.4328L25.3945 22.4328L25.0013 22.9062ZM24.3545 22.4161L24.0258 22.9363L24.0259 22.9363L24.3545 22.4161ZM22.4275 21.8593L22.4262 21.244L22.4259 21.244L22.4275 21.8593ZM21.4087 22.4782L20.7943 22.4438L20.7943 22.4441L21.4087 22.4782ZM11.2646 20.1695H17.2563V18.9387H11.2646V20.1695ZM11.4608 19.9732C11.4608 20.0823 11.3737 20.1695 11.2646 20.1695V18.9387C10.694 18.9387 10.2301 19.4026 10.2301 19.9732H11.4608ZM11.4608 21.8909V19.9732H10.2301V21.8909H11.4608ZM11.4037 21.7516C11.4401 21.788 11.4607 21.8373 11.4608 21.8887L10.2301 21.8931C10.231 22.1668 10.3403 22.429 10.5339 22.6224L11.4037 21.7516ZM11.2665 21.6947C11.318 21.6948 11.3673 21.7153 11.4037 21.7516L10.5339 22.6224C10.7276 22.8158 10.9899 22.9248 11.2637 22.9254L11.2665 21.6947ZM12.5832 21.6947H11.2651V22.9254H12.5832V21.6947ZM13.1985 27.5236V22.31H11.9678V27.5236H13.1985ZM11.2646 28.139H12.5832V26.9082H11.2646V28.139ZM11.4608 27.9437C11.4608 28.0509 11.3751 28.139 11.2646 28.139V26.9082C10.6926 26.9082 10.2301 27.374 10.2301 27.9437H11.4608ZM11.4608 29.8614V27.9437H10.2301V29.8614H11.4608ZM11.4037 29.7224C11.4402 29.7589 11.4607 29.8084 11.4608 29.86L10.2301 29.8629C10.2307 30.1367 10.3398 30.3991 10.5334 30.5927L11.4037 29.7224ZM11.266 29.6652C11.3177 29.6653 11.3671 29.6859 11.4037 29.7224L10.5334 30.5927C10.727 30.7863 10.9894 30.8953 11.2631 30.8959L11.266 29.6652ZM17.2568 29.6652H11.2646V30.8959H17.2568V29.6652ZM17.118 29.722C17.1543 29.6858 17.2034 29.6654 17.2546 29.6652L17.2589 30.8959C17.5324 30.895 17.7943 30.786 17.9878 30.5928L17.118 29.722ZM17.061 29.8585C17.0613 29.8073 17.0818 29.7582 17.118 29.722L17.9878 30.5928C18.1813 30.3996 18.2905 30.1377 18.2918 29.8643L17.061 29.8585ZM17.061 27.9437V29.8614H18.2918V27.9437H17.061ZM17.2568 28.139C17.146 28.139 17.0613 28.0514 17.061 27.9451L18.2918 27.9424C18.2906 27.3735 17.8281 26.9082 17.2568 26.9082V28.139ZM16.0161 28.139H17.2568V26.9082H16.0161V28.139ZM15.4008 22.3105V27.5236H16.6315V22.3105H15.4008ZM17.2563 21.6951H16.0161V22.9259H17.2563V21.6951ZM17.0601 21.8914C17.0601 21.7823 17.1472 21.6951 17.2563 21.6951V22.9259C17.8269 22.9259 18.2908 22.462 18.2908 21.8914H17.0601ZM17.0601 19.9737V21.8914H18.2908V19.9737H17.0601ZM17.2563 20.1695C17.1463 20.1695 17.0601 20.0819 17.0601 19.9737H18.2908C18.2908 19.404 17.8279 18.9387 17.2563 18.9387V20.1695ZM33.5844 29.8442C32.1776 29.8442 30.9495 29.4215 30.0807 28.6364C29.2213 27.8598 28.6568 26.6782 28.6568 25.0374H27.4261C27.4261 26.9819 28.1067 28.5114 29.2556 29.5496C30.3951 30.5793 31.9385 31.0749 33.5844 31.0749V29.8442ZM38.5115 25.0374C38.5115 26.6783 37.9472 27.8598 37.0879 28.6364C36.2192 29.4215 34.9913 29.8442 33.5844 29.8442V31.0749C35.2304 31.0749 36.7737 30.5793 37.9131 29.5495C39.0618 28.5114 39.7423 26.9819 39.7423 25.0374H38.5115ZM33.5844 20.2301C34.991 20.2301 36.2189 20.6529 37.0877 21.4381C37.9471 22.2148 38.5115 23.3966 38.5115 25.0374H39.7423C39.7423 23.0929 39.0617 21.5633 37.9129 20.525C36.7735 19.4952 35.2302 18.9993 33.5844 18.9993V20.2301ZM28.6568 25.0374C28.6568 23.3966 29.2213 22.2149 30.0808 21.4381C30.9496 20.6529 32.1776 20.2301 33.5844 20.2301V18.9993C31.9384 18.9993 30.395 19.4952 29.2555 20.525C28.1067 21.5632 27.4261 23.0929 27.4261 25.0374H28.6568ZM35.7876 25.0374C35.7876 24.0493 35.7037 23.1821 35.3938 22.5484C35.2309 22.2153 34.9976 21.9293 34.6711 21.7322C34.3469 21.5364 33.9768 21.456 33.5844 21.456V22.6868C33.809 22.6868 33.9458 22.7319 34.0349 22.7857C34.1218 22.8382 34.2084 22.926 34.2882 23.0892C34.4637 23.4481 34.5568 24.0639 34.5568 25.0374H35.7876ZM33.5847 28.6193C33.9771 28.6191 34.3472 28.5385 34.6714 28.3425C34.9978 28.1452 35.231 27.8591 35.3938 27.526C35.7037 26.8922 35.7876 26.025 35.7876 25.0374H34.5568C34.5568 26.0103 34.4637 26.6262 34.2881 26.9854C34.2083 27.1488 34.1216 27.2367 34.0346 27.2893C33.9455 27.3432 33.8086 27.3884 33.5842 27.3885L33.5847 28.6193ZM31.3808 25.0374C31.3808 26.0252 31.4647 26.8926 31.7746 27.5264C31.9376 27.8596 32.1709 28.1456 32.4974 28.3429C32.8217 28.5388 33.1919 28.6193 33.5844 28.6193V27.3885C33.3598 27.3885 33.2229 27.3433 33.1338 27.2894C33.0468 27.2369 32.9601 27.149 32.8803 26.9857C32.7046 26.6265 32.6115 26.0106 32.6115 25.0374H31.3808ZM33.5844 21.456C33.192 21.456 32.8218 21.5364 32.4975 21.7323C32.1709 21.9294 31.9376 22.2154 31.7747 22.5486C31.4647 23.1823 31.3808 24.0496 31.3808 25.0374H32.6115C32.6115 24.0641 32.7046 23.4484 32.8803 23.0894C32.9601 22.9261 33.0467 22.8383 33.1337 22.7858C33.2229 22.732 33.3598 22.6868 33.5844 22.6868V21.456ZM23.5783 23.0367C23.3787 22.9805 23.1802 22.9328 23.001 22.8897L22.7129 24.0863C22.8956 24.1303 23.0716 24.1727 23.2451 24.2215L23.5783 23.0367ZM28.3189 27.3546C28.2908 26.0916 27.7865 25.169 26.9033 24.4832C26.0631 23.8308 24.9 23.4087 23.5784 23.0367L23.245 24.2215C24.5531 24.5896 25.5121 24.9612 26.1485 25.4553C26.7419 25.9162 27.0687 26.4931 27.0885 27.382L28.3189 27.3546ZM23.6566 31.1533C26.4563 31.1899 28.3663 29.5154 28.3189 27.3548L27.0884 27.3818C27.116 28.6403 26.0004 29.9531 23.6727 29.9226L23.6566 31.1533ZM21.0599 30.3249C21.2616 30.4719 21.5529 30.686 21.98 30.8563C22.4083 31.027 22.9457 31.144 23.6567 31.1533L23.6727 29.9226C23.093 29.9151 22.7071 29.8211 22.4358 29.713C22.1634 29.6044 21.9788 29.4717 21.7848 29.3303L21.0599 30.3249ZM20.7608 30.1706C20.7996 30.1561 20.8132 30.1569 20.809 30.157C20.8029 30.1571 20.7985 30.1554 20.8032 30.157C20.812 30.1601 20.8347 30.1698 20.8803 30.1988C20.928 30.2291 20.9809 30.2673 21.0599 30.3249L21.7848 29.3303C21.655 29.2357 21.4518 29.0812 21.2148 28.9971C20.9315 28.8966 20.6378 28.9026 20.3298 29.0177L20.7608 30.1706ZM20.9618 30.0242C20.9699 29.989 20.9732 29.9753 20.976 29.9655C20.9784 29.9572 20.9757 29.9694 20.9646 29.9911C20.9525 30.0147 20.9294 30.0518 20.8897 30.0893C20.8487 30.1281 20.803 30.1548 20.7603 30.1708L20.3303 29.0176C19.8449 29.1986 19.7751 29.6929 19.762 29.7498L20.9618 30.0242ZM19.8152 30.9329C20.1395 30.9286 20.4585 30.8439 20.6905 30.5935C20.8956 30.3719 20.945 30.0978 20.9618 30.0242L19.762 29.7498C19.7559 29.7765 19.7523 29.7921 19.7487 29.8059C19.7453 29.8188 19.7436 29.8233 19.7437 29.8229C19.7444 29.8212 19.7557 29.7914 19.7875 29.7571C19.8031 29.7403 19.8202 29.7261 19.8373 29.715C19.8541 29.7042 19.8672 29.6987 19.8735 29.6964C19.8842 29.6926 19.866 29.7013 19.799 29.7022L19.8152 30.9329ZM18.6797 30.9462L19.8143 30.9329L19.7999 29.7022L18.6653 29.7155L18.6797 30.9462ZM17.5029 29.8126C17.5029 30.1604 17.6281 30.4857 17.9066 30.7049C18.1601 30.9044 18.4573 30.9492 18.6809 30.9462L18.6641 29.7155C18.6511 29.7157 18.641 29.7151 18.6338 29.7143C18.6265 29.7135 18.6232 29.7126 18.6234 29.7127C18.6236 29.7127 18.6424 29.7178 18.6678 29.7378C18.6957 29.7597 18.7168 29.7882 18.7283 29.8146C18.7386 29.8382 18.7336 29.8426 18.7336 29.8126H17.5029ZM17.5029 27.5936V29.8126H18.7336V27.5936H17.5029ZM18.7174 26.1395C18.2349 26.1395 17.9227 26.4769 17.7709 26.7138C17.608 26.9681 17.5029 27.2915 17.5029 27.5936H18.7336C18.7336 27.5805 18.7368 27.5472 18.7514 27.5002C18.7656 27.4545 18.7857 27.4113 18.8073 27.3777C18.8299 27.3423 18.8438 27.3334 18.8378 27.3377C18.8289 27.3441 18.7864 27.3703 18.7174 27.3703V26.1395ZM19.8767 26.1395H18.7174V27.3703H19.8767V26.1395ZM21.213 26.8157C21.0495 26.6799 20.8559 26.5176 20.6596 26.394C20.4633 26.2703 20.1956 26.1395 19.8767 26.1395V27.3703C19.8578 27.3703 19.8895 27.3634 20.0036 27.4353C20.1177 27.5072 20.2455 27.612 20.4265 27.7624L21.213 26.8157ZM21.7956 27.2593C21.5979 27.1344 21.415 26.9835 21.213 26.8157L20.4265 27.7624C20.6198 27.9229 20.8623 28.1255 21.1382 28.2998L21.7956 27.2593ZM23.394 27.7209C23.0021 27.7209 22.3088 27.5836 21.7957 27.2593L21.1382 28.2998C21.8844 28.7713 22.8164 28.9516 23.394 28.9516V27.7209ZM23.7983 27.6825C23.7983 27.6823 23.7989 27.674 23.805 27.6618C23.812 27.6478 23.8194 27.6424 23.8161 27.6449C23.8054 27.653 23.7044 27.7201 23.3924 27.7209L23.3955 28.9516C23.8597 28.9505 24.2599 28.8533 24.5605 28.625C24.8782 28.3837 25.0103 28.0523 25.0271 27.7513L23.7983 27.6825ZM22.4367 27.2338C22.9064 27.3518 23.3052 27.4546 23.5869 27.5882C23.8989 27.7362 23.7926 27.7844 23.7983 27.6824L25.0271 27.7514C25.0672 27.037 24.4986 26.6585 24.1143 26.4762C23.6997 26.2795 23.1683 26.1486 22.7367 26.0401L22.4367 27.2338ZM21.6166 27.0085C21.8753 27.093 22.1671 27.166 22.4367 27.2338L22.7367 26.0401C22.4563 25.9696 22.2088 25.9071 21.9987 25.8385L21.6166 27.0085ZM17.503 22.8398C17.5307 24.1004 18.035 25.0016 18.833 25.6599C19.5948 26.2883 20.6047 26.6783 21.6168 27.0085L21.9985 25.8385C20.9943 25.5109 20.1832 25.1782 19.6162 24.7105C19.0854 24.2726 18.7531 23.7041 18.7335 22.8128L17.503 22.8398ZM22.1648 19.0418C19.3659 19.0052 17.455 20.6796 17.503 22.84L18.7335 22.8126C18.7055 21.5549 19.8214 20.242 22.1487 20.2725L22.1648 19.0418ZM24.7616 19.8707C24.5599 19.7237 24.2686 19.5096 23.8414 19.3392C23.4132 19.1684 22.8758 19.0512 22.1649 19.0418L22.1486 20.2725C22.7282 20.2801 23.1141 20.3742 23.3855 20.4824C23.658 20.5911 23.8426 20.7239 24.0367 20.8653L24.7616 19.8707ZM25.0608 20.0251C25.022 20.0396 25.0085 20.0388 25.0127 20.0387C25.0188 20.0386 25.0232 20.0404 25.0185 20.0387C25.0097 20.0356 24.987 20.0259 24.9414 19.9969C24.8936 19.9666 24.8407 19.9283 24.7616 19.8707L24.0367 20.8653C24.1666 20.96 24.37 21.1145 24.607 21.1986C24.8905 21.2992 25.1843 21.2931 25.4924 21.1777L25.0608 20.0251ZM24.8598 20.1718C24.8518 20.207 24.8485 20.2206 24.8457 20.2304C24.8433 20.2387 24.8461 20.2264 24.8572 20.2048C24.8693 20.1811 24.8924 20.1439 24.9321 20.1064C24.9732 20.0675 25.0189 20.0408 25.0616 20.0248L25.4917 21.178C25.9773 20.9969 26.0469 20.5023 26.0598 20.4454L24.8598 20.1718ZM26.0066 19.2632C25.6825 19.2673 25.3633 19.3516 25.1311 19.6023C24.9258 19.8239 24.8766 20.0983 24.8598 20.1718L26.0598 20.4454C26.0659 20.4187 26.0695 20.4032 26.0731 20.3893C26.0765 20.3765 26.0782 20.3721 26.078 20.3724C26.0774 20.3742 26.066 20.4042 26.0341 20.4386C26.0184 20.4556 26.0012 20.4698 25.984 20.4809C25.9671 20.4918 25.954 20.4973 25.9476 20.4996C25.9369 20.5034 25.955 20.4947 26.022 20.4939L26.0066 19.2632ZM27.1415 19.2494L26.0068 19.2632L26.0218 20.4939L27.1564 20.4801L27.1415 19.2494ZM28.3186 20.383C28.3186 20.0351 28.1931 19.7101 27.9149 19.4911C27.6617 19.2918 27.3649 19.2467 27.1416 19.2494L27.1563 20.4801C27.1694 20.4799 27.1795 20.4805 27.1869 20.4814C27.1942 20.4822 27.1976 20.4831 27.1975 20.4831C27.1973 20.483 27.1928 20.4818 27.185 20.4781C27.1771 20.4743 27.1661 20.468 27.1536 20.4582C27.1259 20.4363 27.1048 20.4079 27.0932 20.3815C27.0829 20.3577 27.0878 20.3532 27.0878 20.383H28.3186ZM28.3186 22.6015V20.383H27.0878V22.6015H28.3186ZM27.1041 24.0556C27.5862 24.0556 27.8984 23.7185 28.0502 23.4817C28.2132 23.2275 28.3186 22.904 28.3186 22.6015H27.0878C27.0878 22.6146 27.0846 22.648 27.07 22.6949C27.0559 22.7406 27.0357 22.7838 27.0141 22.8174C26.9914 22.8527 26.9776 22.8617 26.9835 22.8574C26.9924 22.8511 27.0349 22.8248 27.1041 22.8248V24.0556ZM25.9448 24.0556H27.1041V22.8248H25.9448V24.0556ZM24.6081 23.3796C24.7715 23.5153 24.9652 23.6776 25.1616 23.8012C25.3581 23.925 25.6258 24.0556 25.9448 24.0556V22.8248C25.9632 22.8248 25.9314 22.8315 25.8174 22.7597C25.7032 22.6878 25.5754 22.5831 25.3945 22.4328L24.6081 23.3796ZM24.0259 22.9363C24.2234 23.0611 24.4062 23.2119 24.6081 23.3796L25.3945 22.4328C25.2013 22.2723 24.959 22.07 24.6832 21.8958L24.0259 22.9363ZM22.4287 22.4747C22.8189 22.4739 23.5121 22.6116 24.0258 22.9363L24.6833 21.8958C23.9376 21.4246 23.0055 21.2428 22.4262 21.244L22.4287 22.4747ZM22.0231 22.5125C22.0231 22.5128 22.0225 22.5212 22.0164 22.5335C22.0093 22.5477 22.0019 22.5531 22.0051 22.5506C22.0158 22.5425 22.1169 22.4755 22.429 22.4747L22.4259 21.244C21.9619 21.2451 21.5618 21.3421 21.2612 21.5702C20.9433 21.8114 20.8111 22.1427 20.7943 22.4438L22.0231 22.5125ZM23.001 22.8897C22.5703 22.786 22.2926 22.7141 22.115 22.6163C22.0383 22.574 22.0223 22.548 22.0233 22.5496C22.0301 22.5601 22.0205 22.5594 22.0232 22.5123L20.7943 22.4441C20.7788 22.7232 20.8407 22.9876 20.9901 23.2184C21.1338 23.4403 21.3314 23.5897 21.5208 23.6941C21.8756 23.8897 22.3401 23.9965 22.7129 24.0863L23.001 22.8897Z" fill="#380000" mask="url(#path-3-outside-1_4910_11511)"/>
<rect x="24" y="19.25" width="1.5" height="0.75" fill="#380000"/>
</svg>
