<svg width="80" height="80" viewBox="0 0 80 80" fill="none" xmlns="http://www.w3.org/2000/svg">
<path d="M65.2854 23.1431C65.1426 22.286 64.4283 21.8574 63.5712 21.8574C55.8569 22.0003 48.2854 18.8574 42.2854 13.286C41.5711 12.7146 40.5711 12.7146 39.8569 13.286C33.8569 18.8574 26.2854 22.0003 18.5711 21.8574C17.714 21.8574 16.9997 22.4289 16.8569 23.1431C16.2854 25.8574 16.1426 28.5717 16.1426 31.4289C16.1426 49.1431 26.5712 64.1431 40.714 68.5717C40.9997 68.7146 41.4283 68.7146 41.714 68.5717C55.8569 64.1431 66.2854 49.1431 66.2854 31.4289C66.1426 28.5717 65.8569 25.7146 65.2854 23.1431Z" fill="#763239" stroke="#F6CA46" stroke-width="6" stroke-linecap="round" stroke-linejoin="round"/>
<path d="M33.7141 49.714L29.2855 43.714C28.4283 42.5711 28.7141 40.9997 29.8569 40.2854C30.9998 39.4283 32.5712 39.714 33.2855 40.8569L36.1426 44.714C41.5712 40.2854 45.8569 36.9997 48.8569 34.8569C49.2855 34.5711 49.5712 34.2854 49.8569 33.9997C50.9998 33.1426 52.4283 33.4283 53.2855 34.4283C54.1426 35.5711 53.9998 37.1426 52.8569 37.9997C52.5712 38.2854 52.1426 38.5711 51.7141 38.8569C48.4284 41.2854 43.4283 44.9997 37.1426 50.2854C36.1426 50.9997 34.5712 50.8569 33.7141 49.714Z" fill="#F6CA46"/>
</svg>
