<svg width="175" height="45" viewBox="0 0 175 45" fill="none" xmlns="http://www.w3.org/2000/svg">
<path d="M22.5 0H152.5C165 0 175 10.1 175 22.5C175 34.9 165 45 152.5 45H22.5C10.1 45 0 34.9 0 22.5C0 10.1 10.1 0 22.5 0Z" fill="#7B2C37"/>
<path d="M153.1 39.3002V38.8002H158.7V34.5002L160.8 34.0002C166.2 32.8002 170.1 28.0002 170.1 22.5002C170.1 17.0002 166.2 12.1002 160.8 11.0002L158.7 10.5002V6.2002H153.1V5.7002H159.1V10.1002L160.8 10.5002C166.4 11.7002 170.5 16.8002 170.5 22.5002C170.5 28.2002 166.4 33.3002 160.8 34.5002L159.1 34.9002V39.3002H156.3C154.8 39.3002 153.3 39.3002 153.1 39.3002Z" fill="#FFC904"/>
<path d="M21.6999 39.3002H16.7999V34.9002L15.0999 34.5002C9.4999 33.3002 5.3999 28.2002 5.3999 22.5002C5.3999 16.8002 9.4999 11.7002 15.0999 10.5002L16.7999 10.1002V5.7002H21.6999V6.2002H17.2999V10.5002L15.1999 11.0002C9.7999 12.2002 5.8999 17.0002 5.8999 22.5002C5.8999 28.0002 9.7999 32.9002 15.1999 34.0002L17.2999 34.5002V38.8002H21.6999V39.3002Z" fill="#FFC904"/>
<path d="M46.4998 14.7999C46.6998 15.0999 46.8998 15.2999 47.0998 15.5999C47.2998 15.7999 47.5998 16.0999 47.8998 16.2999C48.1998 16.4999 48.4998 16.5999 48.7998 16.6999C49.0998 16.7999 49.4998 16.8999 49.7998 16.8999C50.0998 16.8999 50.2998 16.8999 50.4998 16.7999C50.6998 16.6999 50.8998 16.6999 51.0998 16.5999C51.2998 16.4999 51.3998 16.3999 51.4998 16.1999C51.5998 15.9999 51.6998 15.7999 51.6998 15.5999C51.6998 15.2999 51.4998 14.9999 51.1998 14.7999C50.8998 14.5999 50.4998 14.3999 49.9998 14.2999C49.4998 14.1999 48.9998 13.9999 48.3998 13.7999C47.7998 13.5999 47.2998 13.3999 46.7998 13.0999C46.2998 12.7999 45.8998 12.3999 45.5998 11.8999C45.2998 11.3999 45.0998 10.7999 45.0998 9.9999C45.0998 9.3999 45.2998 8.7999 45.5998 8.2999C45.8998 7.7999 46.2998 7.3999 46.7998 6.9999C47.2998 6.5999 47.8998 6.3999 48.4998 6.1999C49.0998 5.9999 49.7998 5.8999 50.4998 5.8999C51.1998 5.8999 51.6998 5.9999 52.1998 6.0999C52.6998 6.1999 53.0998 6.2999 53.4998 6.4999C53.8998 6.6999 54.1998 6.7999 54.4998 6.9999C54.7998 7.1999 54.9998 7.3999 55.1998 7.5999C54.9998 7.9999 54.6998 8.2999 54.3998 8.6999C54.0998 9.0999 53.8998 9.4999 53.5998 9.9999C53.1998 9.5999 52.7998 9.2999 52.1998 9.0999C51.6998 8.7999 51.0998 8.6999 50.4998 8.6999C50.2998 8.6999 50.0998 8.6999 49.7998 8.7999C49.5998 8.7999 49.3998 8.8999 49.1998 8.9999C48.9998 9.0999 48.8998 9.1999 48.6998 9.3999C48.5998 9.5999 48.4998 9.6999 48.4998 9.9999C48.4998 10.3999 48.6998 10.5999 48.9998 10.7999C49.2998 10.9999 49.6998 11.1999 50.1998 11.2999C50.6998 11.3999 51.1998 11.5999 51.6998 11.6999C52.2998 11.7999 52.7998 12.0999 53.2998 12.2999C53.7998 12.5999 54.1998 12.8999 54.4998 13.3999C54.7998 13.8999 54.9998 14.4999 54.9998 15.1999C54.9998 15.8999 54.8998 16.4999 54.5998 16.9999C54.2998 17.4999 53.8998 17.9999 53.4998 18.2999C52.9998 18.6999 52.4998 18.8999 51.7998 19.0999C51.0998 19.2999 50.3998 19.3999 49.6998 19.3999C49.0998 19.3999 48.5998 19.2999 47.9998 19.1999C47.4998 19.0999 46.9998 18.8999 46.4998 18.5999C46.0998 18.3999 45.6998 18.0999 45.3998 17.7999C45.0998 17.4999 44.8998 17.1999 44.7998 16.8999C45.0998 16.4999 45.3998 16.1999 45.5998 15.7999C46.0998 15.5999 46.2998 15.1999 46.4998 14.7999ZM55.9998 13.7999C55.9998 12.8999 56.0998 11.8999 56.3998 10.9999C56.6998 10.0999 57.0998 9.2999 57.6998 8.4999C58.2998 7.7999 58.9998 7.1999 59.7998 6.6999C60.5998 6.1999 61.5998 5.9999 62.6998 5.9999C62.9998 5.9999 63.2998 5.9999 63.5998 6.0999C63.8998 6.1999 64.1998 6.1999 64.4998 6.2999C64.7998 6.3999 64.9998 6.4999 65.1998 6.6999C65.3998 6.7999 65.5998 6.9999 65.6998 7.1999V17.5999C65.6998 17.8999 65.6998 18.2999 65.7998 18.5999C65.8998 18.8999 65.9998 19.1999 66.1998 19.2999H62.1998C62.3998 19.1999 62.4998 18.8999 62.5998 18.5999C62.6998 18.2999 62.6998 17.8999 62.6998 17.5999V15.3999H59.0998C59.1998 16.1999 59.3998 16.8999 59.5998 17.4999C59.8998 18.0999 60.1998 18.6999 60.5998 19.2999H56.7998C56.5998 18.7999 56.4998 18.3999 56.3998 17.8999C56.2998 17.4999 56.1998 16.9999 56.0998 16.5999C55.9998 16.1999 55.9998 15.6999 55.8998 15.2999C55.9998 14.8999 55.9998 14.3999 55.9998 13.7999ZM62.6998 12.8999V8.8999C62.0998 8.8999 61.5998 8.9999 61.1998 9.2999C60.7998 9.4999 60.3998 9.8999 60.0998 10.2999C59.7998 10.6999 59.5998 11.0999 59.3998 11.5999C59.1998 12.0999 59.0998 12.4999 58.9998 12.9999H62.6998V12.8999ZM66.6998 9.5999V6.2999H76.4998V9.5999C76.2998 9.3999 76.1998 9.2999 75.8998 9.1999C75.6998 9.0999 75.4998 8.9999 75.2998 8.9999C75.0998 8.9999 74.8998 8.8999 74.6998 8.8999H73.0998V17.6999C73.0998 17.9999 73.0998 18.3999 73.1998 18.6999C73.2998 18.9999 73.3998 19.1999 73.5998 19.3999H69.5998C69.7998 19.2999 69.8998 18.9999 69.9998 18.6999C70.0998 18.3999 70.0998 17.9999 70.0998 17.6999V8.8999H68.4998C68.2998 8.8999 68.0998 8.9999 67.8998 8.9999C67.6998 8.9999 67.4998 9.0999 67.2998 9.1999C67.0998 9.2999 66.7998 9.4999 66.6998 9.5999ZM80.7998 6.2999C80.5998 6.3999 80.4998 6.6999 80.3998 6.9999C80.2998 7.2999 80.2998 7.6999 80.2998 7.9999V15.1999C80.2998 15.4999 80.3998 15.7999 80.4998 15.9999C80.5998 16.1999 80.7998 16.3999 80.9998 16.5999C81.1998 16.6999 81.5998 16.7999 81.9998 16.7999C82.3998 16.7999 82.6998 16.6999 82.9998 16.5999C83.1998 16.4999 83.3998 16.2999 83.4998 15.9999C83.5998 15.7999 83.6998 15.4999 83.6998 15.1999C83.6998 14.8999 83.7998 14.4999 83.7998 14.1999V7.9999C83.7998 7.6999 83.7998 7.2999 83.6998 6.9999C83.5998 6.6999 83.4998 6.3999 83.2998 6.2999H87.2998C87.0998 6.3999 86.9998 6.6999 86.8998 6.9999C86.7998 7.2999 86.7998 7.5999 86.7998 7.9999V15.1999C86.7998 15.9999 86.6998 16.5999 86.3998 17.1999C86.1998 17.6999 85.8998 18.0999 85.4998 18.4999C85.0998 18.7999 84.7998 19.0999 84.2998 19.1999C83.8998 19.3999 83.4998 19.4999 83.0998 19.4999C82.6998 19.5999 82.4998 19.5999 82.1998 19.5999H81.8998C80.9998 19.5999 80.1998 19.4999 79.4998 19.1999C79.1998 19.0999 78.8998 18.8999 78.5998 18.6999C78.2998 18.4999 78.0998 18.1999 77.7998 17.8999C77.5998 17.5999 77.3998 17.1999 77.1998 16.7999C77.0998 16.3999 76.9998 15.7999 76.9998 15.2999V7.9999C76.9998 7.6999 76.9998 7.2999 76.8998 6.9999C76.7998 6.6999 76.6998 6.3999 76.4998 6.2999H80.7998ZM87.7998 6.2999H93.4998C93.9998 6.2999 94.5998 6.3999 95.0998 6.5999C95.5998 6.7999 96.0998 6.9999 96.5998 7.3999C96.9998 7.7999 97.3998 8.1999 97.6998 8.6999C97.9998 9.1999 98.0998 9.7999 98.0998 10.4999C98.0998 11.3999 97.7998 12.1999 97.2998 12.8999C96.7998 13.4999 96.0998 13.8999 95.2998 14.1999L96.0998 16.1999C96.4998 17.1999 96.7998 17.9999 97.1998 18.4999C97.4998 18.9999 97.7998 19.2999 98.0998 19.3999H93.5998C93.6998 19.2999 93.7998 19.0999 93.7998 18.8999C93.7998 18.6999 93.7998 18.3999 93.5998 18.0999L91.3998 12.0999V17.6999C91.3998 17.9999 91.3998 18.3999 91.4998 18.6999C91.5998 18.9999 91.6998 19.1999 91.8998 19.3999H87.8998C88.0998 19.2999 88.1998 18.9999 88.2998 18.6999C88.3998 18.3999 88.3998 17.9999 88.3998 17.6999V7.9999C88.3998 7.6999 88.3998 7.2999 88.2998 6.9999C87.9998 6.5999 87.8998 6.3999 87.7998 6.2999ZM91.2998 12.0999H93.1998C93.4998 12.0999 93.6998 12.0999 93.9998 11.9999C94.1998 11.8999 94.3998 11.7999 94.4998 11.5999C94.5998 11.3999 94.6998 11.2999 94.7998 11.0999C94.8998 10.8999 94.8998 10.6999 94.8998 10.4999C94.8998 10.0999 94.7998 9.6999 94.4998 9.3999C94.1998 9.0999 93.7998 8.8999 93.1998 8.8999H91.1998V12.0999H91.2998ZM98.4998 6.2999H103C103.9 6.2999 104.8 6.4999 105.5 6.7999C106.2 7.0999 106.8 7.5999 107.4 8.1999C107.9 8.7999 108.3 9.4999 108.6 10.2999C108.9 11.0999 109 11.9999 109 12.8999C109 13.7999 108.9 14.6999 108.6 15.4999C108.3 16.2999 108 16.9999 107.4 17.5999C106.9 18.1999 106.3 18.5999 105.5 18.9999C104.8 19.2999 104 19.4999 103 19.4999H98.4998C98.6998 19.3999 98.7998 19.0999 98.8998 18.7999C98.9998 18.4999 98.9998 18.0999 98.9998 17.7999V7.9999C98.9998 7.6999 98.9998 7.2999 98.8998 6.9999C98.7998 6.5999 98.6998 6.3999 98.4998 6.2999ZM102 8.8999V16.7999H103.2C103.5 16.7999 103.9 16.6999 104.2 16.4999C104.5 16.2999 104.8 16.0999 105 15.6999C105.2 15.3999 105.4 14.8999 105.6 14.4999C105.8 14.0999 105.8 13.4999 105.8 12.7999C105.8 12.1999 105.7 11.5999 105.6 11.0999C105.5 10.5999 105.3 10.1999 105 9.7999C104.8 9.4999 104.5 9.1999 104.2 8.9999C103.9 8.7999 103.6 8.6999 103.2 8.6999H102V8.8999ZM109.8 13.7999C109.8 12.8999 109.9 11.8999 110.2 10.9999C110.5 10.0999 110.9 9.2999 111.5 8.4999C112.1 7.7999 112.8 7.1999 113.6 6.6999C114.4 6.1999 115.4 5.9999 116.5 5.9999C116.8 5.9999 117.1 5.9999 117.4 6.0999C117.7 6.1999 118 6.1999 118.3 6.2999C118.6 6.3999 118.8 6.4999 119 6.6999C119.2 6.7999 119.4 6.9999 119.5 7.1999V17.5999C119.5 17.8999 119.5 18.2999 119.6 18.5999C119.7 18.8999 119.8 19.1999 120 19.2999H116C116.2 19.1999 116.3 18.8999 116.4 18.5999C116.5 18.2999 116.5 17.8999 116.5 17.5999V15.3999H112.9C113 16.1999 113.2 16.8999 113.4 17.4999C113.7 18.0999 114 18.6999 114.4 19.2999H110.6C110.4 18.7999 110.3 18.3999 110.2 17.8999C110.1 17.4999 110 16.9999 109.9 16.5999C109.8 16.1999 109.8 15.6999 109.7 15.2999C109.8 14.8999 109.8 14.3999 109.8 13.7999ZM116.6 12.8999V8.8999C116 8.8999 115.5 8.9999 115.1 9.2999C114.7 9.4999 114.3 9.8999 114 10.2999C113.7 10.6999 113.5 11.0999 113.3 11.5999C113.1 12.0999 113 12.4999 112.9 12.9999H116.6V12.8999ZM124.6 6.2999C124.4 6.4999 124.3 6.6999 124.3 6.8999C124.3 7.0999 124.2 7.1999 124.2 7.3999C124.2 7.6999 124.2 7.9999 124.3 8.3999C124.4 8.7999 124.5 9.1999 124.7 9.5999C124.8 9.9999 125 10.3999 125.1 10.7999C125.3 11.1999 125.4 11.4999 125.5 11.7999C125.6 11.4999 125.7 11.1999 125.9 10.7999C126.1 10.3999 126.2 9.9999 126.3 9.5999C126.4 9.1999 126.6 8.7999 126.7 8.3999C126.8 7.9999 126.8 7.6999 126.8 7.3999C126.8 7.1999 126.8 6.9999 126.7 6.8999C126.7 6.6999 126.6 6.4999 126.4 6.2999H131.3C131.1 6.4999 130.9 6.6999 130.7 6.9999C130.5 7.2999 130.4 7.5999 130.2 7.9999C129.8 8.6999 129.5 9.2999 129.3 9.8999C129 10.4999 128.8 10.9999 128.6 11.4999C128.4 11.9999 128.1 12.4999 127.9 12.9999C127.7 13.4999 127.4 14.0999 127.1 14.7999V17.7999C127.1 18.0999 127.1 18.4999 127.2 18.7999C127.3 19.0999 127.4 19.2999 127.6 19.4999H123.6C123.8 19.3999 123.9 19.0999 124 18.7999C124.1 18.4999 124.1 18.0999 124.1 17.7999V14.7999C123.8 14.0999 123.5 13.5999 123.3 12.9999C123.1 12.4999 122.8 11.9999 122.6 11.4999C122.4 10.9999 122.1 10.4999 121.8 9.8999C121.5 9.2999 121.2 8.6999 120.9 7.9999C120.7 7.5999 120.5 7.2999 120.4 6.9999C120.2 6.6999 120 6.4999 119.8 6.2999H124.6Z" fill="#F7B918"/>
<path d="M28.3999 37.6C28.5999 37.5 28.6999 37.2 28.7999 36.9C28.8999 36.6 28.8999 36.2 28.8999 35.9V26C28.8999 25.6 28.8999 25.3 28.7999 25C28.6999 24.7 28.5999 24.4 28.3999 24.3H34.8999C35.3999 24.3 35.7999 24.4 36.2999 24.5C36.7999 24.6 37.1999 24.9 37.4999 25.2C37.8999 25.5 38.0999 25.8 38.2999 26.2C38.4999 26.6 38.5999 27.1 38.5999 27.6C38.5999 28.3 38.3999 28.9 37.9999 29.4C37.5999 29.9 37.0999 30.3 36.4999 30.5C36.7999 30.5 37.0999 30.6 37.3999 30.7C37.6999 30.8 37.9999 31 38.2999 31.3C38.5999 31.6 38.7999 31.9 38.9999 32.3C39.1999 32.7 39.2999 33.2 39.2999 33.8C39.2999 34.3 39.1999 34.8 38.9999 35.3C38.7999 35.8 38.4999 36.2 38.0999 36.5C37.6999 36.9 37.1999 37.2 36.4999 37.4C35.8999 37.6 35.0999 37.7 34.2999 37.7H28.3999V37.6ZM34.3999 35C35.0999 35 35.5999 34.9 35.8999 34.6C36.1999 34.3 36.3999 33.9 36.3999 33.5C36.3999 33.1 36.1999 32.7 35.8999 32.4C35.5999 32.1 35.0999 31.9 34.3999 31.9H31.9999V35H34.3999ZM31.9999 26.8V29.3H34.1999C34.5999 29.3 34.8999 29.2 35.1999 28.9C35.3999 28.7 35.5999 28.4 35.5999 28C35.5999 27.7 35.4999 27.4 35.1999 27.1C34.9999 26.9 34.5999 26.7 34.1999 26.7H31.9999V26.8ZM43.9999 24.2C43.7999 24.3 43.6999 24.6 43.5999 24.9C43.4999 25.2 43.4999 25.6 43.4999 25.9V33.3C43.4999 33.6 43.5999 33.9 43.6999 34.1C43.7999 34.3 43.9999 34.5 44.1999 34.7C44.3999 34.8 44.7999 34.9 45.1999 34.9C45.5999 34.9 45.8999 34.8 46.1999 34.7C46.3999 34.6 46.5999 34.4 46.6999 34.1C46.7999 33.9 46.8999 33.6 46.8999 33.3C46.8999 33 46.9999 32.6 46.9999 32.2V26C46.9999 25.6 46.9999 25.3 46.8999 25C46.7999 24.7 46.6999 24.4 46.4999 24.3H50.5999C50.3999 24.4 50.2999 24.7 50.1999 25C50.0999 25.3 50.0999 25.7 50.0999 26V33.4C50.0999 34.2 49.9999 34.9 49.6999 35.4C49.4999 35.9 49.1999 36.4 48.7999 36.7C48.3999 37 47.9999 37.3 47.5999 37.4C47.1999 37.6 46.7999 37.7 46.3999 37.7C45.9999 37.8 45.6999 37.8 45.4999 37.8H45.1999C44.2999 37.8 43.4999 37.7 42.6999 37.4C42.3999 37.3 42.0999 37.1 41.7999 36.9C41.4999 36.7 41.1999 36.4 40.9999 36.1C40.7999 35.8 40.5999 35.4 40.3999 35C40.2999 34.5 40.1999 34 40.1999 33.4V26C40.1999 25.6 40.1999 25.3 40.0999 25C39.9999 24.7 39.8999 24.4 39.6999 24.3H43.9999V24.2ZM51.5999 35.9V26C51.5999 25.6 51.5999 25.3 51.4999 25C51.3999 24.7 51.2999 24.4 51.0999 24.3H54.6999L57.7999 31.3L60.8999 24.3H64.4999C64.2999 24.4 64.1999 24.7 64.0999 25C63.9999 25.3 63.9999 25.7 63.9999 26V35.9C63.9999 36.3 63.9999 36.6 64.0999 36.9C64.1999 37.2 64.2999 37.5 64.4999 37.6H60.3999C60.5999 37.5 60.6999 37.2 60.7999 36.9C60.8999 36.6 60.8999 36.2 60.8999 35.9V29.9L57.7999 37.2L54.6999 29.8V35.8C54.6999 36.2 54.6999 36.5 54.7999 36.8C54.8999 37.1 54.9999 37.4 55.1999 37.5H51.0999C51.2999 37.4 51.3999 37.1 51.4999 36.8C51.4999 36.6 51.5999 36.2 51.5999 35.9ZM64.9999 24.2H69.8999C70.7999 24.2 71.5999 24.3 72.2999 24.6C72.9999 24.8 73.5999 25.2 73.9999 25.6C74.4999 26 74.7999 26.6 75.0999 27.2C75.3999 27.8 75.4999 28.5 75.4999 29.2C75.4999 29.9 75.3999 30.5 75.1999 31.2C74.9999 31.8 74.5999 32.3 74.1999 32.8C73.7999 33.3 73.2999 33.6 72.6999 33.9C72.0999 34.2 71.4999 34.3 70.7999 34.3C70.6999 34.3 70.4999 34.3 70.3999 34.2C70.2999 34.2 70.1999 34.1 70.0999 34.1L68.5999 30.7V35.9C68.5999 36.3 68.5999 36.6 68.6999 36.9C68.7999 37.2 68.8999 37.5 69.0999 37.6H64.9999C65.1999 37.5 65.2999 37.2 65.3999 36.9C65.4999 36.6 65.4999 36.2 65.4999 35.9V26C65.4999 25.6 65.4999 25.3 65.3999 25C65.2999 24.6 65.0999 24.4 64.9999 24.2ZM68.5999 26.9V30.2C68.7999 30.7 68.9999 31 69.2999 31.3C69.5999 31.5 69.9999 31.7 70.4999 31.7C70.7999 31.7 71.0999 31.6 71.3999 31.5C71.5999 31.4 71.8999 31.2 71.9999 31C72.1999 30.8 72.2999 30.5 72.2999 30.2C72.3999 29.9 72.3999 29.6 72.3999 29.3C72.3999 29 72.3999 28.7 72.2999 28.5C72.1999 28.2 72.0999 28 71.8999 27.8C71.6999 27.6 71.4999 27.4 71.1999 27.3C70.8999 27.2 70.5999 27.1 70.1999 27.1H68.5999V26.9ZM82.8999 24C83.8999 24 84.7999 24.1 85.5999 24.4C86.3999 24.7 87.0999 25.1 87.5999 25.7C87.4999 26 87.3999 26.3 87.2999 26.6C87.1999 26.9 87.0999 27.2 86.9999 27.4C86.8999 27.7 86.7999 28 86.6999 28.3C86.4999 28 86.1999 27.7 85.8999 27.5C85.5999 27.3 85.2999 27.1 84.8999 26.9C84.4999 26.7 83.9999 26.6 83.3999 26.6C82.8999 26.6 82.3999 26.7 81.8999 26.9C81.3999 27.1 80.9999 27.3 80.5999 27.7C80.1999 28.1 79.8999 28.5 79.6999 29C79.4999 29.5 79.3999 30.2 79.3999 30.9C79.3999 31.7 79.4999 32.4 79.7999 33C79.7999 32.4 79.7999 31.9 79.9999 31.4C80.1999 30.9 80.3999 30.5 80.6999 30.1C80.9999 29.7 81.3999 29.4 81.8999 29.2C82.3999 29 82.8999 28.9 83.3999 28.9C83.5999 28.9 83.7999 28.9 83.9999 29C84.1999 29 84.3999 29.1 84.5999 29.2C84.7999 29.3 84.9999 29.3 85.0999 29.4C85.1999 29.5 85.2999 29.6 85.3999 29.7V32.8C85.0999 32.6 84.6999 32.3 84.1999 32.1C83.6999 31.9 83.1999 31.8 82.5999 31.8C82.1999 31.8 81.7999 31.8 81.3999 31.9C80.9999 32 80.6999 32.1 80.4999 32.3C80.2999 32.5 80.0999 32.7 79.9999 32.9C79.8999 33.1 79.9999 33.4 80.0999 33.8C80.4999 34.3 80.8999 34.6 81.4999 34.9C81.9999 35.1 82.5999 35.2 83.1999 35.2C83.7999 35.2 84.2999 35.1 84.6999 34.9C85.0999 34.7 85.4999 34.5 85.6999 34.3C85.9999 34.1 86.2999 33.8 86.4999 33.5C86.5999 33.8 86.6999 34.1 86.7999 34.4C86.8999 34.7 86.9999 34.9 87.0999 35.2C87.1999 35.5 87.2999 35.8 87.3999 36.1C86.8999 36.7 86.1999 37.1 85.3999 37.4C84.5999 37.7 83.6999 37.8 82.6999 37.8C81.6999 37.8 80.7999 37.6 79.9999 37.3C79.1999 36.9 78.4999 36.4 77.8999 35.8C77.2999 35.2 76.8999 34.4 76.5999 33.6C76.2999 32.8 76.0999 31.9 76.0999 30.9C76.0999 29.9 76.2999 29.1 76.5999 28.2C76.8999 27.4 77.3999 26.6 77.8999 26C78.4999 25.4 79.1999 24.9 79.9999 24.5C80.9999 24.2 81.8999 24 82.8999 24ZM87.9999 24.2H93.7999C94.2999 24.2 94.8999 24.3 95.3999 24.5C95.9999 24.7 96.4999 24.9 96.8999 25.3C97.2999 25.7 97.6999 26.1 97.9999 26.6C98.2999 27.1 98.3999 27.7 98.3999 28.4C98.3999 29.4 98.0999 30.2 97.5999 30.8C97.0999 31.4 96.3999 31.9 95.5999 32.1L96.3999 34.2C96.7999 35.2 97.0999 36 97.4999 36.5C97.7999 37 98.0999 37.3 98.3999 37.5H93.7999C93.8999 37.4 93.9999 37.2 93.9999 37C93.9999 36.8 93.9999 36.5 93.7999 36.2L91.5999 30.1V35.8C91.5999 36.2 91.5999 36.5 91.6999 36.8C91.7999 37.1 91.8999 37.4 92.0999 37.5H87.9999C88.1999 37.4 88.2999 37.1 88.3999 36.8C88.4999 36.5 88.4999 36.1 88.4999 35.8V26C88.4999 25.6 88.4999 25.3 88.3999 25C88.1999 24.6 88.0999 24.4 87.9999 24.2ZM91.5999 30.1H93.5999C93.8999 30.1 94.1999 30.1 94.3999 30C94.5999 29.9 94.7999 29.8 94.9999 29.6C95.0999 29.4 95.2999 29.3 95.2999 29.1C95.3999 28.9 95.3999 28.7 95.3999 28.5C95.3999 28.1 95.2999 27.7 94.9999 27.4C94.6999 27.1 94.2999 26.9 93.6999 26.9H91.6999V30.1H91.5999ZM109.9 24C110.9 24 111.8 24.1 112.6 24.4C113.4 24.7 114.1 25.1 114.6 25.7C114.5 26 114.4 26.3 114.3 26.6C114.2 26.9 114.1 27.2 114 27.4C113.9 27.7 113.8 28 113.7 28.3C113.5 28 113.2 27.7 112.9 27.5C112.6 27.3 112.3 27.1 111.9 26.9C111.5 26.7 111 26.6 110.4 26.6C109.9 26.6 109.4 26.7 108.9 26.9C108.4 27.1 108 27.3 107.6 27.7C107.2 28.1 106.9 28.5 106.7 29C106.5 29.5 106.4 30.2 106.4 30.9C106.4 31.6 106.5 32.2 106.7 32.8C106.9 33.3 107.2 33.8 107.6 34.1C108 34.5 108.4 34.7 108.9 34.9C109.4 35.1 109.9 35.2 110.4 35.2C111 35.2 111.5 35.1 111.9 34.9C112.3 34.7 112.7 34.5 112.9 34.3C113.2 34.1 113.5 33.8 113.7 33.5C113.8 33.8 113.9 34.1 114 34.4C114.1 34.7 114.2 34.9 114.3 35.2C114.4 35.5 114.5 35.8 114.6 36.1C114.1 36.7 113.4 37.1 112.6 37.4C111.8 37.7 110.9 37.8 109.9 37.8C108.9 37.8 108 37.6 107.2 37.3C106.4 36.9 105.7 36.4 105.1 35.8C104.5 35.2 104.1 34.4 103.8 33.6C103.5 32.8 103.3 31.9 103.3 30.9C103.3 29.9 103.5 29.1 103.8 28.2C104.1 27.4 104.6 26.6 105.1 26C105.7 25.4 106.4 24.9 107.2 24.5C108 24.2 108.9 24 109.9 24ZM115.2 31.9C115.2 30.9 115.4 30 115.7 29.1C116 28.2 116.4 27.3 117 26.6C117.6 25.8 118.3 25.2 119.2 24.8C120.1 24.3 121.1 24.1 122.2 24.1C122.5 24.1 122.8 24.1 123.2 24.2C123.5 24.3 123.8 24.3 124.1 24.4C124.4 24.5 124.6 24.6 124.8 24.8C125 24.9 125.2 25.1 125.3 25.3V35.9C125.3 36.3 125.3 36.6 125.4 36.9C125.5 37.2 125.6 37.5 125.8 37.6H121.7C121.9 37.5 122 37.2 122.1 36.9C122.2 36.6 122.2 36.2 122.2 35.9V33.6H118.5C118.6 34.4 118.8 35.1 119 35.8C119.3 36.4 119.6 37 120.1 37.6H116.3C116.1 37.1 116 36.6 115.9 36.2C115.8 35.8 115.7 35.3 115.6 34.9C115.5 34.5 115.5 34 115.4 33.5C115.2 33 115.2 32.5 115.2 31.9ZM122.1 31V26.9C121.5 26.9 121 27 120.5 27.3C120.1 27.5 119.7 27.9 119.4 28.3C119.1 28.7 118.9 29.1 118.7 29.6C118.5 30.1 118.4 30.6 118.3 31H122.1ZM127.7 33C127.9 33.3 128.1 33.6 128.3 33.8C128.5 34 128.8 34.3 129.1 34.5C129.4 34.7 129.7 34.8 130 35C130.3 35.1 130.7 35.2 131 35.2C131.3 35.2 131.5 35.2 131.7 35.1C131.9 35 132.2 35 132.3 34.9C132.5 34.8 132.6 34.7 132.7 34.5C132.8 34.3 132.9 34.1 132.9 33.9C132.9 33.6 132.7 33.3 132.4 33.1C132.1 32.9 131.7 32.7 131.2 32.6C130.7 32.5 130.2 32.3 129.6 32.1C129 31.9 128.5 31.7 128 31.4C127.5 31.1 127.1 30.7 126.8 30.2C126.5 29.7 126.3 29.1 126.3 28.3C126.3 27.6 126.5 27.1 126.8 26.6C127.1 26.1 127.5 25.6 128 25.3C128.5 24.9 129.1 24.7 129.7 24.5C130.4 24.3 131 24.2 131.7 24.2C132.4 24.2 132.9 24.3 133.4 24.4C133.9 24.5 134.3 24.7 134.7 24.8C135.1 25 135.4 25.2 135.7 25.4C136 25.6 136.2 25.8 136.4 26C136.2 26.4 135.9 26.7 135.6 27.1C135.3 27.5 135.1 27.9 134.8 28.4C134.4 28 133.9 27.7 133.4 27.5C132.9 27.2 132.3 27.1 131.7 27.1C131.5 27.1 131.2 27.1 131 27.2C130.8 27.2 130.6 27.3 130.4 27.4C130.2 27.5 130.1 27.6 129.9 27.8C129.8 28 129.7 28.1 129.7 28.4C129.7 28.8 129.9 29.1 130.2 29.2C130.5 29.4 130.9 29.6 131.4 29.7C131.9 29.8 132.4 30 133 30.1C133.6 30.2 134.1 30.5 134.6 30.7C135.1 31 135.5 31.4 135.8 31.8C136.1 32.3 136.3 32.9 136.3 33.7C136.3 34.4 136.2 35 135.9 35.5C135.6 36 135.2 36.5 134.7 36.9C134.2 37.3 133.6 37.5 133 37.7C132.3 37.9 131.6 38 130.8 38C130.2 38 129.7 37.9 129.1 37.8C128.6 37.7 128.1 37.5 127.6 37.2C127.2 37 126.8 36.7 126.5 36.4C126.2 36.1 126 35.8 125.9 35.5C126.2 35.1 126.5 34.8 126.8 34.4C127.3 33.8 127.5 33.4 127.7 33ZM141.2 24.2C141 24.3 140.9 24.6 140.8 24.9C140.7 25.2 140.7 25.6 140.7 25.9V29.5H144.3V25.9C144.3 25.5 144.3 25.2 144.2 24.9C144.1 24.6 144 24.3 143.8 24.2H147.9C147.7 24.3 147.6 24.6 147.5 24.9C147.4 25.2 147.4 25.6 147.4 25.9V35.8C147.4 36.2 147.4 36.5 147.5 36.8C147.6 37.1 147.7 37.4 147.9 37.5H143.8C144 37.4 144.1 37.1 144.2 36.8C144.3 36.5 144.3 36.1 144.3 35.8V32H140.7V35.8C140.7 36.2 140.7 36.5 140.8 36.8C140.9 37.1 141 37.4 141.2 37.5H137.1C137.3 37.4 137.4 37.1 137.5 36.8C137.6 36.5 137.6 36.1 137.6 35.8V25.9C137.6 25.5 137.6 25.2 137.5 24.9C137.4 24.6 137.3 24.3 137.1 24.2H141.2Z" fill="white"/>
<path d="M36.2 10.6L37 12.2C37.1 12.3 37.2 12.4 37.3 12.4L39.2 12.7C39.5 12.7 39.7 13.1 39.4 13.4L38 14.7C37.9 14.8 37.9 14.9 37.9 15L38.2 16.8C38.3 17.1 37.9 17.4 37.6 17.2L35.9 16.4C35.8 16.3 35.6 16.3 35.5 16.4L33.8 17.2C33.5 17.3 33.2 17.1 33.2 16.8L33.5 15C33.5 14.9 33.5 14.7 33.4 14.7L32 13.4C31.8 13.2 31.9 12.8 32.2 12.7L34.1 12.4C34.2 12.4 34.3 12.3 34.4 12.2L35.2 10.6C35.6 10.3 36 10.3 36.2 10.6Z" fill="#FCC707"/>
<path d="M26.9999 11.7999L27.4999 12.7999C27.4999 12.8999 27.5999 12.8999 27.6999 12.8999L28.8999 13.0999C29.0999 13.0999 29.1999 13.3999 28.9999 13.4999L28.1999 14.2999C28.1332 14.3666 28.0999 14.4332 28.0999 14.4999L28.2999 15.5999C28.2999 15.7999 28.0999 15.8999 27.8999 15.8999L26.8999 15.3999H26.6999L25.6999 15.8999C25.4999 15.9999 25.2999 15.7999 25.2999 15.5999L25.4999 14.4999C25.4999 14.3999 25.4999 14.2999 25.3999 14.2999L24.5999 13.4999C24.4999 13.3999 24.4999 13.0999 24.6999 13.0999L25.8999 12.8999C25.9999 12.8999 26.0999 12.7999 26.0999 12.7999L26.5999 11.7999C26.6999 11.5999 26.8999 11.5999 26.9999 11.7999Z" fill="#FCC707"/>
<path d="M151 11.7999L151.5 12.7999C151.5 12.8999 151.6 12.8999 151.7 12.8999L152.9 13.0999C153.1 13.0999 153.2 13.3999 153 13.4999L152.2 14.2999C152.133 14.3666 152.1 14.4332 152.1 14.4999L152.3 15.5999C152.3 15.7999 152.1 15.8999 151.9 15.8999L150.9 15.3999H150.7L149.7 15.8999C149.5 15.9999 149.3 15.7999 149.3 15.5999L149.5 14.4999C149.5 14.3999 149.5 14.2999 149.4 14.2999L148.6 13.4999C148.5 13.3999 148.5 13.0999 148.7 13.0999L149.9 12.8999C150 12.8999 150.1 12.7999 150.1 12.7999L150.6 11.7999C150.6 11.5999 150.9 11.5999 151 11.7999Z" fill="#FCC707"/>
<path d="M140.7 10.6L141.5 12.2C141.6 12.3 141.7 12.4 141.8 12.4L143.7 12.7C144 12.7 144.2 13.1 143.9 13.4L142.5 14.7C142.4 14.8 142.4 14.9 142.4 15L142.7 16.8C142.8 17.1 142.4 17.4 142.1 17.2L140.4 16.4C140.3 16.3 140.1 16.3 140 16.4L138.3 17.2C138 17.3 137.7 17.1 137.7 16.8L138 15C138 14.9 138 14.7 137.9 14.7L136.5 13.4C136.3 13.2 136.4 12.8 136.7 12.7L138.6 12.4C138.7 12.4 138.8 12.3 138.9 12.2L139.7 10.6C140.1 10.3 140.5 10.3 140.7 10.6Z" fill="#FCC707"/>
</svg>
