<svg width="176" height="45" viewBox="0 0 176 45" fill="none" xmlns="http://www.w3.org/2000/svg">
<path d="M23.1001 0H153.1C165.5 0 175.6 10.1 175.6 22.5C175.6 34.9 165.5 45 153.1 45H23.1001C10.7001 45 0.600098 34.9 0.600098 22.5C0.600098 10.1 10.7001 0 23.1001 0Z" fill="#971E21"/>
<path d="M29.2998 27.4998V23.9998H39.4998V27.4998C39.2998 27.2998 39.0998 27.1998 38.8998 27.0998C38.6998 26.9998 38.4998 26.8998 38.2998 26.8998C38.0998 26.7998 37.8998 26.7998 37.6998 26.7998H35.9998V35.9998C35.9998 36.3998 35.9998 36.6998 36.0998 36.9998C36.1998 37.2998 36.2998 37.5998 36.4998 37.6998H32.2998C32.4998 37.5998 32.5998 37.2998 32.6998 36.9998C32.7998 36.6998 32.7998 36.2998 32.7998 35.9998V26.7998H31.1998C30.9998 26.7998 30.7998 26.8998 30.5998 26.8998C30.3998 26.9998 30.1998 26.9998 29.9998 27.0998C29.6998 27.1998 29.4998 27.2998 29.2998 27.4998ZM39.6998 30.7998C39.6998 29.7998 39.7998 28.8998 40.0998 28.0998C40.2998 27.1998 40.6998 26.4998 41.1998 25.8998C41.6998 25.2998 42.3998 24.7998 43.1998 24.3998C43.9998 23.9998 44.9998 23.7998 46.0998 23.7998C47.1998 23.7998 48.1998 23.9998 48.9998 24.3998C49.7998 24.7998 50.4998 25.2998 50.9998 25.8998C51.4998 26.4998 51.8998 27.2998 52.1998 28.0998C52.3998 28.9998 52.5998 29.8998 52.5998 30.7998C52.5998 31.7998 52.4998 32.6998 52.1998 33.4998C51.9998 34.2998 51.5998 35.0998 50.9998 35.6998C50.4998 36.2998 49.7998 36.7998 48.9998 37.1998C48.1998 37.5998 47.1998 37.7998 46.0998 37.7998C44.9998 37.7998 43.9998 37.5998 43.1998 37.1998C42.3998 36.7998 41.6998 36.2998 41.1998 35.6998C40.6998 35.0998 40.2998 34.2998 40.0998 33.4998C39.7998 32.6998 39.6998 31.7998 39.6998 30.7998ZM42.8998 30.7998C42.8998 31.3998 42.9998 31.8998 43.0998 32.4998C43.1998 32.9998 43.3998 33.4998 43.6998 33.8998C43.9998 34.2998 44.2998 34.5998 44.6998 34.7998C45.0998 34.9998 45.5998 35.0998 46.0998 35.0998C46.6998 35.0998 47.0998 34.9998 47.5998 34.7998C47.9998 34.5998 48.2998 34.2998 48.5998 33.8998C48.8998 33.4998 49.0998 32.9998 49.1998 32.4998C49.2998 31.9998 49.3998 31.3998 49.3998 30.7998C49.3998 30.1998 49.2998 29.6998 49.1998 29.0998C49.0998 28.5998 48.8998 28.0998 48.5998 27.6998C48.2998 27.2998 47.9998 26.9998 47.5998 26.7998C47.1998 26.5998 46.6998 26.4998 46.0998 26.4998C45.4998 26.4998 45.0998 26.5998 44.6998 26.7998C44.2998 26.9998 43.9998 27.2998 43.6998 27.6998C43.3998 28.0998 43.2998 28.4998 43.0998 29.0998C42.8998 29.6998 42.8998 30.1998 42.8998 30.7998ZM57.1998 23.9998C56.9998 24.0998 56.8998 24.3998 56.7998 24.6998C56.6998 24.9998 56.6998 25.3998 56.6998 25.6998V33.2998C56.6998 33.5998 56.7998 33.8998 56.8998 34.1998C56.9998 34.3998 57.1998 34.5998 57.4998 34.7998C57.6998 34.8998 58.0998 34.9998 58.4998 34.9998C58.8998 34.9998 59.2998 34.8998 59.4998 34.7998C59.6998 34.6998 59.8998 34.4998 59.9998 34.1998C60.0998 33.9998 60.1998 33.6998 60.1998 33.2998C60.1998 32.9998 60.2998 32.5998 60.2998 32.1998V25.6998C60.2998 25.2998 60.2998 24.9998 60.1998 24.6998C60.0998 24.3998 59.9998 24.0998 59.7998 23.9998H63.9998C63.7998 24.0998 63.6998 24.3998 63.5998 24.6998C63.4998 24.9998 63.4998 25.3998 63.4998 25.6998V33.1998C63.4998 33.9998 63.3998 34.6998 63.0998 35.1998C62.8998 35.6998 62.4998 36.1998 62.1998 36.4998C61.7998 36.7998 61.3998 37.0998 60.9998 37.2998C60.5998 37.4998 60.1998 37.5998 59.7998 37.5998C59.3998 37.6998 59.0998 37.6998 58.8998 37.6998H58.4998C57.5998 37.6998 56.6998 37.5998 55.9998 37.2998C55.6998 37.1998 55.3998 36.9998 55.0998 36.7998C54.7998 36.5998 54.4998 36.2998 54.2998 35.9998C54.0998 35.6998 53.8998 35.2998 53.6998 34.7998C53.5998 34.2998 53.4998 33.7998 53.4998 33.1998V25.6998C53.4998 25.2998 53.4998 24.9998 53.3998 24.6998C53.2998 24.3998 53.1998 24.0998 52.9998 23.9998H57.1998ZM64.4998 23.9998H70.3998C70.9998 23.9998 71.4998 24.0998 72.0998 24.2998C72.6998 24.4998 73.1998 24.7998 73.5998 25.0998C74.0998 25.4998 74.3998 25.8998 74.6998 26.4998C74.9998 26.9998 75.0998 27.6998 75.0998 28.3998C75.0998 29.3998 74.7998 30.1998 74.2998 30.8998C73.7998 31.4998 73.0998 31.9998 72.2998 32.1998L73.0998 34.2998C73.4998 35.3998 73.8998 36.0998 74.1998 36.6998C74.4998 37.1998 74.7998 37.4998 75.0998 37.6998H70.3998C70.4998 37.5998 70.5998 37.3998 70.5998 37.1998C70.5998 36.9998 70.5998 36.6998 70.3998 36.3998L68.0998 30.0998V35.9998C68.0998 36.3998 68.0998 36.6998 68.1998 36.9998C68.2998 37.2998 68.3998 37.5998 68.5998 37.6998H64.3998C64.5998 37.5998 64.6998 37.2998 64.7998 36.9998C64.8998 36.6998 64.8998 36.2998 64.8998 35.9998V25.7998C64.8998 25.3998 64.8998 25.0998 64.7998 24.7998C64.7998 24.3998 64.5998 24.0998 64.4998 23.9998ZM68.1998 29.9998H70.1998C70.4998 29.9998 70.7998 29.9998 70.9998 29.8998C71.1998 29.7998 71.3998 29.6998 71.5998 29.4998C71.7998 29.2998 71.8998 29.1998 71.8998 28.9998C71.9998 28.7998 71.9998 28.5998 71.9998 28.3998C71.9998 27.9998 71.7998 27.5998 71.4998 27.1998C71.1998 26.8998 70.7998 26.6998 70.1998 26.6998H68.1998V29.9998ZM75.6998 23.9998H79.3998L83.1998 31.1998V25.7998C83.1998 25.3998 83.1998 25.0998 83.0998 24.7998C82.9998 24.4998 82.8998 24.1998 82.6998 24.0998H86.8998C86.6998 24.1998 86.5998 24.4998 86.4998 24.7998C86.3998 25.0998 86.3998 25.4998 86.3998 25.7998V35.8998C86.3998 36.2998 86.3998 36.5998 86.4998 36.8998C86.5998 37.1998 86.6998 37.4998 86.8998 37.5998H83.1998L79.3998 30.3998V35.7998C79.3998 36.1998 79.3998 36.4998 79.4998 36.7998C79.5998 37.0998 79.6998 37.3998 79.8998 37.4998H75.6998C75.8998 37.3998 75.9998 37.0998 76.0998 36.7998C76.1998 36.4998 76.1998 36.0998 76.1998 35.7998V25.7998C76.1998 25.3998 76.1998 25.0998 76.0998 24.7998C75.9998 24.3998 75.7998 24.0998 75.6998 23.9998ZM87.5998 31.8998C87.5998 30.8998 87.7998 29.9998 88.0998 28.9998C88.3998 27.9998 88.8998 27.1998 89.4998 26.3998C90.0998 25.5998 90.7998 24.9998 91.6998 24.4998C92.5998 23.9998 93.5998 23.7998 94.7998 23.7998C95.0998 23.7998 95.4998 23.7998 95.7998 23.8998C96.0998 23.9998 96.3998 23.9998 96.6998 24.1998C96.9998 24.2998 97.1998 24.3998 97.3998 24.5998C97.5998 24.7998 97.7998 24.8998 97.8998 25.0998V35.8998C97.8998 36.2998 97.8998 36.5998 97.9998 36.8998C98.0998 37.1998 98.1998 37.4998 98.3998 37.5998H94.1998C94.3998 37.4998 94.4998 37.1998 94.5998 36.8998C94.6998 36.5998 94.6998 36.1998 94.6998 35.8998V33.5998H90.8998C90.9998 34.3998 91.1998 35.0998 91.4998 35.7998C91.7998 36.3998 92.0998 37.0998 92.5998 37.6998H88.6998C88.4998 37.1998 88.3998 36.6998 88.2998 36.2998C88.1998 35.7998 88.0998 35.3998 87.9998 34.8998C87.8998 34.3998 87.8998 33.9998 87.7998 33.4998C87.6998 32.9998 87.5998 32.3998 87.5998 31.8998ZM94.6998 30.8998V26.6998C94.0998 26.6998 93.4998 26.7998 93.0998 27.0998C92.6998 27.3998 92.2998 27.6998 91.9998 28.0998C91.6998 28.4998 91.4998 28.9998 91.2998 29.3998C91.0998 29.8998 90.9998 30.3998 90.8998 30.7998H94.6998V30.8998ZM99.2998 35.8998V25.7998C99.2998 25.3998 99.2998 25.0998 99.1998 24.7998C99.0998 24.4998 98.9998 24.1998 98.7998 24.0998H102.5L105.6 31.2998L108.7 24.0998H112.4C112.2 24.1998 112.1 24.4998 112 24.7998C111.9 25.0998 111.9 25.4998 111.9 25.7998V35.8998C111.9 36.2998 111.9 36.5998 112 36.8998C112.1 37.1998 112.2 37.4998 112.4 37.5998H108.2C108.4 37.4998 108.5 37.1998 108.6 36.8998C108.7 36.5998 108.7 36.1998 108.7 35.8998V29.7998L105.6 37.2998L102.5 29.7998V35.8998C102.5 36.2998 102.5 36.5998 102.6 36.8998C102.7 37.1998 102.8 37.4998 103 37.5998H98.7998C98.9998 37.4998 99.0998 37.1998 99.1998 36.8998C99.1998 36.5998 99.2998 36.1998 99.2998 35.8998ZM119.9 23.7998C120.9 23.7998 121.8 23.8998 122.7 24.1998C123.5 24.4998 124.2 24.8998 124.8 25.4998C124.7 25.7998 124.6 26.0998 124.4 26.3998C124.3 26.6998 124.2 26.9998 124.1 27.2998C124 27.5998 123.9 27.8998 123.8 28.1998C123.6 27.8998 123.3 27.5998 123 27.2998C122.7 27.0998 122.4 26.8998 121.9 26.6998C121.5 26.4998 121 26.3998 120.3 26.3998C119.8 26.3998 119.2 26.4998 118.7 26.6998C118.2 26.8998 117.8 27.0998 117.4 27.4998C117 27.8998 116.7 28.2998 116.5 28.8998C116.3 29.3998 116.2 30.0998 116.2 30.7998C116.2 31.5998 116.3 32.2998 116.6 32.8998C116.6 32.2998 116.6 31.7998 116.8 31.1998C117 30.6998 117.2 30.1998 117.5 29.8998C117.8 29.4998 118.2 29.1998 118.7 28.9998C119.2 28.7998 119.7 28.6998 120.3 28.6998C120.5 28.6998 120.7 28.6998 121 28.7998C121.2 28.7998 121.4 28.8998 121.6 28.9998C121.8 29.0998 122 29.1998 122.1 29.2998C122.2 29.3998 122.3 29.4998 122.4 29.5998V32.6998C122.1 32.4998 121.7 32.1998 121.2 31.9998C120.7 31.7998 120.2 31.6998 119.6 31.6998C119.2 31.6998 118.8 31.6998 118.4 31.7998C118 31.8998 117.7 31.9998 117.5 32.1998C117.3 32.3998 117.1 32.5998 117 32.7998C116.9 33.0998 117 33.3998 117.1 33.6998C117.5 34.1998 118 34.4998 118.5 34.7998C119.1 34.9998 119.6 35.1998 120.3 35.1998C120.9 35.1998 121.4 35.0998 121.9 34.8998C122.3 34.6998 122.7 34.4998 123 34.2998C123.3 34.0998 123.6 33.7998 123.8 33.4998C123.9 33.7998 124 34.0998 124.1 34.3998C124.2 34.6998 124.3 34.9998 124.4 35.2998C124.5 35.5998 124.6 35.8998 124.8 36.1998C124.3 36.7998 123.6 37.1998 122.7 37.4998C121.9 37.7998 120.9 37.8998 119.9 37.8998C118.9 37.8998 117.9 37.6998 117.1 37.2998C116.3 36.8998 115.6 36.3998 115 35.7998C114.4 35.1998 114 34.3998 113.6 33.5998C113.3 32.6998 113.1 31.7998 113.1 30.8998C113.1 29.8998 113.3 28.9998 113.6 28.1998C113.9 27.2998 114.4 26.5998 115 25.9998C115.6 25.3998 116.3 24.8998 117.1 24.4998C118 23.9998 118.9 23.7998 119.9 23.7998ZM125.1 23.9998H128.8L132.6 31.1998V25.7998C132.6 25.3998 132.6 25.0998 132.5 24.7998C132.4 24.4998 132.3 24.1998 132.1 24.0998H136.3C136.1 24.1998 136 24.4998 135.9 24.7998C135.8 25.0998 135.8 25.4998 135.8 25.7998V35.8998C135.8 36.2998 135.8 36.5998 135.9 36.8998C136 37.1998 136.1 37.4998 136.3 37.5998H132.6L128.8 30.3998V35.7998C128.8 36.1998 128.8 36.4998 128.9 36.7998C129 37.0998 129.1 37.3998 129.3 37.4998H125.1C125.3 37.3998 125.4 37.0998 125.5 36.7998C125.6 36.4998 125.6 36.0998 125.6 35.7998V25.7998C125.6 25.3998 125.6 25.0998 125.5 24.7998C125.4 24.3998 125.2 24.0998 125.1 23.9998ZM136.8 27.4998V23.9998H147V27.4998C146.8 27.2998 146.6 27.1998 146.4 27.0998C146.2 26.9998 146 26.8998 145.8 26.8998C145.6 26.7998 145.4 26.7998 145.1 26.7998H143.4V35.9998C143.4 36.3998 143.4 36.6998 143.5 36.9998C143.6 37.2998 143.7 37.5998 143.9 37.6998H139.7C139.9 37.5998 140 37.2998 140.1 36.9998C140.2 36.6998 140.2 36.2998 140.2 35.9998V26.7998H138.6C138.4 26.7998 138.2 26.8998 137.9 26.8998C137.7 26.9998 137.5 26.9998 137.3 27.0998C137.2 27.1998 137 27.2998 136.8 27.4998Z" fill="white"/>
<path d="M52.1996 5.2999H57.7996C58.7996 5.2999 59.6996 5.3999 60.4996 5.6999C61.2996 5.9999 61.8996 6.3999 62.4996 6.7999C62.9996 7.2999 63.4996 7.8999 63.6996 8.5999C63.9996 9.2999 64.0996 9.9999 64.0996 10.7999C64.0996 11.5999 63.9996 12.2999 63.6996 12.9999C63.3996 13.6999 63.0996 14.2999 62.5996 14.7999C62.0996 15.2999 61.5996 15.6999 60.8996 16.0999C60.1996 16.3999 59.4996 16.5999 58.6996 16.5999C58.5996 16.5999 58.3996 16.5999 58.2996 16.4999C58.1996 16.4999 57.9996 16.3999 57.8996 16.3999L56.1996 12.5999V18.4999C56.1996 18.8999 56.1996 19.2999 56.2996 19.6999C56.3996 20.0999 56.4996 20.2999 56.6996 20.4999H52.0996C52.2996 20.2999 52.3996 20.0999 52.4996 19.6999C52.5996 19.2999 52.5996 18.8999 52.5996 18.4999V7.1999C52.5996 6.7999 52.5996 6.3999 52.4996 5.9999C52.4996 5.6999 52.3996 5.3999 52.1996 5.2999ZM56.0996 7.7999V11.4999C56.2996 11.9999 56.5996 12.3999 56.8996 12.6999C57.1996 12.9999 57.6996 13.0999 58.1996 13.0999C58.5996 13.0999 58.8996 12.9999 59.1996 12.8999C59.4996 12.6999 59.6996 12.4999 59.8996 12.2999C60.0996 11.9999 60.1996 11.6999 60.2996 11.3999C60.3996 11.0999 60.3996 10.6999 60.3996 10.3999C60.3996 10.0999 60.2996 9.6999 60.1996 9.3999C60.0996 9.0999 59.8996 8.7999 59.6996 8.5999C59.4996 8.3999 59.1996 8.1999 58.8996 7.9999C58.5996 7.8999 58.1996 7.7999 57.7996 7.7999H56.0996ZM82.3996 5.2999H86.9996C86.7996 5.4999 86.6996 5.6999 86.5996 6.0999C86.4996 6.4999 86.4996 6.7999 86.4996 7.1999V18.3999C86.4996 18.7999 86.4996 19.1999 86.5996 19.5999C86.6996 19.9999 86.7996 20.1999 86.9996 20.3999H82.3996C82.5996 20.1999 82.6996 19.9999 82.7996 19.5999C82.8996 19.1999 82.8996 18.7999 82.8996 18.3999V7.1999C82.8996 6.7999 82.8996 6.3999 82.7996 5.9999C82.6996 5.6999 82.5996 5.3999 82.3996 5.2999ZM87.6996 5.2999H91.7996L96.0996 13.1999V7.1999C96.0996 6.7999 96.0996 6.3999 95.9996 5.9999C95.8996 5.5999 95.7996 5.3999 95.5996 5.1999H100.2C99.9996 5.3999 99.8996 5.5999 99.7996 5.9999C99.6996 6.3999 99.6996 6.6999 99.6996 7.0999V18.2999C99.6996 18.6999 99.6996 19.0999 99.7996 19.4999C99.8996 19.8999 99.9996 20.0999 100.2 20.2999H95.9996L91.6996 12.3999V18.3999C91.6996 18.7999 91.6996 19.1999 91.7996 19.5999C91.8996 19.9999 91.9996 20.1999 92.1996 20.3999H87.5996C87.7996 20.1999 87.8996 19.9999 87.9996 19.5999C88.0996 19.1999 88.0996 18.7999 88.0996 18.3999V7.1999C88.0996 6.7999 88.0996 6.3999 87.9996 6.0999C87.9996 5.6999 87.7996 5.3999 87.6996 5.2999ZM100.7 9.0999V5.2999H112V9.0999C111.8 8.8999 111.6 8.7999 111.4 8.6999C111.2 8.5999 110.9 8.4999 110.7 8.3999C110.5 8.2999 110.2 8.2999 110 8.2999H108V18.4999C108 18.8999 108 19.2999 108.1 19.6999C108.2 20.0999 108.3 20.2999 108.5 20.4999H104C104.2 20.2999 104.3 20.0999 104.4 19.6999C104.5 19.2999 104.5 18.8999 104.5 18.4999V8.1999H102.8C102.6 8.1999 102.3 8.2999 102.1 8.2999C101.9 8.3999 101.6 8.4999 101.4 8.5999C101.1 8.7999 100.9 8.8999 100.7 9.0999ZM114 15.0999C114.2 15.3999 114.4 15.6999 114.7 15.9999C115 16.2999 115.3 16.4999 115.6 16.7999C115.9 16.9999 116.3 17.1999 116.7 17.2999C117.1 17.3999 117.5 17.4999 117.9 17.4999C118.2 17.4999 118.5 17.4999 118.7 17.3999C119 17.2999 119.2 17.1999 119.4 17.0999C119.6 16.9999 119.8 16.7999 119.9 16.5999C120 16.3999 120.1 16.1999 120.1 15.8999C120.1 15.4999 119.9 15.1999 119.5 14.9999C119.1 14.7999 118.7 14.5999 118.1 14.3999C117.5 14.1999 116.9 14.0999 116.3 13.8999C115.7 13.6999 115 13.3999 114.5 13.0999C113.9 12.7999 113.5 12.2999 113.1 11.7999C112.7 11.1999 112.5 10.4999 112.5 9.5999C112.5 8.8999 112.7 8.1999 113 7.5999C113.4 6.9999 113.8 6.4999 114.4 6.0999C115 5.6999 115.6 5.3999 116.4 5.1999C117.1 4.9999 117.9 4.8999 118.7 4.8999C119.5 4.8999 120.1 4.9999 120.7 5.0999C121.3 5.1999 121.8 5.3999 122.2 5.5999C122.6 5.7999 123 5.9999 123.3 6.1999C123.6 6.3999 123.9 6.5999 124.1 6.7999C123.8 7.1999 123.5 7.5999 123.2 8.0999C122.9 8.4999 122.6 8.9999 122.3 9.5999C121.9 9.1999 121.3 8.7999 120.7 8.4999C120.1 8.1999 119.4 7.9999 118.7 7.9999C118.4 7.9999 118.2 7.9999 117.9 8.0999C117.6 8.1999 117.4 8.1999 117.2 8.3999C117 8.4999 116.8 8.6999 116.7 8.8999C116.6 9.0999 116.5 9.2999 116.5 9.4999C116.5 9.8999 116.7 10.1999 117 10.4999C117.4 10.6999 117.8 10.8999 118.4 11.0999C119 11.2999 119.5 11.3999 120.2 11.5999C120.8 11.7999 121.4 11.9999 122 12.2999C122.6 12.5999 123 12.9999 123.4 13.5999C123.8 14.1999 123.9 14.7999 123.9 15.6999C123.9 16.4999 123.7 17.0999 123.4 17.6999C123.1 18.2999 122.6 18.7999 122.1 19.1999C121.5 19.5999 120.9 19.8999 120.1 20.0999C119.3 20.2999 118.5 20.3999 117.7 20.3999C117 20.3999 116.4 20.2999 115.8 20.0999C115.2 19.8999 114.6 19.6999 114.1 19.4999C113.6 19.1999 113.2 18.8999 112.8 18.5999C112.5 18.2999 112.2 17.8999 112.1 17.5999C112.4 17.1999 112.8 16.7999 113.1 16.2999C113.5 16.0999 113.8 15.5999 114 15.0999Z" fill="white"/>
<path d="M72.7994 20.9001C77.1625 20.9001 80.6994 17.3631 80.6994 13.0001C80.6994 8.63705 77.1625 5.1001 72.7994 5.1001C68.4364 5.1001 64.8994 8.63705 64.8994 13.0001C64.8994 17.3631 68.4364 20.9001 72.7994 20.9001Z" fill="#F9BD17"/>
<path d="M72.7994 21.4001C68.1994 21.4001 64.3994 17.6001 64.3994 13.0001C64.3994 8.4001 68.1994 4.6001 72.7994 4.6001C77.3994 4.6001 81.1994 8.4001 81.1994 13.0001C81.2994 17.6001 77.4994 21.4001 72.7994 21.4001ZM72.7994 5.5001C68.6994 5.5001 65.3994 8.8001 65.3994 12.9001C65.3994 17.0001 68.6994 20.3001 72.7994 20.3001C76.8994 20.3001 80.1994 17.0001 80.1994 12.9001C80.1994 8.8001 76.8994 5.5001 72.7994 5.5001Z" fill="#E07E25"/>
<path d="M77.7995 7.8C77.6995 7.8 77.5995 7.8 77.4995 7.7C76.7995 7.5 76.3995 6.9 76.2995 6.2C76.2995 6.1 76.1995 6.1 76.1995 6.2C76.0995 6.8 75.7995 7.3 75.2995 7.5C75.0995 7.6 74.8995 7.7 74.6995 7.7C74.5995 7.7 74.5995 7.8 74.6995 7.8C75.0995 7.9 75.4995 8.1 75.6995 8.3C75.8995 8.6 76.0995 8.9 76.1995 9.3C76.1995 9.4 76.2995 9.4 76.2995 9.4C76.2995 9.4 76.3995 9.4 76.3995 9.3C76.3995 9.2 76.4995 9.1 76.4995 8.9V8.8C76.4995 8.7 76.5995 8.6 76.5995 8.5C76.6995 8.3 76.8995 8.1 77.1995 7.9C77.3995 7.8 77.5995 7.7 77.7995 7.7C77.7995 7.83333 77.7995 7.86667 77.7995 7.8Z" fill="white"/>
<path d="M79.2997 5.2999C79.1997 5.2999 79.0997 5.2999 79.0997 5.1999C78.5997 4.9999 78.2997 4.5999 78.1997 4.0999C78.1997 3.9999 78.0997 3.9999 78.0997 4.0999C77.9997 4.5999 77.7997 4.8999 77.3997 5.0999C77.2997 5.1999 77.0997 5.1999 76.8997 5.2999C76.7997 5.2999 76.7997 5.3999 76.8997 5.3999C77.1997 5.4999 77.4997 5.5999 77.5997 5.7999C77.7997 5.9999 77.8997 6.2999 77.9997 6.5999C77.9997 6.4999 77.9997 6.3999 78.0997 6.2999V6.1999C78.0997 6.0999 78.1997 6.0999 78.1997 5.9999C78.2997 5.7999 78.3997 5.6999 78.5997 5.5999C78.9997 5.4999 79.1997 5.3999 79.2997 5.2999C79.3664 5.36657 79.3664 5.36657 79.2997 5.2999C79.3664 5.2999 79.3664 5.2999 79.2997 5.2999Z" fill="white"/>
<path d="M81.2996 7.8001C81.2329 7.8001 81.1663 7.76676 81.0996 7.7001C80.5996 7.5001 80.2996 7.1001 80.1996 6.6001H80.0996C79.9996 7.0001 79.7996 7.4001 79.4996 7.6001C79.3996 7.7001 79.1996 7.7001 79.0996 7.8001V7.9001C79.3996 8.0001 79.6996 8.1001 79.7996 8.3001C79.9996 8.5001 80.0996 8.8001 80.1996 9.1001C80.1996 9.0001 80.1996 8.9001 80.2996 8.8001V8.7001C80.2996 8.6001 80.3996 8.6001 80.3996 8.5001C80.4996 8.3001 80.5996 8.2001 80.7996 8.1001C80.9996 8.0001 81.0996 7.9001 81.2996 7.8001C81.2996 7.86676 81.2996 7.86676 81.2996 7.8001Z" fill="white"/>
<path d="M75.3998 10.0996C74.5998 9.39961 73.4998 8.59961 72.9998 7.59961C72.4998 8.49961 71.3998 9.29961 70.5998 10.0996C69.3998 11.1996 68.2998 12.2996 68.2998 13.7996C68.2998 14.7996 68.8998 15.5996 69.7998 15.8996C70.7998 16.1996 71.7998 15.7996 72.3998 14.9996L72.4998 14.6996V15.4996C72.4998 15.6996 72.3998 15.8996 72.3998 16.0996C72.0998 16.9996 71.3998 17.7996 70.6998 18.4996C71.1998 18.2996 72.1998 18.1996 72.8998 18.1996C73.5998 18.1996 74.5998 18.2996 75.0998 18.4996C74.3998 17.8996 73.6998 16.9996 73.3998 16.0996C73.3998 15.8996 73.2998 15.6996 73.2998 15.4996V14.6996L73.3998 14.9996C73.9998 15.8996 75.0998 16.2996 75.9998 15.8996C76.8998 15.5996 77.4998 14.7996 77.4998 13.7996C77.6998 12.2996 76.5998 11.1996 75.3998 10.0996Z" fill="#E07E25"/>
<path d="M74.8998 9.7998C74.0998 9.0998 72.9998 8.2998 72.4998 7.2998C71.9998 8.1998 70.8998 8.9998 70.0998 9.7998C68.8998 10.8998 67.7998 11.9998 67.7998 13.4998C67.7998 14.4998 68.3998 15.2998 69.2998 15.5998C70.2998 15.8998 71.2998 15.4998 71.8998 14.6998L71.9998 14.3998V15.1998C71.9998 15.3998 71.8998 15.5998 71.8998 15.7998C71.5998 16.6998 70.8998 17.4998 70.1998 18.1998C70.6998 17.9998 71.6998 17.8998 72.3998 17.8998C73.0998 17.8998 74.0998 17.9998 74.5998 18.1998C73.8998 17.5998 73.1998 16.6998 72.8998 15.7998C72.8998 15.5998 72.7998 15.3998 72.7998 15.1998V14.3998L72.8998 14.6998C73.4998 15.5998 74.5998 15.9998 75.4998 15.5998C76.3998 15.2998 76.9998 14.4998 76.9998 13.4998C77.1998 11.9998 76.0998 10.8998 74.8998 9.7998Z" fill="white"/>
</svg>
