<svg width="176" height="45" viewBox="0 0 176 45" fill="none" xmlns="http://www.w3.org/2000/svg">
<path d="M22.7002 0H152.7C165.1 0 175.2 10.1 175.2 22.5C175.2 34.9 165.1 45 152.7 45H22.7002C10.3002 45 0.200195 34.9 0.200195 22.5C0.200195 10.1 10.3002 0 22.7002 0Z" fill="#295B43"/>
<path d="M78.5996 25.7998V9.2998H84.1996C86.0996 9.2998 87.6996 9.5998 88.9996 10.2998C90.1996 10.9998 91.1996 11.8998 91.7996 13.1998C92.3996 14.3998 92.6996 15.8998 92.6996 17.4998C92.6996 19.1998 92.3996 20.5998 91.7996 21.7998C91.1996 22.9998 90.2996 23.9998 88.9996 24.6998C87.7996 25.3998 86.1996 25.6998 84.1996 25.6998H78.5996V25.7998ZM81.5996 23.1998H84.0996C85.4996 23.1998 86.5996 22.9998 87.3996 22.4998C88.1996 22.0998 88.7996 21.3998 89.0996 20.5998C89.3996 19.7998 89.5996 18.6998 89.5996 17.4998C89.5996 16.2998 89.3996 15.2998 89.0996 14.4998C88.7996 13.6998 88.1996 12.9998 87.3996 12.4998C86.5996 11.9998 85.4996 11.7998 84.0996 11.7998H81.5996V23.1998Z" fill="white"/>
<path d="M84.2998 26.0999H78.2998V8.8999H84.2998C86.2998 8.8999 87.8998 9.2999 89.1998 9.9999C90.4998 10.6999 91.4998 11.6999 92.0998 12.9999C92.6998 14.2999 92.9998 15.7999 92.9998 17.4999C92.9998 19.1999 92.6998 20.6999 92.0998 21.9999C91.4998 23.2999 90.4998 24.2999 89.1998 24.9999C87.8998 25.6999 86.1998 26.0999 84.2998 26.0999ZM78.9998 25.3999H84.2998C86.1998 25.3999 87.6998 25.0999 88.8998 24.3999C90.0998 23.7999 90.9998 22.7999 91.4998 21.6999C92.0998 20.4999 92.3998 19.0999 92.3998 17.4999C92.3998 15.8999 92.0998 14.4999 91.4998 13.2999C90.8998 12.0999 89.9998 11.1999 88.8998 10.5999C87.6998 9.8999 86.1998 9.5999 84.2998 9.5999H78.9998V25.3999ZM84.0998 23.4999H81.2998V11.4999H84.0998C85.4998 11.4999 86.6998 11.6999 87.4998 12.1999C88.3998 12.6999 88.9998 13.3999 89.3998 14.2999C89.7998 15.1999 89.8998 16.2999 89.8998 17.4999C89.8998 18.6999 89.6998 19.7999 89.3998 20.6999C88.9998 21.5999 88.3998 22.2999 87.4998 22.7999C86.6998 23.2999 85.5998 23.4999 84.0998 23.4999ZM81.9998 22.7999H84.0998C85.3998 22.7999 86.4998 22.5999 87.1998 22.1999C87.8998 21.7999 88.4998 21.1999 88.7998 20.3999C89.0998 19.5999 89.2998 18.5999 89.2998 17.4999C89.2998 16.3999 89.0998 15.3999 88.7998 14.5999C88.4998 13.7999 87.9998 13.1999 87.1998 12.7999C86.4998 12.3999 85.3998 12.1999 84.0998 12.1999H81.9998V22.7999Z" fill="white"/>
<path d="M93.2998 25.7998L99.2998 9.2998H102.7L108.7 25.7998H105.5L104.2 21.9998H97.7998L96.4998 25.7998H93.2998ZM98.5998 19.5998H103.4L101 12.6998L98.5998 19.5998Z" fill="white"/>
<path d="M109.2 26.0999H105.3L104 22.2999H97.9998L96.6998 26.0999H92.7998L99.0998 8.8999H103L109.2 26.0999ZM105.8 25.3999H108.3L102.5 9.5999H99.5998L93.7998 25.3999H96.1998L97.4998 21.5999H104.4L105.8 25.3999ZM103.9 19.8999H98.0998L101 11.5999L103.9 19.8999ZM99.0998 19.1999H102.9L101 13.6999L99.0998 19.1999Z" fill="white"/>
<path d="M110.8 25.7998V9.2998H113.8V25.7998H110.8Z" fill="white"/>
<path d="M114.2 26.0999H110.5V8.8999H114.2V26.0999ZM111.2 25.3999H113.5V9.5999H111.2V25.3999Z" fill="white"/>
<path d="M117.1 25.7998V9.2998H120.1V23.3998H127.4V25.7998H117.1Z" fill="white"/>
<path d="M127.7 26.0999H116.7V8.8999H120.4V22.9999H127.7V26.0999ZM117.4 25.3999H127V23.6999H119.7V9.5999H117.4V25.3999Z" fill="white"/>
<path d="M132 25.7998V19.8998L126.5 9.2998H129.9L133.6 16.8998L137.2 9.2998H140.6L135 19.8998V25.7998H132Z" fill="white"/>
<path d="M135.3 26.0999H131.6V19.9999L125.8 8.8999H130L133.4 16.0999L136.8 8.8999H141L135.3 19.9999V26.0999ZM132.3 25.3999H134.6V19.7999L139.9 9.5999H137.3L133.5 17.6999L129.6 9.5999H127L132.3 19.7999V25.3999Z" fill="white"/>
<mask id="mask0_3360_6983" style="mask-type:luminance" maskUnits="userSpaceOnUse" x="34" y="0" width="43" height="39">
<path d="M75.3999 25.7H44.6999L45.4999 34.6H42.7999V38.7H34.3999L36.1999 5.4L59.9999 0L75.4999 12.5L76.9999 24.5L75.3999 25.7Z" fill="white"/>
</mask>
<g mask="url(#mask0_3360_6983)">
<path d="M55.9001 43.1999C44.8001 43.2999 35.8001 34.5999 35.7001 23.5999C35.6001 12.5999 44.3001 3.59988 55.2001 3.49988C66.2001 3.39988 75.2001 12.0999 75.3 22.9999C75.5 33.9999 66.8001 43.0999 55.9001 43.1999ZM55.5001 40.7999C65.1001 40.7999 72.9001 32.9999 72.9001 23.3999C73.0001 13.8999 65.2001 5.99988 55.6001 5.99988C46.0001 5.99988 38.2001 13.7999 38.1001 23.3999C38.1001 32.9999 45.9001 40.7999 55.5001 40.7999Z" fill="#FABC16"/>
<path d="M57 22.7001V13.3001C56.9 12.6001 56.4 12.1001 55.7 12.1001C55 12.1001 54.5 12.6001 54.5 13.3001V23.7001C54.5 24.8001 54.9 25.2001 56 25.2001H64.2C65 25.2001 65.6 24.7001 65.6 23.9001C65.6 23.2001 65 22.7001 64.2 22.7001H57Z" fill="#FABC16"/>
<path d="M48.1999 12.6999C47.7999 11.9999 47.3999 11.1999 46.8999 10.4999C47.4999 10.0999 48.0999 9.7999 48.6999 9.3999C49.0999 10.0999 49.4999 10.8999 49.9999 11.5999C49.3999 11.9999 48.7999 12.2999 48.1999 12.6999Z" fill="#FABC16"/>
<path d="M41.6001 16.4997C42.0001 15.8997 42.3001 15.2997 42.7001 14.6997C43.4001 15.0997 44.2001 15.4997 44.9001 15.9997C44.5001 16.5997 44.2001 17.1997 43.8001 17.7997C43.0001 17.3997 42.3001 16.9997 41.6001 16.4997Z" fill="#FABC16"/>
<path d="M68.4998 14.6997C68.8998 15.2997 69.1998 15.8997 69.5998 16.4997C68.8998 16.8997 68.0998 17.2997 67.3998 17.7997C66.9998 17.1997 66.6998 16.5997 66.2998 15.9997C66.9998 15.5997 67.6998 15.0997 68.4998 14.6997Z" fill="#FABC16"/>
<path d="M49.9999 35.2001C49.5999 36.0001 49.0999 36.7001 48.6999 37.4001C48.0999 37.0001 47.4999 36.7001 46.8999 36.3001C47.2999 35.6001 47.6999 34.8001 48.1999 34.1001C48.7999 34.5001 49.3999 34.8001 49.9999 35.2001Z" fill="#FABC16"/>
<path d="M62.4001 9.3999C63.0001 9.7999 63.6001 10.0999 64.2001 10.4999C63.8001 11.1999 63.4001 11.9999 62.9001 12.6999C62.3001 12.2999 61.7001 11.9999 61.1001 11.5999C61.6001 10.8999 62.0001 10.1999 62.4001 9.3999Z" fill="#FABC16"/>
<path d="M42.6 32.1C42.2 31.5 41.9 30.9 41.5 30.3C42.2 29.9 43 29.5 43.7 29C44.1 29.6 44.4 30.2 44.8 30.8C44.1 31.2 43.4 31.7 42.6 32.1Z" fill="#FABC16"/>
<path d="M61.1001 35.2001C61.7001 34.8001 62.3001 34.5001 62.9001 34.1001C63.3001 34.8001 63.7001 35.6001 64.2001 36.3001C63.6001 36.7001 63.0001 37.0001 62.4001 37.4001C62.0001 36.7001 61.6001 35.9001 61.1001 35.2001Z" fill="#FABC16"/>
<path d="M68.4998 32.1C67.7998 31.7 66.9998 31.3 66.2998 30.8C66.6998 30.2 66.9998 29.6 67.3998 29C68.0998 29.4 68.8998 29.8 69.5998 30.3C69.1998 30.9 68.7998 31.5 68.4998 32.1Z" fill="#FABC16"/>
<path d="M54.5 7.8999H56.6V10.3999H54.5V7.8999Z" fill="#FABC16"/>
<path d="M42.6001 24.3998H40.1001V22.2998H42.6001V24.3998Z" fill="#FABC16"/>
<path d="M71.1001 24.3998H68.6001V22.2998H71.1001V24.3998Z" fill="#FABC16"/>
<path d="M54.5 38.8999V36.3999H56.6V38.8999H54.5Z" fill="#FABC16"/>
</g>
<path d="M47.8003 38.6001V29.1001H51.6003C52.6003 29.1001 53.3003 29.3001 53.9003 29.8001C54.4003 30.3001 54.7003 30.8001 54.7003 31.6001C54.7003 32.2001 54.5003 32.7001 54.2003 33.0001C53.9003 33.4001 53.5003 33.6001 53.0003 33.7001C53.5003 33.8001 54.0003 34.1001 54.3003 34.5001C54.7003 34.9001 54.8003 35.4001 54.8003 36.0001C54.8003 36.8001 54.5003 37.4001 54.0003 37.9001C53.5003 38.4001 52.7003 38.6001 51.7003 38.6001H47.8003ZM49.5003 33.1001H51.3003C51.8003 33.1001 52.2003 33.0001 52.4003 32.8001C52.7003 32.6001 52.8003 32.3001 52.8003 31.8001C52.8003 31.4001 52.7003 31.1001 52.4003 30.9001C52.1003 30.7001 51.8003 30.6001 51.2003 30.6001H49.4003V33.1001H49.5003ZM49.5003 37.2001H51.4003C51.9003 37.2001 52.3003 37.1001 52.6003 36.8001C52.9003 36.6001 53.0003 36.2001 53.0003 35.8001C53.0003 35.4001 52.9003 35.0001 52.6003 34.8001C52.3003 34.5001 51.9003 34.4001 51.4003 34.4001H49.5003V37.2001Z" fill="#FABC16"/>
<path d="M51.7001 38.7999H47.6001V28.8999H51.6001C52.6001 28.8999 53.4001 29.0999 54.0001 29.5999C54.6001 30.0999 54.8001 30.6999 54.8001 31.4999C54.8001 32.0999 54.6001 32.6999 54.3001 33.0999C54.1001 33.3999 53.8001 33.4999 53.5001 33.6999C53.9001 33.8999 54.2001 34.0999 54.5001 34.3999C54.9001 34.8999 55.1001 35.3999 55.1001 35.9999C55.1001 36.7999 54.8001 37.4999 54.2001 37.9999C53.6001 38.5999 52.8001 38.7999 51.7001 38.7999ZM48.0001 38.4999H51.8001C52.7001 38.4999 53.5001 38.2999 54.0001 37.7999C54.5001 37.2999 54.8001 36.7999 54.8001 36.0999C54.8001 35.5999 54.6001 35.0999 54.3001 34.6999C54.0001 34.2999 53.6001 34.0999 53.1001 33.9999L52.4001 33.8999L53.1001 33.6999C53.5001 33.5999 53.9001 33.3999 54.2001 32.9999C54.5001 32.6999 54.6001 32.1999 54.6001 31.6999C54.6001 30.9999 54.4001 30.4999 53.9001 30.0999C53.4001 29.6999 52.7001 29.4999 51.7001 29.4999H48.0001V38.4999ZM51.5001 37.3999H49.4001V34.1999H51.5001C52.0001 34.1999 52.5001 34.2999 52.8001 34.5999C53.1001 34.8999 53.3001 35.2999 53.3001 35.7999C53.3001 36.2999 53.1001 36.6999 52.8001 36.8999C52.5001 37.2999 52.0001 37.3999 51.5001 37.3999ZM49.7001 37.0999H51.5001C52.0001 37.0999 52.3001 36.9999 52.6001 36.7999C52.8001 36.5999 53.0001 36.2999 53.0001 35.8999C53.0001 35.4999 52.9001 35.1999 52.6001 34.9999C52.3001 34.7999 52.0001 34.6999 51.5001 34.6999H49.8001V37.0999H49.7001ZM51.3001 33.2999H49.3001V30.3999H51.3001C51.9001 30.3999 52.3001 30.4999 52.6001 30.7999C52.9001 31.0999 53.0001 31.3999 53.0001 31.8999C53.0001 32.3999 52.8001 32.6999 52.5001 32.9999C52.3001 33.1999 51.9001 33.2999 51.3001 33.2999ZM49.7001 32.8999H51.4001C51.8001 32.8999 52.2001 32.7999 52.4001 32.5999C52.6001 32.3999 52.7001 32.0999 52.7001 31.7999C52.7001 31.3999 52.6001 31.1999 52.4001 30.9999C52.2001 30.7999 51.8001 30.6999 51.4001 30.6999H49.8001V32.8999H49.7001Z" fill="#FABC16"/>
<path d="M60.0003 38.8001C59.3003 38.8001 58.7003 38.7001 58.1003 38.4001C57.5003 38.1001 57.1003 37.7001 56.8003 37.1001C56.5003 36.5001 56.3003 35.8001 56.3003 35.0001V29.1001H58.0003V35.0001C58.0003 35.7001 58.2003 36.3001 58.5003 36.7001C58.9003 37.1001 59.4003 37.2001 60.0003 37.2001C60.6003 37.2001 61.1003 37.0001 61.5003 36.7001C61.9003 36.3001 62.0003 35.8001 62.0003 35.0001V29.1001H63.7003V35.0001C63.7003 35.9001 63.5003 36.6001 63.2003 37.1001C62.9003 37.7001 62.4003 38.1001 61.8003 38.4001C61.4003 38.7001 60.7003 38.8001 60.0003 38.8001Z" fill="#FABC16"/>
<path d="M60.0001 38.9999C59.3001 38.9999 58.6001 38.8999 58.0001 38.5999C57.4001 38.2999 56.9001 37.8999 56.6001 37.2999C56.3001 36.6999 56.1001 35.9999 56.1001 35.0999V28.9999H58.2001V34.9999C58.2001 35.6999 58.4001 36.1999 58.7001 36.4999C59.0001 36.7999 59.5001 36.9999 60.1001 36.9999C60.7001 36.9999 61.1001 36.7999 61.5001 36.4999C61.8001 36.1999 62.0001 35.6999 62.0001 34.9999V28.8999H64.0001V34.9999C64.0001 35.8999 63.8001 36.5999 63.5001 37.1999C63.1001 37.7999 62.7001 38.1999 62.0001 38.4999C61.4001 38.7999 60.8001 38.9999 60.0001 38.9999ZM56.5001 29.2999V34.9999C56.5001 35.7999 56.7001 36.4999 57.0001 36.9999C57.3001 37.4999 57.7001 37.8999 58.3001 38.1999C58.8001 38.4999 59.4001 38.5999 60.1001 38.5999C60.8001 38.5999 61.4001 38.4999 61.9001 38.1999C62.4001 37.8999 62.9001 37.4999 63.2001 36.9999C63.5001 36.4999 63.7001 35.7999 63.7001 34.9999V29.2999H62.3001V34.9999C62.3001 35.7999 62.1001 36.3999 61.7001 36.7999C61.3001 37.1999 60.8001 37.3999 60.1001 37.3999C59.4001 37.3999 58.9001 37.1999 58.5001 36.7999C58.1001 36.3999 57.9001 35.7999 57.9001 34.9999V29.2999H56.5001Z" fill="#FABC16"/>
<path d="M65.6001 38.6001V29.1001H67.7001L70.7001 35.1001L73.7001 29.1001H75.8001V38.6001H74.1001V32.0001L71.4001 37.2001H70.0001L67.3001 32.0001V38.6001H65.6001Z" fill="#FABC16"/>
<path d="M75.9999 38.7999H73.8999V32.7999L71.4999 37.4999H69.8999L67.4999 32.7999V38.7999H65.3999V28.8999H67.6999L70.5999 34.6999L73.4999 28.8999H75.9999V38.7999ZM74.1999 38.4999H75.5999V29.2999H73.7999L70.6999 35.5999L67.5999 29.2999H65.7999V38.4999H67.1999V31.3999L70.0999 37.1999H71.2999L74.1999 31.3999V38.4999Z" fill="#FABC16"/>
<path d="M77.7002 38.6001V29.1001H81.2002C82.0002 29.1001 82.6002 29.2001 83.1002 29.5001C83.6002 29.8001 84.0002 30.1001 84.2002 30.5001C84.4002 30.9001 84.6002 31.4001 84.6002 32.0001C84.6002 32.5001 84.5002 33.0001 84.2002 33.4001C84.0002 33.8001 83.6002 34.2001 83.1002 34.5001C82.6002 34.8001 82.0002 35.0001 81.2002 35.0001H79.4002V38.7001H77.7002V38.6001ZM79.4002 33.5001H81.1002C81.7002 33.5001 82.1002 33.4001 82.4002 33.1001C82.7002 32.8001 82.8002 32.5001 82.8002 32.0001C82.8002 31.5001 82.7002 31.2001 82.4002 30.9001C82.1002 30.6001 81.7002 30.5001 81.1002 30.5001H79.4002V33.5001Z" fill="#FABC16"/>
<path d="M79.6 38.7999H77.5V28.8999H81.2C82 28.8999 82.6 28.9999 83.2 29.2999C83.7 29.5999 84.1 29.8999 84.4 30.3999C84.7 30.8999 84.8 31.3999 84.8 31.9999C84.8 32.5999 84.7 33.0999 84.4 33.4999C84.1 33.9999 83.8 34.2999 83.2 34.5999C82.7 34.8999 82 34.9999 81.2 34.9999H79.6V38.7999ZM77.8 38.4999H79.2V34.7999H81.2C81.9 34.7999 82.6 34.6999 83 34.3999C83.5 34.0999 83.8 33.7999 84 33.3999C84.2 32.9999 84.3 32.4999 84.3 31.9999C84.3 31.4999 84.2 30.9999 84 30.5999C83.8 30.1999 83.4 29.8999 83 29.5999C82.5 29.3999 81.9 29.1999 81.2 29.1999H77.8V38.4999ZM81.1 33.6999H79.3V30.2999H81.1C81.8 30.2999 82.2 30.4999 82.5 30.7999C82.8 31.0999 83 31.4999 83 31.9999C83 32.4999 82.8 32.8999 82.5 33.1999C82.2 33.5999 81.7 33.6999 81.1 33.6999ZM79.6 33.3999H81.1C81.7 33.3999 82.1 33.2999 82.3 32.9999C82.5 32.7999 82.7 32.3999 82.7 31.9999C82.7 31.5999 82.6 31.1999 82.3 30.9999C82.1 30.7999 81.7 30.5999 81.1 30.5999H79.6V33.3999Z" fill="#FABC16"/>
<path d="M85.9004 38.6001V29.1001H92.1004V30.5001H87.6004V33.1001H91.7004V34.5001H87.6004V37.2001H92.1004V38.6001H85.9004Z" fill="#FABC16"/>
<path d="M92.3002 38.7999H85.7002V28.8999H92.3002V30.5999H87.8002V32.9999H91.9002V34.6999H87.8002V37.0999H92.3002V38.7999ZM86.1002 38.4999H92.0002V37.3999H87.5002V34.2999H91.6002V33.2999H87.5002V30.2999H92.0002V29.1999H86.1002V38.4999Z" fill="#FABC16"/>
<path d="M93.7998 38.6001V29.1001H97.2998C98.0998 29.1001 98.6998 29.2001 99.1998 29.5001C99.6998 29.8001 100.1 30.1001 100.3 30.5001C100.5 30.9001 100.7 31.4001 100.7 32.0001C100.7 32.6001 100.5 33.1001 100.2 33.6001C99.8998 34.1001 99.3998 34.4001 98.7998 34.6001L100.8 38.6001H98.7998L96.9998 34.9001H95.5998V38.7001H93.7998V38.6001ZM95.4998 33.6001H97.0998C97.6998 33.6001 98.0998 33.5001 98.3998 33.2001C98.6998 32.9001 98.7998 32.5001 98.7998 32.1001C98.7998 31.6001 98.6998 31.3001 98.3998 31.0001C98.0998 30.7001 97.6998 30.6001 97.0998 30.6001H95.4998V33.6001Z" fill="#FABC16"/>
<path d="M101 38.7999H98.6L96.8 34.9999H95.6V38.7999H93.5V28.8999H97.2C98 28.8999 98.6 28.9999 99.2 29.2999C99.7 29.5999 100.1 29.8999 100.4 30.3999C100.7 30.8999 100.8 31.3999 100.8 31.8999C100.8 32.4999 100.6 33.0999 100.3 33.5999C100 34.0999 99.6 34.3999 99 34.6999L101 38.7999ZM98.9 38.4999H100.5L98.6 34.5999L98.8 34.4999C99.4 34.2999 99.9 33.9999 100.1 33.4999C100.4 32.9999 100.5 32.4999 100.5 31.9999C100.5 31.4999 100.4 30.9999 100.2 30.5999C100 30.1999 99.6 29.8999 99.2 29.5999C98.7 29.3999 98.1 29.1999 97.4 29.1999H94V38.3999H95.4V34.5999H97.1L98.9 38.4999ZM97.2 33.7999H95.4V30.3999H97.2C97.8 30.3999 98.3 30.5999 98.6 30.8999C98.9 31.1999 99.1 31.5999 99.1 32.0999C99.1 32.5999 98.9 32.9999 98.6 33.2999C98.3 33.5999 97.8 33.7999 97.2 33.7999ZM95.7 33.3999H97.2C97.7 33.3999 98.1 33.2999 98.4 32.9999C98.6 32.7999 98.8 32.3999 98.8 31.9999C98.8 31.5999 98.7 31.2999 98.4 30.9999C98.2 30.7999 97.8 30.5999 97.2 30.5999H95.7V33.3999Z" fill="#FABC16"/>
<path d="M109.8 38.8C108.8 38.8 108 38.6 107.3 38.2C106.6 37.8 106.1 37.2 105.7 36.5C105.3 35.8 105.1 34.9 105.1 33.9C105.1 32.9 105.3 32.1 105.7 31.3C106.1 30.6 106.6 30 107.3 29.6C108 29.2 108.8 29 109.8 29C110.9 29 111.9 29.3 112.6 29.9C113.3 30.5 113.8 31.3 114 32.3H112.1C112 31.8 111.7 31.4 111.3 31.1C110.9 30.8 110.4 30.7 109.8 30.7C108.9 30.7 108.2 31 107.7 31.6C107.2 32.2 107 33 107 34.1C107 35.1 107.2 36 107.7 36.6C108.2 37.2 108.9 37.5 109.8 37.5C110.4 37.5 110.9 37.4 111.3 37.1C111.7 36.8 111.9 36.4 112.1 35.9H114C113.8 36.9 113.4 37.6 112.6 38.2C111.9 38.5 111 38.8 109.8 38.8Z" fill="#FABC16"/>
<path d="M109.8 38.9998C108.8 38.9998 107.9 38.7998 107.2 38.3998C106.5 37.9998 105.9 37.3998 105.5 36.5998C105.1 35.7998 104.9 34.9998 104.9 33.9998C104.9 32.9998 105.1 32.0998 105.5 31.2998C105.9 30.4998 106.4 29.8998 107.2 29.4998C107.9 29.0998 108.8 28.7998 109.8 28.7998C111 28.7998 112 29.0998 112.7 29.6998C113.5 30.2998 113.9 31.0998 114.1 32.1998V32.3998H111.8V32.2998C111.7 31.7998 111.5 31.4998 111.1 31.1998C110.7 30.8998 110.3 30.7998 109.7 30.7998C108.9 30.7998 108.2 31.0998 107.8 31.5998C107.3 32.1998 107.1 32.9998 107.1 33.9998C107.1 34.9998 107.3 35.7998 107.8 36.2998C108.3 36.8998 108.9 37.0998 109.7 37.0998C110.3 37.0998 110.8 36.9998 111.1 36.6998C111.5 36.3998 111.7 36.0998 111.8 35.6998V35.5998H114.1V35.7998C113.9 36.7998 113.4 37.5998 112.7 38.1998C112 38.6998 111 38.9998 109.8 38.9998ZM109.8 29.0998C108.9 29.0998 108.1 29.2998 107.4 29.6998C106.7 30.0998 106.2 30.6998 105.9 31.3998C105.5 32.0998 105.4 32.9998 105.4 33.8998C105.4 34.7998 105.6 35.6998 105.9 36.3998C106.3 37.0998 106.8 37.6998 107.4 38.0998C108.1 38.4998 108.9 38.6998 109.8 38.6998C110.9 38.6998 111.8 38.3998 112.5 37.8998C113.1 37.3998 113.6 36.6998 113.8 35.8998H112.2C112.1 36.3998 111.8 36.6998 111.4 36.9998C111 37.2998 110.4 37.3998 109.8 37.3998C108.9 37.3998 108.1 37.0998 107.6 36.3998C107.1 35.7998 106.8 34.8998 106.8 33.7998C106.8 32.6998 107.1 31.8998 107.6 31.1998C108.1 30.5998 108.9 30.1998 109.8 30.1998C110.5 30.1998 111 30.3998 111.4 30.6998C111.8 30.9998 112 31.3998 112.2 31.8998H113.8C113.6 30.9998 113.2 30.2998 112.5 29.7998C111.8 29.3998 110.9 29.0998 109.8 29.0998Z" fill="#FABC16"/>
<path d="M114.8 38.6001L118.3 29.1001H120.3L123.8 38.6001H121.9L121.1 36.4001H117.4L116.6 38.6001H114.8ZM117.9 35.1001H120.7L119.3 31.1001L117.9 35.1001Z" fill="#FABC16"/>
<path d="M124 38.7999H121.8L121 36.5999H117.5L116.7 38.7999H114.5L118.1 28.8999H120.3L124 38.7999ZM122 38.4999H123.5L120.1 29.2999H118.4L115 38.4999H116.5L117.3 36.2999H121.3L122 38.4999ZM120.9 35.2999H117.6L119.2 30.5999L120.9 35.2999ZM118.1 34.8999H120.4L119.3 31.5999L118.1 34.8999Z" fill="#FABC16"/>
<path d="M128.2 38.7997C127.5 38.7997 126.9 38.6997 126.3 38.3997C125.8 38.1997 125.3 37.7997 125 37.3997C124.7 36.9997 124.5 36.3997 124.5 35.7997H126.3C126.3 36.1997 126.5 36.5997 126.8 36.8997C127.1 37.1997 127.5 37.3997 128.1 37.3997C128.6 37.3997 128.9 37.2997 129.2 37.0997C129.5 36.8997 129.6 36.5997 129.6 36.1997C129.6 35.7997 129.5 35.4997 129.2 35.2997C129 35.0997 128.6 34.8997 128.2 34.7997C127.8 34.6997 127.4 34.4997 126.9 34.3997C126.2 34.0997 125.6 33.7997 125.2 33.3997C124.8 32.9997 124.6 32.4997 124.6 31.7997C124.6 31.1997 124.7 30.7997 125 30.3997C125.3 29.9997 125.7 29.6997 126.1 29.4997C126.6 29.2997 127.1 29.1997 127.8 29.1997C128.4 29.1997 129 29.2997 129.5 29.4997C130 29.6997 130.4 29.9997 130.6 30.4997C130.9 30.8997 131 31.3997 131 31.9997H129.1C129.1 31.6997 129 31.3997 128.7 31.0997C128.5 30.7997 128.1 30.6997 127.7 30.6997C127.3 30.6997 127 30.7997 126.7 30.9997C126.4 31.1997 126.3 31.4997 126.3 31.8997C126.3 32.1997 126.4 32.4997 126.6 32.6997C126.8 32.8997 127.1 32.9997 127.4 33.1997C127.7 33.2997 128.1 33.4997 128.6 33.5997C129.1 33.7997 129.5 33.9997 129.9 34.1997C130.3 34.3997 130.6 34.6997 130.8 35.0997C131 35.4997 131.2 35.8997 131.2 36.4997C131.2 36.9997 131.1 37.4997 130.8 37.8997C130.5 38.2997 130.2 38.6997 129.7 38.8997C129.5 38.6997 128.9 38.7997 128.2 38.7997Z" fill="#FABC16"/>
<path d="M128.2 38.9999C127.5 38.9999 126.8 38.8999 126.3 38.5999C125.7 38.2999 125.3 37.9999 125 37.4999C124.7 36.9999 124.5 36.3999 124.5 35.7999V35.5999H126.7V35.7999C126.7 36.1999 126.9 36.4999 127.1 36.7999C127.4 37.0999 127.7 37.1999 128.2 37.1999C128.6 37.1999 129 37.0999 129.2 36.8999C129.4 36.6999 129.5 36.4999 129.5 36.0999C129.5 35.7999 129.4 35.4999 129.2 35.2999C129 35.0999 128.7 34.8999 128.3 34.7999L127 34.3999C126.2 34.0999 125.7 33.7999 125.3 33.3999C124.9 32.9999 124.7 32.3999 124.7 31.6999C124.7 31.0999 124.8 30.5999 125.1 30.1999C125.4 29.7999 125.8 29.3999 126.3 29.1999C126.8 28.9999 127.4 28.8999 128 28.8999C128.7 28.8999 129.2 28.9999 129.8 29.2999C130.3 29.4999 130.7 29.8999 131 30.2999C131.3 30.6999 131.5 31.2999 131.5 31.7999V31.9999H129.3V31.7999C129.3 31.4999 129.2 31.2999 129 30.9999C128.8 30.7999 128.5 30.6999 128.1 30.6999C127.8 30.6999 127.5 30.7999 127.2 30.8999C127 31.0999 126.9 31.2999 126.9 31.5999C126.9 31.8999 127 32.0999 127.1 32.1999C127.3 32.3999 127.5 32.4999 127.9 32.5999C128.2 32.6999 128.6 32.8999 129.1 32.9999C129.6 33.1999 130 33.3999 130.4 33.5999C130.8 33.7999 131.1 34.0999 131.4 34.4999C131.7 34.8999 131.8 35.3999 131.8 35.9999C131.8 36.4999 131.7 36.9999 131.4 37.4999C131.1 37.9999 130.7 38.2999 130.2 38.5999C129.6 38.7999 129 38.9999 128.2 38.9999ZM124.8 35.8999C124.8 36.3999 125 36.8999 125.2 37.2999C125.5 37.6999 125.9 37.9999 126.4 38.2999C126.9 38.4999 127.5 38.5999 128.2 38.5999C128.9 38.5999 129.5 38.4999 130 38.1999C130.5 37.9999 130.8 37.5999 131.1 37.1999C131.3 36.7999 131.5 36.3999 131.5 35.8999C131.5 35.3999 131.4 34.8999 131.2 34.5999C131 34.2999 130.7 33.9999 130.3 33.7999C129.9 33.5999 129.5 33.3999 129 33.1999C128.6 33.0999 128.2 32.8999 127.8 32.7999C127.4 32.6999 127.1 32.4999 126.9 32.2999C126.7 32.0999 126.5 31.7999 126.5 31.3999C126.5 30.9999 126.7 30.5999 127 30.3999C127.3 30.1999 127.6 30.0999 128.1 30.0999C128.6 30.0999 129 30.1999 129.3 30.4999C129.5 30.6999 129.7 30.9999 129.7 31.2999H131.2C131.2 30.7999 131 30.3999 130.8 30.0999C130.5 29.6999 130.2 29.3999 129.7 29.1999C129.2 28.9999 128.7 28.8999 128.1 28.8999C127.5 28.8999 127 28.9999 126.5 29.1999C126 29.3999 125.7 29.6999 125.4 30.0999C125.1 30.4999 125 30.8999 125 31.3999C125 31.9999 125.2 32.4999 125.5 32.8999C125.9 33.2999 126.4 33.5999 127.1 33.7999L128.4 34.1999C128.8 34.2999 129.2 34.4999 129.4 34.7999C129.7 35.0999 129.8 35.3999 129.8 35.7999C129.8 36.1999 129.6 36.5999 129.3 36.7999C129 36.9999 128.6 37.1999 128.1 37.1999C127.5 37.1999 127.1 36.9999 126.7 36.6999C126.4 36.3999 126.2 35.9999 126.2 35.5999H124.8V35.8999Z" fill="#FABC16"/>
<path d="M133.1 38.6001V29.1001H134.8V33.1001H139.1V29.1001H140.8V38.6001H139.1V34.4001H134.8V38.6001H133.1Z" fill="#FABC16"/>
<path d="M141 38.7999H138.9V34.5999H135V38.7999H132.9V28.8999H135V32.8999H138.9V28.8999H141V38.7999ZM139.3 38.4999H140.7V29.2999H139.3V33.2999H134.7V29.2999H133.3V38.4999H134.7V34.2999H139.3V38.4999Z" fill="#FABC16"/>
</svg>
