<svg width="176" height="45" viewBox="0 0 176 45" fill="none" xmlns="http://www.w3.org/2000/svg">
<path d="M23.2002 0H153.2C165.6 0 175.7 10.1 175.7 22.5C175.7 34.9 165.6 45 153.2 45H23.2002C10.8002 45 0.700195 34.9 0.700195 22.5C0.700195 10.1 10.8002 0 23.2002 0Z" fill="#DD6C26"/>
<path d="M157.2 41.8002H20.0001L19.9001 41.7002L3.6001 22.5002L20.0001 3.2002H157.2L157.3 3.3002L172.8 22.5002L157.2 41.8002ZM20.3001 41.3002H157L172.1 22.5002L157 3.7002H20.3001L4.40015 22.5002L20.3001 41.3002Z" fill="#FFC904"/>
<path d="M25.6997 28.4996V15.5996H30.0997C31.5997 15.5996 32.8997 15.8996 33.7997 16.3996C34.7997 16.8996 35.4997 17.6996 35.9997 18.6996C36.4997 19.6996 36.6997 20.7996 36.6997 22.0996C36.6997 23.3996 36.4997 24.4996 35.9997 25.4996C35.4997 26.4996 34.7997 27.1996 33.7997 27.7996C32.7997 28.2996 31.5997 28.5996 30.0997 28.5996H25.6997V28.4996ZM27.9997 26.4996H29.8997C30.9997 26.4996 31.7997 26.2996 32.4997 25.9996C33.0997 25.5996 33.5997 25.0996 33.7997 24.4996C34.0997 23.7996 34.1997 22.9996 34.1997 22.0996C34.1997 21.1996 34.0997 20.3996 33.7997 19.6996C33.4997 18.9996 33.0997 18.4996 32.4997 18.1996C31.8997 17.7996 30.9997 17.6996 29.8997 17.6996H27.9997V26.4996Z" fill="white"/>
<path d="M30.0999 28.6998H25.3999V15.2998H30.0999C31.5999 15.2998 32.8999 15.5998 33.9999 16.0998C34.9999 16.6998 35.7999 17.4998 36.2999 18.4998C36.7999 19.4998 36.9999 20.6998 36.9999 21.9998C36.9999 23.2998 36.7999 24.4998 36.2999 25.4998C35.7999 26.4998 34.9999 27.2998 33.9999 27.8998C32.8999 28.4998 31.5999 28.6998 30.0999 28.6998ZM25.8999 28.1998H30.0999C31.5999 28.1998 32.7999 27.8998 33.6999 27.3998C34.5999 26.8998 35.2999 26.1998 35.7999 25.2998C36.2999 24.3998 36.4999 23.2998 36.4999 21.9998C36.4999 20.6998 36.2999 19.5998 35.7999 18.6998C35.3999 17.7998 34.6999 17.0998 33.6999 16.5998C32.7999 16.0998 31.4999 15.7998 30.0999 15.7998H25.8999V28.1998ZM29.9999 26.6998H27.7999V17.2998H29.9999C31.0999 17.2998 31.9999 17.4998 32.6999 17.8998C33.3999 18.2998 33.8999 18.7998 34.1999 19.5998C34.4999 20.2998 34.5999 21.0998 34.5999 22.0998C34.5999 23.0998 34.4999 23.8998 34.1999 24.5998C33.8999 25.2998 33.3999 25.8998 32.6999 26.1998C31.9999 26.4998 31.0999 26.6998 29.9999 26.6998ZM28.2999 26.1998H29.9999C30.9999 26.1998 31.8999 25.9998 32.3999 25.6998C32.9999 25.3998 33.3999 24.8998 33.5999 24.2998C33.8999 23.6998 33.9999 22.8998 33.9999 21.9998C33.9999 21.0998 33.8999 20.2998 33.5999 19.6998C33.2999 19.0998 32.8999 18.5998 32.3999 18.2998C31.7999 17.9998 30.9999 17.7998 29.9999 17.7998H28.2999V26.1998Z" fill="white"/>
<path d="M38.1997 28.4996L42.8997 15.5996H45.5997L50.2997 28.4996H47.7997L46.7997 25.4996H41.7997L40.6997 28.4996H38.1997ZM42.3997 23.6996H46.0997L44.1997 18.2996L42.3997 23.6996Z" fill="white"/>
<path d="M50.6999 28.6998H47.6999L46.6999 25.6998H41.9999L40.8999 28.6998H37.8999L42.7999 15.2998H45.7999L45.8999 15.4998L50.6999 28.6998ZM47.9999 28.1998H49.9999L45.4999 15.7998H43.1999L38.6999 28.1998H40.5999L41.6999 25.1998H47.0999L47.9999 28.1998ZM46.4999 23.8998H41.9999L44.1999 17.4998L46.4999 23.8998ZM42.7999 23.3998H45.7999L44.2999 18.9998L42.7999 23.3998Z" fill="white"/>
<path d="M53.0996 28.4996V15.5996H55.4996V28.4996H53.0996Z" fill="white"/>
<path d="M55.6998 28.6998H52.7998V15.2998H55.6998V28.6998ZM53.3998 28.1998H55.2998V15.7998H53.3998V28.1998Z" fill="white"/>
<path d="M59.0996 28.4996V15.5996H61.4996V26.6996H67.1996V28.4996H59.0996Z" fill="white"/>
<path d="M67.3998 28.6998H58.7998V15.2998H61.6998V26.3998H67.3998V28.6998ZM59.3998 28.1998H66.9998V26.8998H61.2998V15.7998H59.3998V28.1998Z" fill="white"/>
<path d="M71.8997 28.5001V23.9001L67.5996 15.6001H70.2996L73.1996 21.6001L75.9996 15.6001H78.5996L74.2996 23.9001V28.5001H71.8997Z" fill="white"/>
<path d="M74.4996 28.6999H71.5996V23.9999L67.0996 15.3999H70.2996L72.9996 20.9999L75.6996 15.3999H78.8997L74.3997 23.9999V28.6999H74.4996ZM72.0996 28.1999H73.9996V23.6999L78.0996 15.6999H75.9996L72.9996 21.9999L69.9996 15.6999H67.9996L72.1996 23.7999V28.1999H72.0996Z" fill="white"/>
<path d="M86.6997 28.4996V15.5996H94.9997V17.4996H88.9997V21.0996H93.7997V22.9996H88.9997V28.4996H86.6997Z" fill="white"/>
<path d="M89.2999 28.6998H86.3999V15.2998H95.1999V17.6998H89.1999V20.7998H93.9999V23.1998H89.1999V28.6998H89.2999ZM86.8999 28.1998H88.7999V22.6998H93.5999V21.2998H88.7999V17.1998H94.7999V15.7998H86.9999V28.1998H86.8999Z" fill="white"/>
<path d="M97.9995 28.4996V15.5996H100.4V28.4996H97.9995Z" fill="white"/>
<path d="M100.6 28.6998H97.6997V15.2998H100.6V28.6998ZM98.1997 28.1998H100.1V15.7998H98.1997V28.1998Z" fill="white"/>
<path d="M104 28.4996V15.5996H106.4L112.5 24.6996V15.5996H114.9V28.4996H112.5L106.4 19.3996V28.4996H104Z" fill="white"/>
<path d="M115 28.6998H112.3L106.6 20.1998V28.6998H103.7V15.2998H106.4L112.1 23.7998V15.2998H115V28.6998ZM112.5 28.1998H114.5V15.7998H112.6V25.4998L106.1 15.7998H104.1V28.1998H106V18.4998L112.5 28.1998Z" fill="white"/>
<path d="M117.5 28.4996L122.2 15.5996H124.9L129.599 28.4996H127.099L126.099 25.4996H121.099L120 28.4996H117.5ZM121.7 23.6996H125.4L123.5 18.2996L121.7 23.6996Z" fill="white"/>
<path d="M130 28.6998H127L126 25.6998H121.3L120.2 28.6998H117.2L122.1 15.2998H125.1L125.2 15.4998L130 28.6998ZM127.3 28.1998H129.3L124.8 15.7998H122.5L118 28.1998H119.9L121 25.1998H126.4L127.3 28.1998ZM125.8 23.8998H121.3L123.5 17.4998L125.8 23.8998ZM122.1 23.3998H125.1L123.6 18.9998L122.1 23.3998Z" fill="white"/>
<path d="M132.4 28.4996V15.5996H134.8V26.6996H140.5V28.4996H132.4Z" fill="white"/>
<path d="M140.8 28.6998H132.2V15.2998H135.1V26.3998H140.8V28.6998ZM132.7 28.1998H140.3V26.8998H134.6V15.7998H132.7V28.1998Z" fill="white"/>
<path d="M143.7 28.4996V15.5996H152.1V17.4996H146V20.9996H151.5V22.7996H146V26.4996H152.1V28.3996H143.7V28.4996Z" fill="white"/>
<path d="M152.4 28.6998H143.5V15.2998H152.4V17.6998H146.3V20.6998H151.8V22.9998H146.3V26.1998H152.4V28.6998ZM144 28.1998H151.9V26.7998H145.8V22.5998H151.3V21.2998H145.8V17.2998H151.9V15.8998H144V28.1998Z" fill="white"/>
</svg>
