<svg width="175" height="45" viewBox="0 0 175 45" fill="none" xmlns="http://www.w3.org/2000/svg">
<path d="M22.5 0H152.5C164.9 0 175 10.1 175 22.5C175 34.9 164.9 45 152.5 45H22.5C10.1 45 0 34.9 0 22.5C0 10.1 10 0 22.5 0Z" fill="#385092"/>
<path d="M156.4 41.8002H19.2999L19.1999 41.7002L2.8999 22.5002L19.1999 3.2002H156.4L156.5 3.3002L172 22.5002L171.9 22.7002L156.4 41.8002ZM19.4999 41.3002H156.2L171.3 22.5002L156.2 3.7002H19.4999L3.59985 22.5002L19.4999 41.3002Z" fill="#FFC904"/>
<path d="M23.3999 28.5001V15.6001H26.1999L30.2999 23.8001L34.3999 15.6001H37.1999V28.5001H34.7999V19.6001L31.1999 26.7001H29.2999L25.6999 19.6001V28.5001H23.3999Z" fill="white"/>
<path d="M37.4 28.7003H34.5V20.6003L31.3 26.9003H29.1L25.9 20.6003V28.7003H23V15.3003H26.2L30.2 23.2003L34.1 15.3003H37.3V28.7003H37.4ZM35 28.2003H36.9V15.8003H34.5L30.3 24.3003L26 15.8003H23.6V28.2003H25.5V18.5003L29.5 26.4003H31.1L35.1 18.5003V28.2003H35Z" fill="white"/>
<path d="M40.7998 28.5001V15.6001H49.1998V17.5001H43.0998V21.0001H48.5998V22.8001H43.0998V26.5001H49.1998V28.4001H40.7998V28.5001Z" fill="white"/>
<path d="M49.5 28.7003H40.5V15.3003H49.4V17.7003H43.3V20.7003H48.8V23.0003H43.3V26.2003H49.4V28.7003H49.5ZM41 28.2003H48.9V26.8003H42.8V22.6003H48.3V21.3003H42.8V17.3003H48.9V15.9003H41V28.2003Z" fill="white"/>
<path d="M58.1996 28.7003C56.9996 28.7003 55.8996 28.4003 54.9996 27.9003C54.0996 27.4003 53.3997 26.6003 52.8997 25.6003C52.3997 24.6003 52.0996 23.5003 52.0996 22.1003C52.0996 20.8003 52.3997 19.6003 52.8997 18.6003C53.3997 17.6003 54.1996 16.8003 55.0996 16.2003C56.0996 15.6003 57.1996 15.3003 58.4996 15.3003C59.9996 15.3003 61.2996 15.7003 62.2996 16.4003C63.2996 17.1003 63.8996 18.1003 64.1996 19.4003H61.5996C61.3996 18.8003 60.9996 18.3003 60.4996 18.0003C59.9996 17.7003 59.2996 17.5003 58.4996 17.5003C57.1996 17.5003 56.1996 17.9003 55.4996 18.7003C54.7996 19.5003 54.3997 20.6003 54.3997 22.1003C54.3997 23.5003 54.6997 24.6003 55.3997 25.4003C56.0997 26.2003 56.9996 26.6003 58.1996 26.6003C59.3996 26.6003 60.2997 26.3003 60.8997 25.6003C61.4997 25.0003 61.8996 24.1003 61.9996 23.1003H58.6996V21.3003H64.3997V28.4003H62.1996L61.9996 26.7003C61.5996 27.3003 61.0997 27.8003 60.3997 28.1003C59.9997 28.5003 59.1996 28.7003 58.1996 28.7003Z" fill="white"/>
<path d="M58.1999 29.0001C56.8999 29.0001 55.7999 28.7001 54.8999 28.1001C53.9999 27.5001 53.1999 26.7001 52.6999 25.7001C52.1999 24.7001 51.8999 23.5001 51.8999 22.1001C51.8999 20.7001 52.1999 19.5001 52.6999 18.5001C53.1999 17.4001 53.9999 16.6001 54.9999 16.0001C55.9999 15.4001 57.1999 15.1001 58.5999 15.1001C60.1999 15.1001 61.4999 15.5001 62.4999 16.2001C63.4999 17.0001 64.1999 18.0001 64.4999 19.4001L64.5999 19.7001H61.4999L61.3999 19.5001C61.1999 18.9001 60.8999 18.5001 60.3999 18.2001C59.8999 17.9001 59.2999 17.7001 58.4999 17.7001C57.2999 17.7001 56.3999 18.1001 55.6999 18.8001C54.9999 19.6001 54.6999 20.6001 54.6999 22.0001C54.6999 23.4001 54.9999 24.4001 55.6999 25.1001C56.3999 25.8001 57.1999 26.2001 58.2999 26.2001C59.3999 26.2001 60.1999 25.9001 60.7999 25.3001C61.2999 24.8001 61.5999 24.1001 61.7999 23.2001H58.5999V20.9001H64.7999V28.5001H62.0999L61.9999 27.2001C61.5999 27.6001 61.1999 27.9001 60.6999 28.2001C60.0999 28.8001 59.1999 29.0001 58.1999 29.0001ZM58.5999 15.6001C57.2999 15.6001 56.1999 15.9001 55.2999 16.4001C54.3999 16.9001 53.6999 17.7001 53.1999 18.7001C52.6999 19.7001 52.3999 20.8001 52.3999 22.1001C52.3999 23.4001 52.5999 24.5001 53.0999 25.4001C53.5999 26.3001 54.2999 27.1001 55.0999 27.6001C55.9999 28.1001 56.9999 28.4001 58.1999 28.4001C59.0999 28.4001 59.8999 28.2001 60.4999 27.9001C61.0999 27.6001 61.5999 27.1001 61.9999 26.6001L62.3999 26.0001L62.5999 28.2001H64.2999V21.6001H59.0999V22.9001H62.3999V23.2001C62.2999 24.3001 61.8999 25.2001 61.2999 25.8001C60.6999 26.5001 59.6999 26.8001 58.4999 26.8001C57.1999 26.8001 56.1999 26.4001 55.4999 25.5001C54.7999 24.7001 54.3999 23.5001 54.3999 22.0001C54.3999 20.5001 54.7999 19.3001 55.4999 18.5001C56.1999 17.6001 57.2999 17.2001 58.6999 17.2001C59.5999 17.2001 60.2999 17.4001 60.7999 17.7001C61.2999 18.0001 61.6999 18.5001 61.8999 19.1001H63.9999C63.6999 18.0001 63.0999 17.2001 62.1999 16.5001C61.2999 15.9001 59.9999 15.6001 58.5999 15.6001Z" fill="white"/>
<path d="M67.0996 28.5001L71.7996 15.6001H74.4996L79.1996 28.5001H76.6996L75.6996 25.5001H70.6996L69.5996 28.5001H67.0996ZM71.2996 23.7001H74.9996L73.0996 18.3001L71.2996 23.7001Z" fill="white"/>
<path d="M79.5998 28.7003H76.5998L75.5998 25.7003H70.8998L69.7998 28.7003H66.7998L71.6998 15.3003H74.6998L74.7998 15.5003L79.5998 28.7003ZM76.8998 28.2003H78.8998L74.3998 15.8003H72.0998L67.4998 28.2003H69.3998L70.4998 25.2003H75.8998L76.8998 28.2003ZM75.3998 23.9003H70.8998L73.0998 17.5003L75.3998 23.9003ZM71.5998 23.4003H74.5998L73.0998 19.0003L71.5998 23.4003Z" fill="white"/>
<path d="M87.5 28.5001V15.6001H95.8V17.5001H89.8V21.1001H94.6V23.0001H89.8V28.5001H87.5Z" fill="white"/>
<path d="M90.1002 28.7003H87.2002V15.3003H96.0002V17.7003H90.0002V20.8003H94.8002V23.2003H90.0002V28.7003H90.1002ZM87.7002 28.2003H89.6002V22.7003H94.4002V21.3003H89.6002V17.2003H95.6002V15.8003H87.8002V28.2003H87.7002Z" fill="white"/>
<path d="M98.7998 28.5001V15.6001H101.2V28.5001H98.7998Z" fill="white"/>
<path d="M101.4 28.7003H98.5V15.3003H101.4V28.7003ZM99 28.2003H100.9V15.8003H99V28.2003Z" fill="white"/>
<path d="M104.7 28.5001V15.6001H107.1L113.2 24.7001V15.6001H115.6V28.5001H113.2L107.1 19.4001V28.5001H104.7Z" fill="white"/>
<path d="M115.8 28.7003H113.1L107.4 20.2003V28.7003H104.5V15.3003H107.2L112.9 23.8003V15.3003H115.8V28.7003ZM113.3 28.2003H115.3V15.8003H113.4V25.5003L106.9 15.8003H104.9V28.2003H106.8V18.5003L113.3 28.2003Z" fill="white"/>
<path d="M118.3 28.5001L123 15.6001H125.7L130.4 28.5001H127.9L126.9 25.5001H121.9L120.8 28.5001H118.3ZM122.5 23.7001H126.2L124.3 18.3001L122.5 23.7001Z" fill="white"/>
<path d="M130.8 28.7003H127.8L126.8 25.7003H122.1L121 28.7003H118L122.9 15.3003H125.9L126 15.5003L130.8 28.7003ZM128.1 28.2003H130.1L125.5 15.8003H123.2L118.7 28.2003H120.6L121.7 25.2003H127.1L128.1 28.2003ZM126.6 23.9003H122.1L124.3 17.5003L126.6 23.9003ZM122.9 23.4003H125.9L124.4 19.0003L122.9 23.4003Z" fill="white"/>
<path d="M133.2 28.5001V15.6001H135.6V26.7001H141.3V28.5001H133.2Z" fill="white"/>
<path d="M141.6 28.7003H133V15.3003H135.9V26.4003H141.6V28.7003ZM133.5 28.2003H141.1V26.9003H135.4V15.8003H133.5V28.2003Z" fill="white"/>
<path d="M144.5 28.5001V15.6001H152.9V17.5001H146.8V21.0001H152.3V22.8001H146.8V26.5001H152.9V28.4001H144.5V28.5001Z" fill="white"/>
<path d="M153.2 28.7003H144.3V15.3003H153.2V17.7003H147.1V20.7003H152.6V23.0003H147.1V26.2003H153.2V28.7003ZM144.7 28.2003H152.6V26.8003H146.5V22.6003H152V21.3003H146.5V17.3003H152.6V15.9003H144.7V28.2003Z" fill="white"/>
</svg>
