<svg width="80" height="80" viewBox="0 0 80 80" fill="none" xmlns="http://www.w3.org/2000/svg">
<path d="M39.7523 71.5047C57.2887 71.5047 71.5047 57.2887 71.5047 39.7523C71.5047 22.216 57.2887 8 39.7523 8C22.216 8 8 22.216 8 39.7523C8 57.2887 22.216 71.5047 39.7523 71.5047Z" fill="#380000"/>
<g clip-path="url(#clip0_5521_12773)">
<path d="M40.0654 59.9997L39.9473 59.9591C34.3482 58.0149 29.9613 53.9195 26.9105 47.7869C24.5423 43.0263 23.4967 38.045 23.0358 34.7047L23 34.4462L23.2401 34.3455C26.5339 32.9629 28.663 29.7621 28.663 26.1904C28.663 25.623 28.6088 25.0537 28.5003 24.498L28.4219 24.0942H51.6954L51.6169 24.498C51.5095 25.0537 51.4543 25.623 51.4543 26.1904C51.4543 29.7621 53.5824 32.9639 56.8771 34.3455L57.1172 34.4462L57.0814 34.7047C56.4114 39.5602 55.1479 43.8793 53.3248 47.542C50.3341 53.5525 45.9114 57.7284 40.1806 59.9552L40.0644 60.0007L40.0654 59.9997Z" fill="#F6CA46"/>
<path d="M29.9395 42.4561V39.9697H30.7421C30.9357 39.9697 31.0945 40.0017 31.2184 40.0656C31.3414 40.1295 31.4324 40.2176 31.4915 40.3289C31.5505 40.4403 31.5805 40.5632 31.5805 40.6978C31.5805 40.8537 31.5389 40.995 31.4547 41.1209C31.3704 41.2468 31.2397 41.3349 31.0626 41.3872L31.6057 42.4561H31.2543L30.7498 41.4298H30.2386V42.4561H29.9404H29.9395ZM30.2377 41.1955H30.7208C30.9125 41.1955 31.0519 41.149 31.14 41.057C31.2272 40.965 31.2717 40.8459 31.2717 40.7017C31.2717 40.5574 31.2281 40.4383 31.142 40.3522C31.0558 40.266 30.9144 40.2224 30.7179 40.2224H30.2386V41.1955H30.2377Z" fill="black"/>
<path d="M33.0331 42.4982C32.8627 42.4982 32.7078 42.4643 32.5693 42.3965C32.4308 42.3287 32.3205 42.2242 32.2372 42.0818C32.1539 41.9395 32.1133 41.7585 32.1133 41.5387V39.9692H32.4115V41.5426C32.4115 41.7836 32.4696 41.9589 32.5858 42.0683C32.7019 42.1767 32.853 42.2319 33.0408 42.2319C33.2286 42.2319 33.3777 42.1777 33.492 42.0683C33.6062 41.9589 33.6624 41.7836 33.6624 41.5426V39.9692H33.9606V41.5387C33.9606 41.7585 33.919 41.9405 33.8367 42.0818C33.7544 42.2232 33.6421 42.3287 33.5026 42.3965C33.3632 42.4643 33.2064 42.4982 33.034 42.4982H33.0331Z" fill="black"/>
<path d="M34.5537 42.4556V39.9692H34.9013L35.7959 41.7023L36.6837 39.9692H37.0352V42.4556H36.737V40.5017L35.9063 42.1002H35.6826L34.8519 40.5056V42.4556H34.5537Z" fill="black"/>
<path d="M37.6514 42.4556V39.9692H37.9989L38.8936 41.7023L39.7814 39.9692H40.1328V42.4556H39.8346V40.5017L39.0039 42.1002H38.7803L37.9496 40.5056V42.4556H37.6514Z" fill="black"/>
<path d="M41.3651 42.4556V41.5106L40.5557 39.9692H40.8936L41.5151 41.2269L42.1367 39.9692H42.4708L41.6642 41.5106V42.4556H41.366H41.3651Z" fill="black"/>
<path d="M43.7666 42.4556L44.6825 39.9692H44.9981L45.9111 42.4556H45.5945L45.367 41.8166H44.3088L44.0774 42.4556H43.7646H43.7666ZM44.3988 41.5745H45.2799L44.8393 40.3459L44.3988 41.5745Z" fill="black"/>
<path d="M46.3701 42.4556V39.9692H47.1873C47.3819 39.9692 47.5416 40.0012 47.6665 40.0651C47.7924 40.129 47.8853 40.2152 47.9454 40.3246C48.0054 40.433 48.0354 40.5569 48.0354 40.6944C48.0354 40.8319 48.0054 40.951 47.9463 41.0604C47.8873 41.1688 47.7943 41.256 47.6694 41.3218C47.5436 41.3867 47.3828 41.4196 47.1863 41.4196H46.6673V42.4565H46.3691L46.3701 42.4556ZM46.6683 41.1659H47.1795C47.378 41.1659 47.5194 41.1243 47.6036 41.0401C47.6878 40.9558 47.7295 40.8406 47.7295 40.6934C47.7295 40.5463 47.6878 40.4272 47.6036 40.3439C47.5194 40.2607 47.378 40.2181 47.1795 40.2181H46.6683V41.1669V41.1659Z" fill="black"/>
<path d="M48.5146 42.4556V39.9692H49.3318C49.5264 39.9692 49.6862 40.0012 49.8111 40.0651C49.9369 40.129 50.0299 40.2152 50.0899 40.3246C50.1499 40.433 50.1799 40.5569 50.1799 40.6944C50.1799 40.8319 50.1499 40.951 50.0909 41.0604C50.0318 41.1688 49.9389 41.256 49.814 41.3218C49.6881 41.3867 49.5274 41.4196 49.3308 41.4196H48.8119V42.4565H48.5137L48.5146 42.4556ZM48.8128 41.1659H49.3241C49.5225 41.1659 49.6639 41.1243 49.7481 41.0401C49.8324 40.9558 49.874 40.8406 49.874 40.6934C49.874 40.5463 49.8324 40.4272 49.7481 40.3439C49.6639 40.2607 49.5225 40.2181 49.3241 40.2181H48.8128V41.1669V41.1659Z" fill="black"/>
<path d="M33.559 30.3167L34.5853 31.8512H34.9842V29.668H34.5853V31.2055L33.559 29.668H33.1592V31.8512H33.559V30.3167Z" fill="black"/>
<path d="M36.7316 31.3459L36.9059 31.8512H37.33L36.5312 29.668H36.082L35.2832 31.8512H35.7015L35.8796 31.3459H36.7316ZM36.3046 30.1259L36.6232 31.0341H35.99L36.3046 30.1259Z" fill="black"/>
<path d="M37.9047 31.8512H38.3036V29.9894H38.9435V29.668H37.2686V29.9894H37.9047V31.8512Z" fill="black"/>
<path d="M39.6528 29.668H39.2539V31.8512H39.6528V29.668Z" fill="black"/>
<path d="M42.0721 31.348C42.1641 31.1785 42.2096 30.9829 42.2096 30.7603C42.2096 30.5376 42.1641 30.342 42.0721 30.1726C41.9802 30.0031 41.8524 29.8705 41.6887 29.7746C41.5241 29.6788 41.3344 29.6313 41.1175 29.6313C40.9006 29.6313 40.708 29.6798 40.5453 29.7746C40.3817 29.8705 40.2539 30.0031 40.1619 30.1726C40.0689 30.342 40.0234 30.5385 40.0234 30.7603C40.0234 30.982 40.0699 31.1785 40.1619 31.348C40.2548 31.5174 40.3826 31.65 40.5453 31.7459C40.7089 31.8417 40.8997 31.8892 41.1175 31.8892C41.3353 31.8892 41.5241 31.8417 41.6887 31.7459C41.8533 31.65 41.9811 31.5174 42.0721 31.348ZM41.6151 31.3247C41.4912 31.4622 41.3257 31.5309 41.1175 31.5309C40.9093 31.5309 40.7428 31.4622 40.6179 31.3247C40.493 31.1872 40.431 30.9994 40.431 30.7603C40.431 30.5211 40.493 30.3333 40.6179 30.1958C40.7428 30.0583 40.9093 29.9896 41.1175 29.9896C41.3257 29.9896 41.4912 30.0583 41.6151 30.1958C41.7391 30.3333 41.801 30.5211 41.801 30.7603C41.801 30.9994 41.7391 31.1872 41.6151 31.3247Z" fill="black"/>
<path d="M44.0033 31.2055L42.977 29.668H42.5771V31.8512H42.977V30.3167L44.0033 31.8512H44.4022V29.668H44.0033V31.2055Z" fill="black"/>
<path d="M45.0608 30.1482L45.1015 29.4966H44.752L44.7897 30.1482H45.0608Z" fill="black"/>
<path d="M46.1892 31.5546C46.0662 31.5546 45.9704 31.5198 45.9007 31.4501C45.831 31.3804 45.7942 31.2952 45.7903 31.1925H45.3691C45.3711 31.3407 45.4079 31.4656 45.4785 31.5682C45.5492 31.6708 45.646 31.7502 45.769 31.8054C45.892 31.8606 46.0333 31.8877 46.1931 31.8877C46.3528 31.8877 46.5 31.8577 46.6142 31.7986C46.7285 31.7396 46.8147 31.6611 46.8727 31.5634C46.9308 31.4656 46.9599 31.3591 46.9599 31.2448C46.9599 31.116 46.9328 31.0105 46.8786 30.9282C46.8243 30.8459 46.7527 30.7801 46.6636 30.7297C46.5745 30.6794 46.4758 30.6358 46.3674 30.599C46.2657 30.5661 46.1747 30.5351 46.0963 30.5051C46.0169 30.4761 45.9549 30.4402 45.9094 30.3976C45.8639 30.355 45.8407 30.297 45.8407 30.2243C45.8407 30.1391 45.8707 30.0743 45.9297 30.0297C45.9888 29.9852 46.0624 29.9639 46.1495 29.9658C46.2512 29.9658 46.3306 29.9958 46.3877 30.0549C46.4448 30.114 46.4748 30.1827 46.4768 30.2592H46.9037C46.8999 30.1304 46.866 30.0191 46.8021 29.9252C46.7382 29.8313 46.651 29.7586 46.5397 29.7064C46.4283 29.6541 46.2996 29.6279 46.1543 29.6279C46.0091 29.6279 45.8842 29.6531 45.7738 29.7044C45.6635 29.7557 45.5763 29.8274 45.5134 29.9194C45.4495 30.0123 45.4195 30.1227 45.4214 30.2514C45.4214 30.4035 45.466 30.5254 45.5541 30.6165C45.6422 30.7084 45.7709 30.783 45.9394 30.8411C46.043 30.8769 46.1408 30.9098 46.2328 30.9408C46.3248 30.9718 46.3974 31.0124 46.4526 31.0628C46.5077 31.1131 46.5348 31.1819 46.5348 31.2719C46.5348 31.362 46.5039 31.4249 46.4409 31.4762C46.378 31.5275 46.2947 31.5527 46.1882 31.5527L46.1892 31.5546Z" fill="black"/>
<path d="M28.5859 34.4181H29.6693V37.588H30.349V34.4181H31.4382V33.8711H28.5859V34.4181Z" fill="black"/>
<path d="M34.4677 35.6235C34.5858 35.4357 34.6458 35.2285 34.6458 35.0019C34.6458 34.7928 34.5984 34.603 34.5025 34.4307C34.4067 34.2593 34.2624 34.1228 34.0697 34.0221C33.8771 33.9214 33.6321 33.8711 33.3339 33.8711H31.9688V37.589H32.6484V36.1231H33.2109L33.9013 37.589H34.6816L33.9119 36.0331C34.1636 35.9479 34.3486 35.8114 34.4667 35.6245L34.4677 35.6235ZM33.7909 35.4589C33.6844 35.5683 33.5179 35.6235 33.2913 35.6235H32.6484V34.4394H33.2855C33.5188 34.4394 33.6883 34.4927 33.7928 34.5992C33.8974 34.7057 33.9497 34.847 33.9497 35.0242C33.9497 35.2014 33.8964 35.3495 33.7899 35.4599L33.7909 35.4589Z" fill="black"/>
<path d="M37.5449 36.1706C37.5449 36.461 37.4742 36.6769 37.3329 36.8183C37.1915 36.9596 36.9979 37.0303 36.7539 37.0303C36.5099 37.0303 36.3124 36.9596 36.172 36.8183C36.0316 36.6769 35.9619 36.461 35.9619 36.1706V33.8711H35.2822V36.1657C35.2822 36.5017 35.3471 36.7796 35.4759 36.9993C35.6046 37.2191 35.7789 37.3827 35.9987 37.4902C36.2185 37.5977 36.4644 37.6519 36.7365 37.6519C37.0085 37.6519 37.2573 37.5977 37.4829 37.4902C37.7076 37.3818 37.8876 37.2181 38.0222 36.9993C38.1568 36.7796 38.2236 36.5017 38.2236 36.1657V33.8711H37.5439V36.1706H37.5449Z" fill="black"/>
<path d="M41.0181 35.6816C40.8661 35.5964 40.6976 35.5218 40.5136 35.4589C40.3403 35.4027 40.1864 35.3495 40.0518 35.2991C39.9172 35.2497 39.8107 35.1887 39.7333 35.1161C39.6558 35.0435 39.6161 34.9457 39.6161 34.8218C39.6161 34.6766 39.6665 34.5662 39.7672 34.4897C39.8678 34.4132 39.9927 34.3774 40.1418 34.3813C40.3152 34.3813 40.4507 34.4316 40.5485 34.5323C40.6463 34.633 40.6966 34.7492 40.6995 34.8799H41.4266C41.4199 34.6601 41.3618 34.4713 41.2543 34.3116C41.1459 34.1518 40.9977 34.0279 40.808 33.9398C40.6182 33.8517 40.3994 33.8071 40.1525 33.8071C39.9056 33.8071 39.6926 33.8507 39.5048 33.9369C39.3169 34.024 39.1688 34.146 39.0613 34.3028C38.9529 34.4607 38.9016 34.6485 38.9045 34.8683C38.9045 35.1268 38.98 35.334 39.1301 35.4899C39.2802 35.6457 39.499 35.7735 39.7856 35.8723C39.9627 35.9323 40.1293 35.9894 40.2851 36.0427C40.441 36.0959 40.5659 36.1647 40.6598 36.2499C40.7537 36.3351 40.8002 36.4532 40.8002 36.6052C40.8002 36.7572 40.747 36.8666 40.6405 36.9528C40.534 37.0399 40.3907 37.0825 40.2106 37.0825C40.0015 37.0825 39.8378 37.0235 39.7197 36.9044C39.6006 36.7853 39.5387 36.6401 39.5309 36.4658H38.8145C38.8183 36.7175 38.8803 36.9305 39.0003 37.1058C39.1204 37.281 39.285 37.4156 39.4941 37.5095C39.7033 37.6034 39.9434 37.6499 40.2164 37.6499C40.4894 37.6499 40.7383 37.5995 40.9329 37.4989C41.1275 37.3982 41.2746 37.2646 41.3734 37.098C41.4721 36.9315 41.5225 36.7514 41.5225 36.5568C41.5225 36.337 41.476 36.1579 41.384 36.0175C41.2921 35.8781 41.1701 35.7648 41.0181 35.6806V35.6816Z" fill="black"/>
<path d="M41.8779 34.4181H42.9613V37.588H43.641V34.4181H44.7302V33.8711H41.8779V34.4181Z" fill="black"/>
<path d="M45.2607 37.588H47.688V37.041H45.9404V35.9682H47.5283V35.4376H45.9404V34.4181H47.688V33.8711H45.2607V37.588Z" fill="black"/>
<path d="M51.3298 34.7492C51.1933 34.4714 50.9841 34.2555 50.7034 34.1015C50.4216 33.9476 50.0634 33.8701 49.6277 33.8701H48.3584V37.588H49.6277C50.0634 37.588 50.4216 37.5105 50.7034 37.3566C50.9851 37.2026 51.1933 36.9867 51.3298 36.7089C51.4663 36.431 51.5341 36.1047 51.5341 35.7291C51.5341 35.3534 51.4663 35.0271 51.3298 34.7492ZM50.7218 36.4165C50.6443 36.6062 50.5146 36.7505 50.3345 36.8522C50.1534 36.9528 49.9075 37.0032 49.5967 37.0032H49.039V34.4491H49.5967C49.9085 34.4491 50.1544 34.5004 50.3345 34.603C50.5155 34.7057 50.6443 34.8528 50.7218 35.0436C50.7992 35.2343 50.8389 35.4628 50.8389 35.7291C50.8389 35.9953 50.8002 36.2277 50.7218 36.4165Z" fill="black"/>
<path d="M28.5421 50.1475H23.2664C23.0747 50.1475 22.9459 50.344 23.0224 50.5192L24.0961 53.0027C24.1252 53.0704 24.1252 53.1469 24.0961 53.2147L23.0243 55.6662C22.9478 55.8424 23.0766 56.0389 23.2683 56.0389H33.1536C31.4089 54.4095 29.8695 52.4421 28.5421 50.1475ZM28.9691 52.8429L28.2071 53.4994C28.1606 53.539 28.1403 53.602 28.1548 53.661L28.3862 54.6399C28.4201 54.7812 28.2661 54.8936 28.1412 54.818L27.2815 54.2962C27.2292 54.2642 27.1634 54.2642 27.1111 54.2962L26.2513 54.818C26.1264 54.8936 25.9725 54.7822 26.0064 54.6399L26.2378 53.661C26.2523 53.601 26.232 53.539 26.1855 53.4994L25.4235 52.8429C25.3131 52.748 25.3722 52.567 25.5174 52.5554L26.5205 52.4721C26.5815 52.4673 26.6347 52.4285 26.658 52.3724L27.0462 51.4448C27.1024 51.3103 27.2931 51.3103 27.3493 51.4448L27.7375 52.3724C27.7607 52.4285 27.814 52.4673 27.875 52.4721L28.878 52.5554C29.0233 52.567 29.0823 52.748 28.972 52.8429H28.9691Z" fill="#F6CA46"/>
<path d="M55.786 53.2147C55.756 53.1469 55.756 53.0704 55.786 53.0027L56.8597 50.5192C56.9362 50.343 56.8065 50.1475 56.6157 50.1475H51.34C50.0126 52.4421 48.4732 54.4085 46.7285 56.0389H56.6138C56.8055 56.0389 56.9343 55.8424 56.8578 55.6662L55.786 53.2157V53.2147ZM54.5767 52.932L53.8147 53.5884C53.7683 53.6281 53.7479 53.6911 53.7624 53.7501L53.9938 54.729C54.0277 54.8703 53.8738 54.9826 53.7489 54.9071L52.8891 54.3852C52.8369 54.3533 52.771 54.3533 52.7187 54.3852L51.859 54.9071C51.7341 54.9826 51.5801 54.8713 51.614 54.729L51.8454 53.7501C51.8599 53.6901 51.8396 53.6281 51.7931 53.5884L51.0312 52.932C50.9208 52.8371 50.9799 52.6561 51.1251 52.6444L52.1281 52.5612C52.1891 52.5563 52.2424 52.5176 52.2656 52.4614L52.6539 51.5339C52.71 51.3993 52.9008 51.3993 52.9569 51.5339L53.3452 52.4614C53.3684 52.5176 53.4216 52.5563 53.4826 52.5612L54.4857 52.6444C54.6309 52.6561 54.69 52.8371 54.5796 52.932H54.5767Z" fill="#F6CA46"/>
<path d="M31.4547 41.1209C31.5389 40.995 31.5805 40.8547 31.5805 40.6978C31.5805 40.5632 31.5505 40.4393 31.4915 40.3289C31.4324 40.2176 31.3414 40.1304 31.2184 40.0656C31.0955 40.0017 30.9367 39.9697 30.7421 39.9697H29.9395V42.4561H30.2377V41.4298H30.7489L31.2533 42.4561H31.6047L31.0616 41.3872C31.2388 41.3349 31.3704 41.2458 31.4537 41.1209H31.4547ZM30.7208 41.1955H30.2377V40.2224H30.7169C30.9135 40.2224 31.0548 40.266 31.141 40.3522C31.2272 40.4383 31.2707 40.5555 31.2707 40.7017C31.2707 40.8479 31.2272 40.9641 31.139 41.057C31.0509 41.149 30.9115 41.1955 30.7198 41.1955H30.7208Z" fill="#380000"/>
<path d="M33.8357 42.0833C33.919 41.941 33.9596 41.7599 33.9596 41.5401V39.9707H33.6614V41.544C33.6614 41.7851 33.6043 41.9603 33.491 42.0697C33.3777 42.1792 33.2267 42.2334 33.0398 42.2334C32.853 42.2334 32.701 42.1792 32.5848 42.0697C32.4686 41.9613 32.4105 41.7851 32.4105 41.544V39.9707H32.1123V41.5401C32.1123 41.7599 32.1539 41.9419 32.2362 42.0833C32.3195 42.2256 32.4299 42.3302 32.5683 42.398C32.7068 42.4657 32.8617 42.4996 33.0321 42.4996C33.2025 42.4996 33.3613 42.4657 33.5007 42.398C33.6401 42.3302 33.7515 42.2256 33.8347 42.0833H33.8357Z" fill="#380000"/>
<path d="M37.0352 42.4561V39.9697H36.6837L35.7949 41.7028L34.9003 39.9697H34.5527V42.4561H34.8509V40.5061L35.6816 42.1007H35.9053L36.737 40.5032V42.4561H37.0352Z" fill="#380000"/>
<path d="M40.1319 42.4561V39.9697H39.7794L38.8916 41.7028L37.997 39.9697H37.6484V42.4561H37.9466V40.5061L38.7783 42.1007H39.002L39.8327 40.5032V42.4561H40.1319Z" fill="#380000"/>
<path d="M41.6633 42.4561V41.5111L42.4688 39.9697H42.1348L41.5142 41.2274L40.8926 39.9697H40.5547L41.3641 41.5111V42.4561H41.6633Z" fill="#380000"/>
<path d="M44.6815 39.9697L43.7656 42.4561H44.0784L44.3098 41.817H45.368L45.5955 42.4561H45.9121L44.9991 39.9697H44.6835H44.6815ZM44.3969 41.575L44.8374 40.3464L45.2779 41.575H44.3969Z" fill="#380000"/>
<path d="M47.1853 39.9697H46.3682V42.456H46.6664V41.4191H47.1853C47.3819 41.4191 47.5426 41.3862 47.6684 41.3213C47.7943 41.2564 47.8863 41.1693 47.9454 41.0599C48.0044 40.9515 48.0344 40.8295 48.0344 40.6939C48.0344 40.5584 48.0044 40.4335 47.9444 40.3241C47.8844 40.2156 47.7914 40.1285 47.6655 40.0646C47.5397 40.0007 47.3799 39.9688 47.1863 39.9688L47.1853 39.9697ZM47.6026 41.0405C47.5184 41.1248 47.377 41.1664 47.1785 41.1664H46.6673V40.2176H47.1785C47.377 40.2176 47.5184 40.2592 47.6026 40.3434C47.6868 40.4277 47.7285 40.5439 47.7285 40.693C47.7285 40.8421 47.6868 40.9553 47.6026 41.0396V41.0405Z" fill="#380000"/>
<path d="M49.8111 40.0656C49.6852 40.0017 49.5254 39.9697 49.3318 39.9697H48.5146V42.4561H48.8129V41.4191H49.3318C49.5283 41.4191 49.6891 41.3862 49.8149 41.3213C49.9408 41.2565 50.0328 41.1693 50.0918 41.0599C50.1509 40.9515 50.1809 40.8295 50.1809 40.6939C50.1809 40.5584 50.1509 40.4335 50.0909 40.3241C50.0308 40.2156 49.9379 40.1285 49.812 40.0646L49.8111 40.0656ZM49.7491 41.0406C49.6649 41.1248 49.5235 41.1664 49.325 41.1664H48.8138V40.2176H49.325C49.5235 40.2176 49.6649 40.2592 49.7491 40.3434C49.8333 40.4277 49.875 40.5439 49.875 40.693C49.875 40.8421 49.8333 40.9553 49.7491 41.0396V41.0406Z" fill="#380000"/>
<path d="M33.559 30.3171L34.5853 31.8517H34.9842V29.6685H34.5853V31.206L33.559 29.6685H33.1592V31.8517H33.559V30.3171Z" fill="#380000"/>
<path d="M35.8796 31.3463H36.7316L36.9059 31.8517H37.33L36.5312 29.6685H36.082L35.2832 31.8517H35.7015L35.8796 31.3463ZM36.3037 30.1264L36.6222 31.0346H35.989L36.3037 30.1264Z" fill="#380000"/>
<path d="M37.9037 31.8512H38.3026V29.9894H38.9426V29.668H37.2676V29.9894H37.9037V31.8512Z" fill="#380000"/>
<path d="M39.6528 29.668H39.2539V31.8512H39.6528V29.668Z" fill="#380000"/>
<path d="M40.5433 31.7459C40.707 31.8417 40.8977 31.8892 41.1155 31.8892C41.3334 31.8892 41.5222 31.8417 41.6868 31.7459C41.8514 31.65 41.9792 31.5174 42.0702 31.348C42.1622 31.1785 42.2077 30.9829 42.2077 30.7603C42.2077 30.5376 42.1622 30.342 42.0702 30.1726C41.9782 30.0031 41.8504 29.8705 41.6868 29.7746C41.5222 29.6788 41.3324 29.6313 41.1155 29.6313C40.8987 29.6313 40.706 29.6798 40.5433 29.7746C40.3797 29.8705 40.2519 30.0031 40.1599 30.1726C40.067 30.342 40.0215 30.5385 40.0215 30.7603C40.0215 30.982 40.068 31.1785 40.1599 31.348C40.2529 31.5174 40.3807 31.65 40.5433 31.7459ZM40.6169 30.1958C40.7418 30.0583 40.9084 29.9896 41.1165 29.9896C41.3247 29.9896 41.4902 30.0583 41.6142 30.1958C41.7381 30.3333 41.8001 30.5211 41.8001 30.7603C41.8001 30.9994 41.7381 31.1872 41.6142 31.3247C41.4902 31.4622 41.3247 31.5309 41.1165 31.5309C40.9084 31.5309 40.7418 31.4622 40.6169 31.3247C40.492 31.1872 40.4301 30.9994 40.4301 30.7603C40.4301 30.5211 40.492 30.3333 40.6169 30.1958Z" fill="#380000"/>
<path d="M42.977 30.3171L44.0033 31.8517H44.4022V29.6685H44.0033V31.206L42.977 29.6685H42.5771V31.8517H42.977V30.3171Z" fill="#380000"/>
<path d="M45.0598 30.1482L45.1005 29.4966H44.751L44.7887 30.1482H45.0598Z" fill="#380000"/>
<path d="M46.1892 31.5551C46.0662 31.5551 45.9704 31.5203 45.9007 31.4506C45.831 31.3809 45.7942 31.2956 45.7903 31.193H45.3691C45.3711 31.3412 45.4079 31.4661 45.4785 31.5687C45.5492 31.6713 45.646 31.7507 45.769 31.8059C45.892 31.8611 46.0333 31.8882 46.1931 31.8882C46.3528 31.8882 46.5 31.8582 46.6142 31.7991C46.7285 31.7401 46.8147 31.6616 46.8727 31.5638C46.9308 31.4661 46.9599 31.3596 46.9599 31.2453C46.9599 31.1165 46.9328 31.011 46.8786 30.9287C46.8243 30.8464 46.7527 30.7806 46.6636 30.7302C46.5745 30.6799 46.4758 30.6363 46.3674 30.5995C46.2657 30.5666 46.1747 30.5356 46.0963 30.5056C46.0169 30.4766 45.9549 30.4407 45.9094 30.3981C45.8639 30.3555 45.8407 30.2974 45.8407 30.2248C45.8407 30.1396 45.8707 30.0748 45.9297 30.0302C45.9888 29.9857 46.0624 29.9644 46.1495 29.9663C46.2512 29.9663 46.3306 29.9963 46.3877 30.0554C46.4448 30.1145 46.4748 30.1832 46.4768 30.2597H46.9037C46.8999 30.1309 46.866 30.0196 46.8021 29.9257C46.7382 29.8317 46.651 29.7591 46.5397 29.7068C46.4283 29.6546 46.2996 29.6284 46.1543 29.6284C46.0091 29.6284 45.8842 29.6536 45.7738 29.7049C45.6635 29.7562 45.5763 29.8279 45.5134 29.9198C45.4495 30.0128 45.4195 30.1232 45.4214 30.2519C45.4214 30.4039 45.466 30.5259 45.5541 30.6169C45.6422 30.7089 45.7709 30.7835 45.9394 30.8416C46.043 30.8774 46.1408 30.9103 46.2328 30.9413C46.3248 30.9723 46.3974 31.0129 46.4526 31.0633C46.5077 31.1136 46.5348 31.1824 46.5348 31.2724C46.5348 31.3625 46.5039 31.4254 46.4409 31.4767C46.378 31.528 46.2947 31.5532 46.1882 31.5532L46.1892 31.5551Z" fill="#380000"/>
<path d="M30.349 37.588V34.4181H31.4382V33.8711H28.5859V34.4181H29.6693V37.588H30.349Z" fill="#380000"/>
<path d="M32.6494 36.1221H33.2119L33.9022 37.588H34.6826L33.9129 36.0321C34.1646 35.9469 34.3495 35.8104 34.4677 35.6235C34.5858 35.4357 34.6458 35.2285 34.6458 35.0019C34.6458 34.7928 34.5984 34.603 34.5025 34.4307C34.4067 34.2593 34.2624 34.1228 34.0697 34.0221C33.8771 33.9214 33.6321 33.8711 33.3339 33.8711H31.9688V37.589H32.6484V36.1231L32.6494 36.1221ZM32.6494 34.4385H33.2865C33.5198 34.4385 33.6892 34.4917 33.7938 34.5982C33.8984 34.7047 33.9506 34.8461 33.9506 35.0232C33.9506 35.2004 33.8974 35.3486 33.7909 35.4589C33.6844 35.5683 33.5179 35.6235 33.2913 35.6235H32.6484V34.4394L32.6494 34.4385Z" fill="#380000"/>
<path d="M35.9987 37.4902C36.2185 37.5977 36.4644 37.6519 36.7364 37.6519C37.0085 37.6519 37.2573 37.5977 37.4829 37.4902C37.7075 37.3818 37.8876 37.2181 38.0222 36.9993C38.1568 36.7796 38.2236 36.5017 38.2236 36.1657V33.8711H37.5439V36.1706C37.5439 36.461 37.4732 36.6769 37.3319 36.8183C37.1905 36.9596 36.9969 37.0303 36.7529 37.0303C36.5089 37.0303 36.3114 36.9596 36.171 36.8183C36.0306 36.6769 35.9609 36.461 35.9609 36.1706V33.8711H35.2812V36.1657C35.2812 36.5017 35.3461 36.7796 35.4749 36.9993C35.6037 37.2191 35.7779 37.3827 35.9977 37.4902H35.9987Z" fill="#380000"/>
<path d="M39.1301 35.4908C39.2802 35.6467 39.499 35.7745 39.7856 35.8733C39.9627 35.9333 40.1293 35.9904 40.2851 36.0437C40.441 36.0969 40.5659 36.1657 40.6598 36.2509C40.7537 36.3361 40.8002 36.4542 40.8002 36.6062C40.8002 36.7582 40.747 36.8676 40.6405 36.9538C40.534 37.0409 40.3907 37.0835 40.2106 37.0835C40.0015 37.0835 39.8378 37.0244 39.7197 36.9054C39.6006 36.7863 39.5387 36.641 39.5309 36.4668H38.8145C38.8183 36.7185 38.8803 36.9315 39.0003 37.1067C39.1204 37.282 39.285 37.4166 39.4941 37.5105C39.7033 37.6044 39.9434 37.6509 40.2164 37.6509C40.4894 37.6509 40.7383 37.6005 40.9329 37.4998C41.1275 37.3991 41.2746 37.2655 41.3734 37.099C41.4721 36.9325 41.5225 36.7524 41.5225 36.5578C41.5225 36.338 41.476 36.1589 41.384 36.0185C41.2921 35.8791 41.1701 35.7658 41.0181 35.6816C40.8661 35.5964 40.6976 35.5218 40.5136 35.4589C40.3403 35.4027 40.1864 35.3495 40.0518 35.2991C39.9172 35.2497 39.8107 35.1887 39.7333 35.1161C39.6558 35.0435 39.6161 34.9457 39.6161 34.8218C39.6161 34.6766 39.6665 34.5662 39.7672 34.4897C39.8678 34.4132 39.9927 34.3774 40.1418 34.3813C40.3152 34.3813 40.4507 34.4316 40.5485 34.5323C40.6463 34.633 40.6966 34.7492 40.6995 34.8799H41.4266C41.4199 34.6601 41.3618 34.4713 41.2543 34.3116C41.1459 34.1518 40.9977 34.0288 40.808 33.9398C40.6182 33.8517 40.3994 33.8071 40.1525 33.8071C39.9056 33.8071 39.6926 33.8507 39.5048 33.9369C39.3169 34.024 39.1688 34.146 39.0613 34.3028C38.9529 34.4607 38.9016 34.6485 38.9045 34.8683C38.9045 35.1268 38.98 35.334 39.1301 35.4899V35.4908Z" fill="#380000"/>
<path d="M41.877 34.4181H42.9604V37.588H43.64V34.4181H44.7293V33.8711H41.877V34.4181Z" fill="#380000"/>
<path d="M47.687 37.041H45.9394V35.9682H47.5273V35.4376H45.9394V34.4181H47.687V33.8711H45.2598V37.588H47.687V37.041Z" fill="#380000"/>
<path d="M50.7014 37.3576C50.9832 37.2036 51.1913 36.9877 51.3278 36.7098C51.4643 36.432 51.5321 36.1057 51.5321 35.73C51.5321 35.3544 51.4643 35.0281 51.3278 34.7502C51.1913 34.4723 50.9822 34.2564 50.7014 34.1025C50.4197 33.9485 50.0614 33.8711 49.6257 33.8711H48.3564V37.589H49.6257C50.0614 37.589 50.4197 37.5115 50.7014 37.3576ZM49.0361 37.0042V34.4501H49.5938C49.9056 34.4501 50.1515 34.5014 50.3316 34.604C50.5126 34.7066 50.6414 34.8538 50.7188 35.0445C50.7963 35.2353 50.836 35.4638 50.836 35.73C50.836 35.9963 50.7973 36.2286 50.7188 36.4174C50.6414 36.6072 50.5116 36.7515 50.3316 36.8531C50.1505 36.9538 49.9046 37.0042 49.5938 37.0042H49.0361Z" fill="#380000"/>
<path d="M40.1329 53.3466C41.9991 53.3466 43.5119 51.9278 43.5119 50.1777C43.5119 48.4276 41.9991 47.0088 40.1329 47.0088C38.2667 47.0088 36.7539 48.4276 36.7539 50.1777C36.7539 51.9278 38.2667 53.3466 40.1329 53.3466Z" fill="#380000"/>
<path d="M40.1113 51.7957L43.6501 47.8832L43.7169 47.2549L40.973 50.1759L40.1113 51.7957Z" fill="url(#paint0_linear_5521_12773)"/>
<path d="M40.1677 46.2739C38.029 46.2739 36.2939 48.008 36.2939 50.1477C36.2939 52.2874 38.028 54.0214 40.1677 54.0214C42.3074 54.0214 44.0414 52.2874 44.0414 50.1477C44.0414 48.008 42.3074 46.2739 40.1677 46.2739ZM40.1677 53.182C38.4917 53.182 37.1324 51.8236 37.1324 50.1467C37.1324 48.4698 38.4908 47.1114 40.1677 47.1114C41.8446 47.1114 43.203 48.4698 43.203 50.1467C43.203 51.8236 41.8446 53.182 40.1677 53.182Z" fill="#380000"/>
<path d="M43.6079 47.254L43.1083 46.8754C43.0483 46.8299 42.9621 46.8415 42.9156 46.9016L39.983 50.4994L38.9422 49.5612C38.8705 49.4973 38.7621 49.5012 38.6963 49.5709L38.3022 49.9862C38.2344 50.0579 38.2383 50.1721 38.3119 50.238L39.8281 51.6186C39.9801 51.7571 40.2183 51.7348 40.3412 51.5702L43.636 47.4457C43.6815 47.3857 43.6689 47.2995 43.6089 47.254H43.6079Z" fill="#F6CA46"/>
</g>
<defs>
<linearGradient id="paint0_linear_5521_12773" x1="40.183" y1="51.6476" x2="43.6617" y2="47.3691" gradientUnits="userSpaceOnUse">
<stop stop-color="#16151B"/>
<stop offset="0.35" stop-color="#23272E" stop-opacity="0.81"/>
<stop offset="0.78" stop-color="#495B68" stop-opacity="0.25"/>
<stop offset="0.92" stop-color="#5B7382" stop-opacity="0"/>
</linearGradient>
<clipPath id="clip0_5521_12773">
<rect width="34.1182" height="40" fill="white" transform="translate(23 20)"/>
</clipPath>
</defs>
</svg>
