<svg width="52" height="52" viewBox="0 0 52 52" fill="none" xmlns="http://www.w3.org/2000/svg">
<path d="M26 50.6C39.5862 50.6 50.6 39.5862 50.6 26C50.6 12.4138 39.5862 1.4 26 1.4C12.4138 1.4 1.4 12.4138 1.4 26C1.4 39.5862 12.4138 50.6 26 50.6Z" fill="#380000" stroke="#981C1F" stroke-width="1.2"/>
<path d="M16.4932 32.4775H12.5545C12.4113 32.4775 12.3152 32.6243 12.3723 32.7552L13.1739 34.6093C13.1956 34.6599 13.1956 34.7169 13.1739 34.7675L12.3738 36.5978C12.3167 36.7293 12.4128 36.876 12.5559 36.876H19.9359C18.6334 35.6594 17.4842 34.1906 16.4932 32.4775ZM16.8119 34.4899L16.243 34.98C16.2084 35.0096 16.1932 35.0566 16.204 35.1007L16.3768 35.8314C16.4021 35.937 16.2872 36.0208 16.1939 35.9645L15.552 35.5748C15.5131 35.5511 15.4639 35.5511 15.4248 35.5748L14.7829 35.9645C14.6897 36.0208 14.5747 35.9377 14.6 35.8314L14.7728 35.1007C14.7837 35.0559 14.7685 35.0096 14.7338 34.98L14.1649 34.4899C14.0825 34.4191 14.1266 34.2839 14.2351 34.2752L14.9839 34.2131C15.0294 34.2094 15.0691 34.1805 15.0865 34.1386L15.3763 33.4462C15.4184 33.3457 15.5607 33.3457 15.6026 33.4462L15.8925 34.1386C15.9098 34.1805 15.9496 34.2094 15.9951 34.2131L16.7439 34.2752C16.8524 34.2839 16.8965 34.4191 16.8141 34.4899H16.8119Z" fill="white"/>
<path d="M35.5094 32.4753H39.448C39.5912 32.4753 39.6874 32.6221 39.6302 32.7528L38.8286 34.6069C38.8069 34.6575 38.8069 34.7146 38.8286 34.7652L39.6287 36.5954C39.6858 36.727 39.5897 36.8737 39.4466 36.8737H32.0665C33.3691 35.6572 34.5184 34.1884 35.5094 32.4753ZM35.1905 34.4876L35.7594 34.9777C35.7942 35.0074 35.8094 35.0544 35.7985 35.0985L35.6258 35.8292C35.6005 35.9347 35.7154 36.0186 35.8086 35.9622L36.4505 35.5726C36.4895 35.5488 36.5387 35.5488 36.5777 35.5726L37.2195 35.9622C37.3128 36.0186 37.4277 35.9355 37.4024 35.8292L37.2296 35.0985C37.2189 35.0536 37.2341 35.0074 37.2687 34.9777L37.8376 34.4876C37.9201 34.4167 37.876 34.2817 37.7675 34.273L37.0187 34.2109C36.9732 34.2072 36.9333 34.1783 36.916 34.1364L36.6261 33.4439C36.5842 33.3434 36.4418 33.3434 36.3999 33.4439L36.1101 34.1364C36.0927 34.1783 36.053 34.2072 36.0075 34.2109L35.2585 34.273C35.1501 34.2817 35.1061 34.4167 35.1885 34.4876H35.1905Z" fill="white"/>
<path fill-rule="evenodd" clip-rule="evenodd" d="M25.9182 39.8027L26.0064 39.8331L26.0924 39.7998C30.3707 38.1373 33.6726 35.0197 35.9054 30.5325C37.2665 27.7979 38.2098 24.5735 38.71 20.9485L38.7368 20.7556L38.5575 20.6803C36.0977 19.6488 34.5089 17.2584 34.5089 14.592C34.5089 14.1684 34.5501 13.7434 34.6304 13.3284L34.6889 13.027H17.3136L17.3722 13.3284C17.4532 13.7434 17.4936 14.1684 17.4936 14.592C17.4936 17.2584 15.9041 19.6482 13.445 20.6803L13.2657 20.7556L13.2925 20.9485C13.6366 23.4423 14.4172 27.1612 16.1853 30.7153C18.4628 35.2937 21.738 38.3513 25.9182 39.8027ZM26.0014 18.4862C22.4847 18.4862 19.6338 21.3371 19.6338 24.8539C19.6338 28.3707 22.4847 31.2215 26.0014 31.2215C29.5183 31.2215 32.3691 28.3707 32.3691 24.8539C32.3691 21.3371 29.5183 18.4862 26.0014 18.4862Z" fill="white"/>
<path d="M23.0599 25.4131L23.9962 26.7226C24.1687 26.9639 24.5155 26.9957 24.7289 26.7895L28.5908 23.0612" stroke="white" stroke-width="1.79779" stroke-linecap="round"/>
</svg>
