<svg width="80" height="80" viewBox="0 0 80 80" fill="none" xmlns="http://www.w3.org/2000/svg">
<path d="M39.7524 71.5047C57.2887 71.5047 71.5047 57.2887 71.5047 39.7523C71.5047 22.216 57.2887 8 39.7524 8C22.216 8 8 22.216 8 39.7523C8 57.2887 22.216 71.5047 39.7524 71.5047Z" fill="#380000"/>
<path d="M16.4004 18L64.0004 60.4" stroke="#F6CA46" stroke-width="4"/>
<rect x="26.6045" y="33.0254" width="27.5566" height="19.4517" fill="#F6CA46"/>
<path fill-rule="evenodd" clip-rule="evenodd" d="M27.732 30.4067C25.8812 30.4067 24.3809 31.9071 24.3809 33.7579V51.3703C24.3809 53.221 25.8812 54.7214 27.732 54.7214H52.0984C53.9492 54.7214 55.4496 53.221 55.4496 51.3702V33.7579C55.4496 31.9071 53.9492 30.4067 52.0984 30.4067H27.732ZM30.635 34.4594C29.4188 34.4594 28.4328 35.4453 28.4328 36.6616V48.467C28.4328 49.6832 29.4188 50.6691 30.635 50.6691H49.1945C50.4107 50.6691 51.3967 49.6832 51.3967 48.467V36.6616C51.3967 35.4453 50.4107 34.4594 49.1945 34.4594H30.635Z" fill="#F6CA46"/>
<circle cx="30.9472" cy="38.5117" r="2.94723" fill="#380000"/>
<circle cx="49.3476" cy="38.5117" r="2.94723" fill="#380000"/>
<circle cx="39.9139" cy="24.328" r="2.02622" fill="#F6CA46"/>
<path d="M39.915 25.0034L39.915 30.4067" stroke="#F6CA46" stroke-width="1.02396"/>
<rect x="54.0986" y="38.5112" width="2.70163" height="6.75407" rx="1.35081" fill="#F6CA46"/>
<rect x="23.0303" y="38.5112" width="2.70163" height="6.75407" rx="1.35081" fill="#F6CA46"/>
<path d="M37.7656 46.3999C37.7656 46.3999 38.8708 47.5051 39.976 48.6103C41.0813 49.7155 42.1865 50.8207 42.1865 50.8207" stroke="#380000" stroke-width="2.23409" stroke-linecap="round"/>
<path d="M42.1865 46.3999C42.1865 46.3999 41.0813 47.5051 39.9761 48.6103C38.8709 49.7155 37.7657 50.8207 37.7657 50.8207" stroke="#380000" stroke-width="2.23409" stroke-linecap="round"/>
</svg>
