<svg width="50" height="50" viewBox="0 0 50 50" fill="none" xmlns="http://www.w3.org/2000/svg">
<circle cx="25" cy="25" r="24.5" fill="#380000" stroke="#981C1F"/>
<rect x="16.5" y="21" width="17" height="12" fill="white"/>
<path fill-rule="evenodd" clip-rule="evenodd" d="M17.417 18.5C15.7601 18.5 14.417 19.8431 14.417 21.5V32C14.417 33.6569 15.7601 35 17.417 35H32.5003C34.1572 35 35.5003 33.6569 35.5003 32V21.5C35.5003 19.8431 34.1572 18.5 32.5003 18.5H17.417ZM19.1384 21.25C18.0496 21.25 17.167 22.1326 17.167 23.2214V30.2786C17.167 31.3674 18.0496 32.25 19.1384 32.25H30.7789C31.8677 32.25 32.7503 31.3674 32.7503 30.2786V23.2214C32.7503 22.1326 31.8677 21.25 30.7789 21.25H19.1384Z" fill="white"/>
<circle cx="20" cy="24" r="2" fill="#380000"/>
<circle cx="30" cy="24" r="2" fill="#380000"/>
<circle cx="24.958" cy="14.375" r="1.375" fill="white"/>
<path d="M24.958 14.8334L24.958 18.5" stroke="white" stroke-width="0.916667"/>
<rect x="34.583" y="24" width="1.83333" height="4.58333" rx="0.916667" fill="white"/>
<rect x="13.4999" y="24" width="1.83333" height="4.58333" rx="0.916667" fill="white"/>
<path d="M23.5 28C23.5 28 24.25 28.75 25 29.5C25.75 30.25 26.5 31 26.5 31" stroke="#380000" stroke-width="2" stroke-linecap="round"/>
<path d="M26.5002 28C26.5002 28 25.7502 28.75 25.0002 29.5C24.2502 30.25 23.5002 31 23.5002 31" stroke="#380000" stroke-width="2" stroke-linecap="round"/>
</svg>
