<svg width="108" height="140" viewBox="0 0 108 140" fill="none" xmlns="http://www.w3.org/2000/svg">
<rect width="108" height="136" rx="6" fill="white"/>
<rect x="4" y="4" width="100" height="128" rx="6" fill="#8F582F"/>
<mask id="mask0_1760_8358" style="mask-type:alpha" maskUnits="userSpaceOnUse" x="4" y="4" width="100" height="128">
<rect x="4" y="4" width="100" height="128" rx="6" fill="#186D49"/>
</mask>
<g mask="url(#mask0_1760_8358)">
<g opacity="0.11">
<path d="M15.8028 9.21832L5.47949 -1.10501L15.8028 -11.4283L26.1262 -1.10501L15.8028 9.21832ZM5.67519 -1.10501L15.8028 9.02262L25.9305 -1.10501L15.8028 -11.2326L5.67519 -1.10501Z" fill="#341212"/>
<path d="M0.270596 9.21832L-10.0527 -1.10501L0.270596 -11.4283L10.5939 -1.10501L0.270596 9.21832ZM-9.85703 -1.10501L0.270596 9.02262L10.3982 -1.10501L0.270596 -11.2326L-9.85703 -1.10501Z" fill="#341212"/>
<path d="M31.3526 9.21832L21.0293 -1.10501L31.3526 -11.4283L41.676 -1.10501L31.3526 9.21832ZM21.225 -1.10501L31.3526 9.02262L41.4803 -1.10501L31.3526 -11.2326L21.225 -1.10501Z" fill="#341212"/>
<path d="M46.8853 9.21832L36.562 -1.10501L46.8853 -11.4283L57.2087 -1.10501L46.8853 9.21832ZM36.7577 -1.10501L46.8853 9.02262L57.013 -1.10501L46.8853 -11.2326L36.7577 -1.10501Z" fill="#341212"/>
<path d="M62.4264 9.21832L52.103 -1.10501L62.4264 -11.4283L72.7497 -1.10501L62.4264 9.21832ZM52.2987 -1.10501L62.4264 9.02262L72.554 -1.10501L62.4264 -11.2326L52.2987 -1.10501Z" fill="#341212"/>
<path d="M77.963 9.21832L67.6396 -1.10501L77.963 -11.4283L88.2863 -1.10501L77.963 9.21832ZM67.8353 -1.10501L77.963 9.02262L88.0906 -1.10501L77.963 -11.2326L67.8353 -1.10501Z" fill="#341212"/>
<path d="M93.5089 9.21832L83.1855 -1.10501L93.5089 -11.4283L103.832 -1.10501L93.5089 9.21832ZM83.3813 -1.10501L93.5089 9.02262L103.637 -1.10501L93.5089 -11.2326L83.3813 -1.10501Z" fill="#341212"/>
<path d="M109.046 9.21832L98.7222 -1.10501L109.046 -11.4283L119.369 -1.10501L109.046 9.21832ZM98.9179 -1.10501L109.046 9.02262L119.173 -1.10501L109.046 -11.2326L98.9179 -1.10501Z" fill="#341212"/>
<path d="M0.270596 24.6048L-10.0527 14.2815L0.270596 3.95813L10.5939 14.2815L0.270596 24.6048ZM-9.85703 14.2815L0.270596 24.4091L10.3982 14.2815L0.270596 4.15383L-9.85703 14.2815Z" fill="#341212"/>
<path d="M15.8028 24.6048L5.47949 14.2815L15.8028 3.95813L26.1262 14.2815L15.8028 24.6048ZM5.67519 14.2815L15.8028 24.4091L25.9305 14.2815L15.8028 4.15383L5.67519 14.2815Z" fill="#341212"/>
<path d="M31.3526 24.6048L21.0293 14.2815L31.3526 3.95813L41.676 14.2815L31.3526 24.6048ZM21.225 14.2815L31.3526 24.4091L41.4803 14.2815L31.3526 4.15383L21.225 14.2815Z" fill="#341212"/>
<path d="M46.8853 24.6048L36.562 14.2815L46.8853 3.95813L57.2087 14.2815L46.8853 24.6048ZM36.7577 14.2815L46.8853 24.4091L57.013 14.2815L46.8853 4.15383L36.7577 14.2815Z" fill="#341212"/>
<path d="M62.4264 24.6048L52.103 14.2815L62.4264 3.95813L72.7497 14.2815L62.4264 24.6048ZM52.2987 14.2815L62.4264 24.4091L72.554 14.2815L62.4264 4.15383L52.2987 14.2815Z" fill="#341212"/>
<path d="M77.963 24.6048L67.6396 14.2815L77.963 3.95813L88.2863 14.2815L77.963 24.6048ZM67.8353 14.2815L77.963 24.4091L88.0906 14.2815L77.963 4.15383L67.8353 14.2815Z" fill="#341212"/>
<path d="M93.5089 24.6048L83.1855 14.2815L93.5089 3.95813L103.832 14.2815L93.5089 24.6048ZM83.3813 14.2815L93.5089 24.4091L103.637 14.2815L93.5089 4.15383L83.3813 14.2815Z" fill="#341212"/>
<path d="M109.046 24.6048L98.7222 14.2815L109.046 3.95813L119.369 14.2815L109.046 24.6048ZM98.9179 14.2815L109.046 24.4091L119.173 14.2815L109.046 4.15383L98.9179 14.2815Z" fill="#341212"/>
<path d="M15.8028 40.0046L5.47949 29.6812L15.8028 19.3579L26.1262 29.6812L15.8028 40.0046ZM5.67519 29.6812L15.8028 39.8089L25.9305 29.6812L15.8028 19.5536L5.67519 29.6812Z" fill="#341212"/>
<path d="M31.3526 40.0046L21.0293 29.6812L31.3526 19.3579L41.676 29.6812L31.3526 40.0046ZM21.225 29.6812L31.3526 39.8089L41.4803 29.6812L31.3526 19.5536L21.225 29.6812Z" fill="#341212"/>
<path d="M46.8853 40.0046L36.562 29.6812L46.8853 19.3579L57.2087 29.6812L46.8853 40.0046ZM36.7577 29.6812L46.8853 39.8089L57.013 29.6812L46.8853 19.5536L36.7577 29.6812Z" fill="#341212"/>
<path d="M62.4264 40.0046L52.103 29.6812L62.4264 19.3579L72.7497 29.6812L62.4264 40.0046ZM52.2987 29.6812L62.4264 39.8089L72.554 29.6812L62.4264 19.5536L52.2987 29.6812Z" fill="#341212"/>
<path d="M77.963 40.0046L67.6396 29.6812L77.963 19.3579L88.2863 29.6812L77.963 40.0046ZM67.8353 29.6812L77.963 39.8089L88.0906 29.6812L77.963 19.5536L67.8353 29.6812Z" fill="#341212"/>
<path d="M93.5089 40.0046L83.1855 29.6812L93.5089 19.3579L103.832 29.6812L93.5089 40.0046ZM83.3813 29.6812L93.5089 39.8089L103.637 29.6812L93.5089 19.5536L83.3813 29.6812Z" fill="#341212"/>
<path d="M109.046 40.0046L98.7222 29.6812L109.046 19.3579L119.369 29.6812L109.046 40.0046ZM98.9179 29.6812L109.046 39.8089L119.173 29.6812L109.046 19.5536L98.9179 29.6812Z" fill="#341212"/>
<path d="M0.270596 55.392L-10.0527 45.0687L0.270596 34.7454L10.5939 45.0687L0.270596 55.392ZM-9.85703 45.0687L0.270596 55.1963L10.3982 45.0687L0.270596 34.9411L-9.85703 45.0687Z" fill="#341212"/>
<path d="M15.8028 55.392L5.47949 45.0687L15.8028 34.7454L26.1262 45.0687L15.8028 55.392ZM5.67519 45.0687L15.8028 55.1963L25.9305 45.0687L15.8028 34.9411L5.67519 45.0687Z" fill="#341212"/>
<path d="M31.3526 55.392L21.0293 45.0687L31.3526 34.7454L41.676 45.0687L31.3526 55.392ZM21.225 45.0687L31.3526 55.1963L41.4803 45.0687L31.3526 34.9411L21.225 45.0687Z" fill="#341212"/>
<path d="M46.8853 55.392L36.562 45.0687L46.8853 34.7454L57.2087 45.0687L46.8853 55.392ZM36.7577 45.0687L46.8853 55.1963L57.013 45.0687L46.8853 34.9411L36.7577 45.0687Z" fill="#341212"/>
<path d="M62.4264 55.392L52.103 45.0687L62.4264 34.7454L72.7497 45.0687L62.4264 55.392ZM52.2987 45.0687L62.4264 55.1963L72.554 45.0687L62.4264 34.9411L52.2987 45.0687Z" fill="#341212"/>
<path d="M77.963 55.392L67.6396 45.0687L77.963 34.7454L88.2863 45.0687L77.963 55.392ZM67.8353 45.0687L77.963 55.1963L88.0906 45.0687L77.963 34.9411L67.8353 45.0687Z" fill="#341212"/>
<path d="M93.5089 55.392L83.1855 45.0687L93.5089 34.7454L103.832 45.0687L93.5089 55.392ZM83.3813 45.0687L93.5089 55.1963L103.637 45.0687L93.5089 34.9411L83.3813 45.0687Z" fill="#341212"/>
<path d="M109.046 55.392L98.7222 45.0687L109.046 34.7454L119.369 45.0687L109.046 55.392ZM98.9179 45.0687L109.046 55.1963L119.173 45.0687L109.046 34.9411L98.9179 45.0687Z" fill="#341212"/>
<path d="M15.8028 70.7918L5.47949 60.4685L15.8028 50.1451L26.1262 60.4685L15.8028 70.7918ZM5.67519 60.4685L15.8028 70.5961L25.9305 60.4685L15.8028 50.3408L5.67519 60.4685Z" fill="#341212"/>
<path d="M31.3526 70.7918L21.0293 60.4685L31.3526 50.1451L41.676 60.4685L31.3526 70.7918ZM21.225 60.4685L31.3526 70.5961L41.4803 60.4685L31.3526 50.3408L21.225 60.4685Z" fill="#341212"/>
<path d="M46.8853 70.7918L36.562 60.4685L46.8853 50.1451L57.2087 60.4685L46.8853 70.7918ZM36.7577 60.4685L46.8853 70.5961L57.013 60.4685L46.8853 50.3408L36.7577 60.4685Z" fill="#341212"/>
<path d="M62.4264 70.7918L52.103 60.4685L62.4264 50.1451L72.7497 60.4685L62.4264 70.7918ZM52.2987 60.4685L62.4264 70.5961L72.554 60.4685L62.4264 50.3408L52.2987 60.4685Z" fill="#341212"/>
<path d="M77.963 70.7918L67.6396 60.4685L77.963 50.1451L88.2863 60.4685L77.963 70.7918ZM67.8353 60.4685L77.963 70.5961L88.0906 60.4685L77.963 50.3408L67.8353 60.4685Z" fill="#341212"/>
<path d="M93.5089 70.7918L83.1855 60.4685L93.5089 50.1451L103.832 60.4685L93.5089 70.7918ZM83.3813 60.4685L93.5089 70.5961L103.637 60.4685L93.5089 50.3408L83.3813 60.4685Z" fill="#341212"/>
<path d="M109.046 70.7918L98.7222 60.4685L109.046 50.1451L119.369 60.4685L109.046 70.7918ZM98.9179 60.4685L109.046 70.5961L119.173 60.4685L109.046 50.3408L98.9179 60.4685Z" fill="#341212"/>
<path d="M0.270596 86.1905L-10.0527 75.8671L0.270596 65.5438L10.5939 75.8671L0.270596 86.1905ZM-9.85703 75.8671L0.270596 85.9948L10.3982 75.8671L0.270596 65.7395L-9.85703 75.8671Z" fill="#341212"/>
<path d="M15.8028 86.1905L5.47949 75.8671L15.8028 65.5438L26.1262 75.8671L15.8028 86.1905ZM5.67519 75.8671L15.8028 85.9948L25.9305 75.8671L15.8028 65.7395L5.67519 75.8671Z" fill="#341212"/>
<path d="M31.3526 86.1905L21.0293 75.8671L31.3526 65.5438L41.676 75.8671L31.3526 86.1905ZM21.225 75.8671L31.3526 85.9948L41.4803 75.8671L31.3526 65.7395L21.225 75.8671Z" fill="#341212"/>
<path d="M46.8853 86.1905L36.562 75.8671L46.8853 65.5438L57.2087 75.8671L46.8853 86.1905ZM36.7577 75.8671L46.8853 85.9948L57.013 75.8671L46.8853 65.7395L36.7577 75.8671Z" fill="#341212"/>
<path d="M62.4264 86.1905L52.103 75.8671L62.4264 65.5438L72.7497 75.8671L62.4264 86.1905ZM52.2987 75.8671L62.4264 85.9948L72.554 75.8671L62.4264 65.7395L52.2987 75.8671Z" fill="#341212"/>
<path d="M77.963 86.1905L67.6396 75.8671L77.963 65.5438L88.2863 75.8671L77.963 86.1905ZM67.8353 75.8671L77.963 85.9948L88.0906 75.8671L77.963 65.7395L67.8353 75.8671Z" fill="#341212"/>
<path d="M93.5089 86.1905L83.1855 75.8671L93.5089 65.5438L103.832 75.8671L93.5089 86.1905ZM83.3813 75.8671L93.5089 85.9948L103.637 75.8671L93.5089 65.7395L83.3813 75.8671Z" fill="#341212"/>
<path d="M109.046 86.1905L98.7222 75.8671L109.046 65.5438L119.369 75.8671L109.046 86.1905ZM98.9179 75.8671L109.046 85.9948L119.173 75.8671L109.046 65.7395L98.9179 75.8671Z" fill="#341212"/>
<path d="M15.8028 101.578L5.47949 91.2547L15.8028 80.9314L26.1262 91.2547L15.8028 101.578ZM5.67519 91.2547L15.8028 101.382L25.9305 91.2547L15.8028 81.1271L5.67519 91.2547Z" fill="#341212"/>
<path d="M31.3526 101.578L21.0293 91.2547L31.3526 80.9314L41.676 91.2547L31.3526 101.578ZM21.225 91.2547L31.3526 101.382L41.4803 91.2547L31.3526 81.1271L21.225 91.2547Z" fill="#341212"/>
<path d="M46.8853 101.578L36.562 91.2547L46.8853 80.9314L57.2087 91.2547L46.8853 101.578ZM36.7577 91.2547L46.8853 101.382L57.013 91.2547L46.8853 81.1271L36.7577 91.2547Z" fill="#341212"/>
<path d="M62.4264 101.578L52.103 91.2547L62.4264 80.9314L72.7497 91.2547L62.4264 101.578ZM52.2987 91.2547L62.4264 101.382L72.554 91.2547L62.4264 81.1271L52.2987 91.2547Z" fill="#341212"/>
<path d="M77.963 101.578L67.6396 91.2547L77.963 80.9314L88.2863 91.2547L77.963 101.578ZM67.8353 91.2547L77.963 101.382L88.0906 91.2547L77.963 81.1271L67.8353 91.2547Z" fill="#341212"/>
<path d="M93.5089 101.578L83.1855 91.2547L93.5089 80.9314L103.832 91.2547L93.5089 101.578ZM83.3813 91.2547L93.5089 101.382L103.637 91.2547L93.5089 81.1271L83.3813 91.2547Z" fill="#341212"/>
<path d="M109.046 101.578L98.7222 91.2547L109.046 80.9314L119.369 91.2547L109.046 101.578ZM98.9179 91.2547L109.046 101.382L119.173 91.2547L109.046 81.1271L98.9179 91.2547Z" fill="#341212"/>
<path d="M0.270596 116.977L-10.0527 106.653L0.270596 96.33L10.5939 106.653L0.270596 116.977ZM-9.85703 106.653L0.270596 116.781L10.3982 106.653L0.270596 96.5257L-9.85703 106.653Z" fill="#341212"/>
<path d="M15.8028 116.977L5.47949 106.653L15.8028 96.33L26.1262 106.653L15.8028 116.977ZM5.67519 106.653L15.8028 116.781L25.9305 106.653L15.8028 96.5257L5.67519 106.653Z" fill="#341212"/>
<path d="M31.3526 116.977L21.0293 106.653L31.3526 96.33L41.676 106.653L31.3526 116.977ZM21.225 106.653L31.3526 116.781L41.4803 106.653L31.3526 96.5257L21.225 106.653Z" fill="#341212"/>
<path d="M46.8853 116.977L36.562 106.653L46.8853 96.33L57.2087 106.653L46.8853 116.977ZM36.7577 106.653L46.8853 116.781L57.013 106.653L46.8853 96.5257L36.7577 106.653Z" fill="#341212"/>
<path d="M62.4264 116.977L52.103 106.653L62.4264 96.33L72.7497 106.653L62.4264 116.977ZM52.2987 106.653L62.4264 116.781L72.554 106.653L62.4264 96.5257L52.2987 106.653Z" fill="#341212"/>
<path d="M77.963 116.977L67.6396 106.653L77.963 96.33L88.2863 106.653L77.963 116.977ZM67.8353 106.653L77.963 116.781L88.0906 106.653L77.963 96.5257L67.8353 106.653Z" fill="#341212"/>
<path d="M93.5089 116.977L83.1855 106.653L93.5089 96.33L103.832 106.653L93.5089 116.977ZM83.3813 106.653L93.5089 116.781L103.637 106.653L93.5089 96.5257L83.3813 106.653Z" fill="#341212"/>
<path d="M109.046 116.977L98.7222 106.653L109.046 96.33L119.369 106.653L109.046 116.977ZM98.9179 106.653L109.046 116.781L119.173 106.653L109.046 96.5257L98.9179 106.653Z" fill="#341212"/>
<path d="M15.8028 132.376L5.47949 122.053L15.8028 111.73L26.1262 122.053L15.8028 132.376ZM5.67519 122.053L15.8028 132.181L25.9305 122.053L15.8028 111.925L5.67519 122.053Z" fill="#341212"/>
<path d="M31.3526 132.376L21.0293 122.053L31.3526 111.73L41.676 122.053L31.3526 132.376ZM21.225 122.053L31.3526 132.181L41.4803 122.053L31.3526 111.925L21.225 122.053Z" fill="#341212"/>
<path d="M46.8853 132.376L36.562 122.053L46.8853 111.73L57.2087 122.053L46.8853 132.376ZM36.7577 122.053L46.8853 132.181L57.013 122.053L46.8853 111.925L36.7577 122.053Z" fill="#341212"/>
<path d="M62.4264 132.376L52.103 122.053L62.4264 111.73L72.7497 122.053L62.4264 132.376ZM52.2987 122.053L62.4264 132.181L72.554 122.053L62.4264 111.925L52.2987 122.053Z" fill="#341212"/>
<path d="M77.963 132.376L67.6396 122.053L77.963 111.73L88.2863 122.053L77.963 132.376ZM67.8353 122.053L77.963 132.181L88.0906 122.053L77.963 111.925L67.8353 122.053Z" fill="#341212"/>
<path d="M93.5089 132.376L83.1855 122.053L93.5089 111.73L103.832 122.053L93.5089 132.376ZM83.3813 122.053L93.5089 132.181L103.637 122.053L93.5089 111.925L83.3813 122.053Z" fill="#341212"/>
<path d="M109.046 132.376L98.7222 122.053L109.046 111.73L119.369 122.053L109.046 132.376ZM98.9179 122.053L109.046 132.181L119.173 122.053L109.046 111.925L98.9179 122.053Z" fill="#341212"/>
<path d="M0.268865 21.5353L-6.98438 14.282L0.268865 7.02881L7.52211 14.282L0.268865 21.5353ZM-6.78867 14.282L0.268865 21.3396L7.3264 14.282L0.268865 7.22451L-6.78867 14.282Z" fill="#341212"/>
<path d="M15.8011 21.5353L8.54785 14.282L15.8011 7.02881L23.0543 14.282L15.8011 21.5353ZM8.74355 14.282L15.8011 21.3396L22.8586 14.282L15.8011 7.22451L8.74355 14.282Z" fill="#341212"/>
<path d="M31.3514 21.5353L24.0981 14.282L31.3514 7.02881L38.6046 14.282L31.3514 21.5353ZM24.2938 14.282L31.3514 21.3396L38.4089 14.282L31.3514 7.22451L24.2938 14.282Z" fill="#341212"/>
<path d="M46.8836 21.5353L39.6304 14.282L46.8836 7.02881L54.1369 14.282L46.8836 21.5353ZM39.8261 14.282L46.8836 21.3396L53.9411 14.282L46.8836 7.22451L39.8261 14.282Z" fill="#341212"/>
<path d="M62.429 21.5353L55.1758 14.282L62.429 7.02881L69.6823 14.282L62.429 21.5353ZM55.3715 14.282L62.429 21.3396L69.4866 14.282L62.429 7.22451L55.3715 14.282Z" fill="#341212"/>
<path d="M77.9617 21.5353L70.7085 14.282L77.9617 7.02881L85.215 14.282L77.9617 21.5353ZM70.9042 14.282L77.9617 21.3396L85.0193 14.282L77.9617 7.22451L70.9042 14.282Z" fill="#341212"/>
<path d="M93.5115 21.5353L86.2583 14.282L93.5115 7.02881L100.765 14.282L93.5115 21.5353ZM86.454 14.282L93.5115 21.3396L100.569 14.282L93.5115 7.22451L86.454 14.282Z" fill="#341212"/>
<path d="M109.044 21.5353L101.791 14.282L109.044 7.02881L116.297 14.282L109.044 21.5353ZM101.987 14.282L109.044 21.3396L116.102 14.282L109.044 7.22451L101.987 14.282Z" fill="#341212"/>
<path d="M15.8011 36.935L8.54785 29.6817L15.8011 22.4285L23.0543 29.6817L15.8011 36.935ZM8.74355 29.6817L15.8011 36.7392L22.8586 29.6817L15.8011 22.6242L8.74355 29.6817Z" fill="#341212"/>
<path d="M31.3514 36.935L24.0981 29.6817L31.3514 22.4285L38.6046 29.6817L31.3514 36.935ZM24.2938 29.6817L31.3514 36.7392L38.4089 29.6817L31.3514 22.6242L24.2938 29.6817Z" fill="#341212"/>
<path d="M46.8836 36.935L39.6304 29.6817L46.8836 22.4285L54.1369 29.6817L46.8836 36.935ZM39.8261 29.6817L46.8836 36.7392L53.9411 29.6817L46.8836 22.6242L39.8261 29.6817Z" fill="#341212"/>
<path d="M62.429 36.935L55.1758 29.6817L62.429 22.4285L69.6823 29.6817L62.429 36.935ZM55.3715 29.6817L62.429 36.7392L69.4866 29.6817L62.429 22.6242L55.3715 29.6817Z" fill="#341212"/>
<path d="M77.9617 36.935L70.7085 29.6817L77.9617 22.4285L85.215 29.6817L77.9617 36.935ZM70.9042 29.6817L77.9617 36.7392L85.0193 29.6817L77.9617 22.6242L70.9042 29.6817Z" fill="#341212"/>
<path d="M93.5115 36.935L86.2583 29.6817L93.5115 22.4285L100.765 29.6817L93.5115 36.935ZM86.454 29.6817L93.5115 36.7392L100.569 29.6817L93.5115 22.6242L86.454 29.6817Z" fill="#341212"/>
<path d="M109.044 36.935L101.791 29.6817L109.044 22.4285L116.297 29.6817L109.044 36.935ZM101.987 29.6817L109.044 36.7392L116.102 29.6817L109.044 22.6242L101.987 29.6817Z" fill="#341212"/>
<path d="M0.268865 52.3214L-6.98438 45.0682L0.268865 37.8149L7.52211 45.0682L0.268865 52.3214ZM-6.78867 45.0682L0.268865 52.1257L7.3264 45.0682L0.268865 38.0106L-6.78867 45.0682Z" fill="#341212"/>
<path d="M15.8011 52.3214L8.54785 45.0682L15.8011 37.8149L23.0543 45.0682L15.8011 52.3214ZM8.74355 45.0682L15.8011 52.1257L22.8586 45.0682L15.8011 38.0106L8.74355 45.0682Z" fill="#341212"/>
<path d="M31.3514 52.3214L24.0981 45.0682L31.3514 37.8149L38.6046 45.0682L31.3514 52.3214ZM24.2938 45.0682L31.3514 52.1257L38.4089 45.0682L31.3514 38.0106L24.2938 45.0682Z" fill="#341212"/>
<path d="M46.8836 52.3214L39.6304 45.0682L46.8836 37.8149L54.1369 45.0682L46.8836 52.3214ZM39.8261 45.0682L46.8836 52.1257L53.9411 45.0682L46.8836 38.0106L39.8261 45.0682Z" fill="#341212"/>
<path d="M62.429 52.3214L55.1758 45.0682L62.429 37.8149L69.6823 45.0682L62.429 52.3214ZM55.3715 45.0682L62.429 52.1257L69.4866 45.0682L62.429 38.0106L55.3715 45.0682Z" fill="#341212"/>
<path d="M77.9617 52.3214L70.7085 45.0682L77.9617 37.8149L85.215 45.0682L77.9617 52.3214ZM70.9042 45.0682L77.9617 52.1257L85.0193 45.0682L77.9617 38.0106L70.9042 45.0682Z" fill="#341212"/>
<path d="M93.5115 52.3214L86.2583 45.0682L93.5115 37.8149L100.765 45.0682L93.5115 52.3214ZM86.454 45.0682L93.5115 52.1257L100.569 45.0682L93.5115 38.0106L86.454 45.0682Z" fill="#341212"/>
<path d="M109.044 52.3214L101.791 45.0682L109.044 37.8149L116.297 45.0682L109.044 52.3214ZM101.987 45.0682L109.044 52.1257L116.102 45.0682L109.044 38.0106L101.987 45.0682Z" fill="#341212"/>
<path d="M15.8011 67.7212L8.54785 60.468L15.8011 53.2147L23.0543 60.468L15.8011 67.7212ZM8.74355 60.468L15.8011 67.5255L22.8586 60.468L15.8011 53.4104L8.74355 60.468Z" fill="#341212"/>
<path d="M31.3514 67.7212L24.0981 60.468L31.3514 53.2147L38.6046 60.468L31.3514 67.7212ZM24.2938 60.468L31.3514 67.5255L38.4089 60.468L31.3514 53.4104L24.2938 60.468Z" fill="#341212"/>
<path d="M46.8836 67.7212L39.6304 60.468L46.8836 53.2147L54.1369 60.468L46.8836 67.7212ZM39.8261 60.468L46.8836 67.5255L53.9411 60.468L46.8836 53.4104L39.8261 60.468Z" fill="#341212"/>
<path d="M62.429 67.7212L55.1758 60.468L62.429 53.2147L69.6823 60.468L62.429 67.7212ZM55.3715 60.468L62.429 67.5255L69.4866 60.468L62.429 53.4104L55.3715 60.468Z" fill="#341212"/>
<path d="M77.9617 67.7212L70.7085 60.468L77.9617 53.2147L85.215 60.468L77.9617 67.7212ZM70.9042 60.468L77.9617 67.5255L85.0193 60.468L77.9617 53.4104L70.9042 60.468Z" fill="#341212"/>
<path d="M93.5115 67.7212L86.2583 60.468L93.5115 53.2147L100.765 60.468L93.5115 67.7212ZM86.454 60.468L93.5115 67.5255L100.569 60.468L93.5115 53.4104L86.454 60.468Z" fill="#341212"/>
<path d="M109.044 67.7212L101.791 60.468L109.044 53.2147L116.297 60.468L109.044 67.7212ZM101.987 60.468L109.044 67.5255L116.102 60.468L109.044 53.4104L101.987 60.468Z" fill="#341212"/>
<path d="M0.268865 83.1077L-6.98438 75.8544L0.268865 68.6012L7.52211 75.8544L0.268865 83.1077ZM-6.78867 75.8544L0.268865 82.912L7.3264 75.8544L0.268865 68.7969L-6.78867 75.8544Z" fill="#341212"/>
<path d="M15.8011 83.1077L8.54785 75.8544L15.8011 68.6012L23.0543 75.8544L15.8011 83.1077ZM8.74355 75.8544L15.8011 82.912L22.8586 75.8544L15.8011 68.7969L8.74355 75.8544Z" fill="#341212"/>
<path d="M31.3514 83.1077L24.0981 75.8544L31.3514 68.6012L38.6046 75.8544L31.3514 83.1077ZM24.2938 75.8544L31.3514 82.912L38.4089 75.8544L31.3514 68.7969L24.2938 75.8544Z" fill="#341212"/>
<path d="M46.8836 83.1077L39.6304 75.8544L46.8836 68.6012L54.1369 75.8544L46.8836 83.1077ZM39.8261 75.8544L46.8836 82.912L53.9411 75.8544L46.8836 68.7969L39.8261 75.8544Z" fill="#341212"/>
<path d="M62.429 83.1077L55.1758 75.8544L62.429 68.6012L69.6823 75.8544L62.429 83.1077ZM55.3715 75.8544L62.429 82.912L69.4866 75.8544L62.429 68.7969L55.3715 75.8544Z" fill="#341212"/>
<path d="M77.9617 83.1077L70.7085 75.8544L77.9617 68.6012L85.215 75.8544L77.9617 83.1077ZM70.9042 75.8544L77.9617 82.912L85.0193 75.8544L77.9617 68.7969L70.9042 75.8544Z" fill="#341212"/>
<path d="M93.5115 83.1077L86.2583 75.8544L93.5115 68.6012L100.765 75.8544L93.5115 83.1077ZM86.454 75.8544L93.5115 82.912L100.569 75.8544L93.5115 68.7969L86.454 75.8544Z" fill="#341212"/>
<path d="M109.044 83.1077L101.791 75.8544L109.044 68.6012L116.297 75.8544L109.044 83.1077ZM101.987 75.8544L109.044 82.912L116.102 75.8544L109.044 68.7969L101.987 75.8544Z" fill="#341212"/>
<path d="M15.8011 98.5075L8.54785 91.2542L15.8011 84.001L23.0543 91.2542L15.8011 98.5075ZM8.74355 91.2542L15.8011 98.3118L22.8586 91.2542L15.8011 84.1967L8.74355 91.2542Z" fill="#341212"/>
<path d="M31.3514 98.5075L24.0981 91.2542L31.3514 84.001L38.6046 91.2542L31.3514 98.5075ZM24.2938 91.2542L31.3514 98.3118L38.4089 91.2542L31.3514 84.1967L24.2938 91.2542Z" fill="#341212"/>
<path d="M46.8836 98.5075L39.6304 91.2542L46.8836 84.001L54.1369 91.2542L46.8836 98.5075ZM39.8261 91.2542L46.8836 98.3118L53.9411 91.2542L46.8836 84.1967L39.8261 91.2542Z" fill="#341212"/>
<path d="M62.429 98.5075L55.1758 91.2542L62.429 84.001L69.6823 91.2542L62.429 98.5075ZM55.3715 91.2542L62.429 98.3118L69.4866 91.2542L62.429 84.1967L55.3715 91.2542Z" fill="#341212"/>
<path d="M77.9617 98.5075L70.7085 91.2542L77.9617 84.001L85.215 91.2542L77.9617 98.5075ZM70.9042 91.2542L77.9617 98.3118L85.0193 91.2542L77.9617 84.1967L70.9042 91.2542Z" fill="#341212"/>
<path d="M93.5115 98.5075L86.2583 91.2542L93.5115 84.001L100.765 91.2542L93.5115 98.5075ZM86.454 91.2542L93.5115 98.3118L100.569 91.2542L93.5115 84.1967L86.454 91.2542Z" fill="#341212"/>
<path d="M109.044 98.5075L101.791 91.2542L109.044 84.001L116.297 91.2542L109.044 98.5075ZM101.987 91.2542L109.044 98.3118L116.102 91.2542L109.044 84.1967L101.987 91.2542Z" fill="#341212"/>
<path d="M0.268865 113.906L-6.98438 106.653L0.268865 99.3995L7.52211 106.653L0.268865 113.906ZM-6.78867 106.653L0.268865 113.71L7.3264 106.653L0.268865 99.5952L-6.78867 106.653Z" fill="#341212"/>
<path d="M15.8011 113.906L8.54785 106.653L15.8011 99.3995L23.0543 106.653L15.8011 113.906ZM8.74355 106.653L15.8011 113.71L22.8586 106.653L15.8011 99.5952L8.74355 106.653Z" fill="#341212"/>
<path d="M31.3514 113.906L24.0981 106.653L31.3514 99.3995L38.6046 106.653L31.3514 113.906ZM24.2938 106.653L31.3514 113.71L38.4089 106.653L31.3514 99.5952L24.2938 106.653Z" fill="#341212"/>
<path d="M46.8836 113.906L39.6304 106.653L46.8836 99.3995L54.1369 106.653L46.8836 113.906ZM39.8261 106.653L46.8836 113.71L53.9411 106.653L46.8836 99.5952L39.8261 106.653Z" fill="#341212"/>
<path d="M62.429 113.906L55.1758 106.653L62.429 99.3995L69.6823 106.653L62.429 113.906ZM55.3715 106.653L62.429 113.71L69.4866 106.653L62.429 99.5952L55.3715 106.653Z" fill="#341212"/>
<path d="M77.9617 113.906L70.7085 106.653L77.9617 99.3995L85.215 106.653L77.9617 113.906ZM70.9042 106.653L77.9617 113.71L85.0193 106.653L77.9617 99.5952L70.9042 106.653Z" fill="#341212"/>
<path d="M93.5115 113.906L86.2583 106.653L93.5115 99.3995L100.765 106.653L93.5115 113.906ZM86.454 106.653L93.5115 113.71L100.569 106.653L93.5115 99.5952L86.454 106.653Z" fill="#341212"/>
<path d="M109.044 113.906L101.791 106.653L109.044 99.3995L116.297 106.653L109.044 113.906ZM101.987 106.653L109.044 113.71L116.102 106.653L109.044 99.5952L101.987 106.653Z" fill="#341212"/>
<path d="M15.8011 129.294L8.54785 122.04L15.8011 114.787L23.0543 122.04L15.8011 129.294ZM8.74355 122.04L15.8011 129.098L22.8586 122.04L15.8011 114.983L8.74355 122.04Z" fill="#341212"/>
<path d="M31.3514 129.294L24.0981 122.04L31.3514 114.787L38.6046 122.04L31.3514 129.294ZM24.2938 122.04L31.3514 129.098L38.4089 122.04L31.3514 114.983L24.2938 122.04Z" fill="#341212"/>
<path d="M46.8836 129.294L39.6304 122.04L46.8836 114.787L54.1369 122.04L46.8836 129.294ZM39.8261 122.04L46.8836 129.098L53.9411 122.04L46.8836 114.983L39.8261 122.04Z" fill="#341212"/>
<path d="M62.429 129.294L55.1758 122.04L62.429 114.787L69.6823 122.04L62.429 129.294ZM55.3715 122.04L62.429 129.098L69.4866 122.04L62.429 114.983L55.3715 122.04Z" fill="#341212"/>
<path d="M77.9617 129.294L70.7085 122.04L77.9617 114.787L85.215 122.04L77.9617 129.294ZM70.9042 122.04L77.9617 129.098L85.0193 122.04L77.9617 114.983L70.9042 122.04Z" fill="#341212"/>
<path d="M93.5115 129.294L86.2583 122.04L93.5115 114.787L100.765 122.04L93.5115 129.294ZM86.454 122.04L93.5115 129.098L100.569 122.04L93.5115 114.983L86.454 122.04Z" fill="#341212"/>
<path d="M109.044 129.294L101.791 122.04L109.044 114.787L116.297 122.04L109.044 129.294ZM101.987 122.04L109.044 129.098L116.102 122.04L109.044 114.983L101.987 122.04Z" fill="#341212"/>
<path d="M47.9962 12.3627C47.9962 12.3627 47.9473 12.3627 47.9228 12.3504C47.9228 12.3504 47.9106 12.3504 47.8984 12.3504C47.8862 12.3504 47.8739 12.3504 47.8495 12.3504C47.8495 12.3504 47.825 12.3504 47.8128 12.3504C47.8005 12.3504 47.7883 12.3504 47.7761 12.3504C47.7761 12.3504 47.7516 12.3504 47.7394 12.3504C47.7271 12.3504 47.7149 12.3504 47.7027 12.3504C47.7027 12.3504 47.6782 12.3504 47.666 12.3504C47.6538 12.3504 47.6415 12.3504 47.6293 12.3504C47.6171 12.3504 47.6048 12.3504 47.5926 12.3504C47.5804 12.3504 47.5681 12.3504 47.5559 12.3504C47.5437 12.3504 47.5314 12.3504 47.5192 12.3504C47.507 12.3504 47.4947 12.3504 47.4825 12.3504C47.4703 12.3504 47.4581 12.3504 47.4458 12.3504C47.4336 12.3504 47.4214 12.3504 47.4091 12.3627C47.3969 12.3627 47.3847 12.3627 47.3724 12.3749C47.3602 12.3749 47.348 12.3749 47.3357 12.3871C47.3235 12.3871 47.3113 12.3871 47.299 12.4116C47.2868 12.4116 47.2746 12.4238 47.2623 12.4361C47.2623 12.4361 47.2379 12.4483 47.2257 12.4605C47.2134 12.4605 47.2012 12.4727 47.189 12.485C47.189 12.485 47.1645 12.4972 47.1523 12.5094C47.14 12.5094 47.1278 12.5339 47.1156 12.5461C47.1156 12.5461 47.0911 12.5706 47.0789 12.5706C47.0667 12.5706 47.0544 12.5951 47.0422 12.6073C47.0422 12.6073 47.0177 12.6318 47.0055 12.644C47.0055 12.6562 46.981 12.6685 46.9688 12.6807C46.9688 12.6929 46.9443 12.7051 46.9443 12.7174C46.9443 12.7296 46.9199 12.7418 46.9076 12.7663C46.9076 12.7785 46.8832 12.7908 46.8832 12.803C46.8832 12.803 46.8709 12.8152 46.8709 12.8275C46.5652 12.3137 46.0637 12.2404 45.7212 12.326C45.3543 12.4238 44.9873 12.7418 44.9873 13.2556C44.9873 13.8916 45.4521 14.3442 45.9536 14.809C46.2961 15.1392 46.6508 15.4817 46.8465 15.8976L46.8832 15.9587L46.9199 15.8976C47.1156 15.4817 47.4703 15.1514 47.8128 14.8212C48.302 14.3442 48.7791 13.9038 48.7791 13.2678C48.7791 12.7541 48.4121 12.4361 48.0452 12.3382L47.9962 12.3627Z" fill="#341212"/>
<path d="M31.3107 16.203C31.0906 15.6893 29.7696 14.3805 29.2559 14.1604C29.7696 13.9402 31.0783 12.6192 31.2985 12.1055C31.4086 12.3746 31.8367 12.8638 32.2036 13.2308C32.5828 13.6099 33.0721 14.038 33.3412 14.1481C32.8274 14.3683 31.5187 15.6893 31.2985 16.203H31.3107Z" fill="#341212"/>
<path d="M16.6969 13.0353C16.3911 12.7417 15.963 12.4237 15.7673 12.069C15.5716 12.4359 15.1435 12.7417 14.8377 13.0353C14.3729 13.4756 13.9448 13.8915 13.9448 14.4663C13.9448 14.8455 14.1772 15.1635 14.5442 15.2736C14.9356 15.3959 15.3392 15.2491 15.5838 14.9067L15.6328 14.7966C15.6328 14.8944 15.6328 14.9923 15.6328 15.0901C15.6328 15.1635 15.6083 15.2369 15.5838 15.3103C15.4615 15.665 15.1802 15.9953 14.9111 16.2521C15.1068 16.191 15.486 16.1543 15.7673 16.1543C16.0486 16.1543 16.4278 16.191 16.6235 16.2521C16.3544 15.9953 16.0731 15.665 15.9508 15.3103C15.9385 15.2369 15.9141 15.1635 15.9019 15.0901C15.8896 14.9923 15.8896 14.8944 15.9019 14.7966L15.9508 14.9067C16.1954 15.2491 16.599 15.3959 16.9905 15.2736C17.3574 15.1635 17.5898 14.8455 17.5898 14.4663C17.5898 13.8915 17.1495 13.4756 16.6969 13.0353Z" fill="#341212"/>
<path d="M63.8314 13.3779C63.4644 13.3779 63.1342 13.5859 62.9752 13.8916C62.8651 14.014 62.7061 14.0629 62.5593 14.0996C62.596 13.8916 62.6572 13.6959 62.8039 13.5859C63.1342 13.4391 63.3421 13.1088 63.3421 12.7664C63.3421 12.534 63.2443 12.3016 63.073 12.1303C62.8896 11.9469 62.6449 11.849 62.3881 11.849C61.8621 11.849 61.434 12.2649 61.434 12.7664C61.434 13.1211 61.6542 13.4391 61.9722 13.5859C62.0945 13.6715 62.1679 13.8794 62.2168 14.0996C62.0701 14.0629 61.9111 14.014 61.801 13.8916C61.642 13.5736 61.2995 13.3779 60.9448 13.3779C60.4188 13.3779 59.9907 13.7938 59.9907 14.2953C59.9907 14.7968 60.4188 15.2126 60.9448 15.2126C61.3117 15.2126 61.6787 14.9925 61.8377 14.6622C61.9478 14.5521 62.0823 14.5155 62.2658 14.4788C62.278 14.7234 62.2658 14.968 62.2413 15.1026C62.0578 15.6163 61.593 16.2156 61.3362 16.4236L61.3729 16.4725C61.7031 16.2034 63.073 16.2034 63.4155 16.4725L63.4522 16.4236C63.1954 16.2034 62.6939 15.5551 62.5471 15.1026C62.4982 14.9191 62.5104 14.5888 62.5104 14.4665C62.6816 14.5032 62.8284 14.5277 62.9507 14.65C63.1097 14.968 63.4767 15.2004 63.8436 15.2004C64.3696 15.2004 64.7977 14.7845 64.7977 14.2831C64.7977 13.7816 64.3696 13.3657 63.8436 13.3657L63.8314 13.3779Z" fill="#341212"/>
<path d="M93.4772 16.203C93.2571 15.6893 91.9361 14.3805 91.4224 14.1604C91.9361 13.9402 93.2449 12.6192 93.465 12.1055C93.5751 12.3746 94.0032 12.8638 94.3701 13.2308C94.7493 13.6099 95.2386 14.038 95.5077 14.1481C94.9939 14.3683 93.6852 15.6893 93.465 16.203H93.4772Z" fill="#341212"/>
<path d="M78.8634 13.0353C78.5576 12.7417 78.1295 12.4237 77.9338 12.069C77.7381 12.4359 77.31 12.7417 77.0042 13.0353C76.5394 13.4756 76.1113 13.8915 76.1113 14.4663C76.1113 14.8455 76.3437 15.1635 76.7107 15.2736C77.1021 15.3959 77.5057 15.2491 77.7503 14.9067L77.7993 14.7966C77.7993 14.8944 77.7993 14.9923 77.7993 15.0901C77.7993 15.1635 77.7748 15.2369 77.7503 15.3103C77.628 15.665 77.3467 15.9953 77.0776 16.2521C77.2733 16.191 77.6525 16.1543 77.9338 16.1543C78.2151 16.1543 78.5943 16.191 78.79 16.2521C78.5209 15.9953 78.2396 15.665 78.1173 15.3103C78.1051 15.2369 78.0806 15.1635 78.0684 15.0901C78.0561 14.9923 78.0561 14.8944 78.0684 14.7966L78.1173 14.9067C78.3619 15.2491 78.7655 15.3959 79.157 15.2736C79.5239 15.1635 79.7563 14.8455 79.7563 14.4663C79.7563 13.8915 79.316 13.4756 78.8634 13.0353Z" fill="#341212"/>
<path d="M47.9962 43.2084C47.9962 43.2084 47.9473 43.2084 47.9228 43.1961C47.9228 43.1961 47.9106 43.1961 47.8984 43.1961C47.8862 43.1961 47.8739 43.1961 47.8495 43.1961C47.8495 43.1961 47.825 43.1961 47.8128 43.1961C47.8005 43.1961 47.7883 43.1961 47.7761 43.1961C47.7761 43.1961 47.7516 43.1961 47.7394 43.1961C47.7271 43.1961 47.7149 43.1961 47.7027 43.1961C47.7027 43.1961 47.6782 43.1961 47.666 43.1961C47.6538 43.1961 47.6415 43.1961 47.6293 43.1961C47.6171 43.1961 47.6048 43.1961 47.5926 43.1961C47.5804 43.1961 47.5681 43.1961 47.5559 43.1961C47.5437 43.1961 47.5314 43.1961 47.5192 43.1961C47.507 43.1961 47.4947 43.1961 47.4825 43.1961C47.4703 43.1961 47.4581 43.1961 47.4458 43.1961C47.4336 43.1961 47.4214 43.1961 47.4091 43.2084C47.3969 43.2084 47.3847 43.2084 47.3724 43.2206C47.3602 43.2206 47.348 43.2206 47.3357 43.2328C47.3235 43.2328 47.3113 43.2328 47.299 43.2573C47.2868 43.2573 47.2746 43.2695 47.2623 43.2818C47.2623 43.2818 47.2379 43.294 47.2257 43.3062C47.2134 43.3062 47.2012 43.3184 47.189 43.3307C47.189 43.3307 47.1645 43.3429 47.1523 43.3551C47.14 43.3551 47.1278 43.3796 47.1156 43.3918C47.1156 43.3918 47.0911 43.4163 47.0789 43.4163C47.0667 43.4163 47.0544 43.4408 47.0422 43.453C47.0422 43.453 47.0177 43.4775 47.0055 43.4897C47.0055 43.5019 46.981 43.5142 46.9688 43.5264C46.9688 43.5386 46.9443 43.5508 46.9443 43.5631C46.9443 43.5753 46.9199 43.5875 46.9076 43.612C46.9076 43.6242 46.8832 43.6365 46.8832 43.6487C46.8832 43.6487 46.8709 43.6609 46.8709 43.6732C46.5652 43.1594 46.0637 43.0861 45.7212 43.1717C45.3543 43.2695 44.9873 43.5875 44.9873 44.1013C44.9873 44.7373 45.4521 45.1899 45.9536 45.6547C46.2961 45.9849 46.6508 46.3274 46.8465 46.7433L46.8832 46.8044L46.9199 46.7433C47.1156 46.3274 47.4703 45.9971 47.8128 45.6669C48.302 45.1899 48.7791 44.7495 48.7791 44.1135C48.7791 43.5998 48.4121 43.2818 48.0452 43.1839L47.9962 43.2084Z" fill="#341212"/>
<path d="M31.3107 47.0487C31.0906 46.535 29.7696 45.2262 29.2559 45.0061C29.7696 44.7859 31.0783 43.4649 31.2985 42.9512C31.4086 43.2203 31.8367 43.7095 32.2036 44.0765C32.5828 44.4556 33.0721 44.8837 33.3412 44.9938C32.8274 45.214 31.5187 46.535 31.2985 47.0487H31.3107Z" fill="#341212"/>
<path d="M16.6969 43.881C16.3911 43.5874 15.963 43.2694 15.7673 42.9147C15.5716 43.2816 15.1435 43.5874 14.8377 43.881C14.3729 44.3213 13.9448 44.7372 13.9448 45.312C13.9448 45.6912 14.1772 46.0092 14.5442 46.1193C14.9356 46.2416 15.3392 46.0948 15.5838 45.7524L15.6328 45.6423C15.6328 45.7401 15.6328 45.838 15.6328 45.9358C15.6328 46.0092 15.6083 46.0826 15.5838 46.156C15.4615 46.5107 15.1802 46.841 14.9111 47.0978C15.1068 47.0367 15.486 47 15.7673 47C16.0486 47 16.4278 47.0367 16.6235 47.0978C16.3544 46.841 16.0731 46.5107 15.9508 46.156C15.9385 46.0826 15.9141 46.0092 15.9019 45.9358C15.8896 45.838 15.8896 45.7401 15.9019 45.6423L15.9508 45.7524C16.1954 46.0948 16.599 46.2416 16.9905 46.1193C17.3574 46.0092 17.5898 45.6912 17.5898 45.312C17.5898 44.7372 17.1495 44.3213 16.6969 43.881Z" fill="#341212"/>
<path d="M63.8314 44.2236C63.4644 44.2236 63.1342 44.4316 62.9752 44.7374C62.8651 44.8597 62.7061 44.9086 62.5593 44.9453C62.596 44.7374 62.6572 44.5417 62.8039 44.4316C63.1342 44.2848 63.3421 43.9545 63.3421 43.6121C63.3421 43.3797 63.2443 43.1473 63.073 42.976C62.8896 42.7926 62.6449 42.6947 62.3881 42.6947C61.8621 42.6947 61.434 43.1106 61.434 43.6121C61.434 43.9668 61.6542 44.2848 61.9722 44.4316C62.0945 44.5172 62.1679 44.7251 62.2168 44.9453C62.0701 44.9086 61.9111 44.8597 61.801 44.7374C61.642 44.4193 61.2995 44.2236 60.9448 44.2236C60.4188 44.2236 59.9907 44.6395 59.9907 45.141C59.9907 45.6425 60.4188 46.0583 60.9448 46.0583C61.3117 46.0583 61.6787 45.8382 61.8377 45.5079C61.9478 45.3979 62.0823 45.3612 62.2658 45.3245C62.278 45.5691 62.2658 45.8137 62.2413 45.9483C62.0578 46.462 61.593 47.0613 61.3362 47.2693L61.3729 47.3182C61.7031 47.0491 63.073 47.0491 63.4155 47.3182L63.4522 47.2693C63.1954 47.0491 62.6939 46.4008 62.5471 45.9483C62.4982 45.7648 62.5104 45.4345 62.5104 45.3122C62.6816 45.3489 62.8284 45.3734 62.9507 45.4957C63.1097 45.8137 63.4767 46.0461 63.8436 46.0461C64.3696 46.0461 64.7977 45.6302 64.7977 45.1288C64.7977 44.6273 64.3696 44.2114 63.8436 44.2114L63.8314 44.2236Z" fill="#341212"/>
<path d="M93.4772 47.0487C93.2571 46.535 91.9361 45.2262 91.4224 45.0061C91.9361 44.7859 93.2449 43.4649 93.465 42.9512C93.5751 43.2203 94.0032 43.7095 94.3701 44.0765C94.7493 44.4556 95.2386 44.8837 95.5077 44.9938C94.9939 45.214 93.6852 46.535 93.465 47.0487H93.4772Z" fill="#341212"/>
<path d="M78.8634 43.881C78.5576 43.5874 78.1295 43.2694 77.9338 42.9147C77.7381 43.2816 77.31 43.5874 77.0042 43.881C76.5394 44.3213 76.1113 44.7372 76.1113 45.312C76.1113 45.6912 76.3437 46.0092 76.7107 46.1193C77.1021 46.2416 77.5057 46.0948 77.7503 45.7524L77.7993 45.6423C77.7993 45.7401 77.7993 45.838 77.7993 45.9358C77.7993 46.0092 77.7748 46.0826 77.7503 46.156C77.628 46.5107 77.3467 46.841 77.0776 47.0978C77.2733 47.0367 77.6525 47 77.9338 47C78.2151 47 78.5943 47.0367 78.79 47.0978C78.5209 46.841 78.2396 46.5107 78.1173 46.156C78.1051 46.0826 78.0806 46.0092 78.0684 45.9358C78.0561 45.838 78.0561 45.7401 78.0684 45.6423L78.1173 45.7524C78.3619 46.0948 78.7655 46.2416 79.157 46.1193C79.5239 46.0092 79.7563 45.6912 79.7563 45.312C79.7563 44.7372 79.316 44.3213 78.8634 43.881Z" fill="#341212"/>
<path d="M47.9962 74.0563C47.9962 74.0563 47.9473 74.0563 47.9228 74.044C47.9228 74.044 47.9106 74.044 47.8984 74.044C47.8862 74.044 47.8739 74.044 47.8495 74.044C47.8495 74.044 47.825 74.044 47.8128 74.044C47.8005 74.044 47.7883 74.044 47.7761 74.044C47.7761 74.044 47.7516 74.044 47.7394 74.044C47.7271 74.044 47.7149 74.044 47.7027 74.044C47.7027 74.044 47.6782 74.044 47.666 74.044C47.6538 74.044 47.6415 74.044 47.6293 74.044C47.6171 74.044 47.6048 74.044 47.5926 74.044C47.5804 74.044 47.5681 74.044 47.5559 74.044C47.5437 74.044 47.5314 74.044 47.5192 74.044C47.507 74.044 47.4947 74.044 47.4825 74.044C47.4703 74.044 47.4581 74.044 47.4458 74.044C47.4336 74.044 47.4214 74.044 47.4091 74.0563C47.3969 74.0563 47.3847 74.0563 47.3724 74.0685C47.3602 74.0685 47.348 74.0685 47.3357 74.0807C47.3235 74.0807 47.3113 74.0807 47.299 74.1052C47.2868 74.1052 47.2746 74.1174 47.2623 74.1297C47.2623 74.1297 47.2379 74.1419 47.2257 74.1541C47.2134 74.1541 47.2012 74.1663 47.189 74.1786C47.189 74.1786 47.1645 74.1908 47.1523 74.203C47.14 74.203 47.1278 74.2275 47.1156 74.2397C47.1156 74.2397 47.0911 74.2642 47.0789 74.2642C47.0667 74.2642 47.0544 74.2887 47.0422 74.3009C47.0422 74.3009 47.0177 74.3254 47.0055 74.3376C47.0055 74.3498 46.981 74.362 46.9688 74.3743C46.9688 74.3865 46.9443 74.3988 46.9443 74.411C46.9443 74.4232 46.9199 74.4354 46.9076 74.4599C46.9076 74.4721 46.8832 74.4844 46.8832 74.4966C46.8832 74.4966 46.8709 74.5088 46.8709 74.5211C46.5652 74.0073 46.0637 73.934 45.7212 74.0196C45.3543 74.1174 44.9873 74.4354 44.9873 74.9492C44.9873 75.5852 45.4521 76.0378 45.9536 76.5026C46.2961 76.8328 46.6508 77.1753 46.8465 77.5912L46.8832 77.6523L46.9199 77.5912C47.1156 77.1753 47.4703 76.845 47.8128 76.5148C48.302 76.0378 48.7791 75.5974 48.7791 74.9614C48.7791 74.4477 48.4121 74.1297 48.0452 74.0318L47.9962 74.0563Z" fill="#341212"/>
<path d="M31.3107 77.9087C31.0906 77.395 29.7696 76.0862 29.2559 75.866C29.7696 75.6459 31.0783 74.3249 31.2985 73.8112C31.4086 74.0802 31.8367 74.5695 32.2036 74.9365C32.5828 75.3156 33.0721 75.7437 33.3412 75.8538C32.8274 76.074 31.5187 77.395 31.2985 77.9087H31.3107Z" fill="#341212"/>
<path d="M16.6969 74.7287C16.3911 74.4352 15.963 74.1172 15.7673 73.7625C15.5716 74.1294 15.1435 74.4352 14.8377 74.7287C14.3729 75.1691 13.9448 75.5849 13.9448 76.1598C13.9448 76.539 14.1772 76.857 14.5442 76.9671C14.9356 77.0894 15.3392 76.9426 15.5838 76.6002L15.6328 76.4901C15.6328 76.5879 15.6328 76.6858 15.6328 76.7836C15.6328 76.857 15.6083 76.9304 15.5838 77.0038C15.4615 77.3585 15.1802 77.6887 14.9111 77.9456C15.1068 77.8845 15.486 77.8478 15.7673 77.8478C16.0486 77.8478 16.4278 77.8845 16.6235 77.9456C16.3544 77.6887 16.0731 77.3585 15.9508 77.0038C15.9385 76.9304 15.9141 76.857 15.9019 76.7836C15.8896 76.6858 15.8896 76.5879 15.9019 76.4901L15.9508 76.6002C16.1954 76.9426 16.599 77.0894 16.9905 76.9671C17.3574 76.857 17.5898 76.539 17.5898 76.1598C17.5898 75.5849 17.1495 75.1691 16.6969 74.7287Z" fill="#341212"/>
<path d="M63.8314 75.0836C63.4644 75.0836 63.1342 75.2915 62.9752 75.5973C62.8651 75.7196 62.7061 75.7686 62.5593 75.8053C62.596 75.5973 62.6572 75.4016 62.8039 75.2915C63.1342 75.1448 63.3421 74.8145 63.3421 74.472C63.3421 74.2396 63.2443 74.0073 63.073 73.836C62.8896 73.6525 62.6449 73.5547 62.3881 73.5547C61.8621 73.5547 61.434 73.9706 61.434 74.472C61.434 74.8268 61.6542 75.1448 61.9722 75.2915C62.0945 75.3772 62.1679 75.5851 62.2168 75.8053C62.0701 75.7686 61.9111 75.7196 61.801 75.5973C61.642 75.2793 61.2995 75.0836 60.9448 75.0836C60.4188 75.0836 59.9907 75.4995 59.9907 76.001C59.9907 76.5025 60.4188 76.9183 60.9448 76.9183C61.3117 76.9183 61.6787 76.6982 61.8377 76.3679C61.9478 76.2578 62.0823 76.2211 62.2658 76.1844C62.278 76.4291 62.2658 76.6737 62.2413 76.8083C62.0578 77.322 61.593 77.9213 61.3362 78.1293L61.3729 78.1782C61.7031 77.9091 63.073 77.9091 63.4155 78.1782L63.4522 78.1293C63.1954 77.9091 62.6939 77.2608 62.5471 76.8083C62.4982 76.6248 62.5104 76.2945 62.5104 76.1722C62.6816 76.2089 62.8284 76.2334 62.9507 76.3557C63.1097 76.6737 63.4767 76.9061 63.8436 76.9061C64.3696 76.9061 64.7977 76.4902 64.7977 75.9887C64.7977 75.4873 64.3696 75.0714 63.8436 75.0714L63.8314 75.0836Z" fill="#341212"/>
<path d="M93.4772 77.9087C93.2571 77.395 91.9361 76.0862 91.4224 75.866C91.9361 75.6459 93.2449 74.3249 93.465 73.8112C93.5751 74.0802 94.0032 74.5695 94.3701 74.9365C94.7493 75.3156 95.2386 75.7437 95.5077 75.8538C94.9939 76.074 93.6852 77.395 93.465 77.9087H93.4772Z" fill="#341212"/>
<path d="M78.8634 74.7287C78.5576 74.4352 78.1295 74.1172 77.9338 73.7625C77.7381 74.1294 77.31 74.4352 77.0042 74.7287C76.5394 75.1691 76.1113 75.5849 76.1113 76.1598C76.1113 76.539 76.3437 76.857 76.7107 76.9671C77.1021 77.0894 77.5057 76.9426 77.7503 76.6002L77.7993 76.4901C77.7993 76.5879 77.7993 76.6858 77.7993 76.7836C77.7993 76.857 77.7748 76.9304 77.7503 77.0038C77.628 77.3585 77.3467 77.6887 77.0776 77.9456C77.2733 77.8845 77.6525 77.8478 77.9338 77.8478C78.2151 77.8478 78.5943 77.8845 78.79 77.9456C78.5209 77.6887 78.2396 77.3585 78.1173 77.0038C78.1051 76.9304 78.0806 76.857 78.0684 76.7836C78.0561 76.6858 78.0561 76.5879 78.0684 76.4901L78.1173 76.6002C78.3619 76.9426 78.7655 77.0894 79.157 76.9671C79.5239 76.857 79.7563 76.539 79.7563 76.1598C79.7563 75.5849 79.316 75.1691 78.8634 74.7287Z" fill="#341212"/>
<path d="M47.9962 104.904C47.9962 104.904 47.9473 104.904 47.9228 104.892C47.9228 104.892 47.9106 104.892 47.8984 104.892C47.8862 104.892 47.8739 104.892 47.8495 104.892C47.8495 104.892 47.825 104.892 47.8128 104.892C47.8005 104.892 47.7883 104.892 47.7761 104.892C47.7761 104.892 47.7516 104.892 47.7394 104.892C47.7271 104.892 47.7149 104.892 47.7027 104.892C47.7027 104.892 47.6782 104.892 47.666 104.892C47.6538 104.892 47.6415 104.892 47.6293 104.892C47.6171 104.892 47.6048 104.892 47.5926 104.892C47.5804 104.892 47.5681 104.892 47.5559 104.892C47.5437 104.892 47.5314 104.892 47.5192 104.892C47.507 104.892 47.4947 104.892 47.4825 104.892C47.4703 104.892 47.4581 104.892 47.4458 104.892C47.4336 104.892 47.4214 104.892 47.4091 104.904C47.3969 104.904 47.3847 104.904 47.3724 104.916C47.3602 104.916 47.348 104.916 47.3357 104.928C47.3235 104.928 47.3113 104.928 47.299 104.953C47.2868 104.953 47.2746 104.965 47.2623 104.977C47.2623 104.977 47.2379 104.99 47.2257 105.002C47.2134 105.002 47.2012 105.014 47.189 105.026C47.189 105.026 47.1645 105.038 47.1523 105.051C47.14 105.051 47.1278 105.075 47.1156 105.087C47.1156 105.087 47.0911 105.112 47.0789 105.112C47.0667 105.112 47.0544 105.136 47.0422 105.149C47.0422 105.149 47.0177 105.173 47.0055 105.185C47.0055 105.197 46.981 105.21 46.9688 105.222C46.9688 105.234 46.9443 105.246 46.9443 105.259C46.9443 105.271 46.9199 105.283 46.9076 105.308C46.9076 105.32 46.8832 105.332 46.8832 105.344C46.8832 105.344 46.8709 105.356 46.8709 105.369C46.5652 104.855 46.0637 104.782 45.7212 104.867C45.3543 104.965 44.9873 105.283 44.9873 105.797C44.9873 106.433 45.4521 106.885 45.9536 107.35C46.2961 107.68 46.6508 108.023 46.8465 108.439L46.8832 108.5L46.9199 108.439C47.1156 108.023 47.4703 107.693 47.8128 107.362C48.302 106.885 48.7791 106.445 48.7791 105.809C48.7791 105.295 48.4121 104.977 48.0452 104.879L47.9962 104.904Z" fill="#341212"/>
<path d="M31.3107 108.756C31.0906 108.243 29.7696 106.934 29.2559 106.714C29.7696 106.494 31.0783 105.173 31.2985 104.659C31.4086 104.928 31.8367 105.417 32.2036 105.784C32.5828 106.163 33.0721 106.591 33.3412 106.702C32.8274 106.922 31.5187 108.243 31.2985 108.756H31.3107Z" fill="#341212"/>
<path d="M16.6969 105.577C16.3911 105.283 15.963 104.965 15.7673 104.61C15.5716 104.977 15.1435 105.283 14.8377 105.577C14.3729 106.017 13.9448 106.433 13.9448 107.008C13.9448 107.387 14.1772 107.705 14.5442 107.815C14.9356 107.937 15.3392 107.79 15.5838 107.448L15.6328 107.338C15.6328 107.436 15.6328 107.534 15.6328 107.631C15.6328 107.705 15.6083 107.778 15.5838 107.852C15.4615 108.206 15.1802 108.537 14.9111 108.793C15.1068 108.732 15.486 108.696 15.7673 108.696C16.0486 108.696 16.4278 108.732 16.6235 108.793C16.3544 108.537 16.0731 108.206 15.9508 107.852C15.9385 107.778 15.9141 107.705 15.9019 107.631C15.8896 107.534 15.8896 107.436 15.9019 107.338L15.9508 107.448C16.1954 107.79 16.599 107.937 16.9905 107.815C17.3574 107.705 17.5898 107.387 17.5898 107.008C17.5898 106.433 17.1495 106.017 16.6969 105.577Z" fill="#341212"/>
<path d="M63.8314 105.931C63.4644 105.931 63.1342 106.139 62.9752 106.445C62.8651 106.567 62.7061 106.616 62.5593 106.653C62.596 106.445 62.6572 106.249 62.8039 106.139C63.1342 105.992 63.3421 105.662 63.3421 105.32C63.3421 105.087 63.2443 104.855 63.073 104.684C62.8896 104.5 62.6449 104.402 62.3881 104.402C61.8621 104.402 61.434 104.818 61.434 105.32C61.434 105.674 61.6542 105.992 61.9722 106.139C62.0945 106.225 62.1679 106.433 62.2168 106.653C62.0701 106.616 61.9111 106.567 61.801 106.445C61.642 106.127 61.2995 105.931 60.9448 105.931C60.4188 105.931 59.9907 106.347 59.9907 106.849C59.9907 107.35 60.4188 107.766 60.9448 107.766C61.3117 107.766 61.6787 107.546 61.8377 107.216C61.9478 107.106 62.0823 107.069 62.2658 107.032C62.278 107.277 62.2658 107.521 62.2413 107.656C62.0578 108.17 61.593 108.769 61.3362 108.977L61.3729 109.026C61.7031 108.757 63.073 108.757 63.4155 109.026L63.4522 108.977C63.1954 108.757 62.6939 108.109 62.5471 107.656C62.4982 107.472 62.5104 107.142 62.5104 107.02C62.6816 107.057 62.8284 107.081 62.9507 107.203C63.1097 107.521 63.4767 107.754 63.8436 107.754C64.3696 107.754 64.7977 107.338 64.7977 106.836C64.7977 106.335 64.3696 105.919 63.8436 105.919L63.8314 105.931Z" fill="#341212"/>
<path d="M93.4772 108.756C93.2571 108.243 91.9361 106.934 91.4224 106.714C91.9361 106.494 93.2449 105.173 93.465 104.659C93.5751 104.928 94.0032 105.417 94.3701 105.784C94.7493 106.163 95.2386 106.591 95.5077 106.702C94.9939 106.922 93.6852 108.243 93.465 108.756H93.4772Z" fill="#341212"/>
<path d="M78.8634 105.577C78.5576 105.283 78.1295 104.965 77.9338 104.61C77.7381 104.977 77.31 105.283 77.0042 105.577C76.5394 106.017 76.1113 106.433 76.1113 107.008C76.1113 107.387 76.3437 107.705 76.7107 107.815C77.1021 107.937 77.5057 107.79 77.7503 107.448L77.7993 107.338C77.7993 107.436 77.7993 107.534 77.7993 107.631C77.7993 107.705 77.7748 107.778 77.7503 107.852C77.628 108.206 77.3467 108.537 77.0776 108.793C77.2733 108.732 77.6525 108.696 77.9338 108.696C78.2151 108.696 78.5943 108.732 78.79 108.793C78.5209 108.537 78.2396 108.206 78.1173 107.852C78.1051 107.778 78.0806 107.705 78.0684 107.631C78.0561 107.534 78.0561 107.436 78.0684 107.338L78.1173 107.448C78.3619 107.79 78.7655 107.937 79.157 107.815C79.5239 107.705 79.7563 107.387 79.7563 107.008C79.7563 106.433 79.316 106.017 78.8634 105.577Z" fill="#341212"/>
<path d="M17.172 27.9684C17.172 27.9684 17.1231 27.9684 17.0986 27.9561C17.0986 27.9561 17.0864 27.9561 17.0742 27.9561C17.0619 27.9561 17.0497 27.9561 17.0252 27.9561C17.0252 27.9561 17.0008 27.9561 16.9885 27.9561C16.9763 27.9561 16.9641 27.9561 16.9519 27.9561C16.9519 27.9561 16.9274 27.9561 16.9152 27.9561C16.9029 27.9561 16.8907 27.9561 16.8785 27.9561C16.8785 27.9561 16.854 27.9561 16.8418 27.9561C16.8295 27.9561 16.8173 27.9561 16.8051 27.9561C16.7928 27.9561 16.7806 27.9561 16.7684 27.9561C16.7562 27.9561 16.7439 27.9561 16.7317 27.9561C16.7195 27.9561 16.7072 27.9561 16.695 27.9561C16.6828 27.9561 16.6705 27.9561 16.6583 27.9561C16.6461 27.9561 16.6338 27.9561 16.6216 27.9561C16.6094 27.9561 16.5971 27.9562 16.5849 27.9684C16.5727 27.9684 16.5604 27.9684 16.5482 27.9806C16.536 27.9806 16.5238 27.9806 16.5115 27.9928C16.4993 27.9928 16.4871 27.9928 16.4748 28.0173C16.4626 28.0173 16.4504 28.0295 16.4381 28.0418C16.4381 28.0418 16.4137 28.054 16.4014 28.0662C16.3892 28.0662 16.377 28.0785 16.3647 28.0907C16.3647 28.0907 16.3403 28.1029 16.3281 28.1152C16.3158 28.1152 16.3036 28.1396 16.2914 28.1519C16.2914 28.1519 16.2669 28.1763 16.2547 28.1763C16.2424 28.1763 16.2302 28.2008 16.218 28.213C16.218 28.213 16.1935 28.2375 16.1813 28.2497C16.1813 28.2619 16.1568 28.2742 16.1446 28.2864C16.1446 28.2986 16.1201 28.3109 16.1201 28.3231C16.1201 28.3353 16.0957 28.3476 16.0834 28.372C16.0834 28.3842 16.059 28.3965 16.059 28.4087C16.059 28.4087 16.0467 28.4209 16.0467 28.4332C15.7409 27.9195 15.2395 27.8461 14.897 27.9317C14.53 28.0295 14.1631 28.3476 14.1631 28.8613C14.1631 29.4973 14.6279 29.9499 15.1294 30.4147C15.4719 30.7449 15.8266 31.0874 16.0223 31.5033L16.059 31.5644L16.0957 31.5033C16.2914 31.0874 16.6461 30.7571 16.9885 30.4269C17.4778 29.9499 17.9548 29.5095 17.9548 28.8735C17.9548 28.3598 17.5879 28.0418 17.2209 27.9439L17.172 27.9684Z" fill="#341212"/>
<path d="M33.0272 28.9836C32.6603 28.9836 32.33 29.1916 32.171 29.4974C32.0609 29.6197 31.9019 29.6686 31.7551 29.7053C31.7918 29.4974 31.853 29.3017 31.9998 29.1916C32.33 29.0448 32.5379 28.7145 32.5379 28.3721C32.5379 28.1397 32.4401 27.9073 32.2688 27.736C32.0854 27.5526 31.8407 27.4547 31.5839 27.4547C31.0579 27.4547 30.6298 27.8706 30.6298 28.3721C30.6298 28.7268 30.85 29.0448 31.168 29.1916C31.2903 29.2772 31.3637 29.4851 31.4126 29.7053C31.2659 29.6686 31.1069 29.6197 30.9968 29.4974C30.8378 29.1793 30.4953 28.9836 30.1406 28.9836C29.6146 28.9836 29.1865 29.3995 29.1865 29.901C29.1865 30.4025 29.6146 30.8184 30.1406 30.8184C30.4953 30.8184 30.8378 30.6104 31.0212 30.3046C31.0335 30.2802 31.0457 30.2557 31.0702 30.2435C31.0702 30.2435 31.0946 30.2313 31.0946 30.219C31.2536 30.0967 31.486 30.2435 31.4738 30.4392C31.4738 30.537 31.4616 30.6349 31.4493 30.696C31.4493 30.7083 31.4493 30.7205 31.4371 30.7327C31.2414 31.2342 30.7888 31.8213 30.5442 32.0293L30.5809 32.0782C30.9112 31.8091 32.2811 31.8091 32.6236 32.0782L32.6603 32.0293C32.4034 31.8213 31.9141 31.1853 31.7674 30.7327C31.7674 30.7327 31.7674 30.7083 31.7674 30.696C31.7551 30.6227 31.7429 30.5248 31.7307 30.4392C31.7307 30.219 31.9753 30.0967 32.1343 30.2435C32.1343 30.2435 32.1465 30.2557 32.1588 30.2679C32.3178 30.586 32.6847 30.8184 33.0517 30.8184C33.5776 30.8184 34.0057 30.4025 34.0057 29.901C34.0057 29.3995 33.5776 28.9836 33.0517 28.9836H33.0272Z" fill="#341212"/>
<path d="M79.3585 27.9684C79.3585 27.9684 79.3096 27.9684 79.2851 27.9561C79.2851 27.9561 79.2729 27.9561 79.2607 27.9561C79.2485 27.9561 79.2362 27.9561 79.2118 27.9561C79.2118 27.9561 79.1873 27.9561 79.1751 27.9561C79.1628 27.9561 79.1506 27.9561 79.1384 27.9561C79.1384 27.9561 79.1139 27.9561 79.1017 27.9561C79.0895 27.9561 79.0772 27.9561 79.065 27.9561C79.065 27.9561 79.0405 27.9561 79.0283 27.9561C79.0161 27.9561 79.0038 27.9561 78.9916 27.9561C78.9794 27.9561 78.9671 27.9561 78.9549 27.9561C78.9427 27.9561 78.9304 27.9561 78.9182 27.9561C78.906 27.9561 78.8937 27.9561 78.8815 27.9561C78.8693 27.9561 78.857 27.9561 78.8448 27.9561C78.8326 27.9561 78.8204 27.9561 78.8081 27.9561C78.7959 27.9561 78.7837 27.9562 78.7714 27.9684C78.7592 27.9684 78.747 27.9684 78.7347 27.9806C78.7225 27.9806 78.7103 27.9806 78.698 27.9928C78.6858 27.9928 78.6736 27.9928 78.6614 28.0173C78.6491 28.0173 78.6369 28.0295 78.6246 28.0418C78.6246 28.0418 78.6002 28.054 78.588 28.0662C78.5757 28.0662 78.5635 28.0785 78.5513 28.0907C78.5513 28.0907 78.5268 28.1029 78.5146 28.1152C78.5023 28.1152 78.4901 28.1396 78.4779 28.1519C78.4779 28.1519 78.4534 28.1763 78.4412 28.1763C78.429 28.1763 78.4167 28.2008 78.4045 28.213C78.4045 28.213 78.38 28.2375 78.3678 28.2497C78.3678 28.2619 78.3433 28.2742 78.3311 28.2864C78.3311 28.2986 78.3066 28.3109 78.3066 28.3231C78.3066 28.3353 78.2822 28.3476 78.2699 28.372C78.2699 28.3842 78.2455 28.3965 78.2455 28.4087C78.2455 28.4087 78.2332 28.4209 78.2332 28.4332C77.9275 27.9195 77.426 27.8461 77.0835 27.9317C76.7166 28.0295 76.3496 28.3476 76.3496 28.8613C76.3496 29.4973 76.8144 29.9499 77.3159 30.4147C77.6584 30.7449 78.0131 31.0874 78.2088 31.5033L78.2455 31.5644L78.2822 31.5033C78.4779 31.0874 78.8326 30.7571 79.1751 30.4269C79.6643 29.9499 80.1414 29.5095 80.1414 28.8735C80.1414 28.3598 79.7744 28.0418 79.4075 27.9439L79.3585 27.9684Z" fill="#341212"/>
<path d="M62.4814 31.4912C62.1267 31.0142 61.4295 30.317 60.9403 29.9623C60.8057 29.8644 60.8057 29.6687 60.9403 29.5709C61.4173 29.2162 62.1145 28.519 62.4692 28.0297C62.567 27.8952 62.7627 27.9074 62.8606 28.0297C63.0441 28.2866 63.3254 28.5801 63.57 28.8248C63.8269 29.0816 64.1327 29.363 64.3895 29.5464C64.5241 29.6443 64.5241 29.84 64.3895 29.9378C63.9125 30.2925 63.2153 30.9897 62.8606 31.479C62.7627 31.6135 62.567 31.6135 62.4692 31.479L62.4814 31.4912Z" fill="#341212"/>
<path d="M48.0504 28.641C47.7446 28.3474 47.3165 28.0294 47.1208 27.6747C46.9251 28.0416 46.497 28.3474 46.1912 28.641C45.7264 29.0813 45.2983 29.4972 45.2983 30.072C45.2983 30.4512 45.5307 30.7692 45.8977 30.8793C46.2891 31.0016 46.6927 30.8549 46.9374 30.5124L46.9863 30.4023C46.9863 30.5001 46.9863 30.598 46.9863 30.6958C46.9863 30.7692 46.9618 30.8304 46.9496 30.9038C46.9496 30.9038 46.9496 30.9282 46.9496 30.9405C46.9007 31.0873 46.815 31.234 46.7172 31.3808C46.5949 31.552 46.7172 31.7844 46.9251 31.7722C46.9985 31.7722 47.0841 31.7722 47.1453 31.7722C47.2187 31.7722 47.2921 31.7722 47.3655 31.7722C47.5734 31.7722 47.6957 31.552 47.5734 31.3808C47.4755 31.2463 47.3899 31.0995 47.341 30.9405C47.341 30.9405 47.341 30.916 47.341 30.9038C47.3288 30.8426 47.3165 30.7692 47.3043 30.6958C47.2921 30.598 47.2921 30.5001 47.3043 30.4023L47.3532 30.5124C47.5979 30.8549 48.0015 31.0016 48.3929 30.8793C48.7598 30.7692 48.9922 30.4512 48.9922 30.072C48.9922 29.4972 48.5519 29.0813 48.0993 28.641H48.0504Z" fill="#341212"/>
<path d="M95.3915 28.9836C95.0245 28.9836 94.6943 29.1916 94.5353 29.4974C94.4252 29.6197 94.2662 29.6686 94.1194 29.7053C94.1561 29.4974 94.2172 29.3017 94.364 29.1916C94.6943 29.0448 94.9022 28.7145 94.9022 28.3721C94.9022 28.1397 94.8043 27.9073 94.6331 27.736C94.4496 27.5526 94.205 27.4547 93.9482 27.4547C93.4222 27.4547 92.9941 27.8706 92.9941 28.3721C92.9941 28.7268 93.2143 29.0448 93.5323 29.1916C93.6546 29.2772 93.728 29.4851 93.7769 29.7053C93.6301 29.6686 93.4711 29.6197 93.361 29.4974C93.202 29.1793 92.8596 28.9836 92.5048 28.9836C91.9789 28.9836 91.5508 29.3995 91.5508 29.901C91.5508 30.4025 91.9789 30.8184 92.5048 30.8184C92.8596 30.8184 93.202 30.6104 93.3855 30.3046C93.3977 30.2802 93.41 30.2557 93.4344 30.2435C93.4344 30.2435 93.4589 30.2313 93.4589 30.219C93.6179 30.0967 93.8503 30.2435 93.8381 30.4392C93.8381 30.537 93.8258 30.6349 93.8136 30.696C93.8136 30.7083 93.8136 30.7205 93.8014 30.7327C93.6057 31.2342 93.1531 31.8213 92.9085 32.0293L92.9452 32.0782C93.2754 31.8091 94.6453 31.8091 94.9878 32.0782L95.0245 32.0293C94.7677 31.8213 94.2784 31.1853 94.1316 30.7327C94.1316 30.7327 94.1316 30.7083 94.1316 30.696C94.1194 30.6227 94.1072 30.5248 94.0949 30.4392C94.0949 30.219 94.3396 30.0967 94.4986 30.2435C94.4986 30.2435 94.5108 30.2557 94.523 30.2679C94.682 30.586 95.049 30.8184 95.4159 30.8184C95.9419 30.8184 96.37 30.4025 96.37 29.901C96.37 29.3995 95.9419 28.9836 95.4159 28.9836H95.3915Z" fill="#341212"/>
<path d="M17.172 58.8171C17.172 58.8171 17.1231 58.8171 17.0986 58.8049C17.0986 58.8049 17.0864 58.8049 17.0742 58.8049C17.0619 58.8049 17.0497 58.8049 17.0252 58.8049C17.0252 58.8049 17.0008 58.8049 16.9885 58.8049C16.9763 58.8049 16.9641 58.8049 16.9519 58.8049C16.9519 58.8049 16.9274 58.8049 16.9152 58.8049C16.9029 58.8049 16.8907 58.8049 16.8785 58.8049C16.8785 58.8049 16.854 58.8049 16.8418 58.8049C16.8295 58.8049 16.8173 58.8049 16.8051 58.8049C16.7928 58.8049 16.7806 58.8049 16.7684 58.8049C16.7562 58.8049 16.7439 58.8049 16.7317 58.8049C16.7195 58.8049 16.7072 58.8049 16.695 58.8049C16.6828 58.8049 16.6705 58.8049 16.6583 58.8049C16.6461 58.8049 16.6338 58.8049 16.6216 58.8049C16.6094 58.8049 16.5971 58.8049 16.5849 58.8171C16.5727 58.8171 16.5604 58.8171 16.5482 58.8294C16.536 58.8294 16.5238 58.8294 16.5115 58.8416C16.4993 58.8416 16.4871 58.8416 16.4748 58.8661C16.4626 58.8661 16.4504 58.8783 16.4381 58.8905C16.4381 58.8905 16.4137 58.9028 16.4014 58.915C16.3892 58.915 16.377 58.9272 16.3647 58.9394C16.3647 58.9394 16.3403 58.9517 16.3281 58.9639C16.3158 58.9639 16.3036 58.9884 16.2914 59.0006C16.2914 59.0006 16.2669 59.0251 16.2547 59.0251C16.2424 59.0251 16.2302 59.0495 16.218 59.0618C16.218 59.0618 16.1935 59.0862 16.1813 59.0985C16.1813 59.1107 16.1568 59.1229 16.1446 59.1352C16.1446 59.1474 16.1201 59.1596 16.1201 59.1718C16.1201 59.1841 16.0957 59.1963 16.0834 59.2208C16.0834 59.233 16.059 59.2452 16.059 59.2575C16.059 59.2575 16.0467 59.2697 16.0467 59.2819C15.7409 58.7682 15.2395 58.6948 14.897 58.7804C14.53 58.8783 14.1631 59.1963 14.1631 59.71C14.1631 60.3461 14.6279 60.7986 15.1294 61.2634C15.4719 61.5937 15.8266 61.9362 16.0223 62.352L16.059 62.4132L16.0957 62.352C16.2914 61.9362 16.6461 61.6059 16.9885 61.2756C17.4778 60.7986 17.9548 60.3583 17.9548 59.7223C17.9548 59.2085 17.5879 58.8905 17.2209 58.7927L17.172 58.8171Z" fill="#341212"/>
<path d="M33.0272 59.8324C32.6603 59.8324 32.33 60.0403 32.171 60.3461C32.0609 60.4684 31.9019 60.5174 31.7551 60.5541C31.7918 60.3461 31.853 60.1504 31.9998 60.0403C32.33 59.8936 32.5379 59.5633 32.5379 59.2208C32.5379 58.9884 32.4401 58.756 32.2688 58.5848C32.0854 58.4013 31.8407 58.3035 31.5839 58.3035C31.0579 58.3035 30.6298 58.7193 30.6298 59.2208C30.6298 59.5755 30.85 59.8936 31.168 60.0403C31.2903 60.126 31.3637 60.3339 31.4126 60.5541C31.2659 60.5174 31.1069 60.4684 30.9968 60.3461C30.8378 60.0281 30.4953 59.8324 30.1406 59.8324C29.6146 59.8324 29.1865 60.2483 29.1865 60.7497C29.1865 61.2512 29.6146 61.6671 30.1406 61.6671C30.4953 61.6671 30.8378 61.4592 31.0212 61.1534C31.0335 61.1289 31.0457 61.1045 31.0702 61.0922C31.0702 61.0922 31.0946 61.08 31.0946 61.0678C31.2536 60.9455 31.486 61.0922 31.4738 61.2879C31.4738 61.3858 31.4616 61.4836 31.4493 61.5448C31.4493 61.557 31.4493 61.5693 31.4371 61.5815C31.2414 62.083 30.7888 62.6701 30.5442 62.878L30.5809 62.927C30.9112 62.6579 32.2811 62.6579 32.6236 62.927L32.6603 62.878C32.4034 62.6701 31.9141 62.034 31.7674 61.5815C31.7674 61.5815 31.7674 61.557 31.7674 61.5448C31.7551 61.4714 31.7429 61.3736 31.7307 61.2879C31.7307 61.0678 31.9753 60.9455 32.1343 61.0922C32.1343 61.0922 32.1465 61.1045 32.1588 61.1167C32.3178 61.4347 32.6847 61.6671 33.0517 61.6671C33.5776 61.6671 34.0057 61.2512 34.0057 60.7497C34.0057 60.2483 33.5776 59.8324 33.0517 59.8324H33.0272Z" fill="#341212"/>
<path d="M79.3585 58.8171C79.3585 58.8171 79.3096 58.8171 79.2851 58.8049C79.2851 58.8049 79.2729 58.8049 79.2607 58.8049C79.2485 58.8049 79.2362 58.8049 79.2118 58.8049C79.2118 58.8049 79.1873 58.8049 79.1751 58.8049C79.1628 58.8049 79.1506 58.8049 79.1384 58.8049C79.1384 58.8049 79.1139 58.8049 79.1017 58.8049C79.0895 58.8049 79.0772 58.8049 79.065 58.8049C79.065 58.8049 79.0405 58.8049 79.0283 58.8049C79.0161 58.8049 79.0038 58.8049 78.9916 58.8049C78.9794 58.8049 78.9671 58.8049 78.9549 58.8049C78.9427 58.8049 78.9304 58.8049 78.9182 58.8049C78.906 58.8049 78.8937 58.8049 78.8815 58.8049C78.8693 58.8049 78.857 58.8049 78.8448 58.8049C78.8326 58.8049 78.8204 58.8049 78.8081 58.8049C78.7959 58.8049 78.7837 58.8049 78.7714 58.8171C78.7592 58.8171 78.747 58.8171 78.7347 58.8294C78.7225 58.8294 78.7103 58.8294 78.698 58.8416C78.6858 58.8416 78.6736 58.8416 78.6614 58.8661C78.6491 58.8661 78.6369 58.8783 78.6246 58.8905C78.6246 58.8905 78.6002 58.9028 78.588 58.915C78.5757 58.915 78.5635 58.9272 78.5513 58.9394C78.5513 58.9394 78.5268 58.9517 78.5146 58.9639C78.5023 58.9639 78.4901 58.9884 78.4779 59.0006C78.4779 59.0006 78.4534 59.0251 78.4412 59.0251C78.429 59.0251 78.4167 59.0495 78.4045 59.0618C78.4045 59.0618 78.38 59.0862 78.3678 59.0985C78.3678 59.1107 78.3433 59.1229 78.3311 59.1352C78.3311 59.1474 78.3066 59.1596 78.3066 59.1718C78.3066 59.1841 78.2822 59.1963 78.2699 59.2208C78.2699 59.233 78.2455 59.2452 78.2455 59.2575C78.2455 59.2575 78.2332 59.2697 78.2332 59.2819C77.9275 58.7682 77.426 58.6948 77.0835 58.7804C76.7166 58.8783 76.3496 59.1963 76.3496 59.71C76.3496 60.3461 76.8144 60.7986 77.3159 61.2634C77.6584 61.5937 78.0131 61.9362 78.2088 62.352L78.2455 62.4132L78.2822 62.352C78.4779 61.9362 78.8326 61.6059 79.1751 61.2756C79.6643 60.7986 80.1414 60.3583 80.1414 59.7223C80.1414 59.2085 79.7744 58.8905 79.4075 58.7927L79.3585 58.8171Z" fill="#341212"/>
<path d="M62.4814 62.34C62.1267 61.863 61.4295 61.1658 60.9403 60.8111C60.8057 60.7132 60.8057 60.5175 60.9403 60.4196C61.4173 60.0649 62.1145 59.3677 62.4692 58.8785C62.567 58.7439 62.7627 58.7562 62.8606 58.8785C63.0441 59.1353 63.3254 59.4289 63.57 59.6735C63.8269 59.9304 64.1327 60.2117 64.3895 60.3952C64.5241 60.493 64.5241 60.6887 64.3895 60.7866C63.9125 61.1413 63.2153 61.8385 62.8606 62.3277C62.7627 62.4623 62.567 62.4623 62.4692 62.3277L62.4814 62.34Z" fill="#341212"/>
<path d="M48.0504 59.4897C47.7446 59.1962 47.3165 58.8781 47.1208 58.5234C46.9251 58.8904 46.497 59.1962 46.1912 59.4897C45.7264 59.93 45.2983 60.3459 45.2983 60.9208C45.2983 61.3 45.5307 61.618 45.8977 61.7281C46.2891 61.8504 46.6927 61.7036 46.9374 61.3611L46.9863 61.251C46.9863 61.3489 46.9863 61.4467 46.9863 61.5446C46.9863 61.618 46.9618 61.6791 46.9496 61.7525C46.9496 61.7525 46.9496 61.777 46.9496 61.7892C46.9007 61.936 46.815 62.0828 46.7172 62.2296C46.5949 62.4008 46.7172 62.6332 46.9251 62.621C46.9985 62.621 47.0841 62.621 47.1453 62.621C47.2187 62.621 47.2921 62.621 47.3655 62.621C47.5734 62.621 47.6957 62.4008 47.5734 62.2296C47.4755 62.095 47.3899 61.9482 47.341 61.7892C47.341 61.7892 47.341 61.7648 47.341 61.7525C47.3288 61.6914 47.3165 61.618 47.3043 61.5446C47.2921 61.4467 47.2921 61.3489 47.3043 61.251L47.3532 61.3611C47.5979 61.7036 48.0015 61.8504 48.3929 61.7281C48.7598 61.618 48.9922 61.3 48.9922 60.9208C48.9922 60.3459 48.5519 59.93 48.0993 59.4897H48.0504Z" fill="#341212"/>
<path d="M95.3915 59.8324C95.0245 59.8324 94.6943 60.0403 94.5353 60.3461C94.4252 60.4684 94.2662 60.5174 94.1194 60.5541C94.1561 60.3461 94.2172 60.1504 94.364 60.0403C94.6943 59.8936 94.9022 59.5633 94.9022 59.2208C94.9022 58.9884 94.8043 58.756 94.6331 58.5848C94.4496 58.4013 94.205 58.3035 93.9482 58.3035C93.4222 58.3035 92.9941 58.7193 92.9941 59.2208C92.9941 59.5755 93.2143 59.8936 93.5323 60.0403C93.6546 60.126 93.728 60.3339 93.7769 60.5541C93.6301 60.5174 93.4711 60.4684 93.361 60.3461C93.202 60.0281 92.8596 59.8324 92.5048 59.8324C91.9789 59.8324 91.5508 60.2483 91.5508 60.7497C91.5508 61.2512 91.9789 61.6671 92.5048 61.6671C92.8596 61.6671 93.202 61.4592 93.3855 61.1534C93.3977 61.1289 93.41 61.1045 93.4344 61.0922C93.4344 61.0922 93.4589 61.08 93.4589 61.0678C93.6179 60.9455 93.8503 61.0922 93.8381 61.2879C93.8381 61.3858 93.8258 61.4836 93.8136 61.5448C93.8136 61.557 93.8136 61.5693 93.8014 61.5815C93.6057 62.083 93.1531 62.6701 92.9085 62.878L92.9452 62.927C93.2754 62.6579 94.6453 62.6579 94.9878 62.927L95.0245 62.878C94.7677 62.6701 94.2784 62.034 94.1316 61.5815C94.1316 61.5815 94.1316 61.557 94.1316 61.5448C94.1194 61.4714 94.1072 61.3736 94.0949 61.2879C94.0949 61.0678 94.3396 60.9455 94.4986 61.0922C94.4986 61.0922 94.5108 61.1045 94.523 61.1167C94.682 61.4347 95.049 61.6671 95.4159 61.6671C95.9419 61.6671 96.37 61.2512 96.37 60.7497C96.37 60.2483 95.9419 59.8324 95.4159 59.8324H95.3915Z" fill="#341212"/>
<path d="M17.172 89.6634C17.172 89.6634 17.1231 89.6635 17.0986 89.6512C17.0986 89.6512 17.0864 89.6512 17.0742 89.6512C17.0619 89.6512 17.0497 89.6512 17.0252 89.6512C17.0252 89.6512 17.0008 89.6512 16.9885 89.6512C16.9763 89.6512 16.9641 89.6512 16.9519 89.6512C16.9519 89.6512 16.9274 89.6512 16.9152 89.6512C16.9029 89.6512 16.8907 89.6512 16.8785 89.6512C16.8785 89.6512 16.854 89.6512 16.8418 89.6512C16.8295 89.6512 16.8173 89.6512 16.8051 89.6512C16.7928 89.6512 16.7806 89.6512 16.7684 89.6512C16.7562 89.6512 16.7439 89.6512 16.7317 89.6512C16.7195 89.6512 16.7072 89.6512 16.695 89.6512C16.6828 89.6512 16.6705 89.6512 16.6583 89.6512C16.6461 89.6512 16.6338 89.6512 16.6216 89.6512C16.6094 89.6512 16.5971 89.6512 16.5849 89.6634C16.5727 89.6634 16.5604 89.6634 16.5482 89.6757C16.536 89.6757 16.5238 89.6757 16.5115 89.6879C16.4993 89.6879 16.4871 89.6879 16.4748 89.7124C16.4626 89.7124 16.4504 89.7246 16.4381 89.7368C16.4381 89.7368 16.4137 89.7491 16.4014 89.7613C16.3892 89.7613 16.377 89.7735 16.3647 89.7858C16.3647 89.7858 16.3403 89.798 16.3281 89.8102C16.3158 89.8102 16.3036 89.8347 16.2914 89.8469C16.2914 89.8469 16.2669 89.8714 16.2547 89.8714C16.2424 89.8714 16.2302 89.8958 16.218 89.9081C16.218 89.9081 16.1935 89.9325 16.1813 89.9448C16.1813 89.957 16.1568 89.9692 16.1446 89.9815C16.1446 89.9937 16.1201 90.0059 16.1201 90.0182C16.1201 90.0304 16.0957 90.0426 16.0834 90.0671C16.0834 90.0793 16.059 90.0915 16.059 90.1038C16.059 90.1038 16.0467 90.116 16.0467 90.1282C15.7409 89.6145 15.2395 89.5411 14.897 89.6268C14.53 89.7246 14.1631 90.0426 14.1631 90.5563C14.1631 91.1924 14.6279 91.6449 15.1294 92.1097C15.4719 92.44 15.8266 92.7825 16.0223 93.1983L16.059 93.2595L16.0957 93.1983C16.2914 92.7825 16.6461 92.4522 16.9885 92.122C17.4778 91.6449 17.9548 91.2046 17.9548 90.5686C17.9548 90.0549 17.5879 89.7368 17.2209 89.639L17.172 89.6634Z" fill="#341212"/>
<path d="M33.0272 90.6787C32.6603 90.6787 32.33 90.8866 32.171 91.1924C32.0609 91.3147 31.9019 91.3637 31.7551 91.4004C31.7918 91.1924 31.853 90.9967 31.9998 90.8866C32.33 90.7399 32.5379 90.4096 32.5379 90.0671C32.5379 89.8347 32.4401 89.6023 32.2688 89.4311C32.0854 89.2476 31.8407 89.1498 31.5839 89.1498C31.0579 89.1498 30.6298 89.5656 30.6298 90.0671C30.6298 90.4218 30.85 90.7399 31.168 90.8866C31.2903 90.9723 31.3637 91.1802 31.4126 91.4004C31.2659 91.3637 31.1069 91.3147 30.9968 91.1924C30.8378 90.8744 30.4953 90.6787 30.1406 90.6787C29.6146 90.6787 29.1865 91.0946 29.1865 91.5961C29.1865 92.0976 29.6146 92.5134 30.1406 92.5134C30.4953 92.5134 30.8378 92.3055 31.0212 91.9997C31.0335 91.9752 31.0457 91.9508 31.0702 91.9385C31.0702 91.9385 31.0946 91.9263 31.0946 91.9141C31.2536 91.7918 31.486 91.9386 31.4738 92.1343C31.4738 92.2321 31.4616 92.33 31.4493 92.3911C31.4493 92.4033 31.4493 92.4156 31.4371 92.4278C31.2414 92.9293 30.7888 93.5164 30.5442 93.7243L30.5809 93.7733C30.9112 93.5042 32.2811 93.5042 32.6236 93.7733L32.6603 93.7243C32.4034 93.5164 31.9141 92.8804 31.7674 92.4278C31.7674 92.4278 31.7674 92.4033 31.7674 92.3911C31.7551 92.3177 31.7429 92.2199 31.7307 92.1343C31.7307 91.9141 31.9753 91.7918 32.1343 91.9385C32.1343 91.9385 32.1465 91.9508 32.1588 91.963C32.3178 92.281 32.6847 92.5134 33.0517 92.5134C33.5776 92.5134 34.0057 92.0976 34.0057 91.5961C34.0057 91.0946 33.5776 90.6787 33.0517 90.6787H33.0272Z" fill="#341212"/>
<path d="M79.3585 89.6634C79.3585 89.6634 79.3096 89.6635 79.2851 89.6512C79.2851 89.6512 79.2729 89.6512 79.2607 89.6512C79.2485 89.6512 79.2362 89.6512 79.2118 89.6512C79.2118 89.6512 79.1873 89.6512 79.1751 89.6512C79.1628 89.6512 79.1506 89.6512 79.1384 89.6512C79.1384 89.6512 79.1139 89.6512 79.1017 89.6512C79.0895 89.6512 79.0772 89.6512 79.065 89.6512C79.065 89.6512 79.0405 89.6512 79.0283 89.6512C79.0161 89.6512 79.0038 89.6512 78.9916 89.6512C78.9794 89.6512 78.9671 89.6512 78.9549 89.6512C78.9427 89.6512 78.9304 89.6512 78.9182 89.6512C78.906 89.6512 78.8937 89.6512 78.8815 89.6512C78.8693 89.6512 78.857 89.6512 78.8448 89.6512C78.8326 89.6512 78.8204 89.6512 78.8081 89.6512C78.7959 89.6512 78.7837 89.6512 78.7714 89.6634C78.7592 89.6634 78.747 89.6634 78.7347 89.6757C78.7225 89.6757 78.7103 89.6757 78.698 89.6879C78.6858 89.6879 78.6736 89.6879 78.6614 89.7124C78.6491 89.7124 78.6369 89.7246 78.6246 89.7368C78.6246 89.7368 78.6002 89.7491 78.588 89.7613C78.5757 89.7613 78.5635 89.7735 78.5513 89.7858C78.5513 89.7858 78.5268 89.798 78.5146 89.8102C78.5023 89.8102 78.4901 89.8347 78.4779 89.8469C78.4779 89.8469 78.4534 89.8714 78.4412 89.8714C78.429 89.8714 78.4167 89.8958 78.4045 89.9081C78.4045 89.9081 78.38 89.9325 78.3678 89.9448C78.3678 89.957 78.3433 89.9692 78.3311 89.9815C78.3311 89.9937 78.3066 90.0059 78.3066 90.0182C78.3066 90.0304 78.2822 90.0426 78.2699 90.0671C78.2699 90.0793 78.2455 90.0915 78.2455 90.1038C78.2455 90.1038 78.2332 90.116 78.2332 90.1282C77.9275 89.6145 77.426 89.5411 77.0835 89.6268C76.7166 89.7246 76.3496 90.0426 76.3496 90.5563C76.3496 91.1924 76.8144 91.6449 77.3159 92.1097C77.6584 92.44 78.0131 92.7825 78.2088 93.1983L78.2455 93.2595L78.2822 93.1983C78.4779 92.7825 78.8326 92.4522 79.1751 92.122C79.6643 91.6449 80.1414 91.2046 80.1414 90.5686C80.1414 90.0549 79.7744 89.7368 79.4075 89.639L79.3585 89.6634Z" fill="#341212"/>
<path d="M62.4814 93.1984C62.1267 92.7214 61.4295 92.0242 60.9403 91.6694C60.8057 91.5716 60.8057 91.3759 60.9403 91.278C61.4173 90.9233 62.1145 90.2261 62.4692 89.7369C62.567 89.6023 62.7627 89.6146 62.8606 89.7369C63.0441 89.9937 63.3254 90.2873 63.57 90.5319C63.8269 90.7888 64.1327 91.0701 64.3895 91.2536C64.5241 91.3514 64.5241 91.5471 64.3895 91.645C63.9125 91.9997 63.2153 92.6969 62.8606 93.1861C62.7627 93.3207 62.567 93.3207 62.4692 93.1861L62.4814 93.1984Z" fill="#341212"/>
<path d="M48.0504 90.336C47.7446 90.0425 47.3165 89.7245 47.1208 89.3698C46.9251 89.7367 46.497 90.0425 46.1912 90.336C45.7264 90.7764 45.2983 91.1922 45.2983 91.7671C45.2983 92.1463 45.5307 92.4643 45.8977 92.5744C46.2891 92.6967 46.6927 92.5499 46.9374 92.2074L46.9863 92.0974C46.9863 92.1952 46.9863 92.2931 46.9863 92.3909C46.9863 92.4643 46.9618 92.5255 46.9496 92.5988C46.9496 92.5988 46.9496 92.6233 46.9496 92.6355C46.9007 92.7823 46.815 92.9291 46.7172 93.0759C46.5949 93.2471 46.7172 93.4795 46.9251 93.4673C46.9985 93.4673 47.0841 93.4673 47.1453 93.4673C47.2187 93.4673 47.2921 93.4673 47.3655 93.4673C47.5734 93.4673 47.6957 93.2471 47.5734 93.0759C47.4755 92.9413 47.3899 92.7946 47.341 92.6355C47.341 92.6355 47.341 92.6111 47.341 92.5988C47.3288 92.5377 47.3165 92.4643 47.3043 92.3909C47.2921 92.2931 47.2921 92.1952 47.3043 92.0974L47.3532 92.2074C47.5979 92.5499 48.0015 92.6967 48.3929 92.5744C48.7598 92.4643 48.9922 92.1463 48.9922 91.7671C48.9922 91.1922 48.5519 90.7764 48.0993 90.336H48.0504Z" fill="#341212"/>
<path d="M95.3915 90.6785C95.0245 90.6785 94.6943 90.8864 94.5353 91.1922C94.4252 91.3145 94.2662 91.3634 94.1194 91.4001C94.1561 91.1922 94.2172 90.9965 94.364 90.8864C94.6943 90.7396 94.9022 90.4094 94.9022 90.0669C94.9022 89.8345 94.8043 89.6021 94.6331 89.4309C94.4496 89.2474 94.205 89.1495 93.9482 89.1495C93.4222 89.1495 92.9941 89.5654 92.9941 90.0669C92.9941 90.4216 93.2143 90.7396 93.5323 90.8864C93.6546 90.972 93.728 91.18 93.7769 91.4001C93.6301 91.3634 93.4711 91.3145 93.361 91.1922C93.202 90.8742 92.8596 90.6785 92.5048 90.6785C91.9789 90.6785 91.5508 91.0943 91.5508 91.5958C91.5508 92.0973 91.9789 92.5132 92.5048 92.5132C92.8596 92.5132 93.202 92.3052 93.3855 91.9995C93.3977 91.975 93.41 91.9505 93.4344 91.9383C93.4344 91.9383 93.4589 91.9261 93.4589 91.9138C93.6179 91.7915 93.8503 91.9383 93.8381 92.134C93.8381 92.2319 93.8258 92.3297 93.8136 92.3909C93.8136 92.4031 93.8136 92.4153 93.8014 92.4276C93.6057 92.9291 93.1531 93.5162 92.9085 93.7241L92.9452 93.773C93.2754 93.5039 94.6453 93.5039 94.9878 93.773L95.0245 93.7241C94.7677 93.5162 94.2784 92.8801 94.1316 92.4276C94.1316 92.4276 94.1316 92.4031 94.1316 92.3909C94.1194 92.3175 94.1072 92.2196 94.0949 92.134C94.0949 91.9138 94.3396 91.7915 94.4986 91.9383C94.4986 91.9383 94.5108 91.9505 94.523 91.9628C94.682 92.2808 95.049 92.5132 95.4159 92.5132C95.9419 92.5132 96.37 92.0973 96.37 91.5958C96.37 91.0943 95.9419 90.6785 95.4159 90.6785H95.3915Z" fill="#341212"/>
<path d="M17.172 120.511C17.172 120.511 17.1231 120.511 17.0986 120.498C17.0986 120.498 17.0864 120.498 17.0742 120.498C17.0619 120.498 17.0497 120.498 17.0252 120.498C17.0252 120.498 17.0008 120.498 16.9885 120.498C16.9763 120.498 16.9641 120.498 16.9519 120.498C16.9519 120.498 16.9274 120.498 16.9152 120.498C16.9029 120.498 16.8907 120.498 16.8785 120.498C16.8785 120.498 16.854 120.498 16.8418 120.498C16.8295 120.498 16.8173 120.498 16.8051 120.498C16.7928 120.498 16.7806 120.498 16.7684 120.498C16.7562 120.498 16.7439 120.498 16.7317 120.498C16.7195 120.498 16.7072 120.498 16.695 120.498C16.6828 120.498 16.6705 120.498 16.6583 120.498C16.6461 120.498 16.6338 120.498 16.6216 120.498C16.6094 120.498 16.5971 120.498 16.5849 120.511C16.5727 120.511 16.5604 120.511 16.5482 120.523C16.536 120.523 16.5238 120.523 16.5115 120.535C16.4993 120.535 16.4871 120.535 16.4748 120.56C16.4626 120.56 16.4504 120.572 16.4381 120.584C16.4381 120.584 16.4137 120.596 16.4014 120.609C16.3892 120.609 16.377 120.621 16.3647 120.633C16.3647 120.633 16.3403 120.645 16.3281 120.657C16.3158 120.657 16.3036 120.682 16.2914 120.694C16.2914 120.694 16.2669 120.719 16.2547 120.719C16.2424 120.719 16.2302 120.743 16.218 120.755C16.218 120.755 16.1935 120.78 16.1813 120.792C16.1813 120.804 16.1568 120.816 16.1446 120.829C16.1446 120.841 16.1201 120.853 16.1201 120.865C16.1201 120.878 16.0957 120.89 16.0834 120.914C16.0834 120.927 16.059 120.939 16.059 120.951C16.059 120.951 16.0467 120.963 16.0467 120.975C15.7409 120.462 15.2395 120.388 14.897 120.474C14.53 120.572 14.1631 120.89 14.1631 121.404C14.1631 122.04 14.6279 122.492 15.1294 122.957C15.4719 123.287 15.8266 123.63 16.0223 124.046L16.059 124.107L16.0957 124.046C16.2914 123.63 16.6461 123.299 16.9885 122.969C17.4778 122.492 17.9548 122.052 17.9548 121.416C17.9548 120.902 17.5879 120.584 17.2209 120.486L17.172 120.511Z" fill="#341212"/>
<path d="M33.0272 121.538C32.6603 121.538 32.33 121.746 32.171 122.052C32.0609 122.174 31.9019 122.223 31.7551 122.26C31.7918 122.052 31.853 121.856 31.9998 121.746C32.33 121.599 32.5379 121.269 32.5379 120.927C32.5379 120.694 32.4401 120.462 32.2688 120.29C32.0854 120.107 31.8407 120.009 31.5839 120.009C31.0579 120.009 30.6298 120.425 30.6298 120.927C30.6298 121.281 30.85 121.599 31.168 121.746C31.2903 121.832 31.3637 122.04 31.4126 122.26C31.2659 122.223 31.1069 122.174 30.9968 122.052C30.8378 121.734 30.4953 121.538 30.1406 121.538C29.6146 121.538 29.1865 121.954 29.1865 122.455C29.1865 122.957 29.6146 123.373 30.1406 123.373C30.4953 123.373 30.8378 123.165 31.0212 122.859C31.0335 122.835 31.0457 122.81 31.0702 122.798C31.0702 122.798 31.0946 122.786 31.0946 122.773C31.2536 122.651 31.486 122.798 31.4738 122.994C31.4738 123.091 31.4616 123.189 31.4493 123.25C31.4493 123.263 31.4493 123.275 31.4371 123.287C31.2414 123.789 30.7888 124.376 30.5442 124.584L30.5809 124.633C30.9112 124.364 32.2811 124.364 32.6236 124.633L32.6603 124.584C32.4034 124.376 31.9141 123.74 31.7674 123.287C31.7674 123.287 31.7674 123.263 31.7674 123.25C31.7551 123.177 31.7429 123.079 31.7307 122.994C31.7307 122.773 31.9753 122.651 32.1343 122.798C32.1343 122.798 32.1465 122.81 32.1588 122.822C32.3178 123.14 32.6847 123.373 33.0517 123.373C33.5776 123.373 34.0057 122.957 34.0057 122.455C34.0057 121.954 33.5776 121.538 33.0517 121.538H33.0272Z" fill="#341212"/>
<path d="M79.3585 120.511C79.3585 120.511 79.3096 120.511 79.2851 120.498C79.2851 120.498 79.2729 120.498 79.2607 120.498C79.2485 120.498 79.2362 120.498 79.2118 120.498C79.2118 120.498 79.1873 120.498 79.1751 120.498C79.1628 120.498 79.1506 120.498 79.1384 120.498C79.1384 120.498 79.1139 120.498 79.1017 120.498C79.0895 120.498 79.0772 120.498 79.065 120.498C79.065 120.498 79.0405 120.498 79.0283 120.498C79.0161 120.498 79.0038 120.498 78.9916 120.498C78.9794 120.498 78.9671 120.498 78.9549 120.498C78.9427 120.498 78.9304 120.498 78.9182 120.498C78.906 120.498 78.8937 120.498 78.8815 120.498C78.8693 120.498 78.857 120.498 78.8448 120.498C78.8326 120.498 78.8204 120.498 78.8081 120.498C78.7959 120.498 78.7837 120.498 78.7714 120.511C78.7592 120.511 78.747 120.511 78.7347 120.523C78.7225 120.523 78.7103 120.523 78.698 120.535C78.6858 120.535 78.6736 120.535 78.6614 120.56C78.6491 120.56 78.6369 120.572 78.6246 120.584C78.6246 120.584 78.6002 120.596 78.588 120.609C78.5757 120.609 78.5635 120.621 78.5513 120.633C78.5513 120.633 78.5268 120.645 78.5146 120.657C78.5023 120.657 78.4901 120.682 78.4779 120.694C78.4779 120.694 78.4534 120.719 78.4412 120.719C78.429 120.719 78.4167 120.743 78.4045 120.755C78.4045 120.755 78.38 120.78 78.3678 120.792C78.3678 120.804 78.3433 120.816 78.3311 120.829C78.3311 120.841 78.3066 120.853 78.3066 120.865C78.3066 120.878 78.2822 120.89 78.2699 120.914C78.2699 120.927 78.2455 120.939 78.2455 120.951C78.2455 120.951 78.2332 120.963 78.2332 120.975C77.9275 120.462 77.426 120.388 77.0835 120.474C76.7166 120.572 76.3496 120.89 76.3496 121.404C76.3496 122.04 76.8144 122.492 77.3159 122.957C77.6584 123.287 78.0131 123.63 78.2088 124.046L78.2455 124.107L78.2822 124.046C78.4779 123.63 78.8326 123.299 79.1751 122.969C79.6643 122.492 80.1414 122.052 80.1414 121.416C80.1414 120.902 79.7744 120.584 79.4075 120.486L79.3585 120.511Z" fill="#341212"/>
<path d="M62.4814 124.046C62.1267 123.569 61.4295 122.871 60.9403 122.517C60.8057 122.419 60.8057 122.223 60.9403 122.125C61.4173 121.771 62.1145 121.073 62.4692 120.584C62.567 120.45 62.7627 120.462 62.8606 120.584C63.0441 120.841 63.3254 121.135 63.57 121.379C63.8269 121.636 64.1327 121.917 64.3895 122.101C64.5241 122.199 64.5241 122.394 64.3895 122.492C63.9125 122.847 63.2153 123.544 62.8606 124.033C62.7627 124.168 62.567 124.168 62.4692 124.033L62.4814 124.046Z" fill="#341212"/>
<path d="M48.0504 121.183C47.7446 120.89 47.3165 120.572 47.1208 120.217C46.9251 120.584 46.497 120.89 46.1912 121.183C45.7264 121.624 45.2983 122.039 45.2983 122.614C45.2983 122.994 45.5307 123.312 45.8977 123.422C46.2891 123.544 46.6927 123.397 46.9374 123.055L46.9863 122.945C46.9863 123.042 46.9863 123.14 46.9863 123.238C46.9863 123.312 46.9618 123.373 46.9496 123.446C46.9496 123.446 46.9496 123.471 46.9496 123.483C46.9007 123.63 46.815 123.776 46.7172 123.923C46.5949 124.094 46.7172 124.327 46.9251 124.315C46.9985 124.315 47.0841 124.315 47.1453 124.315C47.2187 124.315 47.2921 124.315 47.3655 124.315C47.5734 124.315 47.6957 124.094 47.5734 123.923C47.4755 123.789 47.3899 123.642 47.341 123.483C47.341 123.483 47.341 123.458 47.341 123.446C47.3288 123.385 47.3165 123.312 47.3043 123.238C47.2921 123.14 47.2921 123.042 47.3043 122.945L47.3532 123.055C47.5979 123.397 48.0015 123.544 48.3929 123.422C48.7598 123.312 48.9922 122.994 48.9922 122.614C48.9922 122.039 48.5519 121.624 48.0993 121.183H48.0504Z" fill="#341212"/>
<path d="M95.3915 121.538C95.0245 121.538 94.6943 121.746 94.5353 122.052C94.4252 122.174 94.2662 122.223 94.1194 122.26C94.1561 122.052 94.2172 121.856 94.364 121.746C94.6943 121.599 94.9022 121.269 94.9022 120.927C94.9022 120.694 94.8043 120.462 94.6331 120.29C94.4496 120.107 94.205 120.009 93.9482 120.009C93.4222 120.009 92.9941 120.425 92.9941 120.927C92.9941 121.281 93.2143 121.599 93.5323 121.746C93.6546 121.832 93.728 122.04 93.7769 122.26C93.6301 122.223 93.4711 122.174 93.361 122.052C93.202 121.734 92.8596 121.538 92.5048 121.538C91.9789 121.538 91.5508 121.954 91.5508 122.455C91.5508 122.957 91.9789 123.373 92.5048 123.373C92.8596 123.373 93.202 123.165 93.3855 122.859C93.3977 122.835 93.41 122.81 93.4344 122.798C93.4344 122.798 93.4589 122.786 93.4589 122.773C93.6179 122.651 93.8503 122.798 93.8381 122.994C93.8381 123.091 93.8258 123.189 93.8136 123.25C93.8136 123.263 93.8136 123.275 93.8014 123.287C93.6057 123.789 93.1531 124.376 92.9085 124.584L92.9452 124.633C93.2754 124.364 94.6453 124.364 94.9878 124.633L95.0245 124.584C94.7677 124.376 94.2784 123.74 94.1316 123.287C94.1316 123.287 94.1316 123.263 94.1316 123.25C94.1194 123.177 94.1072 123.079 94.0949 122.994C94.0949 122.773 94.3396 122.651 94.4986 122.798C94.4986 122.798 94.5108 122.81 94.523 122.822C94.682 123.14 95.049 123.373 95.4159 123.373C95.9419 123.373 96.37 122.957 96.37 122.455C96.37 121.954 95.9419 121.538 95.4159 121.538H95.3915Z" fill="#341212"/>
</g>
</g>
<g style="mix-blend-mode:multiply" filter="url(#filter0_d_1760_8358)">
<path d="M97.9982 4H10.0018C6.6871 4 4 6.6872 4 10.002V125.998C4 129.313 6.6871 132 10.0018 132H97.9982C101.313 132 104 129.313 104 125.998V10.002C104 6.6872 101.313 4 97.9982 4Z" fill="url(#paint0_radial_1760_8358)" fill-opacity="0.5" shape-rendering="crispEdges"/>
</g>
<g filter="url(#filter1_d_1760_8358)">
<path d="M15.206 22.998H14.45V20.244H18.104V39H15.206V22.998ZM19.9098 26.166C19.9098 24.09 20.2698 22.56 20.9898 21.576C21.7098 20.58 22.7718 20.082 24.1758 20.082C25.5798 20.082 26.6418 20.58 27.3618 21.576C28.0818 22.56 28.4418 24.09 28.4418 26.166V33.096C28.4418 35.172 28.0818 36.708 27.3618 37.704C26.6418 38.688 25.5798 39.18 24.1758 39.18C22.7718 39.18 21.7098 38.688 20.9898 37.704C20.2698 36.708 19.9098 35.172 19.9098 33.096V26.166ZM24.1758 36.264C24.4878 36.264 24.7338 36.174 24.9138 35.994C25.1058 35.802 25.2498 35.532 25.3458 35.184C25.4418 34.824 25.5078 34.38 25.5438 33.852C25.5798 33.324 25.5978 32.718 25.5978 32.034V27.228C25.5978 26.544 25.5798 25.938 25.5438 25.41C25.5078 24.882 25.4418 24.438 25.3458 24.078C25.2498 23.718 25.1058 23.448 24.9138 23.268C24.7338 23.076 24.4878 22.98 24.1758 22.98C23.8758 22.98 23.6298 23.076 23.4378 23.268C23.2458 23.448 23.1018 23.718 23.0058 24.078C22.9098 24.438 22.8438 24.882 22.8078 25.41C22.7718 25.938 22.7538 26.544 22.7538 27.228V32.034C22.7538 32.718 22.7718 33.324 22.8078 33.852C22.8438 34.38 22.9098 34.824 23.0058 35.184C23.1018 35.532 23.2458 35.802 23.4378 35.994C23.6298 36.174 23.8758 36.264 24.1758 36.264ZM30.5517 22.998H29.7957V20.244H33.4497V39H30.5517V22.998ZM39.3955 20.244H43.3915C44.1835 20.244 44.8915 20.34 45.5155 20.532C46.1395 20.712 46.6675 21.006 47.0995 21.414C47.5315 21.81 47.8615 22.326 48.0895 22.962C48.3175 23.586 48.4315 24.336 48.4315 25.212C48.4315 26.1 48.2755 26.916 47.9635 27.66C47.6515 28.392 47.2375 29.046 46.7215 29.622C46.2055 30.186 45.6115 30.672 44.9395 31.08C44.2795 31.476 43.5955 31.782 42.8875 31.998C42.8875 31.998 42.8875 32.07 42.8875 32.214C42.8875 32.346 42.8875 32.514 42.8875 32.718C42.8995 32.922 42.9055 33.15 42.9055 33.402C42.9055 33.642 42.9055 33.882 42.9055 34.122C42.9055 34.278 42.8995 34.494 42.8875 34.77C42.8875 35.046 42.8875 35.352 42.8875 35.688C42.8995 36.012 42.9115 36.354 42.9235 36.714C42.9355 37.062 42.9595 37.392 42.9955 37.704C43.0315 38.004 43.0795 38.274 43.1395 38.514C43.1995 38.742 43.2775 38.904 43.3735 39H39.3955C39.4915 38.904 39.5695 38.742 39.6295 38.514C39.6895 38.274 39.7375 38.004 39.7735 37.704C39.8095 37.392 39.8335 37.062 39.8455 36.714C39.8575 36.354 39.8635 36.012 39.8635 35.688C39.8755 35.352 39.8755 35.046 39.8635 34.77C39.8635 34.494 39.8635 34.278 39.8635 34.122V25.122C39.8635 24.966 39.8635 24.75 39.8635 24.474C39.8755 24.198 39.8755 23.898 39.8635 23.574C39.8635 23.238 39.8575 22.896 39.8455 22.548C39.8335 22.188 39.8095 21.858 39.7735 21.558C39.7375 21.246 39.6895 20.976 39.6295 20.748C39.5695 20.508 39.4915 20.34 39.3955 20.244ZM45.3895 25.194C45.3895 24.57 45.2455 24.066 44.9575 23.682C44.6695 23.286 44.2255 23.088 43.6255 23.088H42.8875V28.668C43.2355 28.668 43.5595 28.572 43.8595 28.38C44.1595 28.188 44.4235 27.936 44.6515 27.624C44.8795 27.3 45.0595 26.928 45.1915 26.508C45.3235 26.088 45.3895 25.65 45.3895 25.194ZM49.8629 32.754V26.49C49.8629 25.89 49.8689 25.374 49.8809 24.942C49.9049 24.498 49.9409 24.102 49.9889 23.754C50.0489 23.406 50.1269 23.094 50.2229 22.818C50.3309 22.53 50.4689 22.248 50.6369 21.972C50.9729 21.42 51.4349 20.964 52.0229 20.604C52.6229 20.244 53.3609 20.064 54.2369 20.064C55.1249 20.064 55.8629 20.244 56.4509 20.604C57.0389 20.964 57.5009 21.42 57.8369 21.972C58.0049 22.248 58.1369 22.53 58.2329 22.818C58.3409 23.094 58.4189 23.406 58.4669 23.754C58.5269 24.102 58.5629 24.498 58.5749 24.942C58.5989 25.374 58.6109 25.89 58.6109 26.49V32.754C58.6109 33.342 58.5989 33.858 58.5749 34.302C58.5629 34.746 58.5269 35.142 58.4669 35.49C58.4189 35.826 58.3409 36.138 58.2329 36.426C58.1369 36.702 58.0049 36.984 57.8369 37.272C57.5009 37.824 57.0389 38.28 56.4509 38.64C55.8629 39 55.1249 39.18 54.2369 39.18C53.3609 39.18 52.6229 39 52.0229 38.64C51.4349 38.28 50.9729 37.824 50.6369 37.272C50.4689 36.996 50.3309 36.72 50.2229 36.444C50.1269 36.156 50.0489 35.838 49.9889 35.49C49.9409 35.142 49.9049 34.746 49.8809 34.302C49.8689 33.858 49.8629 33.342 49.8629 32.754ZM52.8689 33.69C52.8689 33.978 52.8749 34.29 52.8869 34.626C52.9109 34.95 52.9649 35.25 53.0489 35.526C53.1449 35.802 53.2829 36.036 53.4629 36.228C53.6429 36.408 53.8949 36.498 54.2189 36.498C54.5429 36.498 54.7949 36.408 54.9749 36.228C55.1669 36.036 55.3049 35.802 55.3889 35.526C55.4849 35.25 55.5449 34.95 55.5689 34.626C55.5929 34.29 55.6049 33.978 55.6049 33.69V25.554C55.6049 25.266 55.5929 24.96 55.5689 24.636C55.5449 24.3 55.4849 23.994 55.3889 23.718C55.3049 23.442 55.1669 23.214 54.9749 23.034C54.7949 22.842 54.5429 22.746 54.2189 22.746C53.8949 22.746 53.6429 22.842 53.4629 23.034C53.2829 23.214 53.1449 23.442 53.0489 23.718C52.9649 23.994 52.9109 24.3 52.8869 24.636C52.8749 24.96 52.8689 25.266 52.8689 25.554V33.69ZM60.4273 32.754V26.49C60.4273 25.89 60.4333 25.374 60.4453 24.942C60.4693 24.498 60.5053 24.102 60.5533 23.754C60.6133 23.406 60.6913 23.094 60.7873 22.818C60.8953 22.53 61.0333 22.248 61.2013 21.972C61.5373 21.42 61.9993 20.964 62.5873 20.604C63.1873 20.244 63.9253 20.064 64.8013 20.064C65.6893 20.064 66.4273 20.244 67.0153 20.604C67.6033 20.964 68.0653 21.42 68.4013 21.972C68.5693 22.248 68.7013 22.53 68.7973 22.818C68.9053 23.094 68.9833 23.406 69.0313 23.754C69.0913 24.102 69.1273 24.498 69.1393 24.942C69.1633 25.374 69.1753 25.89 69.1753 26.49V32.754C69.1753 33.342 69.1633 33.858 69.1393 34.302C69.1273 34.746 69.0913 35.142 69.0313 35.49C68.9833 35.826 68.9053 36.138 68.7973 36.426C68.7013 36.702 68.5693 36.984 68.4013 37.272C68.0653 37.824 67.6033 38.28 67.0153 38.64C66.4273 39 65.6893 39.18 64.8013 39.18C63.9253 39.18 63.1873 39 62.5873 38.64C61.9993 38.28 61.5373 37.824 61.2013 37.272C61.0333 36.996 60.8953 36.72 60.7873 36.444C60.6913 36.156 60.6133 35.838 60.5533 35.49C60.5053 35.142 60.4693 34.746 60.4453 34.302C60.4333 33.858 60.4273 33.342 60.4273 32.754ZM63.4333 33.69C63.4333 33.978 63.4393 34.29 63.4513 34.626C63.4753 34.95 63.5293 35.25 63.6133 35.526C63.7093 35.802 63.8473 36.036 64.0273 36.228C64.2073 36.408 64.4593 36.498 64.7833 36.498C65.1073 36.498 65.3593 36.408 65.5393 36.228C65.7313 36.036 65.8693 35.802 65.9533 35.526C66.0493 35.25 66.1093 34.95 66.1333 34.626C66.1573 34.29 66.1693 33.978 66.1693 33.69V25.554C66.1693 25.266 66.1573 24.96 66.1333 24.636C66.1093 24.3 66.0493 23.994 65.9533 23.718C65.8693 23.442 65.7313 23.214 65.5393 23.034C65.3593 22.842 65.1073 22.746 64.7833 22.746C64.4593 22.746 64.2073 22.842 64.0273 23.034C63.8473 23.214 63.7093 23.442 63.6133 23.718C63.5293 23.994 63.4753 24.3 63.4513 24.636C63.4393 24.96 63.4333 25.266 63.4333 25.554V33.69ZM70.6318 39C70.7278 38.904 70.8058 38.742 70.8658 38.514C70.9258 38.274 70.9738 38.004 71.0098 37.704C71.0458 37.392 71.0698 37.062 71.0818 36.714C71.0938 36.354 71.0998 36.012 71.0998 35.688C71.1118 35.352 71.1118 35.046 71.0998 34.77C71.0998 34.494 71.0998 34.278 71.0998 34.122V25.122C71.0998 24.966 71.0998 24.75 71.0998 24.474C71.1118 24.198 71.1118 23.898 71.0998 23.574C71.0998 23.238 71.0938 22.896 71.0818 22.548C71.0698 22.188 71.0458 21.858 71.0098 21.558C70.9738 21.246 70.9258 20.976 70.8658 20.748C70.8058 20.508 70.7278 20.34 70.6318 20.244H74.5918C74.4958 20.34 74.4178 20.508 74.3578 20.748C74.2978 20.976 74.2498 21.246 74.2138 21.558C74.1778 21.858 74.1538 22.188 74.1418 22.548C74.1298 22.896 74.1178 23.238 74.1058 23.574C74.1058 23.898 74.1058 24.198 74.1058 24.474C74.1178 24.75 74.1238 24.966 74.1238 25.122V36.408H74.6098C75.0298 36.408 75.3958 36.408 75.7078 36.408C76.0318 36.408 76.3318 36.396 76.6078 36.372C76.8958 36.336 77.1838 36.276 77.4718 36.192C77.7598 36.108 78.0838 35.988 78.4438 35.832V39H70.6318Z" fill="#E0E0E0"/>
</g>
<path d="M16.92 54.12C16.4733 54.12 16.07 54.04 15.71 53.88C15.35 53.7133 15.06 53.4667 14.84 53.14C14.6267 52.8133 14.5133 52.4067 14.5 51.92H15.35C15.3567 52.32 15.4967 52.6667 15.77 52.96C16.0433 53.2467 16.4267 53.39 16.92 53.39C17.4133 53.39 17.7833 53.2533 18.03 52.98C18.2833 52.7067 18.41 52.3767 18.41 51.99C18.41 51.6633 18.33 51.3967 18.17 51.19C18.0167 50.9833 17.8067 50.83 17.54 50.73C17.28 50.63 16.9933 50.58 16.68 50.58H16.16V49.87H16.68C17.1333 49.87 17.4867 49.7667 17.74 49.56C18 49.3533 18.13 49.0633 18.13 48.69C18.13 48.3767 18.0267 48.12 17.82 47.92C17.62 47.7133 17.32 47.61 16.92 47.61C16.5333 47.61 16.2233 47.7267 15.99 47.96C15.7567 48.1867 15.6267 48.4733 15.6 48.82H14.75C14.77 48.44 14.87 48.1033 15.05 47.81C15.2367 47.5167 15.49 47.29 15.81 47.13C16.13 46.9633 16.5 46.88 16.92 46.88C17.3733 46.88 17.75 46.96 18.05 47.12C18.3567 47.28 18.5867 47.4933 18.74 47.76C18.9 48.0267 18.98 48.32 18.98 48.64C18.98 48.9933 18.8833 49.3167 18.69 49.61C18.4967 49.8967 18.2067 50.09 17.82 50.19C18.2333 50.2767 18.5767 50.4733 18.85 50.78C19.1233 51.0867 19.26 51.49 19.26 51.99C19.26 52.3767 19.17 52.7333 18.99 53.06C18.8167 53.38 18.5567 53.6367 18.21 53.83C17.8633 54.0233 17.4333 54.12 16.92 54.12ZM19.8989 55.19L20.4789 52.98H21.3489L20.4789 55.19H19.8989ZM22.2863 54V53.41C22.7596 53.0367 23.2063 52.66 23.6263 52.28C24.0529 51.8933 24.4296 51.5133 24.7563 51.14C25.0896 50.7667 25.3496 50.4 25.5363 50.04C25.7296 49.68 25.8263 49.3333 25.8263 49C25.8263 48.7533 25.7829 48.5233 25.6963 48.31C25.6163 48.0967 25.4829 47.9267 25.2963 47.8C25.1096 47.6667 24.8563 47.6 24.5363 47.6C24.2296 47.6 23.9729 47.67 23.7663 47.81C23.5596 47.9433 23.4029 48.1233 23.2963 48.35C23.1963 48.5767 23.1463 48.82 23.1463 49.08H22.3363C22.3363 48.62 22.4329 48.2267 22.6263 47.9C22.8196 47.5667 23.0829 47.3133 23.4163 47.14C23.7496 46.9667 24.1263 46.88 24.5463 46.88C25.1663 46.88 25.6729 47.0567 26.0663 47.41C26.4663 47.7567 26.6663 48.2767 26.6663 48.97C26.6663 49.3833 26.5629 49.7933 26.3563 50.2C26.1496 50.6 25.8863 50.99 25.5663 51.37C25.2463 51.7433 24.9029 52.0933 24.5363 52.42C24.1763 52.7467 23.8396 53.04 23.5263 53.3H26.9063V54H22.2863ZM28.8089 54V47.94L27.6789 48.19V47.61L29.0889 47H29.6589V54H28.8089ZM31.8265 54V47.94L30.6965 48.19V47.61L32.1065 47H32.6765V54H31.8265ZM36.7505 56.2V49.04H37.5105L37.5905 49.86C37.7505 49.62 37.9772 49.4033 38.2705 49.21C38.5705 49.0167 38.9505 48.92 39.4105 48.92C39.9039 48.92 40.3339 49.0333 40.7005 49.26C41.0672 49.4867 41.3505 49.7967 41.5505 50.19C41.7572 50.5833 41.8605 51.03 41.8605 51.53C41.8605 52.03 41.7572 52.4767 41.5505 52.87C41.3505 53.2567 41.0639 53.5633 40.6905 53.79C40.3239 54.01 39.8939 54.12 39.4005 54.12C38.9939 54.12 38.6305 54.0367 38.3105 53.87C37.9972 53.7033 37.7572 53.47 37.5905 53.17V56.2H36.7505ZM39.3105 53.39C39.6439 53.39 39.9372 53.3133 40.1905 53.16C40.4439 53 40.6439 52.78 40.7905 52.5C40.9372 52.22 41.0105 51.8933 41.0105 51.52C41.0105 51.1467 40.9372 50.82 40.7905 50.54C40.6439 50.26 40.4439 50.0433 40.1905 49.89C39.9372 49.73 39.6439 49.65 39.3105 49.65C38.9772 49.65 38.6839 49.73 38.4305 49.89C38.1772 50.0433 37.9772 50.26 37.8305 50.54C37.6839 50.82 37.6105 51.1467 37.6105 51.52C37.6105 51.8933 37.6839 52.22 37.8305 52.5C37.9772 52.78 38.1772 53 38.4305 53.16C38.6839 53.3133 38.9772 53.39 39.3105 53.39ZM43.0298 54V46.8H43.8698V54H43.0298ZM46.8966 54.12C46.4833 54.12 46.14 54.05 45.8666 53.91C45.5933 53.77 45.39 53.5833 45.2566 53.35C45.1233 53.1167 45.0566 52.8633 45.0566 52.59C45.0566 52.0833 45.25 51.6933 45.6366 51.42C46.0233 51.1467 46.55 51.01 47.2166 51.01H48.5566V50.95C48.5566 50.5167 48.4433 50.19 48.2166 49.97C47.99 49.7433 47.6866 49.63 47.3066 49.63C46.98 49.63 46.6966 49.7133 46.4566 49.88C46.2233 50.04 46.0766 50.2767 46.0166 50.59H45.1566C45.19 50.23 45.31 49.9267 45.5166 49.68C45.73 49.4333 45.9933 49.2467 46.3066 49.12C46.62 48.9867 46.9533 48.92 47.3066 48.92C48 48.92 48.52 49.1067 48.8666 49.48C49.22 49.8467 49.3966 50.3367 49.3966 50.95V54H48.6466L48.5966 53.11C48.4566 53.39 48.25 53.63 47.9766 53.83C47.71 54.0233 47.35 54.12 46.8966 54.12ZM47.0266 53.41C47.3466 53.41 47.62 53.3267 47.8466 53.16C48.08 52.9933 48.2566 52.7767 48.3766 52.51C48.4966 52.2433 48.5566 51.9633 48.5566 51.67V51.66H47.2866C46.7933 51.66 46.4433 51.7467 46.2366 51.92C46.0366 52.0867 45.9366 52.2967 45.9366 52.55C45.9366 52.81 46.03 53.02 46.2166 53.18C46.41 53.3333 46.68 53.41 47.0266 53.41ZM51.0503 56.2L52.2803 53.52H51.9903L50.0203 49.04H50.9303L52.5703 52.9L54.3103 49.04H55.1803L51.9303 56.2H51.0503ZM56.577 47.94C56.4103 47.94 56.2703 47.8867 56.157 47.78C56.0503 47.6667 55.997 47.5267 55.997 47.36C55.997 47.2 56.0503 47.0667 56.157 46.96C56.2703 46.8533 56.4103 46.8 56.577 46.8C56.737 46.8 56.8736 46.8533 56.987 46.96C57.1003 47.0667 57.157 47.2 57.157 47.36C57.157 47.5267 57.1003 47.6667 56.987 47.78C56.8736 47.8867 56.737 47.94 56.577 47.94ZM56.157 54V49.04H56.997V54H56.157ZM58.4595 54V49.04H59.2195L59.2695 49.93C59.4295 49.6167 59.6595 49.37 59.9595 49.19C60.2595 49.01 60.5995 48.92 60.9795 48.92C61.5662 48.92 62.0329 49.1 62.3795 49.46C62.7329 49.8133 62.9095 50.36 62.9095 51.1V54H62.0695V51.19C62.0695 50.1567 61.6429 49.64 60.7895 49.64C60.3629 49.64 60.0062 49.7967 59.7195 50.11C59.4395 50.4167 59.2995 50.8567 59.2995 51.43V54H58.4595ZM66.1422 52.44C65.8622 52.44 65.6055 52.4033 65.3722 52.33L64.8722 52.8C64.9455 52.8533 65.0355 52.9 65.1422 52.94C65.2555 52.9733 65.4155 53.0067 65.6222 53.04C65.8289 53.0667 66.1189 53.0967 66.4922 53.13C67.1589 53.1767 67.6355 53.33 67.9222 53.59C68.2089 53.85 68.3522 54.19 68.3522 54.61C68.3522 54.8967 68.2722 55.17 68.1122 55.43C67.9589 55.69 67.7189 55.9033 67.3922 56.07C67.0722 56.2367 66.6589 56.32 66.1522 56.32C65.7055 56.32 65.3089 56.26 64.9622 56.14C64.6155 56.0267 64.3455 55.85 64.1522 55.61C63.9589 55.3767 63.8622 55.08 63.8622 54.72C63.8622 54.5333 63.9122 54.33 64.0122 54.11C64.1122 53.8967 64.2989 53.6933 64.5722 53.5C64.4255 53.44 64.2989 53.3767 64.1922 53.31C64.0922 53.2367 63.9989 53.1567 63.9122 53.07V52.84L64.7622 52C64.3689 51.6667 64.1722 51.2267 64.1722 50.68C64.1722 50.3533 64.2489 50.0567 64.4022 49.79C64.5555 49.5233 64.7789 49.3133 65.0722 49.16C65.3655 49 65.7222 48.92 66.1422 48.92C66.4289 48.92 66.6889 48.96 66.9222 49.04H68.7522V49.67L67.8222 49.71C68.0155 49.99 68.1122 50.3133 68.1122 50.68C68.1122 51.0067 68.0322 51.3033 67.8722 51.57C67.7189 51.8367 67.4955 52.05 67.2022 52.21C66.9155 52.3633 66.5622 52.44 66.1422 52.44ZM66.1422 51.75C66.4955 51.75 66.7755 51.66 66.9822 51.48C67.1955 51.2933 67.3022 51.0267 67.3022 50.68C67.3022 50.34 67.1955 50.08 66.9822 49.9C66.7755 49.7133 66.4955 49.62 66.1422 49.62C65.7822 49.62 65.4955 49.7133 65.2822 49.9C65.0755 50.08 64.9722 50.34 64.9722 50.68C64.9722 51.0267 65.0755 51.2933 65.2822 51.48C65.4955 51.66 65.7822 51.75 66.1422 51.75ZM64.6822 54.64C64.6822 54.9733 64.8222 55.22 65.1022 55.38C65.3822 55.5467 65.7322 55.63 66.1522 55.63C66.5655 55.63 66.8955 55.54 67.1422 55.36C67.3955 55.18 67.5222 54.94 67.5222 54.64C67.5222 54.4267 67.4355 54.24 67.2622 54.08C67.0889 53.9267 66.7689 53.8367 66.3022 53.81C65.9355 53.7833 65.6189 53.75 65.3522 53.71C65.0789 53.8567 64.8989 54.0133 64.8122 54.18C64.7255 54.3533 64.6822 54.5067 64.6822 54.64Z" fill="#E0E0E0"/>
<path fill-rule="evenodd" clip-rule="evenodd" d="M22 118C26.4183 118 30 114.418 30 110C30 105.582 26.4183 102 22 102C17.5817 102 14 105.582 14 110C14 114.418 17.5817 118 22 118ZM20.6516 107.597C20.8283 107.421 21.1147 107.421 21.2914 107.597L23.3558 109.662C23.5418 109.848 23.5418 110.149 23.3558 110.335L21.2914 112.4C21.1147 112.576 20.8283 112.576 20.6516 112.4C20.475 112.223 20.4749 111.937 20.6512 111.76L22.0735 110.335C22.259 110.149 22.259 109.848 22.0735 109.662L20.6512 108.237C20.4749 108.06 20.475 107.774 20.6516 107.597Z" fill="#CDCDCD"/>
<defs>
<filter id="filter0_d_1760_8358" x="0" y="4" width="108" height="136" filterUnits="userSpaceOnUse" color-interpolation-filters="sRGB">
<feFlood flood-opacity="0" result="BackgroundImageFix"/>
<feColorMatrix in="SourceAlpha" type="matrix" values="0 0 0 0 0 0 0 0 0 0 0 0 0 0 0 0 0 0 127 0" result="hardAlpha"/>
<feOffset dy="4"/>
<feGaussianBlur stdDeviation="2"/>
<feComposite in2="hardAlpha" operator="out"/>
<feColorMatrix type="matrix" values="0 0 0 0 0 0 0 0 0 0 0 0 0 0 0 0 0 0 0.25 0"/>
<feBlend mode="normal" in2="BackgroundImageFix" result="effect1_dropShadow_1760_8358"/>
<feBlend mode="normal" in="SourceGraphic" in2="effect1_dropShadow_1760_8358" result="shape"/>
</filter>
<filter id="filter1_d_1760_8358" x="14.4502" y="20.064" width="63.9937" height="20.1161" filterUnits="userSpaceOnUse" color-interpolation-filters="sRGB">
<feFlood flood-opacity="0" result="BackgroundImageFix"/>
<feColorMatrix in="SourceAlpha" type="matrix" values="0 0 0 0 0 0 0 0 0 0 0 0 0 0 0 0 0 0 127 0" result="hardAlpha"/>
<feOffset dy="1"/>
<feComposite in2="hardAlpha" operator="out"/>
<feColorMatrix type="matrix" values="0 0 0 0 0.258824 0 0 0 0 0.137255 0 0 0 0 0.0431373 0 0 0 1 0"/>
<feBlend mode="normal" in2="BackgroundImageFix" result="effect1_dropShadow_1760_8358"/>
<feBlend mode="normal" in="SourceGraphic" in2="effect1_dropShadow_1760_8358" result="shape"/>
</filter>
<radialGradient id="paint0_radial_1760_8358" cx="0" cy="0" r="1" gradientUnits="userSpaceOnUse" gradientTransform="translate(51.4013 69.8985) scale(126.932 126.937)">
<stop offset="0.04" stop-color="#606161" stop-opacity="0"/>
<stop offset="0.26" stop-color="#525354" stop-opacity="0.18"/>
<stop offset="0.35" stop-color="#4B4D4E" stop-opacity="0.28"/>
<stop offset="1" stop-color="#101418"/>
</radialGradient>
</defs>
</svg>
