<svg width="162" height="210" viewBox="0 0 162 210" fill="none" xmlns="http://www.w3.org/2000/svg">
<rect width="162" height="204" rx="9" fill="white"/>
<path d="M6 15C6 10.0294 10.0294 6 15 6H147C151.971 6 156 10.0294 156 15V189C156 193.971 151.971 198 147 198H15C10.0294 198 6 193.971 6 189V15Z" fill="#2C362E"/>
<mask id="mask0_4109_14607" style="mask-type:alpha" maskUnits="userSpaceOnUse" x="6" y="6" width="150" height="192">
<rect x="6" y="6" width="150" height="192" rx="9" fill="#186D49"/>
</mask>
<g mask="url(#mask0_4109_14607)">
<g opacity="0.11">
<path d="M23.7037 13.8274L8.21875 -1.65758L23.7037 -17.1426L39.1887 -1.65758L23.7037 13.8274ZM8.5123 -1.65758L23.7037 13.5339L38.8952 -1.65758L23.7037 -16.849L8.5123 -1.65758Z" fill="#341212"/>
<path d="M0.405893 13.8274L-15.0791 -1.65758L0.405893 -17.1426L15.8909 -1.65758L0.405893 13.8274ZM-14.7855 -1.65758L0.405893 13.5339L15.5973 -1.65758L0.405893 -16.849L-14.7855 -1.65758Z" fill="#341212"/>
<path d="M47.0289 13.8274L31.5439 -1.65758L47.0289 -17.1426L62.5139 -1.65758L47.0289 13.8274ZM31.8375 -1.65758L47.0289 13.5339L62.2204 -1.65758L47.0289 -16.849L31.8375 -1.65758Z" fill="#341212"/>
<path d="M70.3278 13.8274L54.8428 -1.65758L70.3278 -17.1426L85.8128 -1.65758L70.3278 13.8274ZM55.1363 -1.65758L70.3278 13.5339L85.5192 -1.65758L70.3278 -16.849L55.1363 -1.65758Z" fill="#341212"/>
<path d="M93.6393 13.8274L78.1543 -1.65758L93.6393 -17.1426L109.124 -1.65758L93.6393 13.8274ZM78.4479 -1.65758L93.6393 13.5339L108.831 -1.65758L93.6393 -16.849L78.4479 -1.65758Z" fill="#341212"/>
<path d="M116.945 13.8274L101.46 -1.65758L116.945 -17.1426L132.43 -1.65758L116.945 13.8274ZM101.753 -1.65758L116.945 13.5339L132.136 -1.65758L116.945 -16.849L101.753 -1.65758Z" fill="#341212"/>
<path d="M140.263 13.8274L124.778 -1.65758L140.263 -17.1426L155.748 -1.65758L140.263 13.8274ZM125.072 -1.65758L140.263 13.5339L155.455 -1.65758L140.263 -16.849L125.072 -1.65758Z" fill="#341212"/>
<path d="M163.568 13.8274L148.083 -1.65758L163.568 -17.1426L179.053 -1.65758L163.568 13.8274ZM148.377 -1.65758L163.568 13.5339L178.759 -1.65758L163.568 -16.849L148.377 -1.65758Z" fill="#341212"/>
<path d="M0.405893 36.907L-15.0791 21.422L0.405893 5.93701L15.8909 21.422L0.405893 36.907ZM-14.7855 21.422L0.405893 36.6135L15.5973 21.422L0.405893 6.23057L-14.7855 21.422Z" fill="#341212"/>
<path d="M23.7037 36.907L8.21875 21.422L23.7037 5.93701L39.1887 21.422L23.7037 36.907ZM8.5123 21.422L23.7037 36.6135L38.8952 21.422L23.7037 6.23057L8.5123 21.422Z" fill="#341212"/>
<path d="M47.0289 36.907L31.5439 21.422L47.0289 5.93701L62.5139 21.422L47.0289 36.907ZM31.8375 21.422L47.0289 36.6135L62.2204 21.422L47.0289 6.23057L31.8375 21.422Z" fill="#341212"/>
<path d="M70.3278 36.907L54.8428 21.422L70.3278 5.93701L85.8128 21.422L70.3278 36.907ZM55.1363 21.422L70.3278 36.6135L85.5192 21.422L70.3278 6.23057L55.1363 21.422Z" fill="#341212"/>
<path d="M93.6393 36.907L78.1543 21.422L93.6393 5.93701L109.124 21.422L93.6393 36.907ZM78.4479 21.422L93.6393 36.6135L108.831 21.422L93.6393 6.23057L78.4479 21.422Z" fill="#341212"/>
<path d="M116.945 36.907L101.46 21.422L116.945 5.93701L132.43 21.422L116.945 36.907ZM101.753 21.422L116.945 36.6135L132.136 21.422L116.945 6.23057L101.753 21.422Z" fill="#341212"/>
<path d="M140.263 36.907L124.778 21.422L140.263 5.93701L155.748 21.422L140.263 36.907ZM125.072 21.422L140.263 36.6135L155.455 21.422L140.263 6.23057L125.072 21.422Z" fill="#341212"/>
<path d="M163.568 36.907L148.083 21.422L163.568 5.93701L179.053 21.422L163.568 36.907ZM148.377 21.422L163.568 36.6135L178.759 21.422L163.568 6.23057L148.377 21.422Z" fill="#341212"/>
<path d="M23.7037 60.0066L8.21875 44.5216L23.7037 29.0366L39.1887 44.5216L23.7037 60.0066ZM8.5123 44.5216L23.7037 59.7131L38.8952 44.5216L23.7037 29.3302L8.5123 44.5216Z" fill="#341212"/>
<path d="M47.0289 60.0066L31.5439 44.5216L47.0289 29.0366L62.5139 44.5216L47.0289 60.0066ZM31.8375 44.5216L47.0289 59.7131L62.2204 44.5216L47.0289 29.3302L31.8375 44.5216Z" fill="#341212"/>
<path d="M70.3278 60.0066L54.8428 44.5216L70.3278 29.0366L85.8128 44.5216L70.3278 60.0066ZM55.1363 44.5216L70.3278 59.7131L85.5192 44.5216L70.3278 29.3302L55.1363 44.5216Z" fill="#341212"/>
<path d="M93.6393 60.0066L78.1543 44.5216L93.6393 29.0366L109.124 44.5216L93.6393 60.0066ZM78.4479 44.5216L93.6393 59.7131L108.831 44.5216L93.6393 29.3302L78.4479 44.5216Z" fill="#341212"/>
<path d="M116.945 60.0066L101.46 44.5216L116.945 29.0366L132.43 44.5216L116.945 60.0066ZM101.753 44.5216L116.945 59.7131L132.136 44.5216L116.945 29.3302L101.753 44.5216Z" fill="#341212"/>
<path d="M140.263 60.0066L124.778 44.5216L140.263 29.0366L155.748 44.5216L140.263 60.0066ZM125.072 44.5216L140.263 59.7131L155.455 44.5216L140.263 29.3302L125.072 44.5216Z" fill="#341212"/>
<path d="M163.568 60.0066L148.083 44.5216L163.568 29.0366L179.053 44.5216L163.568 60.0066ZM148.377 44.5216L163.568 59.7131L178.759 44.5216L163.568 29.3302L148.377 44.5216Z" fill="#341212"/>
<path d="M0.405893 83.0882L-15.0791 67.6032L0.405893 52.1182L15.8909 67.6032L0.405893 83.0882ZM-14.7855 67.6032L0.405893 82.7946L15.5973 67.6032L0.405893 52.4117L-14.7855 67.6032Z" fill="#341212"/>
<path d="M23.7037 83.0882L8.21875 67.6032L23.7037 52.1182L39.1887 67.6032L23.7037 83.0882ZM8.5123 67.6032L23.7037 82.7946L38.8952 67.6032L23.7037 52.4117L8.5123 67.6032Z" fill="#341212"/>
<path d="M47.0289 83.0882L31.5439 67.6032L47.0289 52.1182L62.5139 67.6032L47.0289 83.0882ZM31.8375 67.6032L47.0289 82.7946L62.2204 67.6032L47.0289 52.4117L31.8375 67.6032Z" fill="#341212"/>
<path d="M70.3278 83.0882L54.8428 67.6032L70.3278 52.1182L85.8128 67.6032L70.3278 83.0882ZM55.1363 67.6032L70.3278 82.7946L85.5192 67.6032L70.3278 52.4117L55.1363 67.6032Z" fill="#341212"/>
<path d="M93.6393 83.0882L78.1543 67.6032L93.6393 52.1182L109.124 67.6032L93.6393 83.0882ZM78.4479 67.6032L93.6393 82.7946L108.831 67.6032L93.6393 52.4117L78.4479 67.6032Z" fill="#341212"/>
<path d="M116.945 83.0882L101.46 67.6032L116.945 52.1182L132.43 67.6032L116.945 83.0882ZM101.753 67.6032L116.945 82.7946L132.136 67.6032L116.945 52.4117L101.753 67.6032Z" fill="#341212"/>
<path d="M140.263 83.0882L124.778 67.6032L140.263 52.1182L155.748 67.6032L140.263 83.0882ZM125.072 67.6032L140.263 82.7946L155.455 67.6032L140.263 52.4117L125.072 67.6032Z" fill="#341212"/>
<path d="M163.568 83.0882L148.083 67.6032L163.568 52.1182L179.053 67.6032L163.568 83.0882ZM148.377 67.6032L163.568 82.7946L178.759 67.6032L163.568 52.4117L148.377 67.6032Z" fill="#341212"/>
<path d="M23.7037 106.188L8.21875 90.7028L23.7037 75.2178L39.1887 90.7028L23.7037 106.188ZM8.5123 90.7028L23.7037 105.894L38.8952 90.7028L23.7037 75.5113L8.5123 90.7028Z" fill="#341212"/>
<path d="M47.0289 106.188L31.5439 90.7028L47.0289 75.2178L62.5139 90.7028L47.0289 106.188ZM31.8375 90.7028L47.0289 105.894L62.2204 90.7028L47.0289 75.5113L31.8375 90.7028Z" fill="#341212"/>
<path d="M70.3278 106.188L54.8428 90.7028L70.3278 75.2178L85.8128 90.7028L70.3278 106.188ZM55.1363 90.7028L70.3278 105.894L85.5192 90.7028L70.3278 75.5113L55.1363 90.7028Z" fill="#341212"/>
<path d="M93.6393 106.188L78.1543 90.7028L93.6393 75.2178L109.124 90.7028L93.6393 106.188ZM78.4479 90.7028L93.6393 105.894L108.831 90.7028L93.6393 75.5113L78.4479 90.7028Z" fill="#341212"/>
<path d="M116.945 106.188L101.46 90.7028L116.945 75.2178L132.43 90.7028L116.945 106.188ZM101.753 90.7028L116.945 105.894L132.136 90.7028L116.945 75.5113L101.753 90.7028Z" fill="#341212"/>
<path d="M140.263 106.188L124.778 90.7028L140.263 75.2178L155.748 90.7028L140.263 106.188ZM125.072 90.7028L140.263 105.894L155.455 90.7028L140.263 75.5113L125.072 90.7028Z" fill="#341212"/>
<path d="M163.568 106.188L148.083 90.7028L163.568 75.2178L179.053 90.7028L163.568 106.188ZM148.377 90.7028L163.568 105.894L178.759 90.7028L163.568 75.5113L148.377 90.7028Z" fill="#341212"/>
<path d="M0.405893 129.285L-15.0791 113.8L0.405893 98.3154L15.8909 113.8L0.405893 129.285ZM-14.7855 113.8L0.405893 128.992L15.5973 113.8L0.405893 98.609L-14.7855 113.8Z" fill="#341212"/>
<path d="M23.7037 129.285L8.21875 113.8L23.7037 98.3154L39.1887 113.8L23.7037 129.285ZM8.5123 113.8L23.7037 128.992L38.8952 113.8L23.7037 98.609L8.5123 113.8Z" fill="#341212"/>
<path d="M47.0289 129.285L31.5439 113.8L47.0289 98.3154L62.5139 113.8L47.0289 129.285ZM31.8375 113.8L47.0289 128.992L62.2204 113.8L47.0289 98.609L31.8375 113.8Z" fill="#341212"/>
<path d="M70.3278 129.285L54.8428 113.8L70.3278 98.3154L85.8128 113.8L70.3278 129.285ZM55.1363 113.8L70.3278 128.992L85.5192 113.8L70.3278 98.609L55.1363 113.8Z" fill="#341212"/>
<path d="M93.6393 129.285L78.1543 113.8L93.6393 98.3154L109.124 113.8L93.6393 129.285ZM78.4479 113.8L93.6393 128.992L108.831 113.8L93.6393 98.609L78.4479 113.8Z" fill="#341212"/>
<path d="M116.945 129.285L101.46 113.8L116.945 98.3154L132.43 113.8L116.945 129.285ZM101.753 113.8L116.945 128.992L132.136 113.8L116.945 98.609L101.753 113.8Z" fill="#341212"/>
<path d="M140.263 129.285L124.778 113.8L140.263 98.3154L155.748 113.8L140.263 129.285ZM125.072 113.8L140.263 128.992L155.455 113.8L140.263 98.609L125.072 113.8Z" fill="#341212"/>
<path d="M163.568 129.285L148.083 113.8L163.568 98.3154L179.053 113.8L163.568 129.285ZM148.377 113.8L163.568 128.992L178.759 113.8L163.568 98.609L148.377 113.8Z" fill="#341212"/>
<path d="M23.7037 152.367L8.21875 136.882L23.7037 121.397L39.1887 136.882L23.7037 152.367ZM8.5123 136.882L23.7037 152.073L38.8952 136.882L23.7037 121.691L8.5123 136.882Z" fill="#341212"/>
<path d="M47.0289 152.367L31.5439 136.882L47.0289 121.397L62.5139 136.882L47.0289 152.367ZM31.8375 136.882L47.0289 152.073L62.2204 136.882L47.0289 121.691L31.8375 136.882Z" fill="#341212"/>
<path d="M70.3278 152.367L54.8428 136.882L70.3278 121.397L85.8128 136.882L70.3278 152.367ZM55.1363 136.882L70.3278 152.073L85.5192 136.882L70.3278 121.691L55.1363 136.882Z" fill="#341212"/>
<path d="M93.6393 152.367L78.1543 136.882L93.6393 121.397L109.124 136.882L93.6393 152.367ZM78.4479 136.882L93.6393 152.073L108.831 136.882L93.6393 121.691L78.4479 136.882Z" fill="#341212"/>
<path d="M116.945 152.367L101.46 136.882L116.945 121.397L132.43 136.882L116.945 152.367ZM101.753 136.882L116.945 152.073L132.136 136.882L116.945 121.691L101.753 136.882Z" fill="#341212"/>
<path d="M140.263 152.367L124.778 136.882L140.263 121.397L155.748 136.882L140.263 152.367ZM125.072 136.882L140.263 152.073L155.455 136.882L140.263 121.691L125.072 136.882Z" fill="#341212"/>
<path d="M163.568 152.367L148.083 136.882L163.568 121.397L179.053 136.882L163.568 152.367ZM148.377 136.882L163.568 152.073L178.759 136.882L163.568 121.691L148.377 136.882Z" fill="#341212"/>
<path d="M0.405893 175.465L-15.0791 159.98L0.405893 144.495L15.8909 159.98L0.405893 175.465ZM-14.7855 159.98L0.405893 175.172L15.5973 159.98L0.405893 144.789L-14.7855 159.98Z" fill="#341212"/>
<path d="M23.7037 175.465L8.21875 159.98L23.7037 144.495L39.1887 159.98L23.7037 175.465ZM8.5123 159.98L23.7037 175.172L38.8952 159.98L23.7037 144.789L8.5123 159.98Z" fill="#341212"/>
<path d="M47.0289 175.465L31.5439 159.98L47.0289 144.495L62.5139 159.98L47.0289 175.465ZM31.8375 159.98L47.0289 175.172L62.2204 159.98L47.0289 144.789L31.8375 159.98Z" fill="#341212"/>
<path d="M70.3278 175.465L54.8428 159.98L70.3278 144.495L85.8128 159.98L70.3278 175.465ZM55.1363 159.98L70.3278 175.172L85.5192 159.98L70.3278 144.789L55.1363 159.98Z" fill="#341212"/>
<path d="M93.6393 175.465L78.1543 159.98L93.6393 144.495L109.124 159.98L93.6393 175.465ZM78.4479 159.98L93.6393 175.172L108.831 159.98L93.6393 144.789L78.4479 159.98Z" fill="#341212"/>
<path d="M116.945 175.465L101.46 159.98L116.945 144.495L132.43 159.98L116.945 175.465ZM101.753 159.98L116.945 175.172L132.136 159.98L116.945 144.789L101.753 159.98Z" fill="#341212"/>
<path d="M140.263 175.465L124.778 159.98L140.263 144.495L155.748 159.98L140.263 175.465ZM125.072 159.98L140.263 175.172L155.455 159.98L140.263 144.789L125.072 159.98Z" fill="#341212"/>
<path d="M163.568 175.465L148.083 159.98L163.568 144.495L179.053 159.98L163.568 175.465ZM148.377 159.98L163.568 175.172L178.759 159.98L163.568 144.789L148.377 159.98Z" fill="#341212"/>
<path d="M23.7037 198.565L8.21875 183.08L23.7037 167.595L39.1887 183.08L23.7037 198.565ZM8.5123 183.08L23.7037 198.271L38.8952 183.08L23.7037 167.888L8.5123 183.08Z" fill="#341212"/>
<path d="M47.0289 198.565L31.5439 183.08L47.0289 167.595L62.5139 183.08L47.0289 198.565ZM31.8375 183.08L47.0289 198.271L62.2204 183.08L47.0289 167.888L31.8375 183.08Z" fill="#341212"/>
<path d="M70.3278 198.565L54.8428 183.08L70.3278 167.595L85.8128 183.08L70.3278 198.565ZM55.1363 183.08L70.3278 198.271L85.5192 183.08L70.3278 167.888L55.1363 183.08Z" fill="#341212"/>
<path d="M93.6393 198.565L78.1543 183.08L93.6393 167.595L109.124 183.08L93.6393 198.565ZM78.4479 183.08L93.6393 198.271L108.831 183.08L93.6393 167.888L78.4479 183.08Z" fill="#341212"/>
<path d="M116.945 198.565L101.46 183.08L116.945 167.595L132.43 183.08L116.945 198.565ZM101.753 183.08L116.945 198.271L132.136 183.08L116.945 167.888L101.753 183.08Z" fill="#341212"/>
<path d="M140.263 198.565L124.778 183.08L140.263 167.595L155.748 183.08L140.263 198.565ZM125.072 183.08L140.263 198.271L155.455 183.08L140.263 167.888L125.072 183.08Z" fill="#341212"/>
<path d="M163.568 198.565L148.083 183.08L163.568 167.595L179.053 183.08L163.568 198.565ZM148.377 183.08L163.568 198.271L178.759 183.08L163.568 167.888L148.377 183.08Z" fill="#341212"/>
<path d="M0.403052 32.3027L-10.4768 21.4228L0.403052 10.543L11.2829 21.4228L0.403052 32.3027ZM-10.1833 21.4228L0.403052 32.0091L10.9894 21.4228L0.403052 10.8365L-10.1833 21.4228Z" fill="#341212"/>
<path d="M23.7021 32.3027L12.8223 21.4228L23.7021 10.543L34.582 21.4228L23.7021 32.3027ZM13.1158 21.4228L23.7021 32.0091L34.2884 21.4228L23.7021 10.8365L13.1158 21.4228Z" fill="#341212"/>
<path d="M47.0263 32.3027L36.1465 21.4228L47.0263 10.543L57.9062 21.4228L47.0263 32.3027ZM36.44 21.4228L47.0263 32.0091L57.6127 21.4228L47.0263 10.8365L36.44 21.4228Z" fill="#341212"/>
<path d="M70.3254 32.3027L59.4456 21.4228L70.3254 10.543L81.2053 21.4228L70.3254 32.3027ZM59.7391 21.4228L70.3254 32.0091L80.9117 21.4228L70.3254 10.8365L59.7391 21.4228Z" fill="#341212"/>
<path d="M93.6435 32.3027L82.7637 21.4228L93.6435 10.543L104.523 21.4228L93.6435 32.3027ZM83.0572 21.4228L93.6435 32.0091L104.23 21.4228L93.6435 10.8365L83.0572 21.4228Z" fill="#341212"/>
<path d="M116.942 32.3027L106.062 21.4228L116.942 10.543L127.822 21.4228L116.942 32.3027ZM106.356 21.4228L116.942 32.0091L127.529 21.4228L116.942 10.8365L106.356 21.4228Z" fill="#341212"/>
<path d="M140.268 32.3027L129.388 21.4228L140.268 10.543L151.147 21.4228L140.268 32.3027ZM129.681 21.4228L140.268 32.0091L150.854 21.4228L140.268 10.8365L129.681 21.4228Z" fill="#341212"/>
<path d="M163.566 32.3027L152.687 21.4228L163.566 10.543L174.446 21.4228L163.566 32.3027ZM152.98 21.4228L163.566 32.0091L174.153 21.4228L163.566 10.8365L152.98 21.4228Z" fill="#341212"/>
<path d="M23.7021 55.4023L12.8223 44.5224L23.7021 33.6426L34.582 44.5224L23.7021 55.4023ZM13.1158 44.5224L23.7021 55.1087L34.2884 44.5224L23.7021 33.9361L13.1158 44.5224Z" fill="#341212"/>
<path d="M47.0263 55.4023L36.1465 44.5224L47.0263 33.6426L57.9062 44.5224L47.0263 55.4023ZM36.44 44.5224L47.0263 55.1087L57.6127 44.5224L47.0263 33.9361L36.44 44.5224Z" fill="#341212"/>
<path d="M70.3254 55.4023L59.4456 44.5224L70.3254 33.6426L81.2053 44.5224L70.3254 55.4023ZM59.7391 44.5224L70.3254 55.1087L80.9117 44.5224L70.3254 33.9361L59.7391 44.5224Z" fill="#341212"/>
<path d="M93.6435 55.4023L82.7637 44.5224L93.6435 33.6426L104.523 44.5224L93.6435 55.4023ZM83.0572 44.5224L93.6435 55.1087L104.23 44.5224L93.6435 33.9361L83.0572 44.5224Z" fill="#341212"/>
<path d="M116.942 55.4023L106.062 44.5224L116.942 33.6426L127.822 44.5224L116.942 55.4023ZM106.356 44.5224L116.942 55.1087L127.529 44.5224L116.942 33.9361L106.356 44.5224Z" fill="#341212"/>
<path d="M140.268 55.4023L129.388 44.5224L140.268 33.6426L151.147 44.5224L140.268 55.4023ZM129.681 44.5224L140.268 55.1087L150.854 44.5224L140.268 33.9361L129.681 44.5224Z" fill="#341212"/>
<path d="M163.566 55.4023L152.687 44.5224L163.566 33.6426L174.446 44.5224L163.566 55.4023ZM152.98 44.5224L163.566 55.1087L174.153 44.5224L163.566 33.9361L152.98 44.5224Z" fill="#341212"/>
<path d="M0.403052 78.4824L-10.4768 67.6025L0.403052 56.7227L11.2829 67.6025L0.403052 78.4824ZM-10.1833 67.6025L0.403052 78.1888L10.9894 67.6025L0.403052 57.0162L-10.1833 67.6025Z" fill="#341212"/>
<path d="M23.7021 78.4824L12.8223 67.6025L23.7021 56.7227L34.582 67.6025L23.7021 78.4824ZM13.1158 67.6025L23.7021 78.1888L34.2884 67.6025L23.7021 57.0162L13.1158 67.6025Z" fill="#341212"/>
<path d="M47.0263 78.4824L36.1465 67.6025L47.0263 56.7227L57.9062 67.6025L47.0263 78.4824ZM36.44 67.6025L47.0263 78.1888L57.6127 67.6025L47.0263 57.0162L36.44 67.6025Z" fill="#341212"/>
<path d="M70.3254 78.4824L59.4456 67.6025L70.3254 56.7227L81.2053 67.6025L70.3254 78.4824ZM59.7391 67.6025L70.3254 78.1888L80.9117 67.6025L70.3254 57.0162L59.7391 67.6025Z" fill="#341212"/>
<path d="M93.6435 78.4824L82.7637 67.6025L93.6435 56.7227L104.523 67.6025L93.6435 78.4824ZM83.0572 67.6025L93.6435 78.1888L104.23 67.6025L93.6435 57.0162L83.0572 67.6025Z" fill="#341212"/>
<path d="M116.942 78.4824L106.062 67.6025L116.942 56.7227L127.822 67.6025L116.942 78.4824ZM106.356 67.6025L116.942 78.1888L127.529 67.6025L116.942 57.0162L106.356 67.6025Z" fill="#341212"/>
<path d="M140.268 78.4824L129.388 67.6025L140.268 56.7227L151.147 67.6025L140.268 78.4824ZM129.681 67.6025L140.268 78.1888L150.854 67.6025L140.268 57.0162L129.681 67.6025Z" fill="#341212"/>
<path d="M163.566 78.4824L152.687 67.6025L163.566 56.7227L174.446 67.6025L163.566 78.4824ZM152.98 67.6025L163.566 78.1888L174.153 67.6025L163.566 57.0162L152.98 67.6025Z" fill="#341212"/>
<path d="M23.7021 101.582L12.8223 90.7021L23.7021 79.8223L34.582 90.7021L23.7021 101.582ZM13.1158 90.7021L23.7021 101.288L34.2884 90.7021L23.7021 80.1158L13.1158 90.7021Z" fill="#341212"/>
<path d="M47.0263 101.582L36.1465 90.7021L47.0263 79.8223L57.9062 90.7021L47.0263 101.582ZM36.44 90.7021L47.0263 101.288L57.6127 90.7021L47.0263 80.1158L36.44 90.7021Z" fill="#341212"/>
<path d="M70.3254 101.582L59.4456 90.7021L70.3254 79.8223L81.2053 90.7021L70.3254 101.582ZM59.7391 90.7021L70.3254 101.288L80.9117 90.7021L70.3254 80.1158L59.7391 90.7021Z" fill="#341212"/>
<path d="M93.6435 101.582L82.7637 90.7021L93.6435 79.8223L104.523 90.7021L93.6435 101.582ZM83.0572 90.7021L93.6435 101.288L104.23 90.7021L93.6435 80.1158L83.0572 90.7021Z" fill="#341212"/>
<path d="M116.942 101.582L106.062 90.7021L116.942 79.8223L127.822 90.7021L116.942 101.582ZM106.356 90.7021L116.942 101.288L127.529 90.7021L116.942 80.1158L106.356 90.7021Z" fill="#341212"/>
<path d="M140.268 101.582L129.388 90.7021L140.268 79.8223L151.147 90.7021L140.268 101.582ZM129.681 90.7021L140.268 101.288L150.854 90.7021L140.268 80.1158L129.681 90.7021Z" fill="#341212"/>
<path d="M163.566 101.582L152.687 90.7021L163.566 79.8223L174.446 90.7021L163.566 101.582ZM152.98 90.7021L163.566 101.288L174.153 90.7021L163.566 80.1158L152.98 90.7021Z" fill="#341212"/>
<path d="M0.403052 124.662L-10.4768 113.782L0.403052 102.902L11.2829 113.782L0.403052 124.662ZM-10.1833 113.782L0.403052 124.368L10.9894 113.782L0.403052 103.195L-10.1833 113.782Z" fill="#341212"/>
<path d="M23.7021 124.662L12.8223 113.782L23.7021 102.902L34.582 113.782L23.7021 124.662ZM13.1158 113.782L23.7021 124.368L34.2884 113.782L23.7021 103.195L13.1158 113.782Z" fill="#341212"/>
<path d="M47.0263 124.662L36.1465 113.782L47.0263 102.902L57.9062 113.782L47.0263 124.662ZM36.44 113.782L47.0263 124.368L57.6127 113.782L47.0263 103.195L36.44 113.782Z" fill="#341212"/>
<path d="M70.3254 124.662L59.4456 113.782L70.3254 102.902L81.2053 113.782L70.3254 124.662ZM59.7391 113.782L70.3254 124.368L80.9117 113.782L70.3254 103.195L59.7391 113.782Z" fill="#341212"/>
<path d="M93.6435 124.662L82.7637 113.782L93.6435 102.902L104.523 113.782L93.6435 124.662ZM83.0572 113.782L93.6435 124.368L104.23 113.782L93.6435 103.195L83.0572 113.782Z" fill="#341212"/>
<path d="M116.942 124.662L106.062 113.782L116.942 102.902L127.822 113.782L116.942 124.662ZM106.356 113.782L116.942 124.368L127.529 113.782L116.942 103.195L106.356 113.782Z" fill="#341212"/>
<path d="M140.268 124.662L129.388 113.782L140.268 102.902L151.147 113.782L140.268 124.662ZM129.681 113.782L140.268 124.368L150.854 113.782L140.268 103.195L129.681 113.782Z" fill="#341212"/>
<path d="M163.566 124.662L152.687 113.782L163.566 102.902L174.446 113.782L163.566 124.662ZM152.98 113.782L163.566 124.368L174.153 113.782L163.566 103.195L152.98 113.782Z" fill="#341212"/>
<path d="M23.7021 147.761L12.8223 136.881L23.7021 126.001L34.582 136.881L23.7021 147.761ZM13.1158 136.881L23.7021 147.468L34.2884 136.881L23.7021 126.295L13.1158 136.881Z" fill="#341212"/>
<path d="M47.0263 147.761L36.1465 136.881L47.0263 126.001L57.9062 136.881L47.0263 147.761ZM36.44 136.881L47.0263 147.468L57.6127 136.881L47.0263 126.295L36.44 136.881Z" fill="#341212"/>
<path d="M70.3254 147.761L59.4456 136.881L70.3254 126.001L81.2053 136.881L70.3254 147.761ZM59.7391 136.881L70.3254 147.468L80.9117 136.881L70.3254 126.295L59.7391 136.881Z" fill="#341212"/>
<path d="M93.6435 147.761L82.7637 136.881L93.6435 126.001L104.523 136.881L93.6435 147.761ZM83.0572 136.881L93.6435 147.468L104.23 136.881L93.6435 126.295L83.0572 136.881Z" fill="#341212"/>
<path d="M116.942 147.761L106.062 136.881L116.942 126.001L127.822 136.881L116.942 147.761ZM106.356 136.881L116.942 147.468L127.529 136.881L116.942 126.295L106.356 136.881Z" fill="#341212"/>
<path d="M140.268 147.761L129.388 136.881L140.268 126.001L151.147 136.881L140.268 147.761ZM129.681 136.881L140.268 147.468L150.854 136.881L140.268 126.295L129.681 136.881Z" fill="#341212"/>
<path d="M163.566 147.761L152.687 136.881L163.566 126.001L174.446 136.881L163.566 147.761ZM152.98 136.881L163.566 147.468L174.153 136.881L163.566 126.295L152.98 136.881Z" fill="#341212"/>
<path d="M0.403052 170.859L-10.4768 159.979L0.403052 149.099L11.2829 159.979L0.403052 170.859ZM-10.1833 159.979L0.403052 170.565L10.9894 159.979L0.403052 149.393L-10.1833 159.979Z" fill="#341212"/>
<path d="M23.7021 170.859L12.8223 159.979L23.7021 149.099L34.582 159.979L23.7021 170.859ZM13.1158 159.979L23.7021 170.565L34.2884 159.979L23.7021 149.393L13.1158 159.979Z" fill="#341212"/>
<path d="M47.0263 170.859L36.1465 159.979L47.0263 149.099L57.9062 159.979L47.0263 170.859ZM36.44 159.979L47.0263 170.565L57.6127 159.979L47.0263 149.393L36.44 159.979Z" fill="#341212"/>
<path d="M70.3254 170.859L59.4456 159.979L70.3254 149.099L81.2053 159.979L70.3254 170.859ZM59.7391 159.979L70.3254 170.565L80.9117 159.979L70.3254 149.393L59.7391 159.979Z" fill="#341212"/>
<path d="M93.6435 170.859L82.7637 159.979L93.6435 149.099L104.523 159.979L93.6435 170.859ZM83.0572 159.979L93.6435 170.565L104.23 159.979L93.6435 149.393L83.0572 159.979Z" fill="#341212"/>
<path d="M116.942 170.859L106.062 159.979L116.942 149.099L127.822 159.979L116.942 170.859ZM106.356 159.979L116.942 170.565L127.529 159.979L116.942 149.393L106.356 159.979Z" fill="#341212"/>
<path d="M140.268 170.859L129.388 159.979L140.268 149.099L151.147 159.979L140.268 170.859ZM129.681 159.979L140.268 170.565L150.854 159.979L140.268 149.393L129.681 159.979Z" fill="#341212"/>
<path d="M163.566 170.859L152.687 159.979L163.566 149.099L174.446 159.979L163.566 170.859ZM152.98 159.979L163.566 170.565L174.153 159.979L163.566 149.393L152.98 159.979Z" fill="#341212"/>
<path d="M23.7021 193.94L12.8223 183.061L23.7021 172.181L34.582 183.061L23.7021 193.94ZM13.1158 183.061L23.7021 193.647L34.2884 183.061L23.7021 172.474L13.1158 183.061Z" fill="#341212"/>
<path d="M47.0263 193.94L36.1465 183.061L47.0263 172.181L57.9062 183.061L47.0263 193.94ZM36.44 183.061L47.0263 193.647L57.6127 183.061L47.0263 172.474L36.44 183.061Z" fill="#341212"/>
<path d="M70.3254 193.94L59.4456 183.061L70.3254 172.181L81.2053 183.061L70.3254 193.94ZM59.7391 183.061L70.3254 193.647L80.9117 183.061L70.3254 172.474L59.7391 183.061Z" fill="#341212"/>
<path d="M93.6435 193.94L82.7637 183.061L93.6435 172.181L104.523 183.061L93.6435 193.94ZM83.0572 183.061L93.6435 193.647L104.23 183.061L93.6435 172.474L83.0572 183.061Z" fill="#341212"/>
<path d="M116.942 193.94L106.062 183.061L116.942 172.181L127.822 183.061L116.942 193.94ZM106.356 183.061L116.942 193.647L127.529 183.061L116.942 172.474L106.356 183.061Z" fill="#341212"/>
<path d="M140.268 193.94L129.388 183.061L140.268 172.181L151.147 183.061L140.268 193.94ZM129.681 183.061L140.268 193.647L150.854 183.061L140.268 172.474L129.681 183.061Z" fill="#341212"/>
<path d="M163.566 193.94L152.687 183.061L163.566 172.181L174.446 183.061L163.566 193.94ZM152.98 183.061L163.566 193.647L174.153 183.061L163.566 172.474L152.98 183.061Z" fill="#341212"/>
<path d="M71.9936 18.5441C71.9936 18.5441 71.9202 18.5441 71.8835 18.5257C71.8835 18.5257 71.8652 18.5257 71.8468 18.5257C71.8285 18.5257 71.8102 18.5257 71.7735 18.5257C71.7735 18.5257 71.7368 18.5257 71.7184 18.5257C71.7001 18.5257 71.6817 18.5257 71.6634 18.5257C71.6634 18.5257 71.6267 18.5257 71.6083 18.5257C71.59 18.5257 71.5716 18.5257 71.5533 18.5257C71.5533 18.5257 71.5166 18.5257 71.4982 18.5257C71.4799 18.5257 71.4616 18.5257 71.4432 18.5257C71.4249 18.5257 71.4065 18.5257 71.3882 18.5257C71.3698 18.5257 71.3515 18.5257 71.3331 18.5257C71.3148 18.5257 71.2964 18.5257 71.2781 18.5257C71.2597 18.5257 71.2414 18.5257 71.223 18.5257C71.2047 18.5257 71.1863 18.5257 71.168 18.5257C71.1497 18.5257 71.1313 18.5257 71.113 18.5441C71.0946 18.5441 71.0763 18.5441 71.0579 18.5624C71.0396 18.5624 71.0212 18.5624 71.0029 18.5808C70.9845 18.5808 70.9662 18.5808 70.9478 18.6174C70.9295 18.6174 70.9111 18.6358 70.8928 18.6541C70.8928 18.6541 70.8561 18.6725 70.8377 18.6908C70.8194 18.6908 70.8011 18.7092 70.7827 18.7275C70.7827 18.7275 70.746 18.7459 70.7277 18.7642C70.7093 18.7642 70.691 18.8009 70.6726 18.8193C70.6726 18.8193 70.6359 18.856 70.6176 18.856C70.5992 18.856 70.5809 18.8927 70.5625 18.911C70.5625 18.911 70.5258 18.9477 70.5075 18.966C70.5075 18.9844 70.4708 19.0027 70.4525 19.0211C70.4525 19.0394 70.4158 19.0578 70.4158 19.0761C70.4158 19.0945 70.3791 19.1128 70.3607 19.1495C70.3607 19.1679 70.324 19.1862 70.324 19.2046C70.324 19.2046 70.3057 19.2229 70.3057 19.2413C69.847 18.4707 69.0948 18.3606 68.5811 18.489C68.0306 18.6358 67.4802 19.1128 67.4802 19.8834C67.4802 20.8375 68.1774 21.5163 68.9296 22.2135C69.4434 22.7089 69.9754 23.2226 70.269 23.8464L70.324 23.9381L70.3791 23.8464C70.6726 23.2226 71.2047 22.7272 71.7184 22.2318C72.4523 21.5163 73.1678 20.8558 73.1678 19.9017C73.1678 19.1312 72.6174 18.6541 72.067 18.5074L71.9936 18.5441Z" fill="#341212"/>
<path d="M46.9661 24.3045C46.6359 23.5339 44.6544 21.5708 43.8838 21.2405C44.6544 20.9103 46.6175 18.9288 46.9478 18.1582C47.1129 18.5618 47.755 19.2957 48.3055 19.8461C48.8742 20.4149 49.6081 21.0571 50.0117 21.2222C49.2412 21.5524 47.278 23.5339 46.9478 24.3045H46.9661Z" fill="#341212"/>
<path d="M25.0449 19.5529C24.5862 19.1126 23.944 18.6356 23.6505 18.1035C23.3569 18.6539 22.7148 19.1126 22.2561 19.5529C21.5589 20.2134 20.9167 20.8372 20.9167 21.6996C20.9167 22.2683 21.2653 22.7453 21.8158 22.9105C22.4029 23.0939 23.0083 22.8738 23.3753 22.3601L23.4487 22.1949C23.4487 22.3417 23.4487 22.4885 23.4487 22.6353C23.4487 22.7453 23.412 22.8554 23.3753 22.9655C23.1918 23.4976 22.7698 23.993 22.3662 24.3782C22.6597 24.2865 23.2285 24.2315 23.6505 24.2315C24.0725 24.2315 24.6412 24.2865 24.9348 24.3782C24.5311 23.993 24.1092 23.4976 23.9257 22.9655C23.9073 22.8554 23.8706 22.7453 23.8523 22.6353C23.8339 22.4885 23.8339 22.3417 23.8523 22.1949L23.9257 22.3601C24.2926 22.8738 24.8981 23.0939 25.4852 22.9105C26.0356 22.7453 26.3842 22.2683 26.3842 21.6996C26.3842 20.8372 25.7237 20.2134 25.0449 19.5529Z" fill="#341212"/>
<path d="M95.7471 20.0668C95.1967 20.0668 94.7013 20.3787 94.4628 20.8374C94.2977 21.0209 94.0591 21.0943 93.839 21.1493C93.894 20.8374 93.9858 20.5439 94.2059 20.3787C94.7013 20.1586 95.0132 19.6632 95.0132 19.1495C95.0132 18.8009 94.8664 18.4523 94.6096 18.1954C94.3344 17.9202 93.9674 17.7734 93.5821 17.7734C92.7932 17.7734 92.151 18.3972 92.151 19.1495C92.151 19.6815 92.4813 20.1586 92.9583 20.3787C93.1418 20.5072 93.2519 20.8191 93.3253 21.1493C93.1051 21.0943 92.8666 21.0209 92.7015 20.8374C92.4629 20.3604 91.9492 20.0668 91.4172 20.0668C90.6282 20.0668 89.9861 20.6906 89.9861 21.4429C89.9861 22.1951 90.6282 22.8189 91.4172 22.8189C91.9676 22.8189 92.518 22.4887 92.7565 21.9933C92.9216 21.8282 93.1234 21.7731 93.3987 21.7181C93.417 22.085 93.3986 22.452 93.362 22.6538C93.0867 23.4244 92.3896 24.3234 92.0043 24.6353L92.0593 24.7087C92.5547 24.305 94.6096 24.305 95.1233 24.7087L95.1783 24.6353C94.793 24.305 94.0408 23.3326 93.8206 22.6538C93.7472 22.3786 93.7656 21.8832 93.7656 21.6997C94.0225 21.7548 94.2426 21.7915 94.4261 21.9749C94.6646 22.452 95.215 22.8006 95.7654 22.8006C96.5544 22.8006 97.1965 22.1768 97.1965 21.4245C97.1965 20.6723 96.5544 20.0485 95.7654 20.0485L95.7471 20.0668Z" fill="#341212"/>
<path d="M140.216 24.3045C139.886 23.5339 137.904 21.5708 137.134 21.2405C137.904 20.9103 139.868 18.9288 140.198 18.1582C140.363 18.5618 141.005 19.2957 141.555 19.8461C142.124 20.4149 142.858 21.0571 143.262 21.2222C142.491 21.5524 140.528 23.5339 140.198 24.3045H140.216Z" fill="#341212"/>
<path d="M118.295 19.5529C117.836 19.1126 117.194 18.6356 116.9 18.1035C116.607 18.6539 115.965 19.1126 115.506 19.5529C114.809 20.2134 114.167 20.8372 114.167 21.6996C114.167 22.2683 114.515 22.7453 115.066 22.9105C115.653 23.0939 116.258 22.8738 116.625 22.3601L116.699 22.1949C116.699 22.3417 116.699 22.4885 116.699 22.6353C116.699 22.7453 116.662 22.8554 116.625 22.9655C116.442 23.4976 116.02 23.993 115.616 24.3782C115.91 24.2865 116.478 24.2315 116.9 24.2315C117.322 24.2315 117.891 24.2865 118.185 24.3782C117.781 23.993 117.359 23.4976 117.176 22.9655C117.157 22.8554 117.121 22.7453 117.102 22.6353C117.084 22.4885 117.084 22.3417 117.102 22.1949L117.176 22.3601C117.543 22.8738 118.148 23.0939 118.735 22.9105C119.286 22.7453 119.634 22.2683 119.634 21.6996C119.634 20.8372 118.974 20.2134 118.295 19.5529Z" fill="#341212"/>
<path d="M71.9936 64.8126C71.9936 64.8126 71.9202 64.8126 71.8835 64.7943C71.8835 64.7943 71.8652 64.7943 71.8468 64.7943C71.8285 64.7943 71.8102 64.7943 71.7735 64.7943C71.7735 64.7943 71.7368 64.7943 71.7184 64.7943C71.7001 64.7943 71.6817 64.7943 71.6634 64.7943C71.6634 64.7943 71.6267 64.7943 71.6083 64.7943C71.59 64.7943 71.5716 64.7943 71.5533 64.7943C71.5533 64.7943 71.5166 64.7943 71.4982 64.7943C71.4799 64.7943 71.4616 64.7943 71.4432 64.7943C71.4249 64.7943 71.4065 64.7943 71.3882 64.7943C71.3698 64.7943 71.3515 64.7943 71.3331 64.7943C71.3148 64.7943 71.2964 64.7943 71.2781 64.7943C71.2597 64.7943 71.2414 64.7943 71.223 64.7943C71.2047 64.7943 71.1863 64.7943 71.168 64.7943C71.1497 64.7943 71.1313 64.7943 71.113 64.8126C71.0946 64.8126 71.0763 64.8126 71.0579 64.831C71.0396 64.831 71.0212 64.831 71.0029 64.8493C70.9845 64.8493 70.9662 64.8493 70.9478 64.886C70.9295 64.886 70.9111 64.9043 70.8928 64.9227C70.8928 64.9227 70.8561 64.941 70.8377 64.9594C70.8194 64.9594 70.8011 64.9777 70.7827 64.9961C70.7827 64.9961 70.746 65.0144 70.7277 65.0328C70.7093 65.0328 70.691 65.0695 70.6726 65.0878C70.6726 65.0878 70.6359 65.1245 70.6176 65.1245C70.5992 65.1245 70.5809 65.1612 70.5625 65.1796C70.5625 65.1796 70.5258 65.2162 70.5075 65.2346C70.5075 65.2529 70.4708 65.2713 70.4525 65.2896C70.4525 65.308 70.4158 65.3263 70.4158 65.3447C70.4158 65.363 70.3791 65.3814 70.3607 65.4181C70.3607 65.4364 70.324 65.4548 70.324 65.4731C70.324 65.4731 70.3057 65.4915 70.3057 65.5098C69.847 64.7392 69.0948 64.6291 68.5811 64.7576C68.0306 64.9044 67.4802 65.3814 67.4802 66.152C67.4802 67.106 68.1774 67.7849 68.9296 68.482C69.4434 68.9774 69.9754 69.4911 70.269 70.1149L70.324 70.2067L70.3791 70.1149C70.6726 69.4911 71.2047 68.9958 71.7184 68.5004C72.4523 67.7848 73.1678 67.1244 73.1678 66.1703C73.1678 65.3997 72.6174 64.9227 72.067 64.7759L71.9936 64.8126Z" fill="#341212"/>
<path d="M46.9661 70.5731C46.6359 69.8025 44.6544 67.8393 43.8838 67.5091C44.6544 67.1788 46.6175 65.1973 46.9478 64.4268C47.1129 64.8304 47.755 65.5643 48.3055 66.1147C48.8742 66.6835 49.6081 67.3256 50.0117 67.4907C49.2412 67.821 47.278 69.8025 46.9478 70.5731H46.9661Z" fill="#341212"/>
<path d="M25.0449 65.8215C24.5862 65.3812 23.944 64.9041 23.6505 64.3721C23.3569 64.9225 22.7148 65.3812 22.2561 65.8215C21.5589 66.482 20.9167 67.1058 20.9167 67.9681C20.9167 68.5369 21.2653 69.0139 21.8158 69.179C22.4029 69.3625 23.0083 69.1423 23.3753 68.6286L23.4487 68.4635C23.4487 68.6103 23.4487 68.757 23.4487 68.9038C23.4487 69.0139 23.412 69.124 23.3753 69.2341C23.1918 69.7661 22.7698 70.2615 22.3662 70.6468C22.6597 70.5551 23.2285 70.5 23.6505 70.5C24.0725 70.5 24.6412 70.5551 24.9348 70.6468C24.5311 70.2615 24.1092 69.7661 23.9257 69.2341C23.9073 69.124 23.8706 69.0139 23.8523 68.9038C23.8339 68.757 23.8339 68.6103 23.8523 68.4635L23.9257 68.6286C24.2926 69.1423 24.8981 69.3625 25.4852 69.179C26.0356 69.0139 26.3842 68.5369 26.3842 67.9681C26.3842 67.1058 25.7237 66.482 25.0449 65.8215Z" fill="#341212"/>
<path d="M95.7471 66.3354C95.1967 66.3354 94.7013 66.6473 94.4628 67.106C94.2977 67.2894 94.0591 67.3628 93.839 67.4179C93.894 67.106 93.9858 66.8124 94.2059 66.6473C94.7013 66.4271 95.0132 65.9317 95.0132 65.418C95.0132 65.0694 94.8664 64.7208 94.6096 64.464C94.3344 64.1888 93.9674 64.042 93.5821 64.042C92.7932 64.042 92.151 64.6658 92.151 65.418C92.151 65.9501 92.4813 66.4271 92.9583 66.6473C93.1418 66.7757 93.2519 67.0876 93.3253 67.4179C93.1051 67.3628 92.8666 67.2894 92.7015 67.106C92.4629 66.6289 91.9492 66.3354 91.4172 66.3354C90.6282 66.3354 89.9861 66.9592 89.9861 67.7114C89.9861 68.4637 90.6282 69.0875 91.4172 69.0875C91.9676 69.0875 92.518 68.7572 92.7565 68.2618C92.9216 68.0967 93.1234 68.0417 93.3987 67.9866C93.417 68.3536 93.3986 68.7205 93.362 68.9223C93.0867 69.6929 92.3896 70.5919 92.0043 70.9038L92.0593 70.9772C92.5547 70.5736 94.6096 70.5736 95.1233 70.9772L95.1783 70.9038C94.793 70.5736 94.0408 69.6012 93.8206 68.9223C93.7472 68.6471 93.7656 68.1518 93.7656 67.9683C94.0225 68.0233 94.2426 68.06 94.4261 68.2435C94.6646 68.7205 95.215 69.0691 95.7654 69.0691C96.5544 69.0691 97.1965 68.4453 97.1965 67.6931C97.1965 66.9408 96.5544 66.317 95.7654 66.317L95.7471 66.3354Z" fill="#341212"/>
<path d="M140.216 70.5731C139.886 69.8025 137.904 67.8393 137.134 67.5091C137.904 67.1788 139.868 65.1973 140.198 64.4268C140.363 64.8304 141.005 65.5643 141.555 66.1147C142.124 66.6835 142.858 67.3256 143.262 67.4907C142.491 67.821 140.528 69.8025 140.198 70.5731H140.216Z" fill="#341212"/>
<path d="M118.295 65.8215C117.836 65.3812 117.194 64.9041 116.9 64.3721C116.607 64.9225 115.965 65.3812 115.506 65.8215C114.809 66.482 114.167 67.1058 114.167 67.9681C114.167 68.5369 114.515 69.0139 115.066 69.179C115.653 69.3625 116.258 69.1423 116.625 68.6286L116.699 68.4635C116.699 68.6103 116.699 68.757 116.699 68.9038C116.699 69.0139 116.662 69.124 116.625 69.2341C116.442 69.7661 116.02 70.2615 115.616 70.6468C115.91 70.5551 116.478 70.5 116.9 70.5C117.322 70.5 117.891 70.5551 118.185 70.6468C117.781 70.2615 117.359 69.7661 117.176 69.2341C117.157 69.124 117.121 69.0139 117.102 68.9038C117.084 68.757 117.084 68.6103 117.102 68.4635L117.176 68.6286C117.543 69.1423 118.148 69.3625 118.735 69.179C119.286 69.0139 119.634 68.5369 119.634 67.9681C119.634 67.1058 118.974 66.482 118.295 65.8215Z" fill="#341212"/>
<path d="M71.9936 111.084C71.9936 111.084 71.9202 111.084 71.8835 111.066C71.8835 111.066 71.8652 111.066 71.8468 111.066C71.8285 111.066 71.8102 111.066 71.7735 111.066C71.7735 111.066 71.7368 111.066 71.7184 111.066C71.7001 111.066 71.6817 111.066 71.6634 111.066C71.6634 111.066 71.6267 111.066 71.6083 111.066C71.59 111.066 71.5716 111.066 71.5533 111.066C71.5533 111.066 71.5166 111.066 71.4982 111.066C71.4799 111.066 71.4616 111.066 71.4432 111.066C71.4249 111.066 71.4065 111.066 71.3882 111.066C71.3698 111.066 71.3515 111.066 71.3331 111.066C71.3148 111.066 71.2964 111.066 71.2781 111.066C71.2597 111.066 71.2414 111.066 71.223 111.066C71.2047 111.066 71.1863 111.066 71.168 111.066C71.1497 111.066 71.1313 111.066 71.113 111.084C71.0946 111.084 71.0763 111.084 71.0579 111.102C71.0396 111.102 71.0212 111.102 71.0029 111.121C70.9845 111.121 70.9662 111.121 70.9478 111.157C70.9295 111.157 70.9111 111.176 70.8928 111.194C70.8928 111.194 70.8561 111.213 70.8377 111.231C70.8194 111.231 70.8011 111.249 70.7827 111.268C70.7827 111.268 70.746 111.286 70.7277 111.304C70.7093 111.304 70.691 111.341 70.6726 111.359C70.6726 111.359 70.6359 111.396 70.6176 111.396C70.5992 111.396 70.5809 111.433 70.5625 111.451C70.5625 111.451 70.5258 111.488 70.5075 111.506C70.5075 111.524 70.4708 111.543 70.4525 111.561C70.4525 111.579 70.4158 111.598 70.4158 111.616C70.4158 111.635 70.3791 111.653 70.3607 111.69C70.3607 111.708 70.324 111.726 70.324 111.745C70.324 111.745 70.3057 111.763 70.3057 111.781C69.847 111.011 69.0948 110.901 68.5811 111.029C68.0306 111.176 67.4802 111.653 67.4802 112.423C67.4802 113.377 68.1774 114.056 68.9296 114.754C69.4434 115.249 69.9754 115.763 70.269 116.386L70.324 116.478L70.3791 116.386C70.6726 115.763 71.2047 115.267 71.7184 114.772C72.4523 114.056 73.1678 113.396 73.1678 112.442C73.1678 111.671 72.6174 111.194 72.067 111.047L71.9936 111.084Z" fill="#341212"/>
<path d="M46.9661 116.863C46.6359 116.093 44.6544 114.129 43.8838 113.799C44.6544 113.469 46.6175 111.487 46.9478 110.717C47.1129 111.12 47.755 111.854 48.3055 112.405C48.8742 112.974 49.6081 113.616 50.0117 113.781C49.2412 114.111 47.278 116.093 46.9478 116.863H46.9661Z" fill="#341212"/>
<path d="M25.0449 112.093C24.5862 111.653 23.944 111.176 23.6505 110.644C23.3569 111.194 22.7148 111.653 22.2561 112.093C21.5589 112.753 20.9167 113.377 20.9167 114.24C20.9167 114.808 21.2653 115.285 21.8158 115.451C22.4029 115.634 23.0083 115.414 23.3753 114.9L23.4487 114.735C23.4487 114.882 23.4487 115.029 23.4487 115.175C23.4487 115.285 23.412 115.395 23.3753 115.506C23.1918 116.038 22.7698 116.533 22.3662 116.918C22.6597 116.827 23.2285 116.772 23.6505 116.772C24.0725 116.772 24.6412 116.827 24.9348 116.918C24.5311 116.533 24.1092 116.038 23.9257 115.506C23.9073 115.395 23.8706 115.285 23.8523 115.175C23.8339 115.029 23.8339 114.882 23.8523 114.735L23.9257 114.9C24.2926 115.414 24.8981 115.634 25.4852 115.451C26.0356 115.285 26.3842 114.808 26.3842 114.24C26.3842 113.377 25.7237 112.753 25.0449 112.093Z" fill="#341212"/>
<path d="M95.7471 112.625C95.1967 112.625 94.7013 112.937 94.4628 113.396C94.2977 113.579 94.0591 113.653 93.839 113.708C93.894 113.396 93.9858 113.102 94.2059 112.937C94.7013 112.717 95.0132 112.222 95.0132 111.708C95.0132 111.359 94.8664 111.011 94.6096 110.754C94.3344 110.479 93.9674 110.332 93.5821 110.332C92.7932 110.332 92.151 110.956 92.151 111.708C92.151 112.24 92.4813 112.717 92.9583 112.937C93.1418 113.066 93.2519 113.378 93.3253 113.708C93.1051 113.653 92.8666 113.579 92.7015 113.396C92.4629 112.919 91.9492 112.625 91.4172 112.625C90.6282 112.625 89.9861 113.249 89.9861 114.001C89.9861 114.754 90.6282 115.377 91.4172 115.377C91.9676 115.377 92.518 115.047 92.7565 114.552C92.9216 114.387 93.1234 114.332 93.3987 114.277C93.417 114.644 93.3986 115.011 93.362 115.212C93.0867 115.983 92.3896 116.882 92.0043 117.194L92.0593 117.267C92.5547 116.864 94.6096 116.864 95.1233 117.267L95.1783 117.194C94.793 116.864 94.0408 115.891 93.8206 115.212C93.7472 114.937 93.7656 114.442 93.7656 114.258C94.0225 114.313 94.2426 114.35 94.4261 114.534C94.6646 115.011 95.215 115.359 95.7654 115.359C96.5544 115.359 97.1965 114.735 97.1965 113.983C97.1965 113.231 96.5544 112.607 95.7654 112.607L95.7471 112.625Z" fill="#341212"/>
<path d="M140.216 116.863C139.886 116.093 137.904 114.129 137.134 113.799C137.904 113.469 139.868 111.487 140.198 110.717C140.363 111.12 141.005 111.854 141.555 112.405C142.124 112.974 142.858 113.616 143.262 113.781C142.491 114.111 140.528 116.093 140.198 116.863H140.216Z" fill="#341212"/>
<path d="M118.295 112.093C117.836 111.653 117.194 111.176 116.9 110.644C116.607 111.194 115.965 111.653 115.506 112.093C114.809 112.753 114.167 113.377 114.167 114.24C114.167 114.808 114.515 115.285 115.066 115.451C115.653 115.634 116.258 115.414 116.625 114.9L116.699 114.735C116.699 114.882 116.699 115.029 116.699 115.175C116.699 115.285 116.662 115.395 116.625 115.506C116.442 116.038 116.02 116.533 115.616 116.918C115.91 116.827 116.478 116.772 116.9 116.772C117.322 116.772 117.891 116.827 118.185 116.918C117.781 116.533 117.359 116.038 117.176 115.506C117.157 115.395 117.121 115.285 117.102 115.175C117.084 115.029 117.084 114.882 117.102 114.735L117.176 114.9C117.543 115.414 118.148 115.634 118.735 115.451C119.286 115.285 119.634 114.808 119.634 114.24C119.634 113.377 118.974 112.753 118.295 112.093Z" fill="#341212"/>
<path d="M71.9936 157.356C71.9936 157.356 71.9202 157.356 71.8835 157.337C71.8835 157.337 71.8652 157.337 71.8468 157.337C71.8285 157.337 71.8102 157.337 71.7735 157.337C71.7735 157.337 71.7368 157.337 71.7184 157.337C71.7001 157.337 71.6817 157.337 71.6634 157.337C71.6634 157.337 71.6267 157.337 71.6083 157.337C71.59 157.337 71.5716 157.337 71.5533 157.337C71.5533 157.337 71.5166 157.337 71.4982 157.337C71.4799 157.337 71.4616 157.337 71.4432 157.337C71.4249 157.337 71.4065 157.337 71.3882 157.337C71.3698 157.337 71.3515 157.337 71.3331 157.337C71.3148 157.337 71.2964 157.337 71.2781 157.337C71.2597 157.337 71.2414 157.337 71.223 157.337C71.2047 157.337 71.1863 157.337 71.168 157.337C71.1497 157.337 71.1313 157.337 71.113 157.356C71.0946 157.356 71.0763 157.356 71.0579 157.374C71.0396 157.374 71.0212 157.374 71.0029 157.392C70.9845 157.392 70.9662 157.392 70.9478 157.429C70.9295 157.429 70.9111 157.447 70.8928 157.466C70.8928 157.466 70.8561 157.484 70.8377 157.502C70.8194 157.502 70.8011 157.521 70.7827 157.539C70.7827 157.539 70.746 157.557 70.7277 157.576C70.7093 157.576 70.691 157.612 70.6726 157.631C70.6726 157.631 70.6359 157.667 70.6176 157.667C70.5992 157.667 70.5809 157.704 70.5625 157.723C70.5625 157.723 70.5258 157.759 70.5075 157.778C70.5075 157.796 70.4708 157.814 70.4525 157.833C70.4525 157.851 70.4158 157.869 70.4158 157.888C70.4158 157.906 70.3791 157.924 70.3607 157.961C70.3607 157.979 70.324 157.998 70.324 158.016C70.324 158.016 70.3057 158.034 70.3057 158.053C69.847 157.282 69.0948 157.172 68.5811 157.301C68.0306 157.447 67.4802 157.924 67.4802 158.695C67.4802 159.649 68.1774 160.328 68.9296 161.025C69.4434 161.52 69.9754 162.034 70.269 162.658L70.324 162.75L70.3791 162.658C70.6726 162.034 71.2047 161.539 71.7184 161.043C72.4523 160.328 73.1678 159.667 73.1678 158.713C73.1678 157.943 72.6174 157.466 72.067 157.319L71.9936 157.356Z" fill="#341212"/>
<path d="M46.9661 163.135C46.6359 162.364 44.6544 160.401 43.8838 160.071C44.6544 159.74 46.6175 157.759 46.9478 156.988C47.1129 157.392 47.755 158.126 48.3055 158.676C48.8742 159.245 49.6081 159.887 50.0117 160.052C49.2412 160.383 47.278 162.364 46.9478 163.135H46.9661Z" fill="#341212"/>
<path d="M25.0449 158.364C24.5862 157.924 23.944 157.447 23.6505 156.915C23.3569 157.465 22.7148 157.924 22.2561 158.364C21.5589 159.025 20.9167 159.649 20.9167 160.511C20.9167 161.08 21.2653 161.557 21.8158 161.722C22.4029 161.905 23.0083 161.685 23.3753 161.172L23.4487 161.006C23.4487 161.153 23.4487 161.3 23.4487 161.447C23.4487 161.557 23.412 161.667 23.3753 161.777C23.1918 162.309 22.7698 162.804 22.3662 163.19C22.6597 163.098 23.2285 163.043 23.6505 163.043C24.0725 163.043 24.6412 163.098 24.9348 163.19C24.5311 162.804 24.1092 162.309 23.9257 161.777C23.9073 161.667 23.8706 161.557 23.8523 161.447C23.8339 161.3 23.8339 161.153 23.8523 161.006L23.9257 161.172C24.2926 161.685 24.8981 161.905 25.4852 161.722C26.0356 161.557 26.3842 161.08 26.3842 160.511C26.3842 159.649 25.7237 159.025 25.0449 158.364Z" fill="#341212"/>
<path d="M95.7471 158.897C95.1967 158.897 94.7013 159.209 94.4628 159.667C94.2977 159.851 94.0591 159.924 93.839 159.979C93.894 159.667 93.9858 159.374 94.2059 159.209C94.7013 158.989 95.0132 158.493 95.0132 157.98C95.0132 157.631 94.8664 157.282 94.6096 157.026C94.3344 156.75 93.9674 156.604 93.5821 156.604C92.7932 156.604 92.151 157.227 92.151 157.98C92.151 158.512 92.4813 158.989 92.9583 159.209C93.1418 159.337 93.2519 159.649 93.3253 159.979C93.1051 159.924 92.8666 159.851 92.7015 159.667C92.4629 159.19 91.9492 158.897 91.4172 158.897C90.6282 158.897 89.9861 159.521 89.9861 160.273C89.9861 161.025 90.6282 161.649 91.4172 161.649C91.9676 161.649 92.518 161.319 92.7565 160.823C92.9216 160.658 93.1234 160.603 93.3987 160.548C93.417 160.915 93.3986 161.282 93.362 161.484C93.0867 162.254 92.3896 163.153 92.0043 163.465L92.0593 163.539C92.5547 163.135 94.6096 163.135 95.1233 163.539L95.1783 163.465C94.793 163.135 94.0408 162.163 93.8206 161.484C93.7472 161.209 93.7656 160.713 93.7656 160.53C94.0225 160.585 94.2426 160.622 94.4261 160.805C94.6646 161.282 95.215 161.631 95.7654 161.631C96.5544 161.631 97.1965 161.007 97.1965 160.255C97.1965 159.502 96.5544 158.879 95.7654 158.879L95.7471 158.897Z" fill="#341212"/>
<path d="M140.216 163.135C139.886 162.364 137.904 160.401 137.134 160.071C137.904 159.74 139.868 157.759 140.198 156.988C140.363 157.392 141.005 158.126 141.555 158.676C142.124 159.245 142.858 159.887 143.262 160.052C142.491 160.383 140.528 162.364 140.198 163.135H140.216Z" fill="#341212"/>
<path d="M118.295 158.364C117.836 157.924 117.194 157.447 116.9 156.915C116.607 157.465 115.965 157.924 115.506 158.364C114.809 159.025 114.167 159.649 114.167 160.511C114.167 161.08 114.515 161.557 115.066 161.722C115.653 161.905 116.258 161.685 116.625 161.172L116.699 161.006C116.699 161.153 116.699 161.3 116.699 161.447C116.699 161.557 116.662 161.667 116.625 161.777C116.442 162.309 116.02 162.804 115.616 163.19C115.91 163.098 116.478 163.043 116.9 163.043C117.322 163.043 117.891 163.098 118.185 163.19C117.781 162.804 117.359 162.309 117.176 161.777C117.157 161.667 117.121 161.557 117.102 161.447C117.084 161.3 117.084 161.153 117.102 161.006L117.176 161.172C117.543 161.685 118.148 161.905 118.735 161.722C119.286 161.557 119.634 161.08 119.634 160.511C119.634 159.649 118.974 159.025 118.295 158.364Z" fill="#341212"/>
<path d="M25.7575 41.9528C25.7575 41.9528 25.6842 41.9528 25.6475 41.9344C25.6475 41.9344 25.6291 41.9344 25.6108 41.9344C25.5924 41.9344 25.5741 41.9344 25.5374 41.9344C25.5374 41.9344 25.5007 41.9344 25.4823 41.9344C25.464 41.9344 25.4456 41.9344 25.4273 41.9344C25.4273 41.9344 25.3906 41.9344 25.3723 41.9344C25.3539 41.9344 25.3356 41.9344 25.3172 41.9344C25.3172 41.9344 25.2805 41.9344 25.2622 41.9344C25.2438 41.9344 25.2255 41.9344 25.2071 41.9344C25.1888 41.9344 25.1704 41.9344 25.1521 41.9344C25.1337 41.9344 25.1154 41.9344 25.097 41.9344C25.0787 41.9344 25.0603 41.9344 25.042 41.9344C25.0237 41.9344 25.0053 41.9344 24.987 41.9344C24.9686 41.9344 24.9503 41.9344 24.9319 41.9344C24.9136 41.9344 24.8952 41.9344 24.8769 41.9528C24.8585 41.9528 24.8402 41.9528 24.8218 41.9711C24.8035 41.9711 24.7851 41.9711 24.7668 41.9894C24.7485 41.9894 24.7301 41.9894 24.7118 42.0261C24.6934 42.0261 24.6751 42.0445 24.6567 42.0628C24.6567 42.0628 24.62 42.0812 24.6017 42.0995C24.5833 42.0995 24.565 42.1179 24.5466 42.1362C24.5466 42.1362 24.5099 42.1546 24.4916 42.1729C24.4732 42.1729 24.4549 42.2096 24.4365 42.228C24.4365 42.228 24.3998 42.2647 24.3815 42.2647C24.3632 42.2647 24.3448 42.3013 24.3265 42.3197C24.3265 42.3197 24.2898 42.3564 24.2714 42.3747C24.2714 42.3931 24.2347 42.4114 24.2164 42.4298C24.2164 42.4481 24.1797 42.4665 24.1797 42.4848C24.1797 42.5032 24.143 42.5215 24.1246 42.5582C24.1246 42.5766 24.0879 42.5949 24.0879 42.6132C24.0879 42.6132 24.0696 42.6316 24.0696 42.6499C23.6109 41.8794 22.8587 41.7693 22.345 41.8977C21.7946 42.0445 21.2441 42.5215 21.2441 43.2921C21.2441 44.2462 21.9413 44.925 22.6936 45.6222C23.2073 46.1176 23.7394 46.6313 24.0329 47.2551L24.0879 47.3468L24.143 47.2551C24.4365 46.6313 24.9686 46.1359 25.4823 45.6405C26.2162 44.925 26.9318 44.2645 26.9318 43.3104C26.9318 42.5399 26.3813 42.0628 25.8309 41.9161L25.7575 41.9528Z" fill="#341212"/>
<path d="M49.5403 43.4755C48.9899 43.4755 48.4945 43.7874 48.256 44.2461C48.0909 44.4296 47.8524 44.503 47.6322 44.558C47.6872 44.2461 47.779 43.9526 47.9991 43.7874C48.4945 43.5673 48.8064 43.0719 48.8064 42.5582C48.8064 42.2096 48.6596 41.861 48.4028 41.6041C48.1276 41.3289 47.7606 41.1821 47.3753 41.1821C46.5864 41.1821 45.9443 41.8059 45.9443 42.5582C45.9443 43.0902 46.2745 43.5673 46.7515 43.7874C46.935 43.9159 47.0451 44.2278 47.1185 44.558C46.8983 44.503 46.6598 44.4296 46.4947 44.2461C46.2562 43.7691 45.7424 43.4755 45.2104 43.4755C44.4215 43.4755 43.7793 44.0993 43.7793 44.8516C43.7793 45.6038 44.4215 46.2276 45.2104 46.2276C45.7424 46.2276 46.2562 45.9157 46.5314 45.457C46.5497 45.4203 46.5681 45.3836 46.6048 45.3653C46.6048 45.3653 46.6415 45.3469 46.6415 45.3286C46.88 45.1451 47.2286 45.3653 47.2102 45.6588C47.2102 45.8056 47.1919 45.9524 47.1735 46.0441C47.1735 46.0625 47.1735 46.0808 47.1552 46.0992C46.8616 46.8514 46.1828 47.7321 45.8158 48.044L45.8709 48.1174C46.3663 47.7137 48.4211 47.7137 48.9348 48.1174L48.9899 48.044C48.6046 47.7321 47.8707 46.778 47.6505 46.0992C47.6505 46.0992 47.6505 46.0625 47.6505 46.0441C47.6322 45.934 47.6139 45.7873 47.5955 45.6588C47.5955 45.3286 47.9624 45.1451 48.201 45.3653C48.201 45.3653 48.2193 45.3836 48.2377 45.402C48.4762 45.879 49.0266 46.2276 49.577 46.2276C50.3659 46.2276 51.0081 45.6038 51.0081 44.8516C51.0081 44.0993 50.3659 43.4755 49.577 43.4755H49.5403Z" fill="#341212"/>
<path d="M119.037 41.9528C119.037 41.9528 118.963 41.9528 118.927 41.9344C118.927 41.9344 118.908 41.9344 118.89 41.9344C118.872 41.9344 118.853 41.9344 118.817 41.9344C118.817 41.9344 118.78 41.9344 118.762 41.9344C118.743 41.9344 118.725 41.9344 118.707 41.9344C118.707 41.9344 118.67 41.9344 118.652 41.9344C118.633 41.9344 118.615 41.9344 118.596 41.9344C118.596 41.9344 118.56 41.9344 118.541 41.9344C118.523 41.9344 118.505 41.9344 118.486 41.9344C118.468 41.9344 118.45 41.9344 118.431 41.9344C118.413 41.9344 118.395 41.9344 118.376 41.9344C118.358 41.9344 118.34 41.9344 118.321 41.9344C118.303 41.9344 118.285 41.9344 118.266 41.9344C118.248 41.9344 118.23 41.9344 118.211 41.9344C118.193 41.9344 118.175 41.9344 118.156 41.9528C118.138 41.9528 118.119 41.9528 118.101 41.9711C118.083 41.9711 118.064 41.9711 118.046 41.9894C118.028 41.9894 118.009 41.9894 117.991 42.0261C117.973 42.0261 117.954 42.0445 117.936 42.0628C117.936 42.0628 117.899 42.0812 117.881 42.0995C117.863 42.0995 117.844 42.1179 117.826 42.1362C117.826 42.1362 117.789 42.1546 117.771 42.1729C117.753 42.1729 117.734 42.2096 117.716 42.228C117.716 42.228 117.679 42.2647 117.661 42.2647C117.642 42.2647 117.624 42.3013 117.606 42.3197C117.606 42.3197 117.569 42.3564 117.551 42.3747C117.551 42.3931 117.514 42.4114 117.496 42.4298C117.496 42.4481 117.459 42.4665 117.459 42.4848C117.459 42.5032 117.422 42.5215 117.404 42.5582C117.404 42.5766 117.367 42.5949 117.367 42.6132C117.367 42.6132 117.349 42.6316 117.349 42.6499C116.89 41.8794 116.138 41.7693 115.624 41.8977C115.074 42.0445 114.523 42.5215 114.523 43.2921C114.523 44.2462 115.221 44.925 115.973 45.6222C116.487 46.1176 117.019 46.6313 117.312 47.2551L117.367 47.3468L117.422 47.2551C117.716 46.6313 118.248 46.1359 118.762 45.6405C119.496 44.925 120.211 44.2645 120.211 43.3104C120.211 42.5399 119.661 42.0628 119.11 41.9161L119.037 41.9528Z" fill="#341212"/>
<path d="M93.7219 47.2367C93.1898 46.5212 92.144 45.4754 91.4102 44.9433C91.2083 44.7965 91.2083 44.503 91.4102 44.3562C92.1257 43.8241 93.1715 42.7784 93.7035 42.0445C93.8503 41.8426 94.1439 41.861 94.2907 42.0445C94.5659 42.4298 94.9879 42.8701 95.3548 43.237C95.7401 43.6223 96.1988 44.0443 96.584 44.3195C96.7859 44.4663 96.7859 44.7598 96.584 44.9066C95.8685 45.4387 94.8227 46.4845 94.2907 47.2184C94.1439 47.4202 93.8503 47.4202 93.7035 47.2184L93.7219 47.2367Z" fill="#341212"/>
<path d="M72.0751 42.9616C71.6165 42.5213 70.9743 42.0443 70.6808 41.5122C70.3872 42.0626 69.745 42.5213 69.2864 42.9616C68.5892 43.6221 67.947 44.2459 67.947 45.1082C67.947 45.677 68.2956 46.154 68.846 46.3192C69.4332 46.5026 70.0386 46.2825 70.4055 45.7687L70.4789 45.6036C70.4789 45.7504 70.4789 45.8972 70.4789 46.044C70.4789 46.154 70.4422 46.2458 70.4239 46.3559C70.4239 46.3559 70.4239 46.3926 70.4239 46.4109C70.3505 46.6311 70.2221 46.8512 70.0753 47.0714C69.8918 47.3283 70.0753 47.6768 70.3872 47.6585C70.4973 47.6585 70.6257 47.6585 70.7174 47.6585C70.8275 47.6585 70.9376 47.6585 71.0477 47.6585C71.3596 47.6585 71.5431 47.3283 71.3596 47.0714C71.2128 46.8696 71.0844 46.6494 71.011 46.4109C71.011 46.4109 71.011 46.3742 71.011 46.3559C70.9927 46.2641 70.9743 46.154 70.956 46.044C70.9376 45.8972 70.9376 45.7504 70.956 45.6036L71.0293 45.7687C71.3963 46.2825 72.0018 46.5026 72.5889 46.3192C73.1393 46.154 73.4879 45.677 73.4879 45.1082C73.4879 44.2459 72.8274 43.6221 72.1485 42.9616H72.0751Z" fill="#341212"/>
<path d="M143.087 43.4755C142.537 43.4755 142.041 43.7874 141.803 44.2461C141.638 44.4296 141.399 44.503 141.179 44.558C141.234 44.2461 141.326 43.9526 141.546 43.7874C142.041 43.5673 142.353 43.0719 142.353 42.5582C142.353 42.2096 142.207 41.861 141.95 41.6041C141.674 41.3289 141.308 41.1821 140.922 41.1821C140.133 41.1821 139.491 41.8059 139.491 42.5582C139.491 43.0902 139.821 43.5673 140.298 43.7874C140.482 43.9159 140.592 44.2278 140.665 44.558C140.445 44.503 140.207 44.4296 140.042 44.2461C139.803 43.7691 139.289 43.4755 138.757 43.4755C137.968 43.4755 137.326 44.0993 137.326 44.8516C137.326 45.6038 137.968 46.2276 138.757 46.2276C139.289 46.2276 139.803 45.9157 140.078 45.457C140.097 45.4203 140.115 45.3836 140.152 45.3653C140.152 45.3653 140.188 45.3469 140.188 45.3286C140.427 45.1451 140.775 45.3653 140.757 45.6588C140.757 45.8056 140.739 45.9524 140.72 46.0441C140.72 46.0625 140.72 46.0808 140.702 46.0992C140.409 46.8514 139.73 47.7321 139.363 48.044L139.418 48.1174C139.913 47.7137 141.968 47.7137 142.482 48.1174L142.537 48.044C142.151 47.7321 141.418 46.778 141.197 46.0992C141.197 46.0992 141.197 46.0625 141.197 46.0441C141.179 45.934 141.161 45.7873 141.142 45.6588C141.142 45.3286 141.509 45.1451 141.748 45.3653C141.748 45.3653 141.766 45.3836 141.785 45.402C142.023 45.879 142.573 46.2276 143.124 46.2276C143.913 46.2276 144.555 45.6038 144.555 44.8516C144.555 44.0993 143.913 43.4755 143.124 43.4755H143.087Z" fill="#341212"/>
<path d="M25.7575 88.2257C25.7575 88.2257 25.6842 88.2257 25.6475 88.2074C25.6475 88.2074 25.6291 88.2074 25.6108 88.2074C25.5924 88.2074 25.5741 88.2074 25.5374 88.2074C25.5374 88.2074 25.5007 88.2074 25.4823 88.2074C25.464 88.2074 25.4456 88.2074 25.4273 88.2074C25.4273 88.2074 25.3906 88.2074 25.3723 88.2074C25.3539 88.2074 25.3356 88.2074 25.3172 88.2074C25.3172 88.2074 25.2805 88.2074 25.2622 88.2074C25.2438 88.2074 25.2255 88.2074 25.2071 88.2074C25.1888 88.2074 25.1704 88.2074 25.1521 88.2074C25.1337 88.2074 25.1154 88.2074 25.097 88.2074C25.0787 88.2074 25.0603 88.2074 25.042 88.2074C25.0237 88.2074 25.0053 88.2074 24.987 88.2074C24.9686 88.2074 24.9503 88.2074 24.9319 88.2074C24.9136 88.2074 24.8952 88.2074 24.8769 88.2257C24.8585 88.2257 24.8402 88.2257 24.8218 88.244C24.8035 88.244 24.7851 88.244 24.7668 88.2624C24.7485 88.2624 24.7301 88.2624 24.7118 88.2991C24.6934 88.2991 24.6751 88.3174 24.6567 88.3358C24.6567 88.3358 24.62 88.3541 24.6017 88.3725C24.5833 88.3725 24.565 88.3908 24.5466 88.4092C24.5466 88.4092 24.5099 88.4275 24.4916 88.4459C24.4732 88.4459 24.4549 88.4826 24.4365 88.5009C24.4365 88.5009 24.3998 88.5376 24.3815 88.5376C24.3632 88.5376 24.3448 88.5743 24.3265 88.5926C24.3265 88.5926 24.2898 88.6293 24.2714 88.6477C24.2714 88.666 24.2347 88.6844 24.2164 88.7027C24.2164 88.7211 24.1797 88.7394 24.1797 88.7578C24.1797 88.7761 24.143 88.7945 24.1246 88.8312C24.1246 88.8495 24.0879 88.8679 24.0879 88.8862C24.0879 88.8862 24.0696 88.9045 24.0696 88.9229C23.6109 88.1523 22.8587 88.0422 22.345 88.1707C21.7946 88.3174 21.2441 88.7945 21.2441 89.565C21.2441 90.5191 21.9413 91.1979 22.6936 91.8951C23.2073 92.3905 23.7394 92.9042 24.0329 93.528L24.0879 93.6198L24.143 93.528C24.4365 92.9042 24.9686 92.4088 25.4823 91.9135C26.2162 91.1979 26.9318 90.5374 26.9318 89.5834C26.9318 88.8128 26.3813 88.3358 25.8309 88.189L25.7575 88.2257Z" fill="#341212"/>
<path d="M49.5403 89.7485C48.9899 89.7485 48.4945 90.0604 48.256 90.5191C48.0909 90.7025 47.8524 90.7759 47.6322 90.831C47.6872 90.5191 47.779 90.2255 47.9991 90.0604C48.4945 89.8402 48.8064 89.3448 48.8064 88.8311C48.8064 88.4825 48.6596 88.1339 48.4028 87.8771C48.1276 87.6019 47.7606 87.4551 47.3753 87.4551C46.5864 87.4551 45.9443 88.0789 45.9443 88.8311C45.9443 89.3632 46.2745 89.8402 46.7515 90.0604C46.935 90.1888 47.0451 90.5007 47.1185 90.831C46.8983 90.7759 46.6598 90.7025 46.4947 90.5191C46.2562 90.042 45.7424 89.7485 45.2104 89.7485C44.4215 89.7485 43.7793 90.3723 43.7793 91.1245C43.7793 91.8767 44.4215 92.5005 45.2104 92.5005C45.7424 92.5005 46.2562 92.1886 46.5314 91.73C46.5497 91.6933 46.5681 91.6566 46.6048 91.6382C46.6048 91.6382 46.6415 91.6199 46.6415 91.6015C46.88 91.4181 47.2286 91.6382 47.2102 91.9318C47.2102 92.0786 47.1919 92.2253 47.1735 92.3171C47.1735 92.3354 47.1735 92.3538 47.1552 92.3721C46.8616 93.1243 46.1828 94.005 45.8158 94.3169L45.8709 94.3903C46.3663 93.9867 48.4211 93.9867 48.9348 94.3903L48.9899 94.3169C48.6046 94.005 47.8707 93.051 47.6505 92.3721C47.6505 92.3721 47.6505 92.3354 47.6505 92.3171C47.6322 92.207 47.6139 92.0602 47.5955 91.9318C47.5955 91.6015 47.9624 91.4181 48.201 91.6382C48.201 91.6382 48.2193 91.6566 48.2377 91.6749C48.4762 92.1519 49.0266 92.5005 49.577 92.5005C50.3659 92.5005 51.0081 91.8767 51.0081 91.1245C51.0081 90.3723 50.3659 89.7485 49.577 89.7485H49.5403Z" fill="#341212"/>
<path d="M119.037 88.2257C119.037 88.2257 118.963 88.2257 118.927 88.2074C118.927 88.2074 118.908 88.2074 118.89 88.2074C118.872 88.2074 118.853 88.2074 118.817 88.2074C118.817 88.2074 118.78 88.2074 118.762 88.2074C118.743 88.2074 118.725 88.2074 118.707 88.2074C118.707 88.2074 118.67 88.2074 118.652 88.2074C118.633 88.2074 118.615 88.2074 118.596 88.2074C118.596 88.2074 118.56 88.2074 118.541 88.2074C118.523 88.2074 118.505 88.2074 118.486 88.2074C118.468 88.2074 118.45 88.2074 118.431 88.2074C118.413 88.2074 118.395 88.2074 118.376 88.2074C118.358 88.2074 118.34 88.2074 118.321 88.2074C118.303 88.2074 118.285 88.2074 118.266 88.2074C118.248 88.2074 118.23 88.2074 118.211 88.2074C118.193 88.2074 118.175 88.2074 118.156 88.2257C118.138 88.2257 118.119 88.2257 118.101 88.244C118.083 88.244 118.064 88.244 118.046 88.2624C118.028 88.2624 118.009 88.2624 117.991 88.2991C117.973 88.2991 117.954 88.3174 117.936 88.3358C117.936 88.3358 117.899 88.3541 117.881 88.3725C117.863 88.3725 117.844 88.3908 117.826 88.4092C117.826 88.4092 117.789 88.4275 117.771 88.4459C117.753 88.4459 117.734 88.4826 117.716 88.5009C117.716 88.5009 117.679 88.5376 117.661 88.5376C117.642 88.5376 117.624 88.5743 117.606 88.5926C117.606 88.5926 117.569 88.6293 117.551 88.6477C117.551 88.666 117.514 88.6844 117.496 88.7027C117.496 88.7211 117.459 88.7394 117.459 88.7578C117.459 88.7761 117.422 88.7945 117.404 88.8312C117.404 88.8495 117.367 88.8679 117.367 88.8862C117.367 88.8862 117.349 88.9045 117.349 88.9229C116.89 88.1523 116.138 88.0422 115.624 88.1707C115.074 88.3174 114.523 88.7945 114.523 89.565C114.523 90.5191 115.221 91.1979 115.973 91.8951C116.487 92.3905 117.019 92.9042 117.312 93.528L117.367 93.6198L117.422 93.528C117.716 92.9042 118.248 92.4088 118.762 91.9135C119.496 91.1979 120.211 90.5374 120.211 89.5834C120.211 88.8128 119.661 88.3358 119.11 88.189L119.037 88.2257Z" fill="#341212"/>
<path d="M93.7219 93.5097C93.1898 92.7941 92.144 91.7483 91.4102 91.2163C91.2083 91.0695 91.2083 90.7759 91.4102 90.6292C92.1257 90.0971 93.1715 89.0513 93.7035 88.3174C93.8503 88.1156 94.1439 88.1339 94.2907 88.3174C94.5659 88.7027 94.9879 89.143 95.3548 89.51C95.7401 89.8953 96.1988 90.3173 96.584 90.5925C96.7859 90.7393 96.7859 91.0328 96.584 91.1796C95.8685 91.7116 94.8227 92.7574 94.2907 93.4913C94.1439 93.6931 93.8503 93.6931 93.7035 93.4913L93.7219 93.5097Z" fill="#341212"/>
<path d="M72.0751 89.2346C71.6165 88.7942 70.9743 88.3172 70.6808 87.7852C70.3872 88.3356 69.745 88.7942 69.2864 89.2346C68.5892 89.8951 67.947 90.5189 67.947 91.3812C67.947 91.95 68.2956 92.427 68.846 92.5921C69.4332 92.7756 70.0386 92.5554 70.4055 92.0417L70.4789 91.8766C70.4789 92.0233 70.4789 92.1701 70.4789 92.3169C70.4789 92.427 70.4422 92.5187 70.4239 92.6288C70.4239 92.6288 70.4239 92.6655 70.4239 92.6838C70.3505 92.904 70.2221 93.1242 70.0753 93.3443C69.8918 93.6012 70.0753 93.9498 70.3872 93.9315C70.4973 93.9315 70.6257 93.9315 70.7174 93.9315C70.8275 93.9315 70.9376 93.9315 71.0477 93.9315C71.3596 93.9315 71.5431 93.6012 71.3596 93.3443C71.2128 93.1425 71.0844 92.9224 71.011 92.6838C71.011 92.6838 71.011 92.6471 71.011 92.6288C70.9927 92.5371 70.9743 92.427 70.956 92.3169C70.9376 92.1701 70.9376 92.0233 70.956 91.8766L71.0293 92.0417C71.3963 92.5554 72.0018 92.7756 72.5889 92.5921C73.1393 92.427 73.4879 91.95 73.4879 91.3812C73.4879 90.5189 72.8274 89.8951 72.1485 89.2346H72.0751Z" fill="#341212"/>
<path d="M143.087 89.7485C142.537 89.7485 142.041 90.0604 141.803 90.5191C141.638 90.7025 141.399 90.7759 141.179 90.831C141.234 90.5191 141.326 90.2255 141.546 90.0604C142.041 89.8402 142.353 89.3448 142.353 88.8311C142.353 88.4825 142.207 88.1339 141.95 87.8771C141.674 87.6019 141.308 87.4551 140.922 87.4551C140.133 87.4551 139.491 88.0789 139.491 88.8311C139.491 89.3632 139.821 89.8402 140.298 90.0604C140.482 90.1888 140.592 90.5007 140.665 90.831C140.445 90.7759 140.207 90.7025 140.042 90.5191C139.803 90.042 139.289 89.7485 138.757 89.7485C137.968 89.7485 137.326 90.3723 137.326 91.1245C137.326 91.8767 137.968 92.5005 138.757 92.5005C139.289 92.5005 139.803 92.1886 140.078 91.73C140.097 91.6933 140.115 91.6566 140.152 91.6382C140.152 91.6382 140.188 91.6199 140.188 91.6015C140.427 91.4181 140.775 91.6382 140.757 91.9318C140.757 92.0786 140.739 92.2253 140.72 92.3171C140.72 92.3354 140.72 92.3538 140.702 92.3721C140.409 93.1243 139.73 94.005 139.363 94.3169L139.418 94.3903C139.913 93.9867 141.968 93.9867 142.482 94.3903L142.537 94.3169C142.151 94.005 141.418 93.051 141.197 92.3721C141.197 92.3721 141.197 92.3354 141.197 92.3171C141.179 92.207 141.161 92.0602 141.142 91.9318C141.142 91.6015 141.509 91.4181 141.748 91.6382C141.748 91.6382 141.766 91.6566 141.785 91.6749C142.023 92.1519 142.573 92.5005 143.124 92.5005C143.913 92.5005 144.555 91.8767 144.555 91.1245C144.555 90.3723 143.913 89.7485 143.124 89.7485H143.087Z" fill="#341212"/>
<path d="M25.7575 134.495C25.7575 134.495 25.6842 134.495 25.6475 134.477C25.6475 134.477 25.6291 134.477 25.6108 134.477C25.5924 134.477 25.5741 134.477 25.5374 134.477C25.5374 134.477 25.5007 134.477 25.4823 134.477C25.464 134.477 25.4456 134.477 25.4273 134.477C25.4273 134.477 25.3906 134.477 25.3723 134.477C25.3539 134.477 25.3356 134.477 25.3172 134.477C25.3172 134.477 25.2805 134.477 25.2622 134.477C25.2438 134.477 25.2255 134.477 25.2071 134.477C25.1888 134.477 25.1704 134.477 25.1521 134.477C25.1337 134.477 25.1154 134.477 25.097 134.477C25.0787 134.477 25.0603 134.477 25.042 134.477C25.0237 134.477 25.0053 134.477 24.987 134.477C24.9686 134.477 24.9503 134.477 24.9319 134.477C24.9136 134.477 24.8952 134.477 24.8769 134.495C24.8585 134.495 24.8402 134.495 24.8218 134.514C24.8035 134.514 24.7851 134.514 24.7668 134.532C24.7485 134.532 24.7301 134.532 24.7118 134.569C24.6934 134.569 24.6751 134.587 24.6567 134.605C24.6567 134.605 24.62 134.624 24.6017 134.642C24.5833 134.642 24.565 134.66 24.5466 134.679C24.5466 134.679 24.5099 134.697 24.4916 134.715C24.4732 134.715 24.4549 134.752 24.4365 134.77C24.4365 134.77 24.3998 134.807 24.3815 134.807C24.3632 134.807 24.3448 134.844 24.3265 134.862C24.3265 134.862 24.2898 134.899 24.2714 134.917C24.2714 134.936 24.2347 134.954 24.2164 134.972C24.2164 134.991 24.1797 135.009 24.1797 135.027C24.1797 135.046 24.143 135.064 24.1246 135.101C24.1246 135.119 24.0879 135.137 24.0879 135.156C24.0879 135.156 24.0696 135.174 24.0696 135.192C23.6109 134.422 22.8587 134.312 22.345 134.44C21.7946 134.587 21.2441 135.064 21.2441 135.835C21.2441 136.789 21.9413 137.467 22.6936 138.165C23.2073 138.66 23.7394 139.174 24.0329 139.798L24.0879 139.889L24.143 139.798C24.4365 139.174 24.9686 138.678 25.4823 138.183C26.2162 137.467 26.9318 136.807 26.9318 135.853C26.9318 135.082 26.3813 134.605 25.8309 134.459L25.7575 134.495Z" fill="#341212"/>
<path d="M49.5403 136.018C48.9899 136.018 48.4945 136.33 48.256 136.789C48.0909 136.972 47.8524 137.045 47.6322 137.1C47.6872 136.789 47.779 136.495 47.9991 136.33C48.4945 136.11 48.8064 135.614 48.8064 135.101C48.8064 134.752 48.6596 134.403 48.4028 134.147C48.1276 133.871 47.7606 133.725 47.3753 133.725C46.5864 133.725 45.9443 134.348 45.9443 135.101C45.9443 135.633 46.2745 136.11 46.7515 136.33C46.935 136.458 47.0451 136.77 47.1185 137.1C46.8983 137.045 46.6598 136.972 46.4947 136.789C46.2562 136.312 45.7424 136.018 45.2104 136.018C44.4215 136.018 43.7793 136.642 43.7793 137.394C43.7793 138.146 44.4215 138.77 45.2104 138.77C45.7424 138.77 46.2562 138.458 46.5314 137.999C46.5497 137.963 46.5681 137.926 46.6048 137.908C46.6048 137.908 46.6415 137.889 46.6415 137.871C46.88 137.688 47.2286 137.908 47.2102 138.201C47.2102 138.348 47.1919 138.495 47.1735 138.587C47.1735 138.605 47.1735 138.623 47.1552 138.642C46.8616 139.394 46.1828 140.275 45.8158 140.586L45.8709 140.66C46.3663 140.256 48.4211 140.256 48.9348 140.66L48.9899 140.586C48.6046 140.275 47.8707 139.32 47.6505 138.642C47.6505 138.642 47.6505 138.605 47.6505 138.587C47.6322 138.477 47.6139 138.33 47.5955 138.201C47.5955 137.871 47.9624 137.688 48.201 137.908C48.201 137.908 48.2193 137.926 48.2377 137.944C48.4762 138.421 49.0266 138.77 49.577 138.77C50.3659 138.77 51.0081 138.146 51.0081 137.394C51.0081 136.642 50.3659 136.018 49.577 136.018H49.5403Z" fill="#341212"/>
<path d="M119.037 134.495C119.037 134.495 118.963 134.495 118.927 134.477C118.927 134.477 118.908 134.477 118.89 134.477C118.872 134.477 118.853 134.477 118.817 134.477C118.817 134.477 118.78 134.477 118.762 134.477C118.743 134.477 118.725 134.477 118.707 134.477C118.707 134.477 118.67 134.477 118.652 134.477C118.633 134.477 118.615 134.477 118.596 134.477C118.596 134.477 118.56 134.477 118.541 134.477C118.523 134.477 118.505 134.477 118.486 134.477C118.468 134.477 118.45 134.477 118.431 134.477C118.413 134.477 118.395 134.477 118.376 134.477C118.358 134.477 118.34 134.477 118.321 134.477C118.303 134.477 118.285 134.477 118.266 134.477C118.248 134.477 118.23 134.477 118.211 134.477C118.193 134.477 118.175 134.477 118.156 134.495C118.138 134.495 118.119 134.495 118.101 134.514C118.083 134.514 118.064 134.514 118.046 134.532C118.028 134.532 118.009 134.532 117.991 134.569C117.973 134.569 117.954 134.587 117.936 134.605C117.936 134.605 117.899 134.624 117.881 134.642C117.863 134.642 117.844 134.66 117.826 134.679C117.826 134.679 117.789 134.697 117.771 134.715C117.753 134.715 117.734 134.752 117.716 134.77C117.716 134.77 117.679 134.807 117.661 134.807C117.642 134.807 117.624 134.844 117.606 134.862C117.606 134.862 117.569 134.899 117.551 134.917C117.551 134.936 117.514 134.954 117.496 134.972C117.496 134.991 117.459 135.009 117.459 135.027C117.459 135.046 117.422 135.064 117.404 135.101C117.404 135.119 117.367 135.137 117.367 135.156C117.367 135.156 117.349 135.174 117.349 135.192C116.89 134.422 116.138 134.312 115.624 134.44C115.074 134.587 114.523 135.064 114.523 135.835C114.523 136.789 115.221 137.467 115.973 138.165C116.487 138.66 117.019 139.174 117.312 139.798L117.367 139.889L117.422 139.798C117.716 139.174 118.248 138.678 118.762 138.183C119.496 137.467 120.211 136.807 120.211 135.853C120.211 135.082 119.661 134.605 119.11 134.459L119.037 134.495Z" fill="#341212"/>
<path d="M93.7219 139.798C93.1898 139.082 92.144 138.036 91.4102 137.504C91.2083 137.358 91.2083 137.064 91.4102 136.917C92.1257 136.385 93.1715 135.339 93.7035 134.606C93.8503 134.404 94.1439 134.422 94.2907 134.606C94.5659 134.991 94.9879 135.431 95.3548 135.798C95.7401 136.183 96.1988 136.605 96.584 136.881C96.7859 137.027 96.7859 137.321 96.584 137.468C95.8685 138 94.8227 139.046 94.2907 139.779C94.1439 139.981 93.8503 139.981 93.7035 139.779L93.7219 139.798Z" fill="#341212"/>
<path d="M72.0751 135.504C71.6165 135.064 70.9743 134.587 70.6808 134.055C70.3872 134.605 69.745 135.064 69.2864 135.504C68.5892 136.165 67.947 136.788 67.947 137.651C67.947 138.219 68.2956 138.697 68.846 138.862C69.4332 139.045 70.0386 138.825 70.4055 138.311L70.4789 138.146C70.4789 138.293 70.4789 138.44 70.4789 138.586C70.4789 138.697 70.4422 138.788 70.4239 138.898C70.4239 138.898 70.4239 138.935 70.4239 138.953C70.3505 139.174 70.2221 139.394 70.0753 139.614C69.8918 139.871 70.0753 140.219 70.3872 140.201C70.4973 140.201 70.6257 140.201 70.7174 140.201C70.8275 140.201 70.9376 140.201 71.0477 140.201C71.3596 140.201 71.5431 139.871 71.3596 139.614C71.2128 139.412 71.0844 139.192 71.011 138.953C71.011 138.953 71.011 138.917 71.011 138.898C70.9927 138.807 70.9743 138.697 70.956 138.586C70.9376 138.44 70.9376 138.293 70.956 138.146L71.0293 138.311C71.3963 138.825 72.0018 139.045 72.5889 138.862C73.1393 138.697 73.4879 138.219 73.4879 137.651C73.4879 136.788 72.8274 136.165 72.1485 135.504H72.0751Z" fill="#341212"/>
<path d="M143.087 136.018C142.537 136.018 142.041 136.329 141.803 136.788C141.638 136.972 141.399 137.045 141.179 137.1C141.234 136.788 141.326 136.495 141.546 136.329C142.041 136.109 142.353 135.614 142.353 135.1C142.353 134.752 142.207 134.403 141.95 134.146C141.674 133.871 141.308 133.724 140.922 133.724C140.133 133.724 139.491 134.348 139.491 135.1C139.491 135.632 139.821 136.109 140.298 136.329C140.482 136.458 140.592 136.77 140.665 137.1C140.445 137.045 140.207 136.972 140.042 136.788C139.803 136.311 139.289 136.018 138.757 136.018C137.968 136.018 137.326 136.641 137.326 137.394C137.326 138.146 137.968 138.77 138.757 138.77C139.289 138.77 139.803 138.458 140.078 137.999C140.097 137.962 140.115 137.926 140.152 137.907C140.152 137.907 140.188 137.889 140.188 137.871C140.427 137.687 140.775 137.907 140.757 138.201C140.757 138.348 140.739 138.494 140.72 138.586C140.72 138.604 140.72 138.623 140.702 138.641C140.409 139.393 139.73 140.274 139.363 140.586L139.418 140.659C139.913 140.256 141.968 140.256 142.482 140.659L142.537 140.586C142.151 140.274 141.418 139.32 141.197 138.641C141.197 138.641 141.197 138.604 141.197 138.586C141.179 138.476 141.161 138.329 141.142 138.201C141.142 137.871 141.509 137.687 141.748 137.907C141.748 137.907 141.766 137.926 141.785 137.944C142.023 138.421 142.573 138.77 143.124 138.77C143.913 138.77 144.555 138.146 144.555 137.394C144.555 136.641 143.913 136.018 143.124 136.018H143.087Z" fill="#341212"/>
<path d="M25.7575 180.766C25.7575 180.766 25.6842 180.766 25.6475 180.747C25.6475 180.747 25.6291 180.747 25.6108 180.747C25.5924 180.747 25.5741 180.747 25.5374 180.747C25.5374 180.747 25.5007 180.747 25.4823 180.747C25.464 180.747 25.4456 180.747 25.4273 180.747C25.4273 180.747 25.3906 180.747 25.3723 180.747C25.3539 180.747 25.3356 180.747 25.3172 180.747C25.3172 180.747 25.2805 180.747 25.2622 180.747C25.2438 180.747 25.2255 180.747 25.2071 180.747C25.1888 180.747 25.1704 180.747 25.1521 180.747C25.1337 180.747 25.1154 180.747 25.097 180.747C25.0787 180.747 25.0603 180.747 25.042 180.747C25.0237 180.747 25.0053 180.747 24.987 180.747C24.9686 180.747 24.9503 180.747 24.9319 180.747C24.9136 180.747 24.8952 180.747 24.8769 180.766C24.8585 180.766 24.8402 180.766 24.8218 180.784C24.8035 180.784 24.7851 180.784 24.7668 180.802C24.7485 180.802 24.7301 180.802 24.7118 180.839C24.6934 180.839 24.6751 180.857 24.6567 180.876C24.6567 180.876 24.62 180.894 24.6017 180.913C24.5833 180.913 24.565 180.931 24.5466 180.949C24.5466 180.949 24.5099 180.968 24.4916 180.986C24.4732 180.986 24.4549 181.023 24.4365 181.041C24.4365 181.041 24.3998 181.078 24.3815 181.078C24.3632 181.078 24.3448 181.114 24.3265 181.133C24.3265 181.133 24.2898 181.169 24.2714 181.188C24.2714 181.206 24.2347 181.224 24.2164 181.243C24.2164 181.261 24.1797 181.279 24.1797 181.298C24.1797 181.316 24.143 181.335 24.1246 181.371C24.1246 181.39 24.0879 181.408 24.0879 181.426C24.0879 181.426 24.0696 181.445 24.0696 181.463C23.6109 180.692 22.8587 180.582 22.345 180.711C21.7946 180.857 21.2441 181.335 21.2441 182.105C21.2441 183.059 21.9413 183.738 22.6936 184.435C23.2073 184.931 23.7394 185.444 24.0329 186.068L24.0879 186.16L24.143 186.068C24.4365 185.444 24.9686 184.949 25.4823 184.454C26.2162 183.738 26.9318 183.077 26.9318 182.123C26.9318 181.353 26.3813 180.876 25.8309 180.729L25.7575 180.766Z" fill="#341212"/>
<path d="M49.5403 182.307C48.9899 182.307 48.4945 182.619 48.256 183.078C48.0909 183.261 47.8524 183.335 47.6322 183.39C47.6872 183.078 47.779 182.784 47.9991 182.619C48.4945 182.399 48.8064 181.903 48.8064 181.39C48.8064 181.041 48.6596 180.693 48.4028 180.436C48.1276 180.16 47.7606 180.014 47.3753 180.014C46.5864 180.014 45.9443 180.637 45.9443 181.39C45.9443 181.922 46.2745 182.399 46.7515 182.619C46.935 182.747 47.0451 183.059 47.1185 183.39C46.8983 183.335 46.6598 183.261 46.4947 183.078C46.2562 182.601 45.7424 182.307 45.2104 182.307C44.4215 182.307 43.7793 182.931 43.7793 183.683C43.7793 184.435 44.4215 185.059 45.2104 185.059C45.7424 185.059 46.2562 184.747 46.5314 184.289C46.5497 184.252 46.5681 184.215 46.6048 184.197C46.6048 184.197 46.6415 184.178 46.6415 184.16C46.88 183.977 47.2286 184.197 47.2102 184.49C47.2102 184.637 47.1919 184.784 47.1735 184.876C47.1735 184.894 47.1735 184.912 47.1552 184.931C46.8616 185.683 46.1828 186.564 45.8158 186.876L45.8709 186.949C46.3663 186.545 48.4211 186.545 48.9348 186.949L48.9899 186.876C48.6046 186.564 47.8707 185.61 47.6505 184.931C47.6505 184.931 47.6505 184.894 47.6505 184.876C47.6322 184.766 47.6139 184.619 47.5955 184.49C47.5955 184.16 47.9624 183.977 48.201 184.197C48.201 184.197 48.2193 184.215 48.2377 184.234C48.4762 184.711 49.0266 185.059 49.577 185.059C50.3659 185.059 51.0081 184.435 51.0081 183.683C51.0081 182.931 50.3659 182.307 49.577 182.307H49.5403Z" fill="#341212"/>
<path d="M119.037 180.766C119.037 180.766 118.963 180.766 118.927 180.747C118.927 180.747 118.908 180.747 118.89 180.747C118.872 180.747 118.853 180.747 118.817 180.747C118.817 180.747 118.78 180.747 118.762 180.747C118.743 180.747 118.725 180.747 118.707 180.747C118.707 180.747 118.67 180.747 118.652 180.747C118.633 180.747 118.615 180.747 118.596 180.747C118.596 180.747 118.56 180.747 118.541 180.747C118.523 180.747 118.505 180.747 118.486 180.747C118.468 180.747 118.45 180.747 118.431 180.747C118.413 180.747 118.395 180.747 118.376 180.747C118.358 180.747 118.34 180.747 118.321 180.747C118.303 180.747 118.285 180.747 118.266 180.747C118.248 180.747 118.23 180.747 118.211 180.747C118.193 180.747 118.175 180.747 118.156 180.766C118.138 180.766 118.119 180.766 118.101 180.784C118.083 180.784 118.064 180.784 118.046 180.802C118.028 180.802 118.009 180.802 117.991 180.839C117.973 180.839 117.954 180.857 117.936 180.876C117.936 180.876 117.899 180.894 117.881 180.913C117.863 180.913 117.844 180.931 117.826 180.949C117.826 180.949 117.789 180.968 117.771 180.986C117.753 180.986 117.734 181.023 117.716 181.041C117.716 181.041 117.679 181.078 117.661 181.078C117.642 181.078 117.624 181.114 117.606 181.133C117.606 181.133 117.569 181.169 117.551 181.188C117.551 181.206 117.514 181.224 117.496 181.243C117.496 181.261 117.459 181.279 117.459 181.298C117.459 181.316 117.422 181.335 117.404 181.371C117.404 181.39 117.367 181.408 117.367 181.426C117.367 181.426 117.349 181.445 117.349 181.463C116.89 180.692 116.138 180.582 115.624 180.711C115.074 180.857 114.523 181.335 114.523 182.105C114.523 183.059 115.221 183.738 115.973 184.435C116.487 184.931 117.019 185.444 117.312 186.068L117.367 186.16L117.422 186.068C117.716 185.444 118.248 184.949 118.762 184.454C119.496 183.738 120.211 183.077 120.211 182.123C120.211 181.353 119.661 180.876 119.11 180.729L119.037 180.766Z" fill="#341212"/>
<path d="M93.7219 186.068C93.1898 185.353 92.144 184.307 91.4102 183.775C91.2083 183.628 91.2083 183.335 91.4102 183.188C92.1257 182.656 93.1715 181.61 93.7035 180.876C93.8503 180.674 94.1439 180.693 94.2907 180.876C94.5659 181.261 94.9879 181.702 95.3548 182.069C95.7401 182.454 96.1988 182.876 96.584 183.151C96.7859 183.298 96.7859 183.591 96.584 183.738C95.8685 184.27 94.8227 185.316 94.2907 186.05C94.1439 186.252 93.8503 186.252 93.7035 186.05L93.7219 186.068Z" fill="#341212"/>
<path d="M72.0751 181.775C71.6165 181.334 70.9743 180.857 70.6808 180.325C70.3872 180.876 69.745 181.334 69.2864 181.775C68.5892 182.435 67.947 183.059 67.947 183.921C67.947 184.49 68.2956 184.967 68.846 185.132C69.4332 185.316 70.0386 185.095 70.4055 184.582L70.4789 184.417C70.4789 184.563 70.4789 184.71 70.4789 184.857C70.4789 184.967 70.4422 185.059 70.4239 185.169C70.4239 185.169 70.4239 185.206 70.4239 185.224C70.3505 185.444 70.2221 185.664 70.0753 185.884C69.8918 186.141 70.0753 186.49 70.3872 186.471C70.4973 186.471 70.6257 186.471 70.7174 186.471C70.8275 186.471 70.9376 186.471 71.0477 186.471C71.3596 186.471 71.5431 186.141 71.3596 185.884C71.2128 185.683 71.0844 185.462 71.011 185.224C71.011 185.224 71.011 185.187 71.011 185.169C70.9927 185.077 70.9743 184.967 70.956 184.857C70.9376 184.71 70.9376 184.563 70.956 184.417L71.0293 184.582C71.3963 185.095 72.0018 185.316 72.5889 185.132C73.1393 184.967 73.4879 184.49 73.4879 183.921C73.4879 183.059 72.8274 182.435 72.1485 181.775H72.0751Z" fill="#341212"/>
<path d="M143.087 182.307C142.537 182.307 142.041 182.619 141.803 183.078C141.638 183.261 141.399 183.335 141.179 183.39C141.234 183.078 141.326 182.784 141.546 182.619C142.041 182.399 142.353 181.903 142.353 181.39C142.353 181.041 142.207 180.693 141.95 180.436C141.674 180.16 141.308 180.014 140.922 180.014C140.133 180.014 139.491 180.637 139.491 181.39C139.491 181.922 139.821 182.399 140.298 182.619C140.482 182.747 140.592 183.059 140.665 183.39C140.445 183.335 140.207 183.261 140.042 183.078C139.803 182.601 139.289 182.307 138.757 182.307C137.968 182.307 137.326 182.931 137.326 183.683C137.326 184.435 137.968 185.059 138.757 185.059C139.289 185.059 139.803 184.747 140.078 184.289C140.097 184.252 140.115 184.215 140.152 184.197C140.152 184.197 140.188 184.178 140.188 184.16C140.427 183.977 140.775 184.197 140.757 184.49C140.757 184.637 140.739 184.784 140.72 184.876C140.72 184.894 140.72 184.912 140.702 184.931C140.409 185.683 139.73 186.564 139.363 186.876L139.418 186.949C139.913 186.545 141.968 186.545 142.482 186.949L142.537 186.876C142.151 186.564 141.418 185.61 141.197 184.931C141.197 184.931 141.197 184.894 141.197 184.876C141.179 184.766 141.161 184.619 141.142 184.49C141.142 184.16 141.509 183.977 141.748 184.197C141.748 184.197 141.766 184.215 141.785 184.234C142.023 184.711 142.573 185.059 143.124 185.059C143.913 185.059 144.555 184.435 144.555 183.683C144.555 182.931 143.913 182.307 143.124 182.307H143.087Z" fill="#341212"/>
</g>
</g>
<g style="mix-blend-mode:multiply" filter="url(#filter0_d_4109_14607)">
<path d="M146.997 6H15.0027C10.0306 6 6 10.0308 6 15.003V188.997C6 193.969 10.0306 198 15.0027 198H146.997C151.969 198 156 193.969 156 188.997V15.003C156 10.0308 151.969 6 146.997 6Z" fill="url(#paint0_radial_4109_14607)" fill-opacity="0.5" shape-rendering="crispEdges"/>
</g>
<path fill-rule="evenodd" clip-rule="evenodd" d="M33 177C39.6274 177 45 171.627 45 165C45 158.373 39.6274 153 33 153C26.3726 153 21 158.373 21 165C21 171.627 26.3726 177 33 177ZM30.9774 161.396C31.2424 161.131 31.6721 161.131 31.9371 161.396L35.0338 164.493C35.3127 164.772 35.3127 165.224 35.0338 165.503L31.9371 168.599C31.6721 168.864 31.2424 168.864 30.9774 168.599C30.7126 168.335 30.7123 167.905 30.9769 167.64L33.1102 165.502C33.3885 165.223 33.3885 164.772 33.1102 164.493L30.9768 162.355C30.7123 162.09 30.7126 161.661 30.9774 161.396Z" fill="#CDCDCD"/>
<g filter="url(#filter1_d_4109_14607)">
<path d="M22.35 40.1C22.35 38.624 22.485 37.301 22.755 36.131C23.025 34.961 23.43 33.971 23.97 33.161C24.51 32.333 25.176 31.703 25.968 31.271C26.76 30.821 27.678 30.596 28.722 30.596C29.766 30.596 30.684 30.83 31.476 31.298C32.268 31.748 32.934 32.405 33.474 33.269C34.014 34.115 34.419 35.141 34.689 36.347C34.959 37.535 35.094 38.867 35.094 40.343C35.094 42.071 34.833 43.646 34.311 45.068C33.789 46.472 33.15 47.759 32.394 48.929C31.638 50.099 30.837 51.161 29.991 52.115C29.163 53.069 28.425 53.951 27.777 54.761C28.965 54.761 30.144 54.761 31.314 54.761C32.484 54.743 33.663 54.734 34.851 54.734V58.973H22.647V56.597C22.647 55.733 22.8 54.977 23.106 54.329C23.43 53.681 23.844 53.06 24.348 52.466C24.852 51.872 25.419 51.278 26.049 50.684C26.697 50.072 27.336 49.379 27.966 48.605C28.308 48.191 28.65 47.75 28.992 47.282C29.352 46.814 29.667 46.265 29.937 45.635C30.225 44.987 30.459 44.222 30.639 43.34C30.819 42.458 30.909 41.414 30.909 40.208C30.909 39.578 30.882 38.948 30.828 38.318C30.774 37.688 30.666 37.112 30.504 36.59C30.342 36.068 30.117 35.645 29.829 35.321C29.559 34.997 29.208 34.835 28.776 34.835C28.344 34.835 27.984 34.997 27.696 35.321C27.408 35.645 27.183 36.068 27.021 36.59C26.859 37.112 26.742 37.688 26.67 38.318C26.616 38.948 26.589 39.578 26.589 40.208C26.589 40.964 26.607 41.621 26.643 42.179C26.697 42.737 26.76 43.223 26.832 43.637C26.904 44.051 26.985 44.393 27.075 44.663C27.183 44.933 27.282 45.158 27.372 45.338C27.606 45.734 27.867 45.941 28.155 45.959C28.155 46.319 27.957 46.607 27.561 46.823C27.183 47.039 26.76 47.147 26.292 47.147C25.428 47.147 24.735 46.886 24.213 46.364C23.691 45.842 23.286 45.212 22.998 44.474C22.728 43.736 22.548 42.971 22.458 42.179C22.386 41.369 22.35 40.676 22.35 40.1ZM37.8012 39.749C37.8012 36.635 38.3412 34.34 39.4212 32.864C40.5012 31.37 42.0942 30.623 44.2002 30.623C46.3062 30.623 47.8992 31.37 48.9792 32.864C50.0592 34.34 50.5992 36.635 50.5992 39.749V50.144C50.5992 53.258 50.0592 55.562 48.9792 57.056C47.8992 58.532 46.3062 59.27 44.2002 59.27C42.0942 59.27 40.5012 58.532 39.4212 57.056C38.3412 55.562 37.8012 53.258 37.8012 50.144V39.749ZM44.2002 54.896C44.6682 54.896 45.0372 54.761 45.3072 54.491C45.5952 54.203 45.8112 53.798 45.9552 53.276C46.0992 52.736 46.1982 52.07 46.2522 51.278C46.3062 50.486 46.3332 49.577 46.3332 48.551V41.342C46.3332 40.316 46.3062 39.407 46.2522 38.615C46.1982 37.823 46.0992 37.157 45.9552 36.617C45.8112 36.077 45.5952 35.672 45.3072 35.402C45.0372 35.114 44.6682 34.97 44.2002 34.97C43.7502 34.97 43.3812 35.114 43.0932 35.402C42.8052 35.672 42.5892 36.077 42.4452 36.617C42.3012 37.157 42.2022 37.823 42.1482 38.615C42.0942 39.407 42.0672 40.316 42.0672 41.342V48.551C42.0672 49.577 42.0942 50.486 42.1482 51.278C42.2022 52.07 42.3012 52.736 42.4452 53.276C42.5892 53.798 42.8052 54.203 43.0932 54.491C43.3812 54.761 43.7502 54.896 44.2002 54.896ZM53.7641 34.997H52.6301V30.866H58.1111V59H53.7641V34.997ZM67.0297 30.866H73.0237C74.2117 30.866 75.2737 31.01 76.2097 31.298C77.1457 31.568 77.9377 32.009 78.5857 32.621C79.2337 33.215 79.7287 33.989 80.0707 34.943C80.4127 35.879 80.5837 37.004 80.5837 38.318C80.5837 39.65 80.3497 40.874 79.8817 41.99C79.4137 43.088 78.7927 44.069 78.0187 44.933C77.2447 45.779 76.3537 46.508 75.3457 47.12C74.3557 47.714 73.3297 48.173 72.2677 48.497C72.2677 48.497 72.2677 48.605 72.2677 48.821C72.2677 49.019 72.2677 49.271 72.2677 49.577C72.2857 49.883 72.2947 50.225 72.2947 50.603C72.2947 50.963 72.2947 51.323 72.2947 51.683C72.2947 51.917 72.2857 52.241 72.2677 52.655C72.2677 53.069 72.2677 53.528 72.2677 54.032C72.2857 54.518 72.3037 55.031 72.3217 55.571C72.3397 56.093 72.3757 56.588 72.4297 57.056C72.4837 57.506 72.5557 57.911 72.6457 58.271C72.7357 58.613 72.8527 58.856 72.9967 59H67.0297C67.1737 58.856 67.2907 58.613 67.3807 58.271C67.4707 57.911 67.5427 57.506 67.5967 57.056C67.6507 56.588 67.6867 56.093 67.7047 55.571C67.7227 55.031 67.7317 54.518 67.7317 54.032C67.7497 53.528 67.7497 53.069 67.7317 52.655C67.7317 52.241 67.7317 51.917 67.7317 51.683V38.183C67.7317 37.949 67.7317 37.625 67.7317 37.211C67.7497 36.797 67.7497 36.347 67.7317 35.861C67.7317 35.357 67.7227 34.844 67.7047 34.322C67.6867 33.782 67.6507 33.287 67.5967 32.837C67.5427 32.369 67.4707 31.964 67.3807 31.622C67.2907 31.262 67.1737 31.01 67.0297 30.866ZM76.0207 38.291C76.0207 37.355 75.8047 36.599 75.3727 36.023C74.9407 35.429 74.2747 35.132 73.3747 35.132H72.2677V43.502C72.7897 43.502 73.2757 43.358 73.7257 43.07C74.1757 42.782 74.5717 42.404 74.9137 41.936C75.2557 41.45 75.5257 40.892 75.7237 40.262C75.9217 39.632 76.0207 38.975 76.0207 38.291ZM82.7309 49.631V40.235C82.7309 39.335 82.7399 38.561 82.7579 37.913C82.7939 37.247 82.8479 36.653 82.9199 36.131C83.0099 35.609 83.1269 35.141 83.2709 34.727C83.4329 34.295 83.6399 33.872 83.8919 33.458C84.3959 32.63 85.0889 31.946 85.9709 31.406C86.8709 30.866 87.9779 30.596 89.2919 30.596C90.6239 30.596 91.7309 30.866 92.6129 31.406C93.4949 31.946 94.1879 32.63 94.6919 33.458C94.9439 33.872 95.1419 34.295 95.2859 34.727C95.4479 35.141 95.5649 35.609 95.6369 36.131C95.7269 36.653 95.7809 37.247 95.7989 37.913C95.8349 38.561 95.8529 39.335 95.8529 40.235V49.631C95.8529 50.513 95.8349 51.287 95.7989 51.953C95.7809 52.619 95.7269 53.213 95.6369 53.735C95.5649 54.239 95.4479 54.707 95.2859 55.139C95.1419 55.553 94.9439 55.976 94.6919 56.408C94.1879 57.236 93.4949 57.92 92.6129 58.46C91.7309 59 90.6239 59.27 89.2919 59.27C87.9779 59.27 86.8709 59 85.9709 58.46C85.0889 57.92 84.3959 57.236 83.8919 56.408C83.6399 55.994 83.4329 55.58 83.2709 55.166C83.1269 54.734 83.0099 54.257 82.9199 53.735C82.8479 53.213 82.7939 52.619 82.7579 51.953C82.7399 51.287 82.7309 50.513 82.7309 49.631ZM87.2399 51.035C87.2399 51.467 87.2489 51.935 87.2669 52.439C87.3029 52.925 87.3839 53.375 87.5099 53.789C87.6539 54.203 87.8609 54.554 88.1309 54.842C88.4009 55.112 88.7789 55.247 89.2649 55.247C89.7509 55.247 90.1289 55.112 90.3989 54.842C90.6869 54.554 90.8939 54.203 91.0199 53.789C91.1639 53.375 91.2539 52.925 91.2899 52.439C91.3259 51.935 91.3439 51.467 91.3439 51.035V38.831C91.3439 38.399 91.3259 37.94 91.2899 37.454C91.2539 36.95 91.1639 36.491 91.0199 36.077C90.8939 35.663 90.6869 35.321 90.3989 35.051C90.1289 34.763 89.7509 34.619 89.2649 34.619C88.7789 34.619 88.4009 34.763 88.1309 35.051C87.8609 35.321 87.6539 35.663 87.5099 36.077C87.3839 36.491 87.3029 36.95 87.2669 37.454C87.2489 37.94 87.2399 38.399 87.2399 38.831V51.035ZM98.5775 49.631V40.235C98.5775 39.335 98.5865 38.561 98.6045 37.913C98.6405 37.247 98.6945 36.653 98.7665 36.131C98.8565 35.609 98.9735 35.141 99.1175 34.727C99.2795 34.295 99.4865 33.872 99.7385 33.458C100.243 32.63 100.936 31.946 101.818 31.406C102.718 30.866 103.825 30.596 105.139 30.596C106.471 30.596 107.578 30.866 108.46 31.406C109.342 31.946 110.035 32.63 110.539 33.458C110.791 33.872 110.989 34.295 111.133 34.727C111.295 35.141 111.412 35.609 111.484 36.131C111.574 36.653 111.628 37.247 111.646 37.913C111.682 38.561 111.7 39.335 111.7 40.235V49.631C111.7 50.513 111.682 51.287 111.646 51.953C111.628 52.619 111.574 53.213 111.484 53.735C111.412 54.239 111.295 54.707 111.133 55.139C110.989 55.553 110.791 55.976 110.539 56.408C110.035 57.236 109.342 57.92 108.46 58.46C107.578 59 106.471 59.27 105.139 59.27C103.825 59.27 102.718 59 101.818 58.46C100.936 57.92 100.243 57.236 99.7385 56.408C99.4865 55.994 99.2795 55.58 99.1175 55.166C98.9735 54.734 98.8565 54.257 98.7665 53.735C98.6945 53.213 98.6405 52.619 98.6045 51.953C98.5865 51.287 98.5775 50.513 98.5775 49.631ZM103.087 51.035C103.087 51.467 103.096 51.935 103.114 52.439C103.15 52.925 103.231 53.375 103.357 53.789C103.501 54.203 103.708 54.554 103.978 54.842C104.248 55.112 104.626 55.247 105.112 55.247C105.598 55.247 105.976 55.112 106.246 54.842C106.534 54.554 106.741 54.203 106.867 53.789C107.011 53.375 107.101 52.925 107.137 52.439C107.173 51.935 107.191 51.467 107.191 51.035V38.831C107.191 38.399 107.173 37.94 107.137 37.454C107.101 36.95 107.011 36.491 106.867 36.077C106.741 35.663 106.534 35.321 106.246 35.051C105.976 34.763 105.598 34.619 105.112 34.619C104.626 34.619 104.248 34.763 103.978 35.051C103.708 35.321 103.501 35.663 103.357 36.077C103.231 36.491 103.15 36.95 103.114 37.454C103.096 37.94 103.087 38.399 103.087 38.831V51.035ZM113.884 59C114.028 58.856 114.145 58.613 114.235 58.271C114.325 57.911 114.397 57.506 114.451 57.056C114.505 56.588 114.541 56.093 114.559 55.571C114.577 55.031 114.586 54.518 114.586 54.032C114.604 53.528 114.604 53.069 114.586 52.655C114.586 52.241 114.586 51.917 114.586 51.683V38.183C114.586 37.949 114.586 37.625 114.586 37.211C114.604 36.797 114.604 36.347 114.586 35.861C114.586 35.357 114.577 34.844 114.559 34.322C114.541 33.782 114.505 33.287 114.451 32.837C114.397 32.369 114.325 31.964 114.235 31.622C114.145 31.262 114.028 31.01 113.884 30.866H119.824C119.68 31.01 119.563 31.262 119.473 31.622C119.383 31.964 119.311 32.369 119.257 32.837C119.203 33.287 119.167 33.782 119.149 34.322C119.131 34.844 119.113 35.357 119.095 35.861C119.095 36.347 119.095 36.797 119.095 37.211C119.113 37.625 119.122 37.949 119.122 38.183V55.112H119.851C120.481 55.112 121.03 55.112 121.498 55.112C121.984 55.112 122.434 55.094 122.848 55.058C123.28 55.004 123.712 54.914 124.144 54.788C124.576 54.662 125.062 54.482 125.602 54.248V59H113.884Z" fill="#E0E0E0"/>
</g>
<path d="M21.945 82V81.115C22.655 80.555 23.325 79.99 23.955 79.42C24.595 78.84 25.16 78.27 25.65 77.71C26.15 77.15 26.54 76.6 26.82 76.06C27.11 75.52 27.255 75 27.255 74.5C27.255 74.13 27.19 73.785 27.06 73.465C26.94 73.145 26.74 72.89 26.46 72.7C26.18 72.5 25.8 72.4 25.32 72.4C24.86 72.4 24.475 72.505 24.165 72.715C23.855 72.915 23.62 73.185 23.46 73.525C23.31 73.865 23.235 74.23 23.235 74.62H22.02C22.02 73.93 22.165 73.34 22.455 72.85C22.745 72.35 23.14 71.97 23.64 71.71C24.14 71.45 24.705 71.32 25.335 71.32C26.265 71.32 27.025 71.585 27.615 72.115C28.215 72.635 28.515 73.415 28.515 74.455C28.515 75.075 28.36 75.69 28.05 76.3C27.74 76.9 27.345 77.485 26.865 78.055C26.385 78.615 25.87 79.14 25.32 79.63C24.78 80.12 24.275 80.56 23.805 80.95H28.875V82H21.945ZM29.614 83.785L30.484 80.47H31.789L30.484 83.785H29.614ZM36.825 82.18C36.165 82.18 35.6 82.05 35.13 81.79C34.66 81.53 34.285 81.185 34.005 80.755C33.735 80.315 33.57 79.83 33.51 79.3H34.68C34.78 79.87 35.02 80.31 35.4 80.62C35.78 80.93 36.26 81.085 36.84 81.085C37.64 81.085 38.305 80.715 38.835 79.975C39.365 79.225 39.65 78.06 39.69 76.48C39.45 76.95 39.065 77.36 38.535 77.71C38.015 78.05 37.385 78.22 36.645 78.22C36.055 78.22 35.495 78.08 34.965 77.8C34.435 77.52 34.005 77.13 33.675 76.63C33.345 76.12 33.18 75.525 33.18 74.845C33.18 74.255 33.325 73.69 33.615 73.15C33.915 72.61 34.335 72.17 34.875 71.83C35.415 71.49 36.06 71.32 36.81 71.32C37.57 71.32 38.21 71.465 38.73 71.755C39.25 72.035 39.665 72.415 39.975 72.895C40.295 73.375 40.525 73.915 40.665 74.515C40.815 75.105 40.89 75.71 40.89 76.33C40.89 77.49 40.73 78.51 40.41 79.39C40.09 80.26 39.625 80.945 39.015 81.445C38.415 81.935 37.685 82.18 36.825 82.18ZM36.9 77.125C37.37 77.125 37.79 77.02 38.16 76.81C38.53 76.59 38.825 76.3 39.045 75.94C39.265 75.58 39.375 75.19 39.375 74.77C39.375 74.32 39.265 73.92 39.045 73.57C38.825 73.21 38.53 72.93 38.16 72.73C37.79 72.53 37.37 72.43 36.9 72.43C36.43 72.43 36.01 72.53 35.64 72.73C35.27 72.93 34.98 73.21 34.77 73.57C34.56 73.92 34.455 74.325 34.455 74.785C34.455 75.495 34.685 76.065 35.145 76.495C35.615 76.915 36.2 77.125 36.9 77.125ZM45.8292 82.18C45.1592 82.18 44.5542 82.06 44.0142 81.82C43.4742 81.57 43.0392 81.2 42.7092 80.71C42.3892 80.22 42.2192 79.61 42.1992 78.88H43.4742C43.4842 79.48 43.6942 80 44.1042 80.44C44.5142 80.87 45.0892 81.085 45.8292 81.085C46.5692 81.085 47.1242 80.88 47.4942 80.47C47.8742 80.06 48.0642 79.565 48.0642 78.985C48.0642 78.495 47.9442 78.095 47.7042 77.785C47.4742 77.475 47.1592 77.245 46.7592 77.095C46.3692 76.945 45.9392 76.87 45.4692 76.87H44.6892V75.805H45.4692C46.1492 75.805 46.6792 75.65 47.0592 75.34C47.4492 75.03 47.6442 74.595 47.6442 74.035C47.6442 73.565 47.4892 73.18 47.1792 72.88C46.8792 72.57 46.4292 72.415 45.8292 72.415C45.2492 72.415 44.7842 72.59 44.4342 72.94C44.0842 73.28 43.8892 73.71 43.8492 74.23H42.5742C42.6042 73.66 42.7542 73.155 43.0242 72.715C43.3042 72.275 43.6842 71.935 44.1642 71.695C44.6442 71.445 45.1992 71.32 45.8292 71.32C46.5092 71.32 47.0742 71.44 47.5242 71.68C47.9842 71.92 48.3292 72.24 48.5592 72.64C48.7992 73.04 48.9192 73.48 48.9192 73.96C48.9192 74.49 48.7742 74.975 48.4842 75.415C48.1942 75.845 47.7592 76.135 47.1792 76.285C47.7992 76.415 48.3142 76.71 48.7242 77.17C49.1342 77.63 49.3392 78.235 49.3392 78.985C49.3392 79.565 49.2042 80.1 48.9342 80.59C48.6742 81.07 48.2842 81.455 47.7642 81.745C47.2442 82.035 46.5992 82.18 45.8292 82.18ZM56.1326 82V79.75H50.8076V78.775L55.9076 71.5H57.3776V78.64H58.9376V79.75H57.3776V82H56.1326ZM52.2026 78.64H56.1926V72.895L52.2026 78.64ZM64.3543 85.3V74.56H65.4943L65.6143 75.79C65.8543 75.43 66.1943 75.105 66.6343 74.815C67.0843 74.525 67.6543 74.38 68.3443 74.38C69.0843 74.38 69.7293 74.55 70.2793 74.89C70.8293 75.23 71.2543 75.695 71.5543 76.285C71.8643 76.875 72.0193 77.545 72.0193 78.295C72.0193 79.045 71.8643 79.715 71.5543 80.305C71.2543 80.885 70.8243 81.345 70.2643 81.685C69.7143 82.015 69.0693 82.18 68.3293 82.18C67.7193 82.18 67.1743 82.055 66.6943 81.805C66.2243 81.555 65.8643 81.205 65.6143 80.755V85.3H64.3543ZM68.1943 81.085C68.6943 81.085 69.1343 80.97 69.5143 80.74C69.8943 80.5 70.1943 80.17 70.4143 79.75C70.6343 79.33 70.7443 78.84 70.7443 78.28C70.7443 77.72 70.6343 77.23 70.4143 76.81C70.1943 76.39 69.8943 76.065 69.5143 75.835C69.1343 75.595 68.6943 75.475 68.1943 75.475C67.6943 75.475 67.2543 75.595 66.8743 75.835C66.4943 76.065 66.1943 76.39 65.9743 76.81C65.7543 77.23 65.6443 77.72 65.6443 78.28C65.6443 78.84 65.7543 79.33 65.9743 79.75C66.1943 80.17 66.4943 80.5 66.8743 80.74C67.2543 80.97 67.6943 81.085 68.1943 81.085ZM73.7733 82V71.2H75.0333V82H73.7733ZM79.5735 82.18C78.9535 82.18 78.4385 82.075 78.0285 81.865C77.6185 81.655 77.3135 81.375 77.1135 81.025C76.9135 80.675 76.8135 80.295 76.8135 79.885C76.8135 79.125 77.1035 78.54 77.6835 78.13C78.2635 77.72 79.0535 77.515 80.0535 77.515H82.0635V77.425C82.0635 76.775 81.8935 76.285 81.5535 75.955C81.2135 75.615 80.7585 75.445 80.1885 75.445C79.6985 75.445 79.2735 75.57 78.9135 75.82C78.5635 76.06 78.3435 76.415 78.2535 76.885H76.9635C77.0135 76.345 77.1935 75.89 77.5035 75.52C77.8235 75.15 78.2185 74.87 78.6885 74.68C79.1585 74.48 79.6585 74.38 80.1885 74.38C81.2285 74.38 82.0085 74.66 82.5285 75.22C83.0585 75.77 83.3235 76.505 83.3235 77.425V82H82.1985L82.1235 80.665C81.9135 81.085 81.6035 81.445 81.1935 81.745C80.7935 82.035 80.2535 82.18 79.5735 82.18ZM79.7685 81.115C80.2485 81.115 80.6585 80.99 80.9985 80.74C81.3485 80.49 81.6135 80.165 81.7935 79.765C81.9735 79.365 82.0635 78.945 82.0635 78.505V78.49H80.1585C79.4185 78.49 78.8935 78.62 78.5835 78.88C78.2835 79.13 78.1335 79.445 78.1335 79.825C78.1335 80.215 78.2735 80.53 78.5535 80.77C78.8435 81 79.2485 81.115 79.7685 81.115ZM85.804 85.3L87.649 81.28H87.214L84.259 74.56H85.624L88.084 80.35L90.694 74.56H91.999L87.124 85.3H85.804ZM94.0939 72.91C93.8439 72.91 93.6339 72.83 93.4639 72.67C93.3039 72.5 93.2239 72.29 93.2239 72.04C93.2239 71.8 93.3039 71.6 93.4639 71.44C93.6339 71.28 93.8439 71.2 94.0939 71.2C94.3339 71.2 94.5389 71.28 94.7089 71.44C94.8789 71.6 94.9639 71.8 94.9639 72.04C94.9639 72.29 94.8789 72.5 94.7089 72.67C94.5389 72.83 94.3339 72.91 94.0939 72.91ZM93.4639 82V74.56H94.7239V82H93.4639ZM96.9178 82V74.56H98.0578L98.1328 75.895C98.3728 75.425 98.7178 75.055 99.1678 74.785C99.6178 74.515 100.128 74.38 100.698 74.38C101.578 74.38 102.278 74.65 102.798 75.19C103.328 75.72 103.593 76.54 103.593 77.65V82H102.333V77.785C102.333 76.235 101.693 75.46 100.413 75.46C99.7728 75.46 99.2378 75.695 98.8078 76.165C98.3878 76.625 98.1778 77.285 98.1778 78.145V82H96.9178ZM108.442 79.66C108.022 79.66 107.637 79.605 107.287 79.495L106.537 80.2C106.647 80.28 106.782 80.35 106.942 80.41C107.112 80.46 107.352 80.51 107.662 80.56C107.972 80.6 108.407 80.645 108.967 80.695C109.967 80.765 110.682 80.995 111.112 81.385C111.542 81.775 111.757 82.285 111.757 82.915C111.757 83.345 111.637 83.755 111.397 84.145C111.167 84.535 110.807 84.855 110.317 85.105C109.837 85.355 109.217 85.48 108.457 85.48C107.787 85.48 107.192 85.39 106.672 85.21C106.152 85.04 105.747 84.775 105.457 84.415C105.167 84.065 105.022 83.62 105.022 83.08C105.022 82.8 105.097 82.495 105.247 82.165C105.397 81.845 105.677 81.54 106.087 81.25C105.867 81.16 105.677 81.065 105.517 80.965C105.367 80.855 105.227 80.735 105.097 80.605V80.26L106.372 79C105.782 78.5 105.487 77.84 105.487 77.02C105.487 76.53 105.602 76.085 105.832 75.685C106.062 75.285 106.397 74.97 106.837 74.74C107.277 74.5 107.812 74.38 108.442 74.38C108.872 74.38 109.262 74.44 109.612 74.56H112.357V75.505L110.962 75.565C111.252 75.985 111.397 76.47 111.397 77.02C111.397 77.51 111.277 77.955 111.037 78.355C110.807 78.755 110.472 79.075 110.032 79.315C109.602 79.545 109.072 79.66 108.442 79.66ZM108.442 78.625C108.972 78.625 109.392 78.49 109.702 78.22C110.022 77.94 110.182 77.54 110.182 77.02C110.182 76.51 110.022 76.12 109.702 75.85C109.392 75.57 108.972 75.43 108.442 75.43C107.902 75.43 107.472 75.57 107.152 75.85C106.842 76.12 106.687 76.51 106.687 77.02C106.687 77.54 106.842 77.94 107.152 78.22C107.472 78.49 107.902 78.625 108.442 78.625ZM106.252 82.96C106.252 83.46 106.462 83.83 106.882 84.07C107.302 84.32 107.827 84.445 108.457 84.445C109.077 84.445 109.572 84.31 109.942 84.04C110.322 83.77 110.512 83.41 110.512 82.96C110.512 82.64 110.382 82.36 110.122 82.12C109.862 81.89 109.382 81.755 108.682 81.715C108.132 81.675 107.657 81.625 107.257 81.565C106.847 81.785 106.577 82.02 106.447 82.27C106.317 82.53 106.252 82.76 106.252 82.96Z" fill="#E0E0E0"/>
<defs>
<filter id="filter0_d_4109_14607" x="0" y="6" width="162" height="204" filterUnits="userSpaceOnUse" color-interpolation-filters="sRGB">
<feFlood flood-opacity="0" result="BackgroundImageFix"/>
<feColorMatrix in="SourceAlpha" type="matrix" values="0 0 0 0 0 0 0 0 0 0 0 0 0 0 0 0 0 0 127 0" result="hardAlpha"/>
<feOffset dy="6"/>
<feGaussianBlur stdDeviation="3"/>
<feComposite in2="hardAlpha" operator="out"/>
<feColorMatrix type="matrix" values="0 0 0 0 0 0 0 0 0 0 0 0 0 0 0 0 0 0 0.25 0"/>
<feBlend mode="normal" in2="BackgroundImageFix" result="effect1_dropShadow_4109_14607"/>
<feBlend mode="normal" in="SourceGraphic" in2="effect1_dropShadow_4109_14607" result="shape"/>
</filter>
<filter id="filter1_d_4109_14607" x="22.3501" y="30.5962" width="103.252" height="30.1738" filterUnits="userSpaceOnUse" color-interpolation-filters="sRGB">
<feFlood flood-opacity="0" result="BackgroundImageFix"/>
<feColorMatrix in="SourceAlpha" type="matrix" values="0 0 0 0 0 0 0 0 0 0 0 0 0 0 0 0 0 0 127 0" result="hardAlpha"/>
<feOffset dy="1.5"/>
<feComposite in2="hardAlpha" operator="out"/>
<feColorMatrix type="matrix" values="0 0 0 0 0.00392157 0 0 0 0 0.0117647 0 0 0 0 0.00392157 0 0 0 1 0"/>
<feBlend mode="normal" in2="BackgroundImageFix" result="effect1_dropShadow_4109_14607"/>
<feBlend mode="normal" in="SourceGraphic" in2="effect1_dropShadow_4109_14607" result="shape"/>
</filter>
<radialGradient id="paint0_radial_4109_14607" cx="0" cy="0" r="1" gradientUnits="userSpaceOnUse" gradientTransform="translate(77.1019 104.848) scale(190.398 190.405)">
<stop offset="0.04" stop-color="#606161" stop-opacity="0"/>
<stop offset="0.26" stop-color="#525354" stop-opacity="0.18"/>
<stop offset="0.35" stop-color="#4B4D4E" stop-opacity="0.28"/>
<stop offset="1" stop-color="#101418"/>
</radialGradient>
</defs>
</svg>
