<svg width="80" height="80" viewBox="0 0 80 80" fill="none" xmlns="http://www.w3.org/2000/svg">
<path d="M40.7713 64.958C40.5284 64.958 40.2713 64.9294 40.0141 64.8865C38.9856 64.7008 37.9998 64.2008 37.3284 63.5294C34.9284 61.1151 32.5427 58.6865 30.157 56.258C26.9856 53.0151 23.6998 49.6722 20.4284 46.4437C15.5856 41.658 13.2998 35.8008 14.1713 30.3722C14.8998 25.858 17.7856 22.0437 22.0998 19.9008L22.2284 19.8437C24.0284 19.0722 25.957 18.6865 27.9713 18.6865C32.857 18.6865 37.8713 21.1294 40.4427 24.7865L41.7713 26.658L34.1856 33.0294C33.7998 33.3437 33.4141 33.6722 33.0284 34.0008C32.2284 34.7008 32.1141 35.6722 32.757 36.458C33.0713 36.8437 33.4998 37.058 33.9998 37.058C34.3855 37.058 34.757 36.9294 35.0855 36.6722C36.7713 35.4008 38.4427 34.1151 40.0998 32.8151L42.3998 31.0294L44.6713 29.358L57.2998 43.458C59.1713 45.558 59.1713 48.3008 57.2998 50.1294C56.457 50.9437 55.3856 51.4151 54.2427 51.4437C54.2284 52.5865 53.757 53.7008 52.857 54.6151C52.0141 55.458 50.9141 55.9294 49.757 55.9437C49.757 57.1294 49.2713 58.258 48.3856 59.1151C47.2855 60.2008 46.1141 60.458 45.3141 60.4722C45.2856 61.0865 45.1427 61.7008 44.857 62.3008C44.0998 63.9151 42.4998 64.958 40.7856 64.958H40.7713Z" fill="#763239"/>
<path d="M27.9572 21.1719C32.2857 21.1719 36.3857 23.3576 38.3857 26.2147C36.6429 27.6862 34.8857 29.1576 33.1286 30.629C32.5429 31.1147 31.9429 31.6004 31.3715 32.1147C29.5715 33.7004 29.3286 36.1862 30.7857 38.0147C31.5857 39.029 32.7715 39.5576 33.9857 39.5576C34.8715 39.5576 35.7857 39.2719 36.5715 38.6719C39.0286 36.8147 41.4715 34.9004 43.9143 33.029C44.0143 32.9433 44.1286 32.8719 44.3143 32.729C47.1715 35.9147 49.9857 39.0576 52.7857 42.2004C53.6572 43.1862 54.5429 44.1576 55.4143 45.129C56.3857 46.229 56.4286 47.4719 55.5286 48.3576C55.1143 48.7576 54.6286 48.9576 54.1143 48.9576C53.5143 48.9576 52.8857 48.6862 52.3429 48.1433C50.8572 46.6576 49.3715 45.1576 47.8857 43.6576C47.4572 43.229 47.1 43.0147 46.7715 43.0147C46.5429 43.0147 46.3429 43.1147 46.1286 43.3147C45.6429 43.7862 45.7572 44.4147 46.4286 45.0862C47.9143 46.5862 49.4 48.0719 50.8857 49.5719C51.9429 50.6433 52.0143 51.9147 51.0715 52.8433C50.6572 53.2576 50.1572 53.4576 49.6429 53.4576C49.0429 53.4576 48.4143 53.1862 47.8715 52.6433C46.3857 51.1576 44.9 49.6576 43.4143 48.1576C42.9857 47.729 42.6286 47.5147 42.3 47.5147C42.0715 47.5147 41.8715 47.6147 41.6715 47.8147C41.1572 48.3147 41.2429 48.8433 41.9715 49.5719C43.3715 50.9862 44.7857 52.4147 46.1857 53.829C47.4143 55.0719 47.5715 56.4004 46.6143 57.3433C46.1857 57.7719 45.7286 57.9862 45.2286 57.9862C44.5715 57.9862 43.8857 57.6147 43.1429 56.8576C41.7 55.4004 40.2429 53.9433 38.8143 52.4862C38.5429 52.2005 38.2429 52.029 37.9143 52.029C37.7572 52.029 37.5857 52.0719 37.4143 52.1576C36.7572 52.5004 36.7286 53.2719 37.3286 53.8862C38.9143 55.5147 40.5286 57.1147 42.1143 58.729C42.8286 59.4576 42.9857 60.3862 42.5715 61.229C42.2286 61.9433 41.5286 62.4576 40.7572 62.4576C40.6572 62.4576 40.5429 62.4576 40.4429 62.429C39.9572 62.3433 39.4286 62.1004 39.0857 61.7719C33.4143 56.1004 27.8715 50.3004 22.1572 44.6719C13.7857 36.4147 15.0857 26.1719 23.1857 22.1433C24.7429 21.4862 26.3572 21.1862 27.9429 21.1862M27.9429 16.1862C25.6 16.1862 23.3429 16.6433 21.2286 17.5433L21.1 17.6004L20.9715 17.6576C15.9286 20.1576 12.5429 24.6576 11.6857 29.9862C10.6857 36.229 13.2286 42.8719 18.6572 48.229C21.9143 51.4433 25.2 54.7862 28.3715 58.029C30.7572 60.4576 33.1429 62.9004 35.5572 65.3004C36.6 66.3433 38.0143 67.0719 39.5572 67.3433C39.9572 67.4147 40.3572 67.4576 40.7715 67.4576C43.4429 67.4576 45.9286 65.8576 47.1 63.3862C47.2143 63.129 47.3286 62.8862 47.4143 62.629C48.2857 62.329 49.2286 61.8004 50.1286 60.9147C50.9572 60.1004 51.5572 59.1433 51.9 58.0862C52.9 57.7433 53.8286 57.1719 54.6 56.4004C55.4429 55.5719 56.0286 54.6147 56.3715 53.5862C57.3572 53.2433 58.2715 52.6862 59.0429 51.929C61.8715 49.1576 61.9286 44.8862 59.1715 41.8004L57.6572 40.1147L56.5286 38.8576L50.4286 32.0433L48.0429 29.3862L45.0143 26.0004L44.5857 26.3147L42.4857 23.329C39.4143 18.9862 33.7143 16.1719 27.9715 16.1719L27.9429 16.1862Z" fill="#F6CA46"/>
<path d="M59.8287 45.0004C58.9144 45.0004 58.0715 44.5861 57.3287 43.7575C53.8715 39.9004 50.3858 36.0432 46.9001 32.2004L46.0001 31.2147C44.7572 32.1861 43.0715 33.5289 41.3858 34.8718C39.3572 36.5004 37.3144 38.1147 36.043 39.0861C35.0858 39.8147 34.0144 40.2146 32.943 40.2146C31.5572 40.2146 30.2715 39.5575 29.3858 38.4004C27.8287 36.3575 28.2144 33.6861 30.3287 31.9004C31.243 31.1289 32.4001 30.1718 33.6715 29.1289C36.8715 26.4861 40.8572 23.1861 43.0572 21.1575C45.6287 18.7718 48.6715 17.5146 51.8287 17.5146C55.1715 17.5146 58.5715 18.9432 61.3858 21.5575C64.5715 24.5004 66.3144 28.4432 66.4001 32.9575C66.3287 37.1575 64.943 40.7718 62.2858 43.7861C61.5572 44.6147 60.7144 45.0289 59.8001 45.0289L59.8287 45.0004Z" fill="#763239"/>
<path d="M51.8572 20C54.6572 20 57.4 21.2429 59.7143 23.3714C62.5286 25.9714 63.8572 29.2714 63.9286 32.9857C63.8715 36.5429 62.7143 39.5429 60.4429 42.1143C60.2143 42.3857 60.0143 42.5143 59.8286 42.5143C59.6429 42.5143 59.4429 42.3714 59.2 42.1C55.2429 37.6714 51.2429 33.2714 47.2572 28.8714C46.8143 28.3857 46.5429 28.1571 46.2286 28.1571C45.9572 28.1571 45.6572 28.3429 45.2143 28.6857C42.6715 30.6429 37.0858 35.1714 34.5429 37.1143C34.0143 37.5143 33.4715 37.7143 32.9715 37.7143C32.3715 37.7143 31.8286 37.4429 31.4143 36.8857C30.6715 35.9143 30.9 34.7286 31.9858 33.8143C35.2429 31.0714 41.6715 25.8714 44.8143 22.9857C47.0429 20.9286 49.4858 20.0143 51.8858 20.0143M51.8858 15.0143C48.0858 15.0143 44.4572 16.5 41.4143 19.3143C39.2572 21.3143 35.3 24.5857 32.1143 27.2143C30.8429 28.2571 29.6858 29.2286 28.7715 29.9857C25.6429 32.6143 25.0715 36.8 27.4429 39.9143C28.8 41.7 30.8143 42.7143 32.9858 42.7143C34.6143 42.7143 36.2143 42.1429 37.6143 41.0714C38.9143 40.0714 41 38.4143 43.0143 36.8143C43.9429 36.0714 44.8858 35.3143 45.7572 34.6286C49.0143 38.2286 52.2715 41.8286 55.5143 45.4429C57.0429 47.1571 58.7286 47.5143 59.8715 47.5143C61.0143 47.5143 62.7143 47.1571 64.2286 45.4286C67.3 41.9571 68.9 37.8 68.9715 33.0714V32.8857C68.8572 27.6857 66.8572 23.1286 63.1429 19.7C59.8572 16.6714 55.8715 15 51.8858 15V15.0143Z" fill="#F6CA46"/>
</svg>
