<svg width="80" height="80" viewBox="0 0 80 80" fill="none" xmlns="http://www.w3.org/2000/svg">
<path d="M39.7524 71.5047C57.2887 71.5047 71.5047 57.2887 71.5047 39.7523C71.5047 22.216 57.2887 8 39.7524 8C22.216 8 8 22.216 8 39.7523C8 57.2887 22.216 71.5047 39.7524 71.5047Z" fill="#380000"/>
<path d="M31.345 42.7937C31.0575 42.7937 30.8107 42.7327 30.6046 42.6107C30.3985 42.4859 30.2399 42.3137 30.1287 42.0941C30.0175 41.8717 29.9619 41.6154 29.9619 41.3253C29.9619 41.0351 30.0175 40.7788 30.1287 40.5564C30.2399 40.3341 30.3985 40.1605 30.6046 40.0358C30.8107 39.911 31.0575 39.8486 31.345 39.8486C31.6867 39.8486 31.966 39.9341 32.183 40.1049C32.4026 40.273 32.5396 40.5103 32.5938 40.8168H32.0202C31.985 40.6622 31.9091 40.5415 31.7924 40.4547C31.6785 40.3652 31.5267 40.3205 31.3368 40.3205C31.0738 40.3205 30.8677 40.41 30.7185 40.589C30.5694 40.768 30.4948 41.0134 30.4948 41.3253C30.4948 41.6371 30.5694 41.8826 30.7185 42.0615C30.8677 42.2378 31.0738 42.3259 31.3368 42.3259C31.5267 42.3259 31.6785 42.2853 31.7924 42.2039C31.9091 42.1198 31.985 42.0046 32.0202 41.8581H32.5938C32.5396 42.151 32.4026 42.3802 32.183 42.5456C31.966 42.711 31.6867 42.7937 31.345 42.7937Z" fill="#F6CA46"/>
<path d="M33.0547 42.7449V39.8974H34.9137V40.3164H33.5754V41.0975H34.7917V41.5042H33.5754V42.3259H34.9137V42.7449H33.0547Z" fill="#F6CA46"/>
<path d="M35.4064 42.7449V39.8974H36.4519C36.6797 39.8974 36.8668 39.9368 37.0132 40.0154C37.1624 40.0913 37.2736 40.1958 37.3468 40.3286C37.42 40.4588 37.4566 40.6039 37.4566 40.7639C37.4566 40.9375 37.4105 41.0961 37.3183 41.2398C37.2288 41.3836 37.0878 41.488 36.8953 41.5531L37.4851 42.7449H36.8871L36.3583 41.6222H35.9271V42.7449H35.4064ZM35.9271 41.2398H36.4193C36.5929 41.2398 36.7203 41.1978 36.8017 41.1137C36.8831 41.0297 36.9237 40.9185 36.9237 40.7802C36.9237 40.6446 36.8831 40.5361 36.8017 40.4547C36.7231 40.3734 36.5942 40.3327 36.4153 40.3327H35.9271V41.2398Z" fill="#F6CA46"/>
<path d="M38.6039 42.7449V40.3164H37.7741V39.8974H39.9585V40.3164H39.1246V42.7449H38.6039Z" fill="#F6CA46"/>
<path d="M40.3442 42.7449V39.8974H40.8649V42.7449H40.3442Z" fill="#F6CA46"/>
<path d="M41.4168 42.7449V39.8974H43.2555V40.3164H41.9375V41.1137H43.0033V41.5246H41.9375V42.7449H41.4168Z" fill="#F6CA46"/>
<path d="M43.6573 42.7449V39.8974H44.178V42.7449H43.6573Z" fill="#F6CA46"/>
<path d="M44.7299 42.7449V39.8974H46.5889V40.3164H45.2506V41.0975H46.4669V41.5042H45.2506V42.3259H46.5889V42.7449H44.7299Z" fill="#F6CA46"/>
<path d="M47.0816 42.7449V39.8974H48.0538C48.3874 39.8974 48.6613 39.9571 48.8755 40.0764C49.0925 40.193 49.2525 40.3585 49.3555 40.5727C49.4613 40.7842 49.5142 41.0337 49.5142 41.3212C49.5142 41.6087 49.4613 41.8595 49.3555 42.0737C49.2525 42.2853 49.0925 42.4507 48.8755 42.57C48.6613 42.6866 48.3874 42.7449 48.0538 42.7449H47.0816ZM47.6023 42.2975H48.0294C48.2681 42.2975 48.4565 42.2595 48.5948 42.1836C48.7331 42.1049 48.8321 41.9937 48.8918 41.85C48.9515 41.7036 48.9813 41.5273 48.9813 41.3212C48.9813 41.1178 48.9515 40.9429 48.8918 40.7964C48.8321 40.65 48.7331 40.5375 48.5948 40.4588C48.4565 40.3802 48.2681 40.3408 48.0294 40.3408H47.6023V42.2975Z" fill="#F6CA46"/>
<path fill-rule="evenodd" clip-rule="evenodd" d="M42.1753 49.1119C42.4236 49.3691 42.4164 49.7788 42.1592 50.027L39.5873 52.51C39.1608 52.9217 38.4681 52.8584 38.1234 52.3762L37.4998 51.5041C37.2919 51.2134 37.3591 50.8091 37.6498 50.6012C37.9406 50.3933 38.3448 50.4605 38.5527 50.7513L38.9581 51.3183L41.2602 49.0958C41.5174 48.8475 41.9271 48.8548 42.1753 49.1119Z" fill="#F6CA46"/>
<path fill-rule="evenodd" clip-rule="evenodd" d="M43.322 22.7754L40.925 21.1969C40.1209 20.6674 39.0788 20.6674 38.2747 21.1969L35.8778 22.7754C35.444 23.061 34.9296 23.1989 34.4111 23.1684L31.5461 22.9999C30.5849 22.9434 29.6824 23.4644 29.2508 24.325L27.9642 26.8905C27.7314 27.3547 27.3548 27.7313 26.8906 27.9641L24.3251 29.2508C23.4645 29.6824 22.9434 30.5849 23 31.546L23.1685 34.4111C23.199 34.9295 23.0611 35.4439 22.7755 35.8777L21.197 38.2747C21.0957 38.4286 21.0137 38.5912 20.9512 38.7592H58.2486C58.1861 38.5912 58.1041 38.4286 58.0028 38.2747L56.4243 35.8777C56.1387 35.4439 56.0008 34.9295 56.0313 34.4111L56.1998 31.546C56.2563 30.5849 55.7353 29.6824 54.8747 29.2508L52.3092 27.9641C51.8449 27.7313 51.4684 27.3547 51.2355 26.8905L49.9489 24.325C49.5173 23.4644 48.6148 22.9434 47.6537 22.9999L44.7886 23.1684C44.2702 23.1989 43.7558 23.061 43.322 22.7754ZM23.1685 44.7885C23.1842 44.5211 23.1551 44.2547 23.0841 43.9999H56.1157C56.0447 44.2547 56.0156 44.5211 56.0313 44.7885L56.1998 47.6536C56.2563 48.6147 55.7353 49.5172 54.8747 49.9488L52.3092 51.2355C51.8449 51.4683 51.4684 51.8449 51.2355 52.3091L49.9489 54.8746C49.5173 55.7352 48.6148 56.2563 47.6537 56.1997L44.7886 56.0312C44.2702 56.0007 43.7558 56.1386 43.322 56.4242L40.925 58.0027C40.1209 58.5322 39.0788 58.5322 38.2747 58.0027L35.8778 56.4242C35.444 56.1386 34.9296 56.0007 34.4111 56.0312L31.5461 56.1997C30.5849 56.2563 29.6824 55.7352 29.2508 54.8746L27.9642 52.3091C27.7314 51.8449 27.3548 51.4683 26.8906 51.2355L24.3251 49.9488C23.4645 49.5172 22.9434 48.6147 23 47.6536L23.1685 44.7885ZM39.641 46.4531C37.3311 46.4531 35.4586 48.3256 35.4586 50.6355C35.4586 52.9453 37.3311 54.8178 39.641 54.8178C41.9508 54.8178 43.8233 52.9453 43.8233 50.6355C43.8233 48.3256 41.9508 46.4531 39.641 46.4531Z" fill="#F6CA46"/>
<path d="M30.3252 36.7918V30.4333H32.6597C33.1683 30.4333 33.5862 30.5211 33.9132 30.6967C34.2463 30.8663 34.4946 31.0994 34.6581 31.3961C34.8216 31.6868 34.9033 32.0108 34.9033 32.3681C34.9033 32.7557 34.8004 33.1099 34.5945 33.4309C34.3946 33.7518 34.0797 33.985 33.6498 34.1303L34.9669 36.7918H33.6316L32.4507 34.2847H31.4879V36.7918H30.3252ZM31.4879 33.4309H32.587C32.9746 33.4309 33.2592 33.337 33.4409 33.1493C33.6225 32.9616 33.7134 32.7133 33.7134 32.4044C33.7134 32.1016 33.6225 31.8594 33.4409 31.6777C33.2652 31.4961 32.9776 31.4052 32.5779 31.4052H31.4879V33.4309Z" fill="#380000"/>
<path d="M36.4389 36.7918V30.4333H37.6016L40.5901 34.9115V30.4333H41.7528V36.7918H40.5901L37.6016 32.3227V36.7918H36.4389Z" fill="#380000"/>
<path d="M46.2489 36.9008C45.6493 36.9008 45.1255 36.7646 44.6774 36.4921C44.2293 36.2195 43.8811 35.8411 43.6328 35.3566C43.3845 34.8661 43.2603 34.2968 43.2603 33.6489C43.2603 32.9949 43.3875 32.4196 43.6419 31.923C43.9023 31.4204 44.2686 31.0298 44.741 30.7512C45.2194 30.4666 45.7856 30.3243 46.4396 30.3243C47.1845 30.3243 47.8022 30.5029 48.2927 30.8602C48.7832 31.2175 49.1011 31.711 49.2465 32.3408H47.9475C47.8506 32.0441 47.675 31.814 47.4207 31.6505C47.1663 31.4809 46.8393 31.3961 46.4396 31.3961C45.8038 31.3961 45.3133 31.599 44.9681 32.0047C44.6229 32.4044 44.4503 32.9555 44.4503 33.658C44.4503 34.3604 44.6199 34.9055 44.959 35.293C45.3042 35.6745 45.7705 35.8653 46.3579 35.8653C46.9332 35.8653 47.3662 35.7109 47.6568 35.402C47.9536 35.0871 48.1322 34.6753 48.1928 34.1666H46.585V33.2946H49.3646V36.7918H48.2927L48.2018 35.9561C47.9959 36.2589 47.7386 36.4921 47.4297 36.6556C47.1209 36.8191 46.7273 36.9008 46.2489 36.9008Z" fill="#380000"/>
<path fill-rule="evenodd" clip-rule="evenodd" d="M29.9619 37.1562V30.0709H32.6598C33.2056 30.0709 33.6865 30.1645 34.0817 30.3757C34.4704 30.5743 34.774 30.8552 34.9756 31.2204C35.1714 31.5689 35.2668 31.9545 35.2668 32.3691C35.2668 32.8242 35.1449 33.246 34.9017 33.626C34.7179 33.9204 34.4613 34.1478 34.1457 34.314L35.5522 37.1562H33.4012L32.2203 34.6491H31.8513V37.1562H29.9619ZM31.4879 34.2847H32.4507L33.6316 36.7918H34.9669L33.6498 34.1303C33.7704 34.0895 33.882 34.0429 33.9845 33.9883C34.2474 33.8483 34.4507 33.6618 34.5945 33.4309C34.8004 33.1099 34.9033 32.7557 34.9033 32.3681C34.9033 32.0108 34.8216 31.6868 34.6581 31.3961C34.4946 31.0994 34.2463 30.8663 33.9132 30.6967C33.5862 30.5211 33.1683 30.4333 32.6597 30.4333H30.3252V36.7918H31.4879V34.2847ZM33.4409 31.6777C33.2652 31.4961 32.9776 31.4052 32.5779 31.4052H31.4879V33.4309H32.587C32.9746 33.4309 33.2592 33.337 33.4409 33.1493C33.6225 32.9616 33.7134 32.7133 33.7134 32.4044C33.7134 32.1016 33.6225 31.8594 33.4409 31.6777ZM31.8513 33.0685H32.5871C32.9237 33.0685 33.0938 32.9865 33.1798 32.8976C33.2842 32.7898 33.3501 32.6383 33.3501 32.4054C33.3501 32.1805 33.2855 32.0371 33.184 31.9356L33.1797 31.9313C33.1034 31.8524 32.9349 31.7696 32.578 31.7696H31.8513V33.0685ZM36.0756 37.1562V30.0709H37.796L40.2268 33.7135V30.0709H42.1162V37.1562H40.3961L37.965 33.5207V37.1562H36.0756ZM37.6016 32.3227L40.5901 36.7918H41.7528V30.4333H40.5901V34.9115L37.6016 30.4333H36.4389V36.7918H37.6016V32.3227ZM43.3087 35.5217C43.0304 34.972 42.8971 34.3447 42.8971 33.6499C42.8971 32.9482 43.0338 32.3143 43.3186 31.7583C43.6092 31.1974 44.0231 30.754 44.5559 30.4396C45.0995 30.1163 45.7321 29.9619 46.4397 29.9619C47.2437 29.9619 47.9411 30.1555 48.5067 30.5675C49.0728 30.9798 49.437 31.5511 49.6006 32.2601L49.7033 32.7052H47.684L47.6022 32.4546C47.5304 32.2346 47.4058 32.0738 47.2243 31.9571L47.2192 31.9538C47.0404 31.8346 46.7894 31.7605 46.4397 31.7605C45.8877 31.7605 45.5076 31.9324 45.2449 32.2412L45.2432 32.2432C44.9715 32.5578 44.8137 33.0145 44.8137 33.659C44.8137 34.304 44.9688 34.7519 45.2305 35.0525C45.4966 35.3453 45.8584 35.5029 46.358 35.5029C46.8701 35.5029 47.1921 35.3667 47.3923 35.154C47.5491 34.9876 47.6694 34.7823 47.7476 34.531H46.2217V32.9323H49.728V37.1562H47.9668L47.925 36.7715C47.8228 36.8482 47.7144 36.917 47.5998 36.9777C47.2229 37.1772 46.7658 37.2652 46.249 37.2652C45.5926 37.2652 45.0015 37.1153 44.4887 36.8035C43.981 36.4947 43.5864 36.0635 43.3087 35.5217ZM47.8778 36.3376C47.9972 36.2261 48.1052 36.0983 48.2018 35.9561L48.2927 36.7918H49.3646V33.2946H46.585V34.1666H48.1928C48.1776 34.2938 48.1552 34.4159 48.1253 34.531C48.0356 34.8762 47.8794 35.1658 47.6568 35.402C47.3662 35.7109 46.9332 35.8653 46.3579 35.8653C45.7705 35.8653 45.3042 35.6745 44.959 35.293C44.6199 34.9055 44.4503 34.3604 44.4503 33.658C44.4503 32.9555 44.6229 32.4044 44.9681 32.0047C45.3133 31.599 45.8038 31.3961 46.4396 31.3961C46.8393 31.3961 47.1663 31.4809 47.4207 31.6505C47.675 31.814 47.8506 32.0441 47.9475 32.3408H49.2465C49.2172 32.2142 49.1811 32.0941 49.138 31.9785C48.9664 31.5191 48.6846 31.1457 48.2927 30.8602C47.8022 30.5029 47.1845 30.3243 46.4396 30.3243C45.7856 30.3243 45.2194 30.4666 44.741 30.7512C44.2686 31.0298 43.9023 31.4204 43.6419 31.923C43.3875 32.4196 43.2603 32.9949 43.2603 33.6489C43.2603 34.2968 43.3845 34.8661 43.6328 35.3566C43.8811 35.8411 44.2293 36.2195 44.6774 36.4921C45.1255 36.7646 45.6493 36.9008 46.2489 36.9008C46.7273 36.9008 47.1209 36.8191 47.4297 36.6556C47.5935 36.5688 47.743 36.4635 47.8778 36.3376Z" fill="#380000"/>
<path d="M43.3219 22.7754L40.9249 21.1969C40.1209 20.6674 39.0787 20.6674 38.2747 21.1969L35.8777 22.7754C35.4439 23.061 34.9295 23.1989 34.4111 23.1684L31.546 22.9999C30.5849 22.9434 29.6824 23.4644 29.2508 24.325L27.9641 26.8905C27.7313 27.3547 27.3547 27.7313 26.8905 27.9641L24.325 29.2508C23.4644 29.6824 22.9434 30.5849 22.9999 31.546L23.1684 34.4111C23.1989 34.9295 23.061 35.4439 22.7754 35.8777L21.1969 38.2747C20.6674 39.0787 20.6674 40.1209 21.1969 40.9249L22.7754 43.3219C23.061 43.7557 23.1989 44.2701 23.1684 44.7885L22.9999 47.6536C22.9434 48.6147 23.4644 49.5172 24.325 49.9488L26.8905 51.2355C27.3547 51.4683 27.7313 51.8449 27.9641 52.3091L29.2508 54.8746C29.6824 55.7352 30.5849 56.2563 31.546 56.1997L34.4111 56.0312C34.9295 56.0007 35.4439 56.1386 35.8777 56.4242L38.2747 58.0027C39.0787 58.5322 40.1209 58.5322 40.9249 58.0027L43.3219 56.4242C43.7557 56.1386 44.2701 56.0007 44.7885 56.0312L47.6536 56.1997C48.6147 56.2563 49.5172 55.7352 49.9488 54.8746L51.2355 52.3091C51.4683 51.8449 51.8449 51.4683 52.3091 51.2355L54.8746 49.9488C55.7352 49.5172 56.2563 48.6147 56.1997 47.6536L56.0312 44.7885C56.0007 44.2701 56.1386 43.7557 56.4242 43.3219L58.0027 40.925C58.5322 40.1209 58.5322 39.0787 58.0027 38.2747L56.4242 35.8777C56.1386 35.4439 56.0007 34.9295 56.0312 34.4111L56.1997 31.546C56.2563 30.5849 55.7352 29.6824 54.8746 29.2508L52.3091 27.9641C51.8449 27.7313 51.4683 27.3547 51.2355 26.8905L49.9488 24.325C49.5172 23.4644 48.6147 22.9434 47.6536 22.9999L44.7885 23.1684C44.2701 23.1989 43.7557 23.061 43.3219 22.7754Z" stroke="#F6CA46" stroke-width="0.45809" stroke-linecap="round"/>
</svg>
