<svg width="80" height="80" viewBox="0 0 80 80" fill="none" xmlns="http://www.w3.org/2000/svg">
<path d="M57.8379 18.2529H10.8633C9.8633 18.2529 9.05859 18.9352 9.05859 19.7718V49.8513C9.05859 50.693 9.86922 51.3702 10.8633 51.3702H57.8438C58.8438 51.3702 59.6485 50.688 59.6485 49.8513V19.7768C59.6485 18.9352 58.8379 18.2579 57.8438 18.2579L57.8379 18.2529Z" fill="#763239"/>
<path d="M57.8383 18.253C58.8383 18.253 59.643 18.9352 59.643 19.7719V49.8514C59.643 50.693 58.8324 51.3703 57.8383 51.3703H10.8577C9.85778 51.3703 9.05308 50.688 9.05308 49.8514V19.7769C9.05308 18.9352 9.8637 18.2579 10.8577 18.2579H57.8383M57.8383 14.005H10.8577C7.07681 14 4 16.5896 4 19.7769V49.8563C4 53.0386 7.07681 55.6332 10.8577 55.6332H57.8383C61.6193 55.6332 64.702 53.0436 64.702 49.8563V19.7769C64.702 16.5946 61.6252 14 57.8383 14V14.005Z" fill="#F6CA46"/>
<rect x="7.93164" y="23.1758" width="53.7427" height="8.52019" fill="#F6CA46"/>
<path d="M73.9519 40.4643C73.8787 40.0254 73.513 39.806 73.0742 39.806C69.1247 39.8791 65.2483 38.2701 62.1765 35.4177C61.8108 35.1251 61.2988 35.1251 60.9331 35.4177C57.8612 38.2701 53.9849 39.8791 50.0354 39.806C49.5965 39.806 49.2308 40.0986 49.1577 40.4643C48.8651 41.8539 48.792 43.2435 48.792 44.7063C48.792 53.7756 54.1311 61.4552 61.3719 63.7225C61.5182 63.7956 61.7376 63.7956 61.8839 63.7225C69.1247 61.4552 74.4638 53.7756 74.4638 44.7063C74.3907 43.2435 74.2444 41.7808 73.9519 40.4643Z" fill="#763239"/>
<path fill-rule="evenodd" clip-rule="evenodd" d="M59.9734 34.2181C60.9 33.4768 62.2091 33.4768 63.1357 34.2181C63.1652 34.2416 63.1937 34.2663 63.2214 34.2919C66.0362 36.9058 69.538 38.3351 73.0455 38.2701C73.055 38.27 73.0645 38.2699 73.074 38.2699C73.538 38.2699 74.0676 38.3851 74.5357 38.7156C75.0168 39.0552 75.3455 39.5638 75.4579 40.1621C75.7722 41.5889 75.9229 43.1357 75.9976 44.6294C75.9989 44.655 75.9995 44.6805 75.9995 44.7061C75.9995 54.3045 70.361 62.6346 62.4201 65.1636C62.1398 65.2756 61.8619 65.3131 61.6277 65.3131C61.3935 65.3131 61.1155 65.2756 60.8353 65.1636C52.8944 62.6346 47.2559 54.3045 47.2559 44.7061C47.2559 43.1991 47.3302 41.6909 47.6533 40.1535C47.891 38.9893 48.9585 38.2699 50.0351 38.2699C50.0446 38.2699 50.0541 38.27 50.0636 38.2701C53.5712 38.3351 57.0729 36.9058 59.8878 34.2919C59.9154 34.2663 59.9439 34.2416 59.9734 34.2181ZM61.5546 36.9248C58.4345 39.6564 54.5675 41.2744 50.5552 41.3419C50.3795 42.4051 50.3277 43.5024 50.3277 44.7061C50.3277 53.1262 55.2269 60.0748 61.6277 62.1912C68.0189 60.078 72.9129 53.1472 72.9277 44.7441C72.8668 43.5481 72.7565 42.3911 72.5628 41.3421C68.5473 41.2768 64.6769 39.6584 61.5546 36.9248ZM50.6636 40.7653C50.663 40.7682 50.6624 40.771 50.6618 40.7739L50.6636 40.7653Z" fill="#F6CA46"/>
<path d="M57.0387 54.1249L54.1362 50.1925C53.5744 49.4435 53.7617 48.4136 54.5107 47.9454C55.2597 47.3837 56.2897 47.5709 56.7578 48.32L58.6304 50.8479C62.1883 47.9454 64.9971 45.792 66.9633 44.3876C67.2442 44.2003 67.4314 44.0131 67.6187 43.8258C68.3677 43.264 69.304 43.4513 69.8658 44.1067C70.4275 44.8557 70.3339 45.8856 69.5849 46.4474C69.3976 46.6347 69.1168 46.8219 68.8359 47.0092C66.6824 48.6008 63.4054 51.0352 59.2858 54.4994C58.6304 54.9676 57.6005 54.874 57.0387 54.1249Z" fill="#F6CA46"/>
<rect x="13.1758" y="39.5605" width="12.4526" height="9.17558" rx="2" fill="#F6CA46"/>
</svg>
