<svg width="80" height="80" viewBox="0 0 80 80" fill="none" xmlns="http://www.w3.org/2000/svg">
<path d="M39.7523 71.5047C57.2887 71.5047 71.5047 57.2887 71.5047 39.7523C71.5047 22.216 57.2887 8 39.7523 8C22.216 8 8 22.216 8 39.7523C8 57.2887 22.216 71.5047 39.7523 71.5047Z" fill="#380000"/>
<path d="M23.9062 40.0533V28.7554L32.4 26.8004L39.6761 22.165L48 26.4004L57.0936 28.7554V40.0533L51.9155 52.0572L46.4 56.8004L40.1469 59.8245L33.6 56.0004L28.1429 51.1157L23.9062 40.0533Z" fill="#F6CA46"/>
<path d="M56.9578 28.8061C56.8669 28.3488 56.4476 28.0389 55.9815 28.0482C50.5399 28.1567 45.2434 26.0578 41.0519 22.1345C40.6635 21.7709 40.0541 21.7709 39.6657 22.1345C35.4742 26.0578 30.1776 28.1567 24.7361 28.0482C24.2699 28.0389 23.8507 28.3488 23.7597 28.8061C23.3866 30.6809 23.1988 32.5977 23.2002 34.5211C23.2002 46.4719 30.3599 56.5331 40.0926 59.5095C40.2659 59.5625 40.4516 59.5625 40.625 59.5095C50.3577 56.5331 57.5174 46.474 57.5174 34.5211C57.5174 32.5567 57.3236 30.6449 56.9578 28.8061Z" stroke="#F6CA46" stroke-width="2.27671" stroke-linecap="round" stroke-linejoin="round"/>
<rect x="39.4043" y="52.394" width="2.56648" height="3.84973" fill="#F6CA46"/>
<path d="M40.4218 47.9282C39.1221 47.9282 38.0624 48.9965 38.0624 50.3059V51.355H38.0196C37.3985 51.355 36.8984 51.8586 36.8984 52.4842V56.1952C36.8984 56.8208 37.3985 57.3246 38.0196 57.3246H42.8243C43.4454 57.3246 43.9455 56.8208 43.9455 56.1952V52.4842C43.9455 51.8586 43.4455 51.355 42.8243 51.355H42.7821V50.3059C42.7821 48.9965 41.7216 47.9282 40.4218 47.9282ZM40.4218 48.7979C41.2588 48.7979 41.9188 49.4628 41.9188 50.306V51.3551H38.9247V50.306C38.9247 49.463 39.5848 48.7979 40.4218 48.7979ZM40.4218 52.7944C40.8605 52.7945 41.216 53.1528 41.216 53.5948C41.2158 53.922 41.0179 54.2162 40.7163 54.3375V55.5153C40.7163 55.6798 40.585 55.812 40.4218 55.812C40.2586 55.812 40.1272 55.6798 40.1272 55.5153V54.3371C39.8256 54.2157 39.6277 53.9218 39.6274 53.5948C39.6274 53.3825 39.7111 53.1789 39.86 53.0288C40.009 52.8787 40.2111 52.7944 40.4218 52.7944Z" fill="#380000"/>
<path d="M34.5966 35.2445C34.1547 35.2445 33.7645 35.1699 33.426 35.0207C33.0874 34.8658 32.8206 34.6477 32.6255 34.3666C32.4304 34.0796 32.33 33.7325 32.3242 33.325H33.4862C33.4977 33.6062 33.5981 33.8444 33.7875 34.0395C33.9826 34.2288 34.2494 34.3235 34.588 34.3235C34.8806 34.3235 35.113 34.2547 35.2852 34.1169C35.4573 33.9735 35.5434 33.7841 35.5434 33.5488C35.5434 33.3021 35.466 33.1099 35.311 32.9721C35.1618 32.8344 34.961 32.7225 34.7085 32.6365C34.456 32.5504 34.1863 32.4586 33.8994 32.361C33.4346 32.2003 33.0788 31.9938 32.8321 31.7413C32.5911 31.4888 32.4705 31.1531 32.4705 30.7342C32.4648 30.3784 32.548 30.0743 32.7202 29.8218C32.8981 29.5636 33.1391 29.3656 33.4432 29.2279C33.7473 29.0844 34.0974 29.0127 34.4933 29.0127C34.895 29.0127 35.2479 29.0844 35.552 29.2279C35.8619 29.3713 36.1029 29.5722 36.2751 29.8304C36.4529 30.0886 36.5476 30.3956 36.5591 30.7514H35.3799C35.3741 30.5391 35.2909 30.3526 35.1303 30.1919C34.9753 30.0255 34.7573 29.9423 34.4761 29.9423C34.2351 29.9366 34.0314 29.9968 33.865 30.1231C33.7043 30.2436 33.624 30.4215 33.624 30.6567C33.624 30.8576 33.6871 31.0182 33.8133 31.1387C33.9396 31.2535 34.1117 31.3511 34.3298 31.4314C34.5478 31.5117 34.7974 31.5978 35.0786 31.6896C35.377 31.7929 35.6496 31.9134 35.8963 32.0511C36.1431 32.1889 36.341 32.3725 36.4902 32.602C36.6394 32.8258 36.714 33.1156 36.714 33.4714C36.714 33.787 36.6337 34.0796 36.473 34.3493C36.3124 34.619 36.0742 34.8371 35.7586 35.0035C35.443 35.1642 35.0557 35.2445 34.5966 35.2445Z" fill="#380000"/>
<path d="M40.5072 35.2445C40.0653 35.2445 39.6751 35.1699 39.3366 35.0207C38.998 34.8658 38.7312 34.6477 38.5361 34.3666C38.341 34.0796 38.2405 33.7325 38.2348 33.325H39.3968C39.4083 33.6062 39.5087 33.8444 39.6981 34.0395C39.8932 34.2288 40.16 34.3235 40.4986 34.3235C40.7912 34.3235 41.0236 34.2547 41.1958 34.1169C41.3679 33.9735 41.454 33.7841 41.454 33.5488C41.454 33.3021 41.3765 33.1099 41.2216 32.9721C41.0724 32.8344 40.8716 32.7225 40.6191 32.6365C40.3666 32.5504 40.0969 32.4586 39.81 32.361C39.3452 32.2003 38.9894 31.9938 38.7427 31.7413C38.5016 31.4888 38.3811 31.1531 38.3811 30.7342C38.3754 30.3784 38.4586 30.0743 38.6308 29.8218C38.8086 29.5636 39.0497 29.3656 39.3538 29.2279C39.6579 29.0844 40.008 29.0127 40.4039 29.0127C40.8056 29.0127 41.1585 29.0844 41.4626 29.2279C41.7725 29.3713 42.0135 29.5722 42.1856 29.8304C42.3635 30.0886 42.4582 30.3956 42.4697 30.7514H41.2905C41.2847 30.5391 41.2015 30.3526 41.0409 30.1919C40.8859 30.0255 40.6679 29.9423 40.3867 29.9423C40.1457 29.9366 39.942 29.9968 39.7756 30.1231C39.6149 30.2436 39.5345 30.4215 39.5345 30.6567C39.5345 30.8576 39.5977 31.0182 39.7239 31.1387C39.8501 31.2535 40.0223 31.3511 40.2404 31.4314C40.4584 31.5117 40.708 31.5978 40.9892 31.6896C41.2876 31.7929 41.5602 31.9134 41.8069 32.0511C42.0537 32.1889 42.2516 32.3725 42.4008 32.602C42.55 32.8258 42.6246 33.1156 42.6246 33.4714C42.6246 33.787 42.5443 34.0796 42.3836 34.3493C42.2229 34.619 41.9848 34.8371 41.6692 35.0035C41.3536 35.1642 40.9663 35.2445 40.5072 35.2445Z" fill="#380000"/>
<path d="M44.3606 35.1412V29.116H45.4623V34.2805H48.1307V35.1412H44.3606Z" fill="#380000"/>
<path fill-rule="evenodd" clip-rule="evenodd" d="M33.3375 35.2144C32.9674 35.045 32.6694 34.8033 32.4507 34.488L32.4495 34.4863C32.2271 34.1593 32.1177 33.7698 32.1114 33.3281L32.1084 33.1122H33.6907L33.6991 33.3164C33.7085 33.5461 33.7881 33.7332 33.9381 33.8889C34.0842 34.0294 34.2921 34.1106 34.5881 34.1106C34.8471 34.1106 35.0271 34.0502 35.1506 33.952C35.2704 33.8515 35.3306 33.7238 35.3306 33.5489C35.3306 33.3503 35.2705 33.2209 35.1697 33.1313L35.1667 33.1286C35.045 33.0163 34.8727 32.9174 34.6399 32.838C34.3875 32.7519 34.1178 32.6602 33.831 32.5626L33.8299 32.5623C33.3454 32.3948 32.957 32.1737 32.6799 31.8901L32.6782 31.8883C32.3923 31.5889 32.2581 31.1972 32.2577 30.7359C32.2517 30.3443 32.3439 29.996 32.5444 29.7019L32.5449 29.701C32.7459 29.4093 33.0176 29.1872 33.354 29.0346C33.6908 28.8761 34.0722 28.7998 34.4934 28.7998C34.9202 28.7998 35.3049 28.876 35.6423 29.035C35.9832 29.193 36.2556 29.4177 36.4514 29.711C36.6549 30.0069 36.7594 30.3543 36.772 30.7446L36.7791 30.9643H35.1728L35.1672 30.7572C35.163 30.6034 35.1049 30.4676 34.9798 30.3425L34.9771 30.3398L34.9745 30.337C34.8691 30.2238 34.7133 30.1552 34.4762 30.1552H34.4711C34.2705 30.1505 34.116 30.2 33.9938 30.2927L33.9928 30.2934C33.8954 30.3665 33.837 30.4755 33.837 30.6568C33.837 30.8078 33.8821 30.909 33.9587 30.983C34.0587 31.0733 34.2038 31.1581 34.4035 31.2316C34.6185 31.3109 34.8655 31.3961 35.1448 31.4873L35.1484 31.4884C35.4572 31.5953 35.7414 31.7208 36.0002 31.8652C36.2758 32.0191 36.4996 32.226 36.6682 32.485C36.8467 32.7532 36.9271 33.0874 36.9271 33.4714C36.9271 33.8252 36.8365 34.1555 36.6561 34.4583C36.4727 34.7661 36.2034 35.0097 35.858 35.1919L35.8553 35.1933C35.5023 35.373 35.0797 35.4575 34.5967 35.4575C34.1309 35.4575 33.7106 35.3788 33.3402 35.2156L33.3375 35.2144ZM36.4904 32.602C36.3412 32.3725 36.1432 32.1889 35.8964 32.0512C35.6497 31.9134 35.3771 31.7929 35.0787 31.6897C34.7976 31.5978 34.5479 31.5118 34.3299 31.4314C34.1118 31.3511 33.9397 31.2535 33.8134 31.1388C33.6872 31.0183 33.6241 30.8576 33.6241 30.6568C33.6241 30.4215 33.7044 30.2436 33.8651 30.1231C34.0315 29.9968 34.2352 29.9366 34.4762 29.9423C34.7574 29.9423 34.9754 30.0255 35.1304 30.1919C35.291 30.3526 35.3743 30.5391 35.38 30.7514H36.5592C36.5569 30.6784 36.551 30.6074 36.5416 30.5385C36.5054 30.2717 36.4165 30.0357 36.2752 29.8304C36.103 29.5722 35.862 29.3714 35.5521 29.2279C35.248 29.0844 34.8951 29.0127 34.4934 29.0127C34.0975 29.0127 33.7474 29.0844 33.4433 29.2279C33.1392 29.3656 32.8982 29.5636 32.7203 29.8218C32.5481 30.0743 32.4649 30.3784 32.4707 30.7342C32.4707 31.1531 32.5912 31.4888 32.8322 31.7413C33.0789 31.9938 33.4347 32.2004 33.8995 32.361C34.1864 32.4586 34.4561 32.5504 34.7086 32.6365C34.9611 32.7226 35.1619 32.8344 35.3111 32.9722C35.4661 33.1099 35.5435 33.3021 35.5435 33.5489C35.5435 33.7841 35.4575 33.9735 35.2853 34.117C35.1132 34.2547 34.8808 34.3235 34.5881 34.3235C34.2495 34.3235 33.9827 34.2289 33.7876 34.0395C33.5982 33.8444 33.4978 33.6063 33.4863 33.3251H32.3244C32.3254 33.398 32.3294 33.4689 32.3365 33.538C32.369 33.8548 32.4654 34.131 32.6256 34.3666C32.8207 34.6478 33.0875 34.8658 33.4261 35.0208C33.7647 35.1699 34.1549 35.2445 34.5967 35.2445C35.0558 35.2445 35.4431 35.1642 35.7587 35.0035C36.0743 34.8371 36.3125 34.6191 36.4731 34.3494C36.6338 34.0797 36.7142 33.787 36.7142 33.4714C36.7142 33.1156 36.6396 32.8258 36.4904 32.602ZM39.2481 35.2144C38.8779 35.045 38.58 34.8033 38.3613 34.488L38.3601 34.4863C38.1377 34.1593 38.0283 33.7698 38.022 33.3281L38.019 33.1122H39.6013L39.6097 33.3164C39.6191 33.5461 39.6987 33.7332 39.8487 33.8889C39.9948 34.0294 40.2027 34.1106 40.4987 34.1106C40.7577 34.1106 40.9377 34.0502 41.0612 33.952C41.181 33.8515 41.2412 33.7238 41.2412 33.5489C41.2412 33.3503 41.1811 33.2209 41.0803 33.1313L41.0773 33.1286C40.9556 33.0163 40.7833 32.9174 40.5505 32.838C40.2981 32.7519 40.0284 32.6602 39.7416 32.5626L39.7405 32.5623C39.256 32.3948 38.8676 32.1737 38.5905 31.8901L38.5887 31.8883C38.3029 31.5889 38.1687 31.1972 38.1683 30.736C38.1623 30.3444 38.2544 29.996 38.455 29.7019L38.4555 29.701C38.6565 29.4093 38.9282 29.1872 39.2646 29.0346C39.6014 28.8761 39.9828 28.7998 40.404 28.7998C40.8308 28.7998 41.2155 28.876 41.5529 29.035C41.8938 29.193 42.1662 29.4178 42.362 29.711C42.5655 30.0069 42.67 30.3543 42.6826 30.7446L42.6897 30.9643H41.0833L41.0777 30.7572C41.0736 30.6034 41.0155 30.4676 40.8904 30.3425L40.8877 30.3398L40.8851 30.337C40.7797 30.2238 40.6239 30.1552 40.3868 30.1552H40.3817C40.1811 30.1505 40.0266 30.2 39.9043 30.2927L39.9034 30.2934C39.806 30.3665 39.7476 30.4755 39.7476 30.6568C39.7476 30.8078 39.7926 30.909 39.8692 30.983C39.9693 31.0733 40.1143 31.1581 40.3141 31.2316C40.5291 31.3109 40.7761 31.3961 41.0554 31.4873L41.059 31.4884C41.3678 31.5953 41.652 31.7208 41.9108 31.8652C42.1864 32.0191 42.4102 32.226 42.5788 32.485C42.7573 32.7532 42.8377 33.0874 42.8377 33.4714C42.8377 33.8252 42.7471 34.1555 42.5667 34.4583C42.3833 34.7661 42.114 35.0097 41.7686 35.1919L41.7659 35.1933C41.4129 35.373 40.9903 35.4575 40.5073 35.4575C40.0415 35.4575 39.6212 35.3788 39.2508 35.2156L39.2481 35.2144ZM42.401 32.602C42.2518 32.3725 42.0538 32.1889 41.807 32.0512C41.5603 31.9134 41.2877 31.7929 40.9893 31.6897C40.7081 31.5978 40.4585 31.5118 40.2405 31.4314C40.0224 31.3511 39.8503 31.2535 39.724 31.1388C39.5978 31.0183 39.5347 30.8576 39.5347 30.6568C39.5347 30.4215 39.615 30.2436 39.7757 30.1231C39.9421 29.9968 40.1458 29.9366 40.3868 29.9423C40.668 29.9423 40.886 30.0255 41.041 30.1919C41.2016 30.3526 41.2848 30.5391 41.2906 30.7514H42.4698C42.4675 30.6784 42.4616 30.6074 42.4522 30.5385C42.416 30.2717 42.3271 30.0357 42.1858 29.8304C42.0136 29.5722 41.7726 29.3714 41.4627 29.2279C41.1586 29.0844 40.8057 29.0127 40.404 29.0127C40.0081 29.0127 39.658 29.0844 39.3539 29.2279C39.0498 29.3656 38.8088 29.5636 38.6309 29.8218C38.4587 30.0743 38.3755 30.3784 38.3813 30.7342C38.3813 31.1531 38.5018 31.4888 38.7428 31.7413C38.9895 31.9938 39.3453 32.2004 39.8101 32.361C40.097 32.4586 40.3667 32.5504 40.6192 32.6365C40.8717 32.7226 41.0725 32.8344 41.2217 32.9722C41.3767 33.1099 41.4541 33.3021 41.4541 33.5489C41.4541 33.7841 41.3681 33.9735 41.1959 34.117C41.0238 34.2547 40.7914 34.3235 40.4987 34.3235C40.1601 34.3235 39.8933 34.2289 39.6982 34.0395C39.5088 33.8444 39.4084 33.6063 39.3969 33.3251H38.235C38.236 33.398 38.24 33.4689 38.2471 33.538C38.2796 33.8548 38.376 34.131 38.5362 34.3666C38.7313 34.6478 38.9981 34.8658 39.3367 35.0208C39.6752 35.1699 40.0655 35.2445 40.5073 35.2445C40.9664 35.2445 41.3537 35.1642 41.6693 35.0035C41.9849 34.8371 42.2231 34.6191 42.3837 34.3494C42.5444 34.0797 42.6247 33.787 42.6247 33.4714C42.6247 33.1156 42.5501 32.8258 42.401 32.602ZM44.1478 35.3542V28.9031H45.6754V34.0676H48.3437V35.3542H44.1478ZM45.4625 34.2805V29.116H44.3607V35.1413H48.1308V34.2805H45.4625Z" fill="#380000"/>
<path d="M30.4918 41.2326C30.2059 41.2326 29.9535 41.1843 29.7344 41.0877C29.5153 40.9875 29.3427 40.8464 29.2164 40.6645C29.0902 40.4788 29.0252 40.2542 29.0215 39.9905H29.7734C29.7808 40.1725 29.8458 40.3266 29.9683 40.4528C30.0946 40.5753 30.2672 40.6366 30.4863 40.6366C30.6756 40.6366 30.826 40.5921 30.9374 40.5029C31.0488 40.4101 31.1045 40.2876 31.1045 40.1354C31.1045 39.9757 31.0544 39.8513 30.9541 39.7622C30.8576 39.6731 30.7276 39.6007 30.5643 39.545C30.4009 39.4893 30.2264 39.4299 30.0407 39.3668C29.74 39.2628 29.5097 39.1291 29.3501 38.9657C29.1941 38.8024 29.1162 38.5852 29.1162 38.3141C29.1125 38.0839 29.1663 37.8871 29.2777 37.7237C29.3928 37.5566 29.5487 37.4285 29.7455 37.3394C29.9423 37.2466 30.1688 37.2002 30.425 37.2002C30.6849 37.2002 30.9133 37.2466 31.1101 37.3394C31.3106 37.4323 31.4665 37.5622 31.5779 37.7293C31.693 37.8964 31.7543 38.095 31.7617 38.3252H30.9987C30.995 38.1879 30.9411 38.0672 30.8372 37.9632C30.7369 37.8555 30.5958 37.8017 30.4139 37.8017C30.2579 37.798 30.1261 37.837 30.0184 37.9187C29.9145 37.9966 29.8625 38.1117 29.8625 38.264C29.8625 38.3939 29.9033 38.4979 29.985 38.5759C30.0667 38.6501 30.1781 38.7133 30.3192 38.7652C30.4603 38.8172 30.6218 38.8729 30.8037 38.9323C30.9968 38.9992 31.1732 39.0771 31.3328 39.1662C31.4925 39.2554 31.6206 39.3742 31.7171 39.5227C31.8137 39.6675 31.862 39.855 31.862 40.0852C31.862 40.2894 31.81 40.4788 31.706 40.6533C31.602 40.8278 31.448 40.9689 31.2437 41.0766C31.0395 41.1806 30.7889 41.2326 30.4918 41.2326Z" fill="#380000"/>
<path d="M32.9852 41.1657V37.267H35.5305V37.8407H33.6981V38.91H35.3634V39.467H33.6981V40.5921H35.5305V41.1657H32.9852Z" fill="#380000"/>
<path d="M38.4719 41.2326C38.0783 41.2326 37.7405 41.149 37.4583 40.9819C37.1761 40.8111 36.9589 40.5753 36.8066 40.2746C36.6544 39.9701 36.5783 39.6192 36.5783 39.2219C36.5783 38.8246 36.6544 38.4738 36.8066 38.1693C36.9589 37.8648 37.1761 37.6272 37.4583 37.4564C37.7405 37.2856 38.0783 37.2002 38.4719 37.2002C38.9398 37.2002 39.3222 37.3172 39.6193 37.5511C39.92 37.7813 40.1075 38.1062 40.1818 38.5257H39.3965C39.3482 38.3141 39.2442 38.1489 39.0846 38.0301C38.9286 37.9075 38.7207 37.8463 38.4608 37.8463C38.1006 37.8463 37.8184 37.9688 37.6142 38.2139C37.41 38.4589 37.3079 38.7949 37.3079 39.2219C37.3079 39.6489 37.41 39.985 37.6142 40.23C37.8184 40.4714 38.1006 40.5921 38.4608 40.5921C38.7207 40.5921 38.9286 40.5364 39.0846 40.425C39.2442 40.3099 39.3482 40.1521 39.3965 39.9516H40.1818C40.1075 40.3526 39.92 40.6663 39.6193 40.8928C39.3222 41.1193 38.9398 41.2326 38.4719 41.2326Z" fill="#380000"/>
<path d="M42.8179 41.2326C42.532 41.2326 42.2739 41.1769 42.0437 41.0655C41.8135 40.9504 41.6297 40.7777 41.4923 40.5475C41.3587 40.3173 41.2918 40.0258 41.2918 39.6731V37.267H42.0047V39.6786C42.0047 39.9831 42.0771 40.2096 42.2219 40.3581C42.3705 40.5067 42.5747 40.5809 42.8346 40.5809C43.0908 40.5809 43.2931 40.5067 43.4417 40.3581C43.5902 40.2096 43.6645 39.9831 43.6645 39.6786V37.267H44.3774V39.6731C44.3774 40.0258 44.3068 40.3173 44.1657 40.5475C44.0246 40.7777 43.8353 40.9504 43.5976 41.0655C43.3637 41.1769 43.1038 41.2326 42.8179 41.2326Z" fill="#380000"/>
<path d="M45.6064 41.1657V37.267H47.0377C47.3496 37.267 47.6058 37.3209 47.8063 37.4285C48.0105 37.5325 48.1628 37.6755 48.263 37.8574C48.3633 38.0356 48.4134 38.2343 48.4134 38.4533C48.4134 38.691 48.3503 38.9082 48.224 39.105C48.1015 39.3018 47.9084 39.4447 47.6448 39.5338L48.4524 41.1657H47.6337L46.9096 39.6285H46.3193V41.1657H45.6064ZM46.3193 39.105H46.9932C47.2308 39.105 47.4053 39.0474 47.5167 38.9323C47.6281 38.8172 47.6838 38.665 47.6838 38.4756C47.6838 38.29 47.6281 38.1415 47.5167 38.0301C47.409 37.9187 47.2327 37.863 46.9876 37.863H46.3193V39.105Z" fill="#380000"/>
<path d="M49.5777 41.1657V37.267H52.123V37.8407H50.2906V38.91H51.9559V39.467H50.2906V40.5921H52.123V41.1657H49.5777Z" fill="#380000"/>
<path fill-rule="evenodd" clip-rule="evenodd" d="M29.691 41.1847L29.6897 41.1841C29.4548 41.0766 29.2666 40.9237 29.1285 40.7247L29.128 40.7238C28.9881 40.5181 28.9186 40.2723 28.9146 39.9916L28.9131 39.8836H29.8751L29.8793 39.9857C29.8857 40.1419 29.9403 40.2705 30.0432 40.377C30.1449 40.4751 30.288 40.5297 30.4858 40.5297C30.6584 40.5297 30.7826 40.4893 30.8696 40.42C30.9549 40.3486 30.9976 40.2569 30.9976 40.1349C30.9976 39.9993 30.9561 39.9063 30.883 39.8413L30.8815 39.84C30.7987 39.7635 30.683 39.6976 30.5295 39.6453C30.3661 39.5896 30.1916 39.5302 30.006 39.4671L30.0055 39.4669C29.6949 39.3595 29.4484 39.2186 29.2735 39.0397L29.2726 39.0388C29.0943 38.8519 29.0094 38.6067 29.0093 38.3145C29.0054 38.0664 29.0637 37.8475 29.1893 37.6633C29.316 37.4794 29.4875 37.3389 29.7004 37.2423C29.9135 37.1419 30.1558 37.0933 30.4246 37.0933C30.697 37.0933 30.9413 37.1419 31.1547 37.2425C31.3708 37.3426 31.5424 37.4845 31.6656 37.6691C31.7935 37.855 31.8597 38.0739 31.8677 38.3213L31.8712 38.4312H30.8946L30.8918 38.3276C30.8889 38.2195 30.8476 38.1242 30.7615 38.038L30.7588 38.0353C30.6832 37.9542 30.5733 37.9077 30.4134 37.9077H30.4109C30.2752 37.9045 30.1679 37.9381 30.0823 38.003L30.0819 38.0034C30.0095 38.0576 29.9685 38.1383 29.9685 38.2635C29.9685 38.3686 30.0003 38.4428 30.0572 38.4975C30.1257 38.5595 30.2236 38.6163 30.3556 38.6649C30.4951 38.7163 30.6554 38.7715 30.8364 38.8307L30.8381 38.8312C31.0364 38.8999 31.2186 38.9803 31.3843 39.0728C31.5584 39.17 31.6994 39.3004 31.8056 39.4637C31.9168 39.6307 31.968 39.8404 31.968 40.0847C31.968 40.308 31.9109 40.5162 31.797 40.7073C31.6817 40.9009 31.5121 41.0548 31.293 41.1703L31.2916 41.171C31.0687 41.2845 30.8004 41.3385 30.4914 41.3385C30.1936 41.3385 29.926 41.2882 29.691 41.1847ZM29.9846 38.5754C29.9029 38.4974 29.8621 38.3935 29.8621 38.2635C29.8621 38.1113 29.914 37.9962 30.018 37.9182C30.1257 37.8365 30.2575 37.7975 30.4134 37.8012C30.5954 37.8012 30.7365 37.8551 30.8367 37.9627C30.9407 38.0667 30.9945 38.1874 30.9982 38.3248H31.7613C31.7601 38.2885 31.7576 38.253 31.7538 38.2183C31.7332 38.0328 31.6744 37.8696 31.5775 37.7288C31.4661 37.5617 31.3101 37.4318 31.1096 37.339C30.9128 37.2461 30.6845 37.1997 30.4246 37.1997C30.1684 37.1997 29.9419 37.2461 29.7451 37.339C29.5483 37.4281 29.3924 37.5562 29.2773 37.7233C29.1659 37.8866 29.112 38.0834 29.1157 38.3136C29.1157 38.5847 29.1937 38.8019 29.3497 38.9653C29.5093 39.1286 29.7395 39.2623 30.0403 39.3663C30.2259 39.4294 30.4004 39.4888 30.5638 39.5445C30.7272 39.6002 30.8572 39.6726 30.9537 39.7617C31.0539 39.8508 31.1041 39.9752 31.1041 40.1349C31.1041 40.2871 31.0484 40.4096 30.937 40.5025C30.8256 40.5916 30.6752 40.6361 30.4858 40.6361C30.2668 40.6361 30.0941 40.5749 29.9679 40.4523C29.8453 40.3261 29.7804 40.172 29.7729 39.9901H29.0211C29.0216 40.0263 29.0232 40.0618 29.0261 40.0965C29.0438 40.3147 29.1071 40.5038 29.216 40.664C29.3422 40.8459 29.5149 40.987 29.734 41.0873C29.953 41.1838 30.2055 41.2321 30.4914 41.2321C30.7885 41.2321 31.0391 41.1801 31.2433 41.0761C31.4475 40.9685 31.6016 40.8274 31.7056 40.6528C31.8095 40.4783 31.8615 40.289 31.8615 40.0847C31.8615 39.8545 31.8133 39.667 31.7167 39.5222C31.6202 39.3737 31.4921 39.2549 31.3324 39.1658C31.1728 39.0767 30.9964 38.9987 30.8033 38.9319C30.6214 38.8724 30.4599 38.8167 30.3188 38.7648C30.1777 38.7128 30.0663 38.6497 29.9846 38.5754ZM32.8783 41.2717V37.1601H35.6365V37.9467H33.8042V38.8031H35.4694V39.573H33.8042V40.4851H35.6365V41.2717H32.8783ZM33.6977 40.5916V39.4665H35.363V38.9096H33.6977V37.8402H35.5301V37.2666H32.9848V41.1652H35.5301V40.5916H33.6977ZM37.4036 41.0731L37.4027 41.0725C37.1031 40.8912 36.8722 40.6403 36.7112 40.3222C36.5505 40.0007 36.4714 39.6325 36.4714 39.2215C36.4714 38.8104 36.5502 38.4427 36.711 38.1212C36.8719 37.7994 37.1028 37.5464 37.4027 37.3648C37.7045 37.1822 38.0623 37.0933 38.4715 37.0933C38.9572 37.0933 39.3643 37.2149 39.6842 37.4665C40.0084 37.715 40.208 38.0647 40.2862 38.5067L40.3083 38.6317H39.3111L39.2923 38.5489C39.2491 38.3596 39.158 38.2173 39.0206 38.115L39.0184 38.1133C38.8863 38.0095 38.7039 37.9522 38.4604 37.9522C38.1272 37.9522 37.8768 38.0641 37.6956 38.2815C37.512 38.5018 37.4139 38.8109 37.4139 39.2215C37.4139 39.6318 37.5119 39.9408 37.6953 40.1611C37.8763 40.3748 38.1268 40.4851 38.4604 40.4851C38.7058 40.4851 38.8897 40.4325 39.0221 40.338C39.16 40.2385 39.2499 40.1031 39.2925 39.9262L39.3122 39.8446H40.3093L40.286 39.9705C40.2074 40.3952 40.0069 40.7333 39.6831 40.9772C39.3633 41.2209 38.9565 41.3385 38.4715 41.3385C38.0627 41.3385 37.7052 41.2516 37.4036 41.0731ZM37.4578 40.9814C37.1757 40.8106 36.9584 40.5749 36.8062 40.2741C36.654 39.9696 36.5779 39.6188 36.5779 39.2215C36.5779 38.8242 36.654 38.4733 36.8062 38.1688C36.9584 37.8644 37.1757 37.6267 37.4578 37.4559C37.74 37.2851 38.0779 37.1997 38.4715 37.1997C38.9393 37.1997 39.3218 37.3167 39.6188 37.5506C39.8936 37.761 40.0739 38.0504 40.1596 38.4188C40.1677 38.4536 40.1749 38.4891 40.1814 38.5253H39.396C39.3478 38.3136 39.2438 38.1484 39.0842 38.0296C38.9282 37.9071 38.7203 37.8458 38.4604 37.8458C38.1002 37.8458 37.818 37.9683 37.6138 38.2134C37.4096 38.4584 37.3075 38.7945 37.3075 39.2215C37.3075 39.6485 37.4096 39.9845 37.6138 40.2296C37.818 40.4709 38.1107 40.7303 38.4709 40.7303C38.7308 40.7303 39.0715 40.6584 39.2275 40.547C39.3871 40.4319 39.3478 40.1516 39.396 39.9511H40.1814C40.1747 39.9873 40.167 40.0228 40.1585 40.0575M41.9969 41.1608L41.9957 41.1602C41.7465 41.0356 41.5478 40.8485 41.4005 40.6016L41.3998 40.6005C41.2541 40.3496 41.1849 40.0382 41.1849 39.6726V37.1601H42.1108V39.6782C42.1108 39.9674 42.1796 40.1618 42.2973 40.2829C42.4213 40.4066 42.5957 40.474 42.8342 40.474C43.0687 40.474 43.2416 40.4067 43.366 40.2824C43.487 40.1613 43.5576 39.9671 43.5576 39.6782V37.1601H44.4834V39.6726C44.4834 40.0391 44.4101 40.3513 44.256 40.6027C44.1046 40.8498 43.9 41.0366 43.6436 41.1608L43.643 41.1611C43.3933 41.28 43.1175 41.3385 42.8174 41.3385C42.5174 41.3385 42.2432 41.28 41.9969 41.1608ZM42.2215 40.3577C42.0767 40.2091 42.0043 39.9826 42.0043 39.6782V37.2666H41.2914V39.6726C41.2914 40.0253 41.3582 40.3168 41.4919 40.547C41.6293 40.7772 41.8131 40.9499 42.0433 41.065C42.2735 41.1764 42.5315 41.2321 42.8174 41.2321C43.1034 41.2321 43.3633 41.1764 43.5972 41.065C43.8348 40.9499 44.0242 40.7772 44.1653 40.547C44.3064 40.3168 44.3769 40.0253 44.3769 39.6726V37.2666H43.664V39.6782C43.664 39.9826 43.5898 40.2091 43.4412 40.3577C43.2927 40.5062 43.0904 40.5804 42.8342 40.5804C42.5742 40.5804 42.37 40.5062 42.2215 40.3577ZM45.4995 41.2717V37.1601H47.0373C47.3601 37.1601 47.6347 37.2156 47.8552 37.3337C48.0757 37.4462 48.2441 37.6031 48.3556 37.8051C48.4653 38.0003 48.5194 38.217 48.5194 38.4529C48.5194 38.7103 48.4508 38.9473 48.3136 39.1613C48.1947 39.3521 48.0185 39.4944 47.7917 39.5911L48.6234 41.2717H47.5657L46.8417 39.7345H46.4253V41.2717H45.4995ZM46.3188 39.628H46.9092L47.6332 41.1652H48.452L47.6444 39.5334C47.6789 39.5217 47.7123 39.5091 47.7444 39.4955C47.9574 39.4058 48.1172 39.2755 48.2236 39.1045C48.3499 38.9077 48.413 38.6905 48.413 38.4529C48.413 38.2338 48.3629 38.0352 48.2626 37.8569C48.1624 37.675 48.0101 37.532 47.8059 37.4281C47.6054 37.3204 47.3492 37.2666 47.0373 37.2666H45.6059V41.1652H46.3188V39.628ZM47.441 38.1049L47.4397 38.1036C47.3612 38.0223 47.2197 37.969 46.9872 37.969H46.4253V38.998H46.9927C47.2155 38.998 47.3564 38.944 47.4398 38.8578C47.5285 38.7661 47.5769 38.6423 47.5769 38.4751C47.5769 38.3123 47.5289 38.1928 47.441 38.1049ZM46.3188 39.1045V37.8625H46.9872C47.2322 37.8625 47.4086 37.9182 47.5163 38.0296C47.6277 38.141 47.6834 38.2895 47.6834 38.4751C47.6834 38.6645 47.6277 38.8167 47.5163 38.9319C47.4049 39.047 47.2304 39.1045 46.9927 39.1045H46.3188ZM49.4708 41.2717V37.1601H52.229V37.9467H50.3966V38.8031H52.0619V39.573H50.3966V40.4851H52.229V41.2717H49.4708ZM50.2902 40.5916V39.4665H51.9555V38.9096H50.2902V37.8402H52.1226V37.2666H49.5773V41.1652H52.1226V40.5916H50.2902Z" fill="#380000"/>
<mask id="path-10-outside-1_4258_13565" maskUnits="userSpaceOnUse" x="27.9131" y="41.9971" width="25" height="4" fill="black">
<rect fill="white" x="27.9131" y="41.9971" width="25" height="4"/>
<path d="M29.9816 45.2927C29.7618 45.2927 29.5716 45.2452 29.4109 45.1501C29.2524 45.0528 29.1298 44.9186 29.0431 44.7474C28.9564 44.574 28.9131 44.3743 28.9131 44.1481C28.9131 43.9198 28.9564 43.72 29.0431 43.5488C29.1298 43.3755 29.2524 43.2402 29.4109 43.1429C29.5716 43.0457 29.7618 42.9971 29.9816 42.9971C30.2417 42.9971 30.4541 43.0605 30.619 43.1873C30.7839 43.3142 30.8885 43.4917 30.9329 43.72H30.5587C30.5291 43.5911 30.4657 43.4885 30.3685 43.4124C30.2712 43.3363 30.1412 43.2983 29.9785 43.2983C29.7565 43.2983 29.5811 43.3744 29.4521 43.5266C29.3232 43.6767 29.2587 43.8838 29.2587 44.1481C29.2587 44.4102 29.3232 44.6163 29.4521 44.7664C29.5811 44.9165 29.7565 44.9915 29.9785 44.9915C30.1412 44.9915 30.2712 44.9556 30.3685 44.8837C30.4657 44.8118 30.5291 44.7135 30.5587 44.5888H30.9329C30.8885 44.8087 30.7839 44.9809 30.619 45.1057C30.4541 45.2304 30.2417 45.2927 29.9816 45.2927Z"/>
<path d="M32.6119 45.2927C32.392 45.2927 32.1997 45.2441 32.0348 45.1469C31.8699 45.0496 31.741 44.9154 31.648 44.7442C31.5549 44.5708 31.5084 44.3711 31.5084 44.1449C31.5084 43.9187 31.5549 43.72 31.648 43.5488C31.741 43.3755 31.8699 43.2402 32.0348 43.1429C32.1997 43.0457 32.392 42.9971 32.6119 42.9971C32.8317 42.9971 33.0241 43.0457 33.189 43.1429C33.3539 43.2402 33.4817 43.3755 33.5726 43.5488C33.6657 43.72 33.7122 43.9187 33.7122 44.1449C33.7122 44.3711 33.6657 44.5708 33.5726 44.7442C33.4817 44.9154 33.3539 45.0496 33.189 45.1469C33.0241 45.2441 32.8317 45.2927 32.6119 45.2927ZM32.6119 44.9915C32.7641 44.9915 32.8962 44.9577 33.0082 44.89C33.1224 44.8224 33.2112 44.7252 33.2746 44.5983C33.338 44.4715 33.3697 44.3204 33.3697 44.1449C33.3697 43.9695 33.338 43.8183 33.2746 43.6915C33.2112 43.5646 33.1224 43.4674 33.0082 43.3998C32.8962 43.3321 32.7641 43.2983 32.6119 43.2983C32.4597 43.2983 32.3265 43.3321 32.2124 43.3998C32.0982 43.4674 32.0094 43.5646 31.946 43.6915C31.8847 43.8183 31.8541 43.9695 31.8541 44.1449C31.8541 44.3204 31.8847 44.4715 31.946 44.5983C32.0094 44.7252 32.0982 44.8224 32.2124 44.89C32.3265 44.9577 32.4597 44.9915 32.6119 44.9915Z"/>
<path d="M34.372 45.2547V43.0351H34.7081L35.821 44.7061V43.0351H36.1571V45.2547H35.821L34.7081 43.5837V45.2547H34.372Z"/>
<path d="M36.893 45.2547V43.0351H37.2291L38.3421 44.7061V43.0351H38.6782V45.2547H38.3421L37.2291 43.5837V45.2547H36.893Z"/>
<path d="M39.414 45.2547V43.0351H40.8251V43.3078H39.7501V43.999H40.7299V44.2654H39.7501V44.982H40.8251V45.2547H39.414Z"/>
<path d="M42.5002 45.2927C42.2803 45.2927 42.0901 45.2452 41.9294 45.1501C41.7709 45.0528 41.6483 44.9186 41.5616 44.7474C41.4749 44.574 41.4316 44.3743 41.4316 44.1481C41.4316 43.9198 41.4749 43.72 41.5616 43.5488C41.6483 43.3755 41.7709 43.2402 41.9294 43.1429C42.0901 43.0457 42.2803 42.9971 42.5002 42.9971C42.7602 42.9971 42.9726 43.0605 43.1375 43.1873C43.3024 43.3142 43.407 43.4917 43.4514 43.72H43.0772C43.0477 43.5911 42.9842 43.4885 42.887 43.4124C42.7898 43.3363 42.6598 43.2983 42.497 43.2983C42.275 43.2983 42.0996 43.3744 41.9706 43.5266C41.8417 43.6767 41.7772 43.8838 41.7772 44.1481C41.7772 44.4102 41.8417 44.6163 41.9706 44.7664C42.0996 44.9165 42.275 44.9915 42.497 44.9915C42.6598 44.9915 42.7898 44.9556 42.887 44.8837C42.9842 44.8118 43.0477 44.7135 43.0772 44.5888H43.4514C43.407 44.8087 43.3024 44.9809 43.1375 45.1057C42.9726 45.2304 42.7602 45.2927 42.5002 45.2927Z"/>
<path d="M44.586 45.2547V43.3078H43.9296V43.0351H45.5753V43.3078H44.9221V45.2547H44.586Z"/>
<path d="M46.1752 45.2547V43.0351H46.5113V45.2547H46.1752Z"/>
<path d="M48.2712 45.2927C48.0514 45.2927 47.859 45.2441 47.6941 45.1469C47.5293 45.0496 47.4003 44.9154 47.3073 44.7442C47.2143 44.5708 47.1678 44.3711 47.1678 44.1449C47.1678 43.9187 47.2143 43.72 47.3073 43.5488C47.4003 43.3755 47.5293 43.2402 47.6941 43.1429C47.859 43.0457 48.0514 42.9971 48.2712 42.9971C48.4911 42.9971 48.6834 43.0457 48.8483 43.1429C49.0132 43.2402 49.1411 43.3755 49.232 43.5488C49.325 43.72 49.3715 43.9187 49.3715 44.1449C49.3715 44.3711 49.325 44.5708 49.232 44.7442C49.1411 44.9154 49.0132 45.0496 48.8483 45.1469C48.6834 45.2441 48.4911 45.2927 48.2712 45.2927ZM48.2712 44.9915C48.4234 44.9915 48.5555 44.9577 48.6676 44.89C48.7817 44.8224 48.8705 44.7252 48.9339 44.5983C48.9973 44.4715 49.0291 44.3204 49.0291 44.1449C49.0291 43.9695 48.9973 43.8183 48.9339 43.6915C48.8705 43.5646 48.7817 43.4674 48.6676 43.3998C48.5555 43.3321 48.4234 43.2983 48.2712 43.2983C48.119 43.2983 47.9859 43.3321 47.8717 43.3998C47.7576 43.4674 47.6688 43.5646 47.6054 43.6915C47.5441 43.8183 47.5134 43.9695 47.5134 44.1449C47.5134 44.3204 47.5441 44.4715 47.6054 44.5983C47.6688 44.7252 47.7576 44.8224 47.8717 44.89C47.9859 44.9577 48.119 44.9915 48.2712 44.9915Z"/>
<path d="M50.0313 45.2547V43.0351H50.3674L51.4804 44.7061V43.0351H51.8165V45.2547H51.4804L50.3674 43.5837V45.2547H50.0313Z"/>
</mask>
<path d="M29.9816 45.2927C29.7618 45.2927 29.5716 45.2452 29.4109 45.1501C29.2524 45.0528 29.1298 44.9186 29.0431 44.7474C28.9564 44.574 28.9131 44.3743 28.9131 44.1481C28.9131 43.9198 28.9564 43.72 29.0431 43.5488C29.1298 43.3755 29.2524 43.2402 29.4109 43.1429C29.5716 43.0457 29.7618 42.9971 29.9816 42.9971C30.2417 42.9971 30.4541 43.0605 30.619 43.1873C30.7839 43.3142 30.8885 43.4917 30.9329 43.72H30.5587C30.5291 43.5911 30.4657 43.4885 30.3685 43.4124C30.2712 43.3363 30.1412 43.2983 29.9785 43.2983C29.7565 43.2983 29.5811 43.3744 29.4521 43.5266C29.3232 43.6767 29.2587 43.8838 29.2587 44.1481C29.2587 44.4102 29.3232 44.6163 29.4521 44.7664C29.5811 44.9165 29.7565 44.9915 29.9785 44.9915C30.1412 44.9915 30.2712 44.9556 30.3685 44.8837C30.4657 44.8118 30.5291 44.7135 30.5587 44.5888H30.9329C30.8885 44.8087 30.7839 44.9809 30.619 45.1057C30.4541 45.2304 30.2417 45.2927 29.9816 45.2927Z" fill="#380000"/>
<path d="M32.6119 45.2927C32.392 45.2927 32.1997 45.2441 32.0348 45.1469C31.8699 45.0496 31.741 44.9154 31.648 44.7442C31.5549 44.5708 31.5084 44.3711 31.5084 44.1449C31.5084 43.9187 31.5549 43.72 31.648 43.5488C31.741 43.3755 31.8699 43.2402 32.0348 43.1429C32.1997 43.0457 32.392 42.9971 32.6119 42.9971C32.8317 42.9971 33.0241 43.0457 33.189 43.1429C33.3539 43.2402 33.4817 43.3755 33.5726 43.5488C33.6657 43.72 33.7122 43.9187 33.7122 44.1449C33.7122 44.3711 33.6657 44.5708 33.5726 44.7442C33.4817 44.9154 33.3539 45.0496 33.189 45.1469C33.0241 45.2441 32.8317 45.2927 32.6119 45.2927ZM32.6119 44.9915C32.7641 44.9915 32.8962 44.9577 33.0082 44.89C33.1224 44.8224 33.2112 44.7252 33.2746 44.5983C33.338 44.4715 33.3697 44.3204 33.3697 44.1449C33.3697 43.9695 33.338 43.8183 33.2746 43.6915C33.2112 43.5646 33.1224 43.4674 33.0082 43.3998C32.8962 43.3321 32.7641 43.2983 32.6119 43.2983C32.4597 43.2983 32.3265 43.3321 32.2124 43.3998C32.0982 43.4674 32.0094 43.5646 31.946 43.6915C31.8847 43.8183 31.8541 43.9695 31.8541 44.1449C31.8541 44.3204 31.8847 44.4715 31.946 44.5983C32.0094 44.7252 32.0982 44.8224 32.2124 44.89C32.3265 44.9577 32.4597 44.9915 32.6119 44.9915Z" fill="#380000"/>
<path d="M34.372 45.2547V43.0351H34.7081L35.821 44.7061V43.0351H36.1571V45.2547H35.821L34.7081 43.5837V45.2547H34.372Z" fill="#380000"/>
<path d="M36.893 45.2547V43.0351H37.2291L38.3421 44.7061V43.0351H38.6782V45.2547H38.3421L37.2291 43.5837V45.2547H36.893Z" fill="#380000"/>
<path d="M39.414 45.2547V43.0351H40.8251V43.3078H39.7501V43.999H40.7299V44.2654H39.7501V44.982H40.8251V45.2547H39.414Z" fill="#380000"/>
<path d="M42.5002 45.2927C42.2803 45.2927 42.0901 45.2452 41.9294 45.1501C41.7709 45.0528 41.6483 44.9186 41.5616 44.7474C41.4749 44.574 41.4316 44.3743 41.4316 44.1481C41.4316 43.9198 41.4749 43.72 41.5616 43.5488C41.6483 43.3755 41.7709 43.2402 41.9294 43.1429C42.0901 43.0457 42.2803 42.9971 42.5002 42.9971C42.7602 42.9971 42.9726 43.0605 43.1375 43.1873C43.3024 43.3142 43.407 43.4917 43.4514 43.72H43.0772C43.0477 43.5911 42.9842 43.4885 42.887 43.4124C42.7898 43.3363 42.6598 43.2983 42.497 43.2983C42.275 43.2983 42.0996 43.3744 41.9706 43.5266C41.8417 43.6767 41.7772 43.8838 41.7772 44.1481C41.7772 44.4102 41.8417 44.6163 41.9706 44.7664C42.0996 44.9165 42.275 44.9915 42.497 44.9915C42.6598 44.9915 42.7898 44.9556 42.887 44.8837C42.9842 44.8118 43.0477 44.7135 43.0772 44.5888H43.4514C43.407 44.8087 43.3024 44.9809 43.1375 45.1057C42.9726 45.2304 42.7602 45.2927 42.5002 45.2927Z" fill="#380000"/>
<path d="M44.586 45.2547V43.3078H43.9296V43.0351H45.5753V43.3078H44.9221V45.2547H44.586Z" fill="#380000"/>
<path d="M46.1752 45.2547V43.0351H46.5113V45.2547H46.1752Z" fill="#380000"/>
<path d="M48.2712 45.2927C48.0514 45.2927 47.859 45.2441 47.6941 45.1469C47.5293 45.0496 47.4003 44.9154 47.3073 44.7442C47.2143 44.5708 47.1678 44.3711 47.1678 44.1449C47.1678 43.9187 47.2143 43.72 47.3073 43.5488C47.4003 43.3755 47.5293 43.2402 47.6941 43.1429C47.859 43.0457 48.0514 42.9971 48.2712 42.9971C48.4911 42.9971 48.6834 43.0457 48.8483 43.1429C49.0132 43.2402 49.1411 43.3755 49.232 43.5488C49.325 43.72 49.3715 43.9187 49.3715 44.1449C49.3715 44.3711 49.325 44.5708 49.232 44.7442C49.1411 44.9154 49.0132 45.0496 48.8483 45.1469C48.6834 45.2441 48.4911 45.2927 48.2712 45.2927ZM48.2712 44.9915C48.4234 44.9915 48.5555 44.9577 48.6676 44.89C48.7817 44.8224 48.8705 44.7252 48.9339 44.5983C48.9973 44.4715 49.0291 44.3204 49.0291 44.1449C49.0291 43.9695 48.9973 43.8183 48.9339 43.6915C48.8705 43.5646 48.7817 43.4674 48.6676 43.3998C48.5555 43.3321 48.4234 43.2983 48.2712 43.2983C48.119 43.2983 47.9859 43.3321 47.8717 43.3998C47.7576 43.4674 47.6688 43.5646 47.6054 43.6915C47.5441 43.8183 47.5134 43.9695 47.5134 44.1449C47.5134 44.3204 47.5441 44.4715 47.6054 44.5983C47.6688 44.7252 47.7576 44.8224 47.8717 44.89C47.9859 44.9577 48.119 44.9915 48.2712 44.9915Z" fill="#380000"/>
<path d="M50.0313 45.2547V43.0351H50.3674L51.4804 44.7061V43.0351H51.8165V45.2547H51.4804L50.3674 43.5837V45.2547H50.0313Z" fill="#380000"/>
<path d="M29.9816 45.2927C29.7618 45.2927 29.5716 45.2452 29.4109 45.1501C29.2524 45.0528 29.1298 44.9186 29.0431 44.7474C28.9564 44.574 28.9131 44.3743 28.9131 44.1481C28.9131 43.9198 28.9564 43.72 29.0431 43.5488C29.1298 43.3755 29.2524 43.2402 29.4109 43.1429C29.5716 43.0457 29.7618 42.9971 29.9816 42.9971C30.2417 42.9971 30.4541 43.0605 30.619 43.1873C30.7839 43.3142 30.8885 43.4917 30.9329 43.72H30.5587C30.5291 43.5911 30.4657 43.4885 30.3685 43.4124C30.2712 43.3363 30.1412 43.2983 29.9785 43.2983C29.7565 43.2983 29.5811 43.3744 29.4521 43.5266C29.3232 43.6767 29.2587 43.8838 29.2587 44.1481C29.2587 44.4102 29.3232 44.6163 29.4521 44.7664C29.5811 44.9165 29.7565 44.9915 29.9785 44.9915C30.1412 44.9915 30.2712 44.9556 30.3685 44.8837C30.4657 44.8118 30.5291 44.7135 30.5587 44.5888H30.9329C30.8885 44.8087 30.7839 44.9809 30.619 45.1057C30.4541 45.2304 30.2417 45.2927 29.9816 45.2927Z" stroke="#380000" stroke-width="0.226137" mask="url(#path-10-outside-1_4258_13565)"/>
<path d="M32.6119 45.2927C32.392 45.2927 32.1997 45.2441 32.0348 45.1469C31.8699 45.0496 31.741 44.9154 31.648 44.7442C31.5549 44.5708 31.5084 44.3711 31.5084 44.1449C31.5084 43.9187 31.5549 43.72 31.648 43.5488C31.741 43.3755 31.8699 43.2402 32.0348 43.1429C32.1997 43.0457 32.392 42.9971 32.6119 42.9971C32.8317 42.9971 33.0241 43.0457 33.189 43.1429C33.3539 43.2402 33.4817 43.3755 33.5726 43.5488C33.6657 43.72 33.7122 43.9187 33.7122 44.1449C33.7122 44.3711 33.6657 44.5708 33.5726 44.7442C33.4817 44.9154 33.3539 45.0496 33.189 45.1469C33.0241 45.2441 32.8317 45.2927 32.6119 45.2927ZM32.6119 44.9915C32.7641 44.9915 32.8962 44.9577 33.0082 44.89C33.1224 44.8224 33.2112 44.7252 33.2746 44.5983C33.338 44.4715 33.3697 44.3204 33.3697 44.1449C33.3697 43.9695 33.338 43.8183 33.2746 43.6915C33.2112 43.5646 33.1224 43.4674 33.0082 43.3998C32.8962 43.3321 32.7641 43.2983 32.6119 43.2983C32.4597 43.2983 32.3265 43.3321 32.2124 43.3998C32.0982 43.4674 32.0094 43.5646 31.946 43.6915C31.8847 43.8183 31.8541 43.9695 31.8541 44.1449C31.8541 44.3204 31.8847 44.4715 31.946 44.5983C32.0094 44.7252 32.0982 44.8224 32.2124 44.89C32.3265 44.9577 32.4597 44.9915 32.6119 44.9915Z" stroke="#380000" stroke-width="0.226137" mask="url(#path-10-outside-1_4258_13565)"/>
<path d="M34.372 45.2547V43.0351H34.7081L35.821 44.7061V43.0351H36.1571V45.2547H35.821L34.7081 43.5837V45.2547H34.372Z" stroke="#380000" stroke-width="0.226137" mask="url(#path-10-outside-1_4258_13565)"/>
<path d="M36.893 45.2547V43.0351H37.2291L38.3421 44.7061V43.0351H38.6782V45.2547H38.3421L37.2291 43.5837V45.2547H36.893Z" stroke="#380000" stroke-width="0.226137" mask="url(#path-10-outside-1_4258_13565)"/>
<path d="M39.414 45.2547V43.0351H40.8251V43.3078H39.7501V43.999H40.7299V44.2654H39.7501V44.982H40.8251V45.2547H39.414Z" stroke="#380000" stroke-width="0.226137" mask="url(#path-10-outside-1_4258_13565)"/>
<path d="M42.5002 45.2927C42.2803 45.2927 42.0901 45.2452 41.9294 45.1501C41.7709 45.0528 41.6483 44.9186 41.5616 44.7474C41.4749 44.574 41.4316 44.3743 41.4316 44.1481C41.4316 43.9198 41.4749 43.72 41.5616 43.5488C41.6483 43.3755 41.7709 43.2402 41.9294 43.1429C42.0901 43.0457 42.2803 42.9971 42.5002 42.9971C42.7602 42.9971 42.9726 43.0605 43.1375 43.1873C43.3024 43.3142 43.407 43.4917 43.4514 43.72H43.0772C43.0477 43.5911 42.9842 43.4885 42.887 43.4124C42.7898 43.3363 42.6598 43.2983 42.497 43.2983C42.275 43.2983 42.0996 43.3744 41.9706 43.5266C41.8417 43.6767 41.7772 43.8838 41.7772 44.1481C41.7772 44.4102 41.8417 44.6163 41.9706 44.7664C42.0996 44.9165 42.275 44.9915 42.497 44.9915C42.6598 44.9915 42.7898 44.9556 42.887 44.8837C42.9842 44.8118 43.0477 44.7135 43.0772 44.5888H43.4514C43.407 44.8087 43.3024 44.9809 43.1375 45.1057C42.9726 45.2304 42.7602 45.2927 42.5002 45.2927Z" stroke="#380000" stroke-width="0.226137" mask="url(#path-10-outside-1_4258_13565)"/>
<path d="M44.586 45.2547V43.3078H43.9296V43.0351H45.5753V43.3078H44.9221V45.2547H44.586Z" stroke="#380000" stroke-width="0.226137" mask="url(#path-10-outside-1_4258_13565)"/>
<path d="M46.1752 45.2547V43.0351H46.5113V45.2547H46.1752Z" stroke="#380000" stroke-width="0.226137" mask="url(#path-10-outside-1_4258_13565)"/>
<path d="M48.2712 45.2927C48.0514 45.2927 47.859 45.2441 47.6941 45.1469C47.5293 45.0496 47.4003 44.9154 47.3073 44.7442C47.2143 44.5708 47.1678 44.3711 47.1678 44.1449C47.1678 43.9187 47.2143 43.72 47.3073 43.5488C47.4003 43.3755 47.5293 43.2402 47.6941 43.1429C47.859 43.0457 48.0514 42.9971 48.2712 42.9971C48.4911 42.9971 48.6834 43.0457 48.8483 43.1429C49.0132 43.2402 49.1411 43.3755 49.232 43.5488C49.325 43.72 49.3715 43.9187 49.3715 44.1449C49.3715 44.3711 49.325 44.5708 49.232 44.7442C49.1411 44.9154 49.0132 45.0496 48.8483 45.1469C48.6834 45.2441 48.4911 45.2927 48.2712 45.2927ZM48.2712 44.9915C48.4234 44.9915 48.5555 44.9577 48.6676 44.89C48.7817 44.8224 48.8705 44.7252 48.9339 44.5983C48.9973 44.4715 49.0291 44.3204 49.0291 44.1449C49.0291 43.9695 48.9973 43.8183 48.9339 43.6915C48.8705 43.5646 48.7817 43.4674 48.6676 43.3998C48.5555 43.3321 48.4234 43.2983 48.2712 43.2983C48.119 43.2983 47.9859 43.3321 47.8717 43.3998C47.7576 43.4674 47.6688 43.5646 47.6054 43.6915C47.5441 43.8183 47.5134 43.9695 47.5134 44.1449C47.5134 44.3204 47.5441 44.4715 47.6054 44.5983C47.6688 44.7252 47.7576 44.8224 47.8717 44.89C47.9859 44.9577 48.119 44.9915 48.2712 44.9915Z" stroke="#380000" stroke-width="0.226137" mask="url(#path-10-outside-1_4258_13565)"/>
<path d="M50.0313 45.2547V43.0351H50.3674L51.4804 44.7061V43.0351H51.8165V45.2547H51.4804L50.3674 43.5837V45.2547H50.0313Z" stroke="#380000" stroke-width="0.226137" mask="url(#path-10-outside-1_4258_13565)"/>
</svg>
