<svg width="32" height="32" viewBox="0 0 32 32" fill="none" xmlns="http://www.w3.org/2000/svg">
<circle cx="16" cy="16" r="16" fill="white" fill-opacity="0.04"/>
<circle cx="16" cy="16" r="15.5" stroke="#EDEDED" stroke-opacity="0.08"/>
<path d="M23.766 13.3848C23.2228 13.6259 22.6389 13.7887 22.0261 13.862C22.6516 13.487 23.132 12.8931 23.3581 12.1854C22.7727 12.5328 22.1244 12.7849 21.4343 12.9208C20.8818 12.3318 20.0944 11.9639 19.2231 11.9639C17.5501 11.9639 16.1936 13.3206 16.1936 14.9942C16.1936 15.2317 16.2204 15.463 16.2721 15.6848C13.7543 15.5584 11.5222 14.3519 10.028 12.5185C9.76722 12.9661 9.61779 13.4866 9.61779 14.042C9.61779 15.0934 10.1526 16.0209 10.9655 16.5643C10.4689 16.5486 10.0018 16.4123 9.59335 16.1853C9.593 16.1979 9.593 16.2106 9.593 16.2234C9.593 17.6916 10.6373 18.9164 12.0231 19.1949C11.7689 19.2642 11.5013 19.3012 11.225 19.3012C11.0298 19.3012 10.8401 19.2822 10.6551 19.2469C11.0406 20.4508 12.1593 21.3269 13.485 21.3513C12.4482 22.1641 11.142 22.6486 9.72265 22.6486C9.47812 22.6486 9.237 22.6342 9 22.6062C10.3407 23.4661 11.9331 23.9678 13.6438 23.9678C19.216 23.9678 22.2632 19.3502 22.2632 15.3455C22.2632 15.2141 22.2603 15.0835 22.2544 14.9534C22.8463 14.5262 23.3598 13.9926 23.766 13.3848H23.766Z" fill="white"/>
</svg>
