<svg width="50" height="50" viewBox="0 0 50 50" fill="none" xmlns="http://www.w3.org/2000/svg">
<circle cx="25" cy="25" r="24.5" fill="#380000" stroke="#981C1F"/>
<path fill-rule="evenodd" clip-rule="evenodd" d="M14.1389 16.9951C15.1551 16.9253 15.9626 16.0964 15.9985 15.0712C16.3117 14.9604 16.6488 14.9 17 14.9H33C33.3511 14.9 33.6881 14.9603 34.0012 15.0711C34.0371 16.0965 34.8447 16.9255 35.8611 16.9951C35.9513 17.2807 36 17.5847 36 17.9V26.2C36 26.4781 35.9622 26.7473 35.8914 27.0029C34.8373 27.0592 33.9999 27.9318 33.9999 28.9999C33.9999 29.0097 34 29.0195 34.0001 29.0293C33.6873 29.1398 33.3507 29.2 33 29.2H17C16.6492 29.2 16.3125 29.1398 15.9996 29.0292C15.9997 29.0194 15.9998 29.0097 15.9998 28.9999C15.9998 27.9319 15.1626 27.0594 14.1086 27.0029C14.0378 26.7474 14 26.4781 14 26.2V17.9C14 17.5847 14.0487 17.2806 14.1389 16.9951Z" fill="white"/>
<path d="M24.0067 29.1724L24.0415 34.3358L22.3168 32.6385C21.992 32.3189 21.4696 32.3231 21.1501 32.6479C20.8305 32.9726 20.8347 33.495 21.1594 33.8145L24.3017 36.9068C24.6265 37.2264 25.1488 37.2222 25.4684 36.8974C25.4765 36.8892 25.4844 36.8809 25.492 36.8724L28.5603 33.7545C28.8798 33.4298 28.8756 32.9074 28.5509 32.5879C28.2261 32.2683 27.7038 32.2725 27.3842 32.5972L25.6914 34.3174L25.6566 29.1613C25.6535 28.7057 25.2817 28.3388 24.8261 28.3419C24.3704 28.345 24.0036 28.7168 24.0067 29.1724Z" fill="white"/>
<path d="M25.8248 37.2481L25.8248 37.2481C25.835 37.2377 25.845 37.2272 25.8548 37.2167L28.9166 34.1053C29.4299 33.5837 29.4232 32.7448 28.9016 32.2315C28.38 31.7182 27.5411 31.7249 27.0278 32.2465L26.1832 33.1048L26.1566 29.1579C26.1517 28.4262 25.5545 27.837 24.8227 27.8419C24.0909 27.8468 23.5017 28.444 23.5067 29.1758L23.5334 33.1342L22.6675 32.2821C22.1459 31.7688 21.307 31.7756 20.7937 32.2972L21.1501 32.6479L20.7937 32.2972C20.2804 32.8187 20.2871 33.6577 20.8087 34.1709L23.951 37.2632C24.4726 37.7765 25.3115 37.7697 25.8248 37.2481Z" stroke="#380000" stroke-linecap="round"/>
<path d="M22.36 18.175C21.9817 18.175 21.675 18.4817 21.675 18.86C21.675 19.2383 21.9817 19.545 22.36 19.545H24.0433C24.3442 19.545 24.6336 19.6994 24.8227 19.9557H22.36C21.9817 19.9557 21.675 20.2623 21.675 20.6407C21.675 21.019 21.9817 21.3257 22.36 21.3257H24.8227C24.6336 21.5819 24.3442 21.7363 24.0433 21.7363H22.36C22.0751 21.7363 21.8199 21.9127 21.7192 22.1792C21.6185 22.4457 21.6933 22.7467 21.907 22.9351L25.2735 25.9029C25.5573 26.1531 25.9902 26.1258 26.2404 25.842C26.4905 25.5582 26.4633 25.1254 26.1795 24.8752L24.1691 23.1029C25.2149 23.0469 26.0474 22.2968 26.318 21.3257H26.8487C27.227 21.3257 27.5337 21.019 27.5337 20.6407C27.5337 20.2623 27.227 19.9557 26.8487 19.9557H26.318C26.2784 19.8135 26.2268 19.6762 26.1642 19.545H26.8487C27.227 19.545 27.5337 19.2383 27.5337 18.86C27.5337 18.4817 27.227 18.175 26.8487 18.175H22.36Z" fill="#380000" stroke="#380000" stroke-width="0.05" stroke-linecap="round"/>
</svg>
