<svg width="32" height="32" viewBox="0 0 32 32" fill="none" xmlns="http://www.w3.org/2000/svg">
<circle cx="16" cy="16" r="16" fill="white" fill-opacity="0.04"/>
<circle cx="16" cy="16" r="15.5" stroke="#EDEDED" stroke-opacity="0.08"/>
<path d="M24.0001 20.125C23.8334 21 23.1251 21.6667 22.2501 21.7917C20.8751 22 18.5834 22.25 16.0001 22.25C13.4584 22.25 11.1667 22 9.75008 21.7917C8.87508 21.6667 8.16675 21 8.00008 20.125C7.83341 19.1667 7.66675 17.75 7.66675 16C7.66675 14.25 7.83341 12.8333 8.00008 11.875C8.16675 11 8.87508 10.3333 9.75008 10.2083C11.1251 10 13.4167 9.75 16.0001 9.75C18.5834 9.75 20.8334 10 22.2501 10.2083C23.1251 10.3333 23.8334 11 24.0001 11.875C24.1667 12.8333 24.3751 14.25 24.3751 16C24.3334 17.75 24.1667 19.1667 24.0001 20.125Z" fill="white"/>
<path d="M14.3333 18.9163V13.083L19.3333 15.9997L14.3333 18.9163Z" fill="black"/>
</svg>
